<svg width="575" height="180" viewBox="0 0 575 180" fill="none" xmlns="http://www.w3.org/2000/svg">
<g filter="url(#filter0_d_4508_691)">
<path d="M29.6406 32.4191C29.6406 27.2315 29.6406 24.6377 30.6502 22.6564C31.5382 20.9135 32.9552 19.4965 34.6981 18.6085C36.6795 17.5989 39.2732 17.5989 44.4608 17.5989H529.82C535.008 17.5989 537.602 17.5989 539.583 18.6085C541.326 19.4965 542.743 20.9135 543.631 22.6564C544.641 24.6377 544.641 27.2315 544.641 32.4191V123.202C544.641 128.389 544.641 130.983 543.631 132.964C542.743 134.707 541.326 136.124 539.583 137.012C537.602 138.022 535.008 138.022 529.82 138.022H44.4608C39.2732 138.022 36.6795 138.022 34.6981 137.012C32.9552 136.124 31.5382 134.707 30.6502 132.964C29.6406 130.983 29.6406 128.389 29.6406 123.202V32.4191Z" fill="white" fill-opacity="0.1" shape-rendering="crispEdges"/>
<path d="M51.8841 51.7391L56.0207 42.5969H57.3823L61.519 51.7391H59.8332L58.731 49.1715L59.4312 49.6254H53.9589L54.6591 49.1715L53.5699 51.7391H51.8841ZM56.6821 44.3994L54.8666 48.7176L54.5295 48.3027H58.8606L58.5365 48.7176L56.708 44.3994H56.6821ZM64.5682 51.8688C63.8161 51.8688 63.2585 51.6656 62.8954 51.2593C62.541 50.8443 62.3637 50.2392 62.3637 49.4438V42.5969H63.9847V49.366C63.9847 49.6167 64.0193 49.8329 64.0884 50.0144C64.1662 50.1873 64.2786 50.317 64.4256 50.4034C64.5725 50.4899 64.7541 50.5331 64.9702 50.5331C65.0653 50.5331 65.1604 50.5288 65.2555 50.5201C65.3506 50.5115 65.4414 50.4942 65.5278 50.4683L65.5019 51.7521C65.3463 51.7867 65.1907 51.8126 65.0351 51.8299C64.8881 51.8558 64.7325 51.8688 64.5682 51.8688ZM69.2449 51.8688C68.3977 51.8688 67.7666 51.657 67.3516 51.2334C66.9366 50.8098 66.7292 50.1916 66.7292 49.379V46.6169H65.5102V45.3979H66.7292V43.5047H68.3501V45.3979H70.2693V46.6169H68.3501V49.2882C68.3501 49.7032 68.4409 50.0144 68.6224 50.2219C68.804 50.4294 69.0979 50.5331 69.5042 50.5331C69.6253 50.5331 69.7506 50.5201 69.8803 50.4942C70.01 50.4596 70.144 50.4251 70.2823 50.3905L70.5287 51.5835C70.3731 51.6699 70.1742 51.7391 69.9322 51.791C69.6987 51.8428 69.4696 51.8688 69.2449 51.8688ZM79.3638 51.8688C78.3523 51.8688 77.4964 51.6786 76.7962 51.2982C76.1046 50.9178 75.5772 50.3775 75.2141 49.6773C74.851 48.977 74.6695 48.1471 74.6695 47.1875C74.6695 46.2192 74.8554 45.385 75.2271 44.6847C75.5988 43.9758 76.1348 43.4312 76.8351 43.0508C77.5353 42.6618 78.3739 42.4673 79.3508 42.4673C79.7831 42.4673 80.1937 42.5105 80.5827 42.5969C80.9804 42.6747 81.3478 42.7914 81.685 42.9471C82.0221 43.1027 82.3118 43.2929 82.5538 43.5176L81.9962 44.8144C81.5899 44.4945 81.1749 44.2654 80.7513 44.1271C80.3277 43.9888 79.8609 43.9196 79.3508 43.9196C78.3826 43.9196 77.6477 44.2006 77.1463 44.7625C76.6535 45.3245 76.4072 46.1328 76.4072 47.1875C76.4072 48.2508 76.6622 49.0591 77.1722 49.6124C77.6823 50.1657 78.4388 50.4423 79.4416 50.4423C79.7874 50.4423 80.1375 50.4078 80.492 50.3386C80.8464 50.2694 81.1922 50.1743 81.5294 50.0533L81.2052 50.7925V48.0304H79.1044V46.7984H82.5927V51.1945C82.3161 51.3328 81.9962 51.4538 81.6331 51.5576C81.2787 51.6527 80.9069 51.7261 80.5179 51.778C80.1289 51.8385 79.7442 51.8688 79.3638 51.8688ZM84.3606 51.7391V45.3979H85.9426V46.9281H85.8129C85.934 46.4094 86.1717 46.0161 86.5262 45.7481C86.8806 45.4714 87.3518 45.3115 87.9396 45.2683L88.4324 45.2294L88.5361 46.6039L87.6025 46.6947C87.0751 46.7466 86.6775 46.9108 86.4095 47.1875C86.1415 47.4555 86.0075 47.8358 86.0075 48.3286V51.7391H84.3606ZM92.2292 51.8688C91.5722 51.8688 91.0016 51.7348 90.5175 51.4668C90.0333 51.1988 89.6573 50.8184 89.3893 50.3256C89.1213 49.8242 88.9873 49.2364 88.9873 48.562C88.9873 47.8877 89.1213 47.3042 89.3893 46.8114C89.6573 46.3186 90.0333 45.9383 90.5175 45.6703C91.0016 45.4023 91.5722 45.2683 92.2292 45.2683C92.8862 45.2683 93.4568 45.4023 93.9409 45.6703C94.425 45.9383 94.8011 46.3186 95.0691 46.8114C95.3371 47.3042 95.4711 47.8877 95.4711 48.562C95.4711 49.2364 95.3371 49.8242 95.0691 50.3256C94.8011 50.8184 94.425 51.1988 93.9409 51.4668C93.4568 51.7348 92.8862 51.8688 92.2292 51.8688ZM92.2292 50.6369C92.7133 50.6369 93.1023 50.464 93.3963 50.1182C93.6902 49.7637 93.8372 49.245 93.8372 48.562C93.8372 47.8704 93.6902 47.356 93.3963 47.0189C93.1023 46.6731 92.7133 46.5002 92.2292 46.5002C91.7451 46.5002 91.356 46.6731 91.0621 47.0189C90.7682 47.356 90.6212 47.8704 90.6212 48.562C90.6212 49.245 90.7682 49.7637 91.0621 50.1182C91.356 50.464 91.7451 50.6369 92.2292 50.6369ZM98.433 51.7391L95.9302 45.3979H97.5901L99.3537 50.2608H99.0554L100.845 45.3979H101.986L103.75 50.2608H103.477L105.241 45.3979H106.81L104.32 51.7391H102.907L100.988 46.6688H101.727L99.8464 51.7391H98.433ZM110.832 51.8688C109.985 51.8688 109.354 51.657 108.939 51.2334C108.524 50.8098 108.317 50.1916 108.317 49.379V46.6169H107.098V45.3979H108.317V43.5047H109.938V45.3979H111.857V46.6169H109.938V49.2882C109.938 49.7032 110.028 50.0144 110.21 50.2219C110.392 50.4294 110.685 50.5331 111.092 50.5331C111.213 50.5331 111.338 50.5201 111.468 50.4942C111.598 50.4596 111.732 50.4251 111.87 50.3905L112.116 51.5835C111.961 51.6699 111.762 51.7391 111.52 51.791C111.286 51.8428 111.057 51.8688 110.832 51.8688ZM112.905 51.7391V42.5969H114.525V46.6688H114.344C114.534 46.2106 114.828 45.8648 115.226 45.6314C115.632 45.3893 116.09 45.2683 116.6 45.2683C117.11 45.2683 117.53 45.3634 117.858 45.5535C118.187 45.7437 118.433 46.0333 118.597 46.4224C118.762 46.8028 118.844 47.2869 118.844 47.8748V51.7391H117.223V47.9526C117.223 47.624 117.18 47.356 117.093 47.1486C117.015 46.9411 116.89 46.7898 116.717 46.6947C116.553 46.591 116.341 46.5391 116.082 46.5391C115.77 46.5391 115.498 46.6082 115.265 46.7466C115.031 46.8762 114.85 47.0664 114.72 47.3171C114.59 47.5592 114.525 47.8445 114.525 48.173V51.7391H112.905ZM124.141 51.7391V42.5969H130.119V43.9196H125.801V46.5002H129.847V47.8229H125.801V51.7391H124.141ZM133.398 51.8688C132.87 51.8688 132.434 51.7737 132.088 51.5835C131.742 51.3847 131.483 51.0907 131.31 50.7017C131.145 50.3127 131.063 49.8285 131.063 49.2493V45.3979H132.684V49.2753C132.684 49.5692 132.723 49.8156 132.801 50.0144C132.887 50.2132 133.013 50.3602 133.177 50.4553C133.35 50.5504 133.566 50.598 133.825 50.598C134.119 50.598 134.374 50.5331 134.591 50.4034C134.815 50.2651 134.988 50.0749 135.109 49.8329C135.239 49.5822 135.304 49.2925 135.304 48.964V45.3979H136.925V51.7391H135.343V50.4164H135.524C135.343 50.8832 135.066 51.242 134.694 51.4927C134.331 51.7434 133.899 51.8688 133.398 51.8688ZM138.612 51.7391V45.3979H140.194V46.6688H140.051C140.241 46.2106 140.535 45.8648 140.933 45.6314C141.339 45.3893 141.798 45.2683 142.308 45.2683C142.818 45.2683 143.237 45.3634 143.565 45.5535C143.894 45.7437 144.14 46.0333 144.305 46.4224C144.469 46.8028 144.551 47.2869 144.551 47.8748V51.7391H142.93V47.9526C142.93 47.624 142.887 47.356 142.8 47.1486C142.723 46.9411 142.597 46.7898 142.424 46.6947C142.26 46.591 142.048 46.5391 141.789 46.5391C141.478 46.5391 141.205 46.6082 140.972 46.7466C140.739 46.8762 140.557 47.0664 140.427 47.3171C140.298 47.5592 140.233 47.8445 140.233 48.173V51.7391H138.612ZM148.635 51.8688C148.082 51.8688 147.594 51.7348 147.17 51.4668C146.755 51.1988 146.431 50.8184 146.197 50.3256C145.964 49.8242 145.847 49.2364 145.847 48.562C145.847 47.8791 145.964 47.2955 146.197 46.8114C146.431 46.3186 146.755 45.9383 147.17 45.6703C147.594 45.4023 148.082 45.2683 148.635 45.2683C149.163 45.2683 149.621 45.3979 150.01 45.6573C150.408 45.9166 150.676 46.2581 150.814 46.6817H150.671V42.5969H152.292V51.7391H150.71V50.3905H150.827C150.697 50.84 150.433 51.1988 150.036 51.4668C149.638 51.7348 149.171 51.8688 148.635 51.8688ZM149.089 50.6369C149.573 50.6369 149.962 50.464 150.256 50.1182C150.55 49.7637 150.697 49.245 150.697 48.562C150.697 47.8704 150.55 47.356 150.256 47.0189C149.962 46.6731 149.573 46.5002 149.089 46.5002C148.605 46.5002 148.216 46.6731 147.922 47.0189C147.628 47.356 147.481 47.8704 147.481 48.562C147.481 49.245 147.628 49.7637 147.922 50.1182C148.216 50.464 148.605 50.6369 149.089 50.6369Z" fill="white"/>
<rect x="164.986" y="39.829" width="32.2626" height="14.8201" rx="7.41007" fill="white" fill-opacity="0.1"/>
<path d="M170.386 49.7391V49.0722L172.628 46.701C172.844 46.4725 173.013 46.2656 173.137 46.0804C173.26 45.889 173.35 45.7068 173.406 45.5339C173.461 45.3548 173.489 45.1757 173.489 44.9967C173.489 44.6447 173.378 44.3761 173.155 44.1908C172.933 43.9994 172.621 43.9037 172.22 43.9037C171.911 43.9037 171.609 43.9623 171.312 44.0797C171.022 44.197 170.744 44.3822 170.479 44.6354L170.145 43.9407C170.411 43.6875 170.732 43.4899 171.108 43.3479C171.491 43.1997 171.887 43.1256 172.294 43.1256C172.733 43.1256 173.106 43.1966 173.415 43.3387C173.724 43.4807 173.961 43.6875 174.128 43.9592C174.295 44.231 174.378 44.5551 174.378 44.9318C174.378 45.1232 174.353 45.3116 174.304 45.4968C174.261 45.6821 174.193 45.8673 174.1 46.0526C174.008 46.2317 173.887 46.4169 173.739 46.6083C173.597 46.7998 173.427 47.0005 173.23 47.2104L171.442 49.0815V48.9703H174.638V49.7391H170.386ZM177.894 49.8225C177.388 49.8225 176.962 49.6959 176.616 49.4427C176.27 49.1833 176.008 48.8067 175.829 48.3127C175.656 47.8125 175.569 47.1981 175.569 46.4694C175.569 45.7408 175.656 45.1294 175.829 44.6354C176.008 44.1352 176.27 43.7586 176.616 43.5054C176.962 43.2522 177.388 43.1256 177.894 43.1256C178.407 43.1256 178.833 43.2522 179.173 43.5054C179.518 43.7586 179.778 44.1322 179.951 44.6262C180.13 45.1202 180.219 45.7315 180.219 46.4601C180.219 47.1888 180.13 47.8032 179.951 48.3034C179.778 48.8036 179.518 49.1833 179.173 49.4427C178.827 49.6959 178.401 49.8225 177.894 49.8225ZM177.894 49.0537C178.382 49.0537 178.743 48.8437 178.978 48.4238C179.219 48.0039 179.339 47.3494 179.339 46.4601C179.339 45.5771 179.222 44.9287 178.987 44.515C178.753 44.1013 178.388 43.8944 177.894 43.8944C177.406 43.8944 177.042 44.1013 176.801 44.515C176.567 44.9287 176.449 45.5802 176.449 46.4694C176.449 47.3524 176.567 48.0039 176.801 48.4238C177.042 48.8437 177.406 49.0537 177.894 49.0537ZM181.383 49.7391V49.0722L183.624 46.701C183.84 46.4725 184.01 46.2656 184.134 46.0804C184.257 45.889 184.347 45.7068 184.402 45.5339C184.458 45.3548 184.486 45.1757 184.486 44.9967C184.486 44.6447 184.375 44.3761 184.152 44.1908C183.93 43.9994 183.618 43.9037 183.217 43.9037C182.908 43.9037 182.605 43.9623 182.309 44.0797C182.019 44.197 181.741 44.3822 181.475 44.6354L181.142 43.9407C181.407 43.6875 181.729 43.4899 182.105 43.3479C182.488 43.1997 182.883 43.1256 183.291 43.1256C183.729 43.1256 184.103 43.1966 184.412 43.3387C184.72 43.4807 184.958 43.6875 185.125 43.9592C185.292 44.231 185.375 44.5551 185.375 44.9318C185.375 45.1232 185.35 45.3116 185.301 45.4968C185.258 45.6821 185.19 45.8673 185.097 46.0526C185.004 46.2317 184.884 46.4169 184.736 46.6083C184.594 46.7998 184.424 47.0005 184.226 47.2104L182.439 49.0815V48.9703H185.634V49.7391H181.383ZM189.576 49.7391V48.396H186.566V47.7384L189.595 43.209H190.447V47.655H191.364V48.396H190.447V49.7391H189.576ZM189.595 47.655V44.302H189.706L187.344 47.8403L187.289 47.655H189.595Z" fill="white"/>
<path d="M52.6417 72.5153V67.2912H53.3012L56.4061 71.4038H56.3912V67.2912H57.11V72.5153H56.4209L53.3457 68.4323H53.3605V72.5153H52.6417ZM58.7889 72.5153V67.2912H62.2494V67.9359H59.5299V69.5439H62.0938V70.1885H59.5299V71.8706H62.2494V72.5153H58.7889ZM64.9296 72.5153V67.9433H63.0697V67.2912H67.5305V67.9433H65.678V72.5153H64.9296ZM70.3575 72.5153L72.6694 67.2912H73.3363L75.6483 72.5153H74.8628L74.233 71.0333L74.5886 71.2778H71.4171L71.7654 71.0333L71.1281 72.5153H70.3575ZM72.9807 68.1211L71.8469 70.8036L71.6617 70.648H74.3441L74.1514 70.8036L73.0177 68.1211H72.9807ZM78.5277 72.582C78.2411 72.582 77.967 72.5597 77.7052 72.5153C77.4433 72.4758 77.2037 72.414 76.9864 72.33C76.774 72.2411 76.5862 72.1324 76.4232 72.004L76.69 71.3964C76.8579 71.5248 77.0382 71.6286 77.2309 71.7076C77.4236 71.7866 77.6286 71.8434 77.8459 71.878C78.0633 71.9077 78.2905 71.9225 78.5277 71.9225C78.9229 71.9225 79.2267 71.8459 79.4391 71.6928C79.6515 71.5396 79.7577 71.3297 79.7577 71.0629C79.7577 70.9147 79.7232 70.7962 79.654 70.7072C79.5848 70.6134 79.4762 70.5368 79.328 70.4775C79.1847 70.4182 78.997 70.3664 78.7648 70.3219L77.9126 70.1515C77.4236 70.0576 77.0704 69.8921 76.853 69.655C76.6406 69.4129 76.5344 69.1091 76.5344 68.7436C76.5344 68.4373 76.6233 68.1705 76.8011 67.9433C76.979 67.716 77.221 67.5407 77.5273 67.4172C77.8385 67.2887 78.1942 67.2245 78.5944 67.2245C78.8414 67.2245 79.0735 67.2467 79.2909 67.2912C79.5132 67.3356 79.7158 67.4048 79.8985 67.4987C80.0813 67.5876 80.2443 67.6963 80.3876 67.8247L80.1134 68.4323C79.9059 68.2347 79.6762 68.0939 79.4243 68.01C79.1723 67.926 78.8932 67.884 78.587 67.884C78.3399 67.884 78.1176 67.9186 77.92 67.9877C77.7224 68.052 77.5668 68.1483 77.4532 68.2767C77.3396 68.4002 77.2828 68.5558 77.2828 68.7436C77.2828 68.951 77.347 69.1141 77.4754 69.2326C77.6088 69.3462 77.841 69.4352 78.172 69.4994L79.0167 69.6624C79.5256 69.7563 79.901 69.9168 80.1431 70.1441C80.3851 70.3713 80.5062 70.6652 80.5062 71.0259C80.5062 71.3272 80.4246 71.5964 80.2616 71.8336C80.0986 72.0657 79.8689 72.2485 79.5725 72.3819C79.2761 72.5153 78.9278 72.582 78.5277 72.582ZM83.6183 72.582C83.3318 72.582 83.0576 72.5597 82.7958 72.5153C82.534 72.4758 82.2944 72.414 82.077 72.33C81.8646 72.2411 81.6769 72.1324 81.5139 72.004L81.7806 71.3964C81.9486 71.5248 82.1289 71.6286 82.3216 71.7076C82.5142 71.7866 82.7192 71.8434 82.9366 71.878C83.154 71.9077 83.3812 71.9225 83.6183 71.9225C84.0135 71.9225 84.3173 71.8459 84.5298 71.6928C84.7422 71.5396 84.8484 71.3297 84.8484 71.0629C84.8484 70.9147 84.8138 70.7962 84.7447 70.7072C84.6755 70.6134 84.5668 70.5368 84.4186 70.4775C84.2754 70.4182 84.0876 70.3664 83.8555 70.3219L83.0033 70.1515C82.5142 70.0576 82.161 69.8921 81.9437 69.655C81.7312 69.4129 81.625 69.1091 81.625 68.7436C81.625 68.4373 81.7139 68.1705 81.8918 67.9433C82.0696 67.716 82.3117 67.5407 82.618 67.4172C82.9292 67.2887 83.2849 67.2245 83.685 67.2245C83.932 67.2245 84.1642 67.2467 84.3816 67.2912C84.6039 67.3356 84.8064 67.4048 84.9892 67.4987C85.172 67.5876 85.335 67.6963 85.4783 67.8247L85.2041 68.4323C84.9966 68.2347 84.7669 68.0939 84.515 68.01C84.263 67.926 83.9839 67.884 83.6776 67.884C83.4306 67.884 83.2083 67.9186 83.0107 67.9877C82.8131 68.052 82.6575 68.1483 82.5439 68.2767C82.4303 68.4002 82.3734 68.5558 82.3734 68.7436C82.3734 68.951 82.4377 69.1141 82.5661 69.2326C82.6995 69.3462 82.9317 69.4352 83.2626 69.4994L84.1074 69.6624C84.6162 69.7563 84.9917 69.9168 85.2337 70.1441C85.4758 70.3713 85.5968 70.6652 85.5968 71.0259C85.5968 71.3272 85.5153 71.5964 85.3523 71.8336C85.1893 72.0657 84.9596 72.2485 84.6632 72.3819C84.3667 72.5153 84.0185 72.582 83.6183 72.582ZM86.9232 72.5153V67.2912H90.3837V67.9359H87.6642V69.5439H90.2281V70.1885H87.6642V71.8706H90.3837V72.5153H86.9232ZM93.0639 72.5153V67.9433H91.2039V67.2912H95.6648V67.9433H93.8123V72.5153H93.0639ZM100.537 72.5153L98.2768 67.2912H99.0771L100.885 71.6113H100.856L102.656 67.2912H103.456L101.189 72.5153H100.537ZM103.423 72.5153L105.735 67.2912H106.402L108.714 72.5153H107.929L107.299 71.0333L107.654 71.2778H104.483L104.831 71.0333L104.194 72.5153H103.423ZM106.046 68.1211L104.913 70.8036L104.727 70.648H107.41L107.217 70.8036L106.083 68.1211H106.046ZM109.858 72.5153V67.2912H110.607V71.8558H113.222V72.5153H109.858ZM116.242 72.582C115.555 72.582 115.029 72.4041 114.663 72.0485C114.303 71.6928 114.122 71.1691 114.122 70.4775V67.2912H114.871V70.4627C114.871 70.9567 114.987 71.3173 115.219 71.5446C115.456 71.7718 115.797 71.8854 116.242 71.8854C116.696 71.8854 117.039 71.7718 117.272 71.5446C117.504 71.3173 117.62 70.9567 117.62 70.4627V67.2912H118.368V70.4775C118.368 71.1691 118.186 71.6928 117.82 72.0485C117.459 72.4041 116.933 72.582 116.242 72.582ZM119.989 72.5153V67.2912H123.449V67.9359H120.73V69.5439H123.294V70.1885H120.73V71.8706H123.449V72.5153H119.989Z" fill="#636B7A"/>
<path d="M58.6143 99.2029V95.8053L59.2108 96.3759C57.9486 96.3413 56.7556 96.1511 55.6317 95.8053C54.5251 95.4422 53.5655 94.9408 52.7529 94.3011L53.7644 91.6816C54.3004 92.0793 54.8709 92.4251 55.4761 92.719C56.0985 92.9957 56.7469 93.2118 57.4212 93.3674C58.1128 93.5057 58.8477 93.5749 59.6257 93.5749C60.8879 93.5749 61.8129 93.3501 62.4008 92.9006C62.9887 92.451 63.2826 91.8891 63.2826 91.2148C63.2826 90.6096 63.0838 90.1255 62.6861 89.7624C62.2884 89.3993 61.5795 89.1054 60.5594 88.8806L57.8103 88.2841C56.2542 87.9383 55.0784 87.3677 54.2831 86.5724C53.505 85.7598 53.116 84.6878 53.116 83.3564C53.116 82.3363 53.3667 81.4286 53.8681 80.6332C54.3695 79.8206 55.0698 79.1722 55.9689 78.6881C56.868 78.204 57.9227 77.9187 59.133 77.8322L58.6143 78.2212V74.9534H61.2078V78.2212L60.6631 77.8063C61.6487 77.8581 62.6169 78.057 63.5679 78.4028C64.5361 78.7486 65.3401 79.25 65.9799 79.907L64.9943 82.3968C64.3373 81.7917 63.5852 81.3421 62.738 81.0482C61.8907 80.737 60.9657 80.5813 59.9629 80.5813C58.8909 80.5813 58.0264 80.8321 57.3694 81.3335C56.7296 81.8176 56.4098 82.4573 56.4098 83.2527C56.4098 83.8405 56.6086 84.316 57.0063 84.6791C57.4039 85.0422 58.0437 85.3189 58.9255 85.509L61.6746 86.1056C63.3345 86.4687 64.5621 87.0479 65.3574 87.8432C66.1701 88.6213 66.5764 89.6587 66.5764 90.9555C66.5764 91.9583 66.3257 92.8487 65.8243 93.6268C65.3228 94.3875 64.6312 95.0013 63.7494 95.4682C62.8849 95.9177 61.8735 96.203 60.715 96.324L61.2078 95.7794V99.2029H58.6143ZM69.4969 96.2203V93.7565L75.4102 87.4542C75.9462 86.8836 76.3698 86.3563 76.681 85.8721C77.0095 85.388 77.2516 84.9212 77.4072 84.4716C77.5628 84.0221 77.6406 83.5725 77.6406 83.123C77.6406 82.2585 77.364 81.6015 76.8107 81.1519C76.2747 80.7024 75.488 80.4776 74.4506 80.4776C73.6379 80.4776 72.8426 80.6332 72.0645 80.9444C71.3038 81.2384 70.5689 81.7052 69.86 82.3449L68.7448 79.8552C69.471 79.1981 70.3787 78.6708 71.468 78.2731C72.5573 77.8754 73.6898 77.6766 74.8655 77.6766C76.1796 77.6766 77.2862 77.8754 78.1852 78.2731C79.0843 78.6708 79.7673 79.25 80.2341 80.0108C80.701 80.7715 80.9344 81.6966 80.9344 82.7858C80.9344 83.3391 80.8652 83.8838 80.7269 84.4198C80.6059 84.9385 80.407 85.4572 80.1304 85.9759C79.871 86.4946 79.5339 87.0306 79.1189 87.5839C78.7212 88.1199 78.2371 88.6818 77.6665 89.2697L72.7907 94.353V93.4712H81.6346V96.2203H69.4969ZM84.3736 96.2203V92.6153H88.0046V96.2203H84.3736ZM91.6367 96.2203L100.481 79.5699V80.711H90.8327V77.936H103.567V80.4257L95.2936 96.2203H91.6367ZM112.893 96.4797C112.098 96.4797 111.311 96.3932 110.533 96.2203C109.773 96.0474 109.055 95.8053 108.381 95.4941C107.724 95.1829 107.153 94.8198 106.669 94.4048L107.758 91.8632C108.554 92.4683 109.375 92.9265 110.222 93.2378C111.069 93.5317 111.943 93.6787 112.842 93.6787C113.931 93.6787 114.778 93.402 115.383 92.8487C116.006 92.2781 116.317 91.5174 116.317 90.5664C116.317 89.5982 116.023 88.8201 115.435 88.2322C114.847 87.6271 114.043 87.3245 113.023 87.3245C112.28 87.3245 111.614 87.4715 111.026 87.7654C110.438 88.0421 109.902 88.4743 109.418 89.0622H107.188V77.936H118.418V80.6851H110.43V86.4946H109.574C110.023 85.8894 110.611 85.4226 111.337 85.0941C112.081 84.7656 112.902 84.6013 113.801 84.6013C114.96 84.6013 115.963 84.852 116.81 85.3534C117.674 85.8376 118.34 86.5205 118.807 87.4023C119.291 88.2668 119.533 89.2783 119.533 90.4367C119.533 91.6298 119.265 92.6845 118.729 93.6008C118.193 94.4999 117.424 95.2088 116.421 95.7275C115.435 96.229 114.259 96.4797 112.893 96.4797ZM122.557 96.2203V77.936H125.332L132.231 90.6702H131.401L138.274 77.936H140.997V96.2203H137.989V82.8637H138.559L132.75 93.4452H130.805L124.943 82.8377H125.566V96.2203H122.557Z" fill="#5172E7"/>
<path d="M151.007 89.3653L150.357 88.7162L153.789 85.2619L155.643 87.1165L158.054 84.7287H156.849V83.8014H159.631V86.5833H158.703V85.3778L155.643 88.438L153.789 86.5833L151.007 89.3653Z" fill="#5172E7"/>
<path d="M162.995 89.9513V89.403L164.817 87.506C164.995 87.3232 165.131 87.1577 165.225 87.0095C165.324 86.8613 165.393 86.7205 165.432 86.5872C165.472 86.4488 165.492 86.308 165.492 86.1648C165.492 85.8881 165.4 85.6757 165.218 85.5275C165.04 85.3793 164.795 85.3052 164.484 85.3052C164.247 85.3052 164.007 85.3521 163.765 85.446C163.528 85.5349 163.303 85.6807 163.091 85.8832L162.809 85.3126C163.037 85.1002 163.301 84.9396 163.602 84.831C163.908 84.7173 164.225 84.6605 164.551 84.6605C164.896 84.6605 165.193 84.7198 165.44 84.8384C165.692 84.9569 165.885 85.1249 166.018 85.3423C166.151 85.5596 166.218 85.819 166.218 86.1203C166.218 86.2735 166.201 86.4241 166.166 86.5723C166.132 86.7156 166.077 86.8589 166.003 87.0021C165.929 87.1454 165.835 87.2936 165.721 87.4467C165.608 87.5949 165.472 87.7505 165.314 87.9136L163.958 89.3289V89.3141H166.433V89.9513H162.995ZM167.334 89.9513V89.0621H168.268V89.9513H167.334ZM171.54 89.9513V88.8917H169.109V88.3507L171.48 84.7272H172.236V88.2915H172.94V88.8917H172.236V89.9513H171.54ZM171.562 88.2915V85.6313H171.577L169.761 88.41L169.687 88.2915H171.562ZM175.42 90.144L174.938 89.8624L177.998 84.5346L178.48 84.8161L175.42 90.144ZM174.864 87.8543C174.597 87.8543 174.363 87.7901 174.16 87.6616C173.962 87.5332 173.809 87.3504 173.701 87.1133C173.592 86.8712 173.538 86.5822 173.538 86.2463C173.538 85.7473 173.659 85.3595 173.901 85.0829C174.148 84.8013 174.469 84.6605 174.864 84.6605C175.131 84.6605 175.363 84.7248 175.561 84.8532C175.763 84.9767 175.919 85.157 176.027 85.3941C176.141 85.6313 176.198 85.9153 176.198 86.2463C176.198 86.5822 176.141 86.8712 176.027 87.1133C175.919 87.3504 175.763 87.5332 175.561 87.6616C175.363 87.7901 175.131 87.8543 174.864 87.8543ZM174.864 87.3578C175.081 87.3578 175.257 87.2664 175.39 87.0836C175.528 86.9008 175.598 86.6217 175.598 86.2463C175.598 85.8807 175.528 85.609 175.39 85.4312C175.257 85.2484 175.081 85.157 174.864 85.157C174.652 85.157 174.476 85.2459 174.338 85.4238C174.2 85.5967 174.13 85.8708 174.13 86.2463C174.13 86.6267 174.2 86.9083 174.338 87.091C174.476 87.2689 174.652 87.3578 174.864 87.3578ZM178.562 90.018C178.295 90.018 178.06 89.9563 177.858 89.8328C177.66 89.7043 177.504 89.5215 177.391 89.2844C177.282 89.0424 177.228 88.7534 177.228 88.4174C177.228 87.9185 177.349 87.5282 177.591 87.2466C177.838 86.9651 178.161 86.8243 178.562 86.8243C178.823 86.8243 179.053 86.8885 179.251 87.0169C179.453 87.1454 179.609 87.3282 179.718 87.5653C179.831 87.8024 179.888 88.0865 179.888 88.4174C179.888 88.7484 179.834 89.0349 179.725 89.277C179.616 89.5141 179.461 89.6969 179.258 89.8254C179.061 89.9538 178.828 90.018 178.562 90.018ZM178.562 89.5215C178.774 89.5215 178.947 89.4326 179.08 89.2548C179.219 89.072 179.288 88.7929 179.288 88.4174C179.288 88.0469 179.219 87.7728 179.08 87.5949C178.947 87.4121 178.774 87.3207 178.562 87.3207C178.344 87.3207 178.166 87.4097 178.028 87.5875C177.895 87.7654 177.828 88.042 177.828 88.4174C177.828 88.7929 177.895 89.072 178.028 89.2548C178.166 89.4326 178.344 89.5215 178.562 89.5215Z" fill="#5172E7"/>
<path d="M151.103 96.2203L149.562 92.5449H150.362L151.489 95.4645H151.481L152.622 92.5449H153.386L151.844 96.2203H151.103ZM155.446 96.287C155.238 96.287 155.033 96.2697 154.831 96.2351C154.628 96.2005 154.443 96.1511 154.275 96.0869C154.107 96.0178 153.964 95.9363 153.845 95.8424L154.067 95.3089C154.196 95.4027 154.337 95.4793 154.49 95.5386C154.643 95.5979 154.801 95.6399 154.964 95.6646C155.127 95.6893 155.283 95.7016 155.431 95.7016C155.732 95.7016 155.964 95.6596 156.127 95.5756C156.29 95.4916 156.372 95.3706 156.372 95.2125C156.372 95.0742 156.325 94.9705 156.231 94.9013C156.137 94.8272 155.984 94.7729 155.772 94.7383L154.979 94.6049C154.633 94.5506 154.371 94.4345 154.193 94.2566C154.02 94.0788 153.934 93.854 153.934 93.5823C153.934 93.365 153.996 93.1748 154.119 93.0117C154.243 92.8438 154.421 92.7129 154.653 92.619C154.89 92.5202 155.174 92.4708 155.505 92.4708C155.688 92.4708 155.87 92.4881 156.053 92.5227C156.236 92.5573 156.406 92.6067 156.565 92.6709C156.728 92.7351 156.858 92.8166 156.957 92.9154L156.72 93.4341C156.621 93.3452 156.503 93.2736 156.364 93.2192C156.226 93.1649 156.083 93.1254 155.935 93.1007C155.786 93.076 155.643 93.0636 155.505 93.0636C155.223 93.0636 155.003 93.1081 154.845 93.197C154.692 93.281 154.616 93.4045 154.616 93.5675C154.616 93.7009 154.658 93.8046 154.742 93.8787C154.831 93.9479 154.976 93.9998 155.179 94.0343L155.942 94.1677C156.318 94.2319 156.594 94.348 156.772 94.516C156.955 94.679 157.046 94.9038 157.046 95.1903C157.046 95.4175 156.98 95.6127 156.846 95.7757C156.718 95.9387 156.532 96.0647 156.29 96.1536C156.053 96.2425 155.772 96.287 155.446 96.287ZM161.292 96.287C160.926 96.287 160.642 96.1833 160.44 95.9758C160.242 95.7634 160.144 95.4669 160.144 95.0866V90.9962H160.892V95.0125C160.892 95.1557 160.912 95.2768 160.951 95.3756C160.996 95.4744 161.057 95.5509 161.136 95.6053C161.22 95.6547 161.319 95.6794 161.433 95.6794C161.502 95.6794 161.571 95.6769 161.64 95.672C161.709 95.6621 161.779 95.6497 161.848 95.6349L161.877 96.1981C161.784 96.2277 161.692 96.2499 161.603 96.2648C161.514 96.2796 161.411 96.287 161.292 96.287ZM163.819 96.287C163.552 96.287 163.313 96.2376 163.1 96.1388C162.893 96.04 162.727 95.9066 162.604 95.7387C162.485 95.5707 162.426 95.3805 162.426 95.1681C162.426 94.8914 162.507 94.6716 162.67 94.5086C162.833 94.3406 163.08 94.2221 163.411 94.1529C163.742 94.0788 164.162 94.0417 164.671 94.0417H165.219V94.5308H164.708C164.436 94.5308 164.202 94.5407 164.004 94.5605C163.812 94.5753 163.653 94.6049 163.53 94.6494C163.406 94.6938 163.315 94.7556 163.256 94.8346C163.197 94.9087 163.167 95.0051 163.167 95.1236C163.167 95.3212 163.241 95.4694 163.389 95.5682C163.542 95.667 163.735 95.7164 163.967 95.7164C164.175 95.7164 164.362 95.6695 164.53 95.5756C164.703 95.4818 164.842 95.3558 164.945 95.1977C165.049 95.0396 165.101 94.8692 165.101 94.6864V93.8491C165.101 93.5724 165.019 93.3724 164.856 93.2489C164.693 93.1254 164.451 93.0636 164.13 93.0636C163.918 93.0636 163.703 93.0933 163.486 93.1525C163.268 93.2118 163.043 93.3106 162.811 93.4489L162.581 92.908C162.74 92.8141 162.908 92.7351 163.085 92.6709C163.268 92.6067 163.456 92.5573 163.649 92.5227C163.841 92.4881 164.034 92.4708 164.227 92.4708C164.553 92.4708 164.834 92.5227 165.071 92.6264C165.313 92.7302 165.499 92.8882 165.627 93.1007C165.76 93.3081 165.827 93.5823 165.827 93.9232V96.2203H165.19V95.4274H165.175C165.101 95.5855 165.002 95.7288 164.879 95.8572C164.755 95.9857 164.604 96.0894 164.427 96.1684C164.254 96.2475 164.051 96.287 163.819 96.287ZM168.474 96.287C168.267 96.287 168.062 96.2697 167.859 96.2351C167.657 96.2005 167.471 96.1511 167.303 96.0869C167.135 96.0178 166.992 95.9363 166.874 95.8424L167.096 95.3089C167.224 95.4027 167.365 95.4793 167.518 95.5386C167.671 95.5979 167.83 95.6399 167.993 95.6646C168.156 95.6893 168.311 95.7016 168.459 95.7016C168.761 95.7016 168.993 95.6596 169.156 95.5756C169.319 95.4916 169.4 95.3706 169.4 95.2125C169.4 95.0742 169.354 94.9705 169.26 94.9013C169.166 94.8272 169.013 94.7729 168.8 94.7383L168.007 94.6049C167.662 94.5506 167.4 94.4345 167.222 94.2566C167.049 94.0788 166.963 93.854 166.963 93.5823C166.963 93.365 167.024 93.1748 167.148 93.0117C167.271 92.8438 167.449 92.7129 167.681 92.619C167.918 92.5202 168.203 92.4708 168.533 92.4708C168.716 92.4708 168.899 92.4881 169.082 92.5227C169.265 92.5573 169.435 92.6067 169.593 92.6709C169.756 92.7351 169.887 92.8166 169.986 92.9154L169.749 93.4341C169.65 93.3452 169.531 93.2736 169.393 93.2192C169.255 93.1649 169.111 93.1254 168.963 93.1007C168.815 93.076 168.672 93.0636 168.533 93.0636C168.252 93.0636 168.032 93.1081 167.874 93.197C167.721 93.281 167.644 93.4045 167.644 93.5675C167.644 93.7009 167.686 93.8046 167.77 93.8787C167.859 93.9479 168.005 93.9998 168.207 94.0343L168.971 94.1677C169.346 94.2319 169.623 94.348 169.801 94.516C169.983 94.679 170.075 94.9038 170.075 95.1903C170.075 95.4175 170.008 95.6127 169.875 95.7757C169.746 95.9387 169.561 96.0647 169.319 96.1536C169.082 96.2425 168.8 96.287 168.474 96.287ZM172.668 96.287C172.209 96.287 171.863 96.1684 171.631 95.9313C171.398 95.6893 171.282 95.3484 171.282 94.9087V93.1525H170.541V92.5449H171.312V91.4705H172.023V92.5449H173.357V93.1525H172.023V94.8569C172.023 95.1236 172.085 95.3237 172.209 95.4571C172.337 95.5855 172.527 95.6497 172.779 95.6497C172.883 95.6497 172.984 95.6399 173.083 95.6201C173.182 95.6003 173.278 95.5707 173.372 95.5312L173.483 96.1166C173.379 96.1758 173.253 96.2178 173.105 96.2425C172.962 96.2722 172.816 96.287 172.668 96.287ZM176.734 97.5541L177.453 95.9461V96.5019L175.778 92.5449H176.579L177.712 95.4719H177.698L178.839 92.5449H179.609L177.512 97.5541H176.734ZM182.113 96.287C181.689 96.287 181.323 96.2129 181.017 96.0647C180.715 95.9116 180.483 95.6917 180.32 95.4052C180.157 95.1187 180.076 94.7778 180.076 94.3826C180.076 94.0121 180.15 93.6836 180.298 93.3971C180.451 93.1105 180.666 92.8858 180.943 92.7228C181.219 92.5548 181.55 92.4708 181.936 92.4708C182.296 92.4708 182.605 92.5499 182.862 92.7079C183.119 92.8611 183.314 93.0784 183.447 93.36C183.586 93.6416 183.655 93.9751 183.655 94.3604V94.5901H180.639V94.0936H183.151L183.018 94.2344C183.018 93.8441 182.924 93.5477 182.736 93.3452C182.548 93.1377 182.281 93.034 181.936 93.034C181.713 93.034 181.516 93.0834 181.343 93.1822C181.17 93.281 181.034 93.4242 180.935 93.612C180.836 93.7947 180.787 94.0195 180.787 94.2863V94.3678C180.787 94.6642 180.839 94.9087 180.943 95.1014C181.051 95.294 181.205 95.4398 181.402 95.5386C181.605 95.6374 181.847 95.6868 182.128 95.6868C182.331 95.6868 182.536 95.6596 182.743 95.6053C182.956 95.5509 183.151 95.4546 183.329 95.3163L183.566 95.8424C183.378 95.9955 183.151 96.1092 182.884 96.1833C182.622 96.2524 182.365 96.287 182.113 96.287ZM185.934 96.287C185.668 96.287 185.428 96.2376 185.216 96.1388C185.008 96.04 184.843 95.9066 184.719 95.7387C184.601 95.5707 184.541 95.3805 184.541 95.1681C184.541 94.8914 184.623 94.6716 184.786 94.5086C184.949 94.3406 185.196 94.2221 185.527 94.1529C185.858 94.0788 186.278 94.0417 186.787 94.0417H187.335V94.5308H186.824C186.552 94.5308 186.317 94.5407 186.12 94.5605C185.927 94.5753 185.769 94.6049 185.645 94.6494C185.522 94.6938 185.43 94.7556 185.371 94.8346C185.312 94.9087 185.282 95.0051 185.282 95.1236C185.282 95.3212 185.356 95.4694 185.505 95.5682C185.658 95.667 185.85 95.7164 186.083 95.7164C186.29 95.7164 186.478 95.6695 186.646 95.5756C186.819 95.4818 186.957 95.3558 187.061 95.1977C187.164 95.0396 187.216 94.8692 187.216 94.6864V93.8491C187.216 93.5724 187.135 93.3724 186.972 93.2489C186.809 93.1254 186.567 93.0636 186.246 93.0636C186.033 93.0636 185.818 93.0933 185.601 93.1525C185.384 93.2118 185.159 93.3106 184.927 93.4489L184.697 92.908C184.855 92.8141 185.023 92.7351 185.201 92.6709C185.384 92.6067 185.571 92.5573 185.764 92.5227C185.957 92.4881 186.149 92.4708 186.342 92.4708C186.668 92.4708 186.95 92.5227 187.187 92.6264C187.429 92.7302 187.614 92.8882 187.742 93.1007C187.876 93.3081 187.943 93.5823 187.943 93.9232V96.2203H187.305V95.4274H187.29C187.216 95.5855 187.118 95.7288 186.994 95.8572C186.871 95.9857 186.72 96.0894 186.542 96.1684C186.369 96.2475 186.167 96.287 185.934 96.287ZM189.197 96.2203V92.5449H189.863V93.3971H189.886C189.975 93.1303 190.128 92.9179 190.345 92.7598C190.567 92.6017 190.837 92.5128 191.153 92.493L191.523 92.4708L191.59 93.1525L191.005 93.197C190.669 93.2266 190.407 93.3378 190.219 93.5305C190.036 93.7231 189.945 93.9602 189.945 94.2418V96.2203H189.197Z" fill="#636B7A"/>
<path d="M52.6195 115.792V110.567H53.4494V115.073H56.0356V115.792H52.6195ZM58.1823 115.858C57.9155 115.858 57.6759 115.809 57.4635 115.71C57.256 115.611 57.0905 115.478 56.967 115.31C56.8435 115.137 56.7818 114.942 56.7818 114.724C56.7818 114.448 56.8608 114.228 57.0189 114.065C57.1819 113.897 57.4289 113.776 57.7599 113.702C58.0909 113.628 58.5133 113.591 59.027 113.591H59.568V114.117H59.0715C58.8146 114.117 58.5923 114.127 58.4046 114.146C58.2169 114.161 58.0637 114.191 57.9452 114.235C57.8266 114.275 57.7377 114.332 57.6784 114.406C57.6191 114.475 57.5895 114.566 57.5895 114.68C57.5895 114.868 57.6611 115.009 57.8044 115.102C57.9526 115.196 58.1403 115.243 58.3675 115.243C58.5602 115.243 58.738 115.199 58.9011 115.11C59.069 115.016 59.2024 114.895 59.3012 114.747C59.4 114.594 59.4494 114.428 59.4494 114.25V113.428C59.4494 113.156 59.3679 112.963 59.2049 112.85C59.0468 112.736 58.8121 112.679 58.5009 112.679C58.2885 112.679 58.0736 112.709 57.8562 112.768C57.6438 112.823 57.4166 112.919 57.1745 113.057L56.9374 112.472C57.1004 112.373 57.2708 112.294 57.4487 112.235C57.6315 112.17 57.8217 112.121 58.0193 112.086C58.2169 112.052 58.4145 112.035 58.6121 112.035C58.943 112.035 59.232 112.086 59.479 112.19C59.726 112.294 59.9162 112.455 60.0496 112.672C60.183 112.884 60.2497 113.166 60.2497 113.517V115.792H59.5531V115.013H59.5309C59.4568 115.167 59.358 115.307 59.2345 115.436C59.1159 115.564 58.9677 115.668 58.7899 115.747C58.617 115.821 58.4145 115.858 58.1823 115.858ZM62.9184 115.858C62.7059 115.858 62.4984 115.841 62.2959 115.806C62.0934 115.772 61.9056 115.725 61.7327 115.666C61.5648 115.601 61.4215 115.52 61.303 115.421L61.5327 114.843C61.6661 114.932 61.8093 115.006 61.9625 115.065C62.1156 115.12 62.2712 115.162 62.4293 115.191C62.5923 115.216 62.7479 115.228 62.8961 115.228C63.1925 115.228 63.4198 115.189 63.5778 115.11C63.7359 115.031 63.815 114.917 63.815 114.769C63.815 114.636 63.7705 114.537 63.6816 114.473C63.5927 114.408 63.4445 114.359 63.237 114.324L62.4367 114.198C62.086 114.144 61.8241 114.025 61.6512 113.843C61.4783 113.66 61.3919 113.435 61.3919 113.168C61.3919 112.941 61.4536 112.744 61.5771 112.576C61.7006 112.408 61.8809 112.277 62.1181 112.183C62.3601 112.084 62.6516 112.035 62.9925 112.035C63.1752 112.035 63.358 112.052 63.5408 112.086C63.7285 112.116 63.9014 112.163 64.0595 112.227C64.2225 112.292 64.3534 112.373 64.4522 112.472L64.2077 113.035C64.104 112.951 63.9829 112.882 63.8446 112.828C63.7112 112.773 63.5704 112.734 63.4222 112.709C63.274 112.684 63.1308 112.672 62.9925 112.672C62.7158 112.672 62.5009 112.714 62.3478 112.798C62.1996 112.877 62.1255 112.993 62.1255 113.146C62.1255 113.27 62.1675 113.366 62.2514 113.435C62.3354 113.499 62.4737 113.546 62.6664 113.576L63.4371 113.709C63.8174 113.774 64.0966 113.892 64.2744 114.065C64.4572 114.233 64.5486 114.46 64.5486 114.747C64.5486 114.974 64.4819 115.172 64.3485 115.34C64.2151 115.507 64.0249 115.636 63.7779 115.725C63.5359 115.814 63.2493 115.858 62.9184 115.858ZM67.1936 115.858C66.7193 115.858 66.3612 115.737 66.1191 115.495C65.882 115.248 65.7634 114.897 65.7634 114.443V112.776H65.0298V112.109H65.8005V111.042H66.5859V112.109H67.9049V112.776H66.5859V114.398C66.5859 114.655 66.6452 114.848 66.7638 114.976C66.8873 115.1 67.0725 115.162 67.3195 115.162C67.4233 115.162 67.5221 115.152 67.6159 115.132C67.7147 115.112 67.8111 115.085 67.9049 115.051L68.0309 115.688C67.9173 115.747 67.7864 115.789 67.6382 115.814C67.4949 115.843 67.3467 115.858 67.1936 115.858ZM71.0579 115.792V110.567H73.3031C73.886 110.567 74.3331 110.698 74.6443 110.96C74.9556 111.222 75.1112 111.6 75.1112 112.094C75.1112 112.371 75.0568 112.608 74.9481 112.805C74.8395 113.003 74.6888 113.163 74.4961 113.287C74.3035 113.405 74.0812 113.487 73.8292 113.531L73.844 113.539L73.9181 113.554C74.0318 113.578 74.133 113.633 74.222 113.717C74.3158 113.796 74.4097 113.919 74.5035 114.087L75.4076 115.792H74.5035L73.644 114.176C73.5797 114.048 73.5056 113.949 73.4217 113.88C73.3426 113.811 73.2512 113.764 73.1475 113.739C73.0438 113.709 72.9178 113.694 72.7696 113.694H71.8878V115.792H71.0579ZM71.8878 113.028H73.2364C73.602 113.028 73.8687 112.953 74.0367 112.805C74.2047 112.657 74.2886 112.432 74.2886 112.131C74.2886 111.83 74.1997 111.61 74.0219 111.471C73.849 111.328 73.5773 111.257 73.2068 111.257H71.8878V113.028ZM78.1399 115.858C77.7051 115.858 77.3322 115.784 77.0209 115.636C76.7097 115.483 76.4726 115.263 76.3096 114.976C76.1465 114.685 76.065 114.342 76.065 113.946C76.065 113.581 76.1391 113.255 76.2873 112.968C76.4405 112.677 76.6578 112.45 76.9394 112.287C77.221 112.119 77.5569 112.035 77.9472 112.035C78.3128 112.035 78.624 112.114 78.8809 112.272C79.1427 112.425 79.3428 112.642 79.4811 112.924C79.6194 113.205 79.6886 113.541 79.6886 113.932V114.184H76.6949V113.65H79.1254L78.992 113.791C78.992 113.415 78.9006 113.131 78.7178 112.939C78.54 112.741 78.2856 112.642 77.9546 112.642C77.7372 112.642 77.5446 112.689 77.3766 112.783C77.2136 112.877 77.0827 113.013 76.9839 113.191C76.89 113.368 76.8431 113.586 76.8431 113.843V113.932C76.8431 114.218 76.895 114.455 76.9987 114.643C77.1024 114.831 77.2531 114.971 77.4507 115.065C77.6483 115.159 77.8854 115.206 78.1621 115.206C78.3597 115.206 78.5622 115.181 78.7697 115.132C78.9821 115.078 79.1748 114.984 79.3477 114.85L79.5996 115.421C79.407 115.574 79.1773 115.685 78.9105 115.754C78.6487 115.824 78.3918 115.858 78.1399 115.858ZM80.7376 117.125V112.101H81.4786V112.879H81.4934C81.607 112.608 81.7799 112.4 82.0121 112.257C82.2443 112.109 82.516 112.035 82.8272 112.035C83.173 112.035 83.4719 112.116 83.7238 112.279C83.9758 112.437 84.1709 112.66 84.3092 112.946C84.4475 113.233 84.5167 113.566 84.5167 113.946C84.5167 114.317 84.45 114.648 84.3166 114.939C84.1832 115.226 83.9906 115.451 83.7386 115.614C83.4867 115.777 83.1853 115.858 82.8346 115.858C82.5333 115.858 82.2739 115.789 82.0565 115.651C81.8392 115.507 81.6762 115.317 81.5675 115.08H81.5601V117.125H80.7376ZM82.6271 115.206C82.963 115.206 83.2249 115.093 83.4126 114.865C83.6052 114.638 83.7016 114.329 83.7016 113.939C83.7016 113.549 83.6052 113.242 83.4126 113.02C83.2249 112.798 82.963 112.687 82.6271 112.687C82.2912 112.687 82.0269 112.798 81.8342 113.02C81.6416 113.242 81.5452 113.549 81.5452 113.939C81.5452 114.329 81.6416 114.638 81.8342 114.865C82.0269 115.093 82.2912 115.206 82.6271 115.206ZM87.2606 115.858C86.8753 115.858 86.5394 115.779 86.2528 115.621C85.9713 115.463 85.7539 115.241 85.6008 114.954C85.4476 114.663 85.371 114.327 85.371 113.946C85.371 113.561 85.4476 113.225 85.6008 112.939C85.7539 112.652 85.9713 112.43 86.2528 112.272C86.5394 112.114 86.8753 112.035 87.2606 112.035C87.6459 112.035 87.9769 112.114 88.2536 112.272C88.5351 112.43 88.7525 112.652 88.9056 112.939C89.0637 113.225 89.1428 113.561 89.1428 113.946C89.1428 114.327 89.0662 114.663 88.9131 114.954C88.7599 115.241 88.5426 115.463 88.261 115.621C87.9794 115.779 87.6459 115.858 87.2606 115.858ZM87.2532 115.176C87.5891 115.176 87.8534 115.065 88.0461 114.843C88.2387 114.621 88.3351 114.319 88.3351 113.939C88.3351 113.559 88.2387 113.262 88.0461 113.05C87.8584 112.832 87.5965 112.724 87.2606 112.724C86.9197 112.724 86.653 112.832 86.4603 113.05C86.2726 113.262 86.1787 113.559 86.1787 113.939C86.1787 114.319 86.2751 114.621 86.4677 114.843C86.6604 115.065 86.9222 115.176 87.2532 115.176ZM90.2028 115.792V112.109H90.9289V112.976H90.9512C91.0401 112.709 91.1908 112.494 91.4032 112.331C91.6206 112.168 91.8873 112.077 92.2035 112.057L92.5888 112.027L92.6629 112.783L92.0479 112.835C91.7218 112.86 91.4699 112.966 91.292 113.154C91.1142 113.341 91.0253 113.571 91.0253 113.843V115.792H90.2028ZM95.3287 115.858C94.8544 115.858 94.4963 115.737 94.2542 115.495C94.0171 115.248 93.8985 114.897 93.8985 114.443V112.776H93.1649V112.109H93.9356V111.042H94.721V112.109H96.04V112.776H94.721V114.398C94.721 114.655 94.7803 114.848 94.8989 114.976C95.0224 115.1 95.2076 115.162 95.4546 115.162C95.5584 115.162 95.6572 115.152 95.751 115.132C95.8499 115.112 95.9462 115.085 96.04 115.051L96.166 115.688C96.0524 115.747 95.9215 115.789 95.7733 115.814C95.63 115.843 95.4818 115.858 95.3287 115.858ZM98.7636 115.858C98.3289 115.858 97.9559 115.784 97.6447 115.636C97.3334 115.483 97.0963 115.263 96.9333 114.976C96.7703 114.685 96.6888 114.342 96.6888 113.946C96.6888 113.581 96.7629 113.255 96.9111 112.968C97.0642 112.677 97.2816 112.45 97.5632 112.287C97.8447 112.119 98.1807 112.035 98.5709 112.035C98.9365 112.035 99.2477 112.114 99.5046 112.272C99.7664 112.425 99.9665 112.642 100.105 112.924C100.243 113.205 100.312 113.541 100.312 113.932V114.184H97.3186V113.65H99.7491L99.6158 113.791C99.6158 113.415 99.5244 113.131 99.3416 112.939C99.1637 112.741 98.9093 112.642 98.5783 112.642C98.361 112.642 98.1683 112.689 98.0004 112.783C97.8373 112.877 97.7064 113.013 97.6076 113.191C97.5138 113.368 97.4668 113.586 97.4668 113.843V113.932C97.4668 114.218 97.5187 114.455 97.6224 114.643C97.7262 114.831 97.8769 114.971 98.0745 115.065C98.2721 115.159 98.5092 115.206 98.7858 115.206C98.9834 115.206 99.186 115.181 99.3934 115.132C99.6059 115.078 99.7985 114.984 99.9714 114.85L100.223 115.421C100.031 115.574 99.801 115.685 99.5342 115.754C99.2724 115.824 99.0155 115.858 98.7636 115.858ZM102.843 115.858C102.497 115.858 102.196 115.779 101.939 115.621C101.687 115.458 101.492 115.233 101.354 114.947C101.216 114.655 101.146 114.322 101.146 113.946C101.146 113.571 101.216 113.24 101.354 112.953C101.492 112.667 101.687 112.442 101.939 112.279C102.191 112.116 102.488 112.035 102.828 112.035C103.14 112.035 103.404 112.106 103.621 112.25C103.839 112.388 103.997 112.576 104.096 112.813H104.11V110.567H104.933V115.792H104.192V115.013H104.17C104.056 115.285 103.886 115.495 103.658 115.643C103.431 115.787 103.159 115.858 102.843 115.858ZM103.043 115.206C103.384 115.206 103.649 115.095 103.836 114.873C104.029 114.645 104.125 114.337 104.125 113.946C104.125 113.556 104.029 113.25 103.836 113.028C103.649 112.8 103.387 112.687 103.051 112.687C102.715 112.687 102.451 112.8 102.258 113.028C102.065 113.25 101.969 113.556 101.969 113.946C101.969 114.337 102.065 114.645 102.258 114.873C102.451 115.095 102.712 115.206 103.043 115.206ZM109.834 115.858C109.488 115.858 109.187 115.779 108.93 115.621C108.678 115.458 108.483 115.233 108.344 114.947C108.206 114.655 108.137 114.322 108.137 113.946C108.137 113.571 108.206 113.24 108.344 112.953C108.483 112.667 108.678 112.442 108.93 112.279C109.182 112.116 109.478 112.035 109.819 112.035C110.13 112.035 110.394 112.106 110.612 112.25C110.829 112.388 110.987 112.576 111.086 112.813H111.101V110.567H111.923V115.792H111.182V115.013H111.16C111.046 115.285 110.876 115.495 110.649 115.643C110.422 115.787 110.15 115.858 109.834 115.858ZM110.034 115.206C110.375 115.206 110.639 115.095 110.827 114.873C111.019 114.645 111.116 114.337 111.116 113.946C111.116 113.556 111.019 113.25 110.827 113.028C110.639 112.8 110.377 112.687 110.041 112.687C109.705 112.687 109.441 112.8 109.248 113.028C109.056 113.25 108.959 113.556 108.959 113.946C108.959 114.337 109.056 114.645 109.248 114.873C109.441 115.095 109.703 115.206 110.034 115.206ZM114.46 115.858C114.193 115.858 113.953 115.809 113.741 115.71C113.533 115.611 113.368 115.478 113.244 115.31C113.121 115.137 113.059 114.942 113.059 114.724C113.059 114.448 113.138 114.228 113.296 114.065C113.459 113.897 113.706 113.776 114.037 113.702C114.368 113.628 114.791 113.591 115.304 113.591H115.845V114.117H115.349C115.092 114.117 114.87 114.127 114.682 114.146C114.494 114.161 114.341 114.191 114.223 114.235C114.104 114.275 114.015 114.332 113.956 114.406C113.897 114.475 113.867 114.566 113.867 114.68C113.867 114.868 113.939 115.009 114.082 115.102C114.23 115.196 114.418 115.243 114.645 115.243C114.838 115.243 115.016 115.199 115.179 115.11C115.346 115.016 115.48 114.895 115.579 114.747C115.677 114.594 115.727 114.428 115.727 114.25V113.428C115.727 113.156 115.645 112.963 115.482 112.85C115.324 112.736 115.09 112.679 114.778 112.679C114.566 112.679 114.351 112.709 114.134 112.768C113.921 112.823 113.694 112.919 113.452 113.057L113.215 112.472C113.378 112.373 113.548 112.294 113.726 112.235C113.909 112.17 114.099 112.121 114.297 112.086C114.494 112.052 114.692 112.035 114.89 112.035C115.221 112.035 115.51 112.086 115.757 112.19C116.004 112.294 116.194 112.455 116.327 112.672C116.46 112.884 116.527 113.166 116.527 113.517V115.792H115.831V115.013H115.808C115.734 115.167 115.635 115.307 115.512 115.436C115.393 115.564 115.245 115.668 115.067 115.747C114.894 115.821 114.692 115.858 114.46 115.858ZM119.44 115.858C118.966 115.858 118.608 115.737 118.366 115.495C118.129 115.248 118.01 114.897 118.01 114.443V112.776H117.277V112.109H118.047V111.042H118.833V112.109H120.152V112.776H118.833V114.398C118.833 114.655 118.892 114.848 119.011 114.976C119.134 115.1 119.319 115.162 119.566 115.162C119.67 115.162 119.769 115.152 119.863 115.132C119.962 115.112 120.058 115.085 120.152 115.051L120.278 115.688C120.164 115.747 120.033 115.789 119.885 115.814C119.742 115.843 119.593 115.858 119.44 115.858ZM122.875 115.858C122.441 115.858 122.068 115.784 121.756 115.636C121.445 115.483 121.208 115.263 121.045 114.976C120.882 114.685 120.8 114.342 120.8 113.946C120.8 113.581 120.875 113.255 121.023 112.968C121.176 112.677 121.393 112.45 121.675 112.287C121.956 112.119 122.292 112.035 122.683 112.035C123.048 112.035 123.359 112.114 123.616 112.272C123.878 112.425 124.078 112.642 124.216 112.924C124.355 113.205 124.424 113.541 124.424 113.932V114.184H121.43V113.65H123.861L123.727 113.791C123.727 113.415 123.636 113.131 123.453 112.939C123.275 112.741 123.021 112.642 122.69 112.642C122.473 112.642 122.28 112.689 122.112 112.783C121.949 112.877 121.818 113.013 121.719 113.191C121.625 113.368 121.579 113.586 121.579 113.843V113.932C121.579 114.218 121.63 114.455 121.734 114.643C121.838 114.831 121.989 114.971 122.186 115.065C122.384 115.159 122.621 115.206 122.897 115.206C123.095 115.206 123.298 115.181 123.505 115.132C123.718 115.078 123.91 114.984 124.083 114.85L124.335 115.421C124.142 115.574 123.913 115.685 123.646 115.754C123.384 115.824 123.127 115.858 122.875 115.858ZM125.34 113.028V112.109H126.355V113.028H125.34ZM125.34 115.792V114.873H126.355V115.792H125.34Z" fill="white"/>
<path d="M131.553 115.858C131.261 115.858 130.985 115.836 130.723 115.792C130.466 115.752 130.231 115.688 130.019 115.599C129.807 115.51 129.619 115.399 129.456 115.265L129.708 114.717C129.881 114.85 130.061 114.959 130.249 115.043C130.441 115.122 130.646 115.179 130.864 115.214C131.081 115.243 131.311 115.258 131.553 115.258C131.958 115.258 132.269 115.179 132.487 115.021C132.709 114.858 132.82 114.633 132.82 114.347C132.82 114.193 132.783 114.07 132.709 113.976C132.64 113.877 132.529 113.796 132.375 113.732C132.227 113.667 132.032 113.613 131.79 113.569L130.938 113.398C130.454 113.304 130.105 113.139 129.893 112.902C129.681 112.664 129.574 112.366 129.574 112.005C129.574 111.704 129.661 111.439 129.834 111.212C130.012 110.985 130.254 110.809 130.56 110.686C130.866 110.562 131.215 110.501 131.605 110.501C131.852 110.501 132.082 110.525 132.294 110.575C132.511 110.619 132.711 110.688 132.894 110.782C133.077 110.871 133.24 110.985 133.383 111.123L133.131 111.672C132.919 111.464 132.687 111.318 132.435 111.234C132.183 111.145 131.904 111.101 131.597 111.101C131.341 111.101 131.108 111.138 130.901 111.212C130.698 111.281 130.538 111.383 130.419 111.516C130.306 111.649 130.249 111.815 130.249 112.012C130.249 112.23 130.315 112.4 130.449 112.524C130.587 112.647 130.824 112.741 131.16 112.805L132.005 112.968C132.514 113.067 132.889 113.228 133.131 113.45C133.373 113.672 133.494 113.961 133.494 114.317C133.494 114.613 133.413 114.878 133.25 115.11C133.092 115.342 132.867 115.525 132.576 115.658C132.284 115.792 131.943 115.858 131.553 115.858ZM136.363 115.858C135.948 115.858 135.59 115.784 135.288 115.636C134.992 115.483 134.762 115.265 134.599 114.984C134.441 114.697 134.362 114.354 134.362 113.954C134.362 113.588 134.436 113.262 134.584 112.976C134.733 112.689 134.943 112.464 135.214 112.301C135.491 112.138 135.817 112.057 136.192 112.057C136.558 112.057 136.867 112.133 137.119 112.287C137.371 112.44 137.561 112.657 137.689 112.939C137.823 113.215 137.889 113.546 137.889 113.932V114.139H134.859V113.672H137.46L137.311 113.828C137.311 113.423 137.215 113.112 137.022 112.894C136.83 112.677 136.556 112.568 136.2 112.568C135.963 112.568 135.755 112.62 135.577 112.724C135.4 112.828 135.259 112.976 135.155 113.168C135.056 113.361 135.007 113.593 135.007 113.865V113.946C135.007 114.248 135.061 114.5 135.17 114.702C135.279 114.9 135.434 115.051 135.637 115.154C135.844 115.258 136.091 115.31 136.378 115.31C136.575 115.31 136.78 115.283 136.993 115.228C137.205 115.174 137.403 115.073 137.586 114.925L137.815 115.399C137.623 115.557 137.395 115.673 137.134 115.747C136.872 115.821 136.615 115.858 136.363 115.858ZM139.006 117.125V112.116H139.614V112.916H139.628C139.742 112.64 139.915 112.427 140.147 112.279C140.384 112.131 140.661 112.057 140.977 112.057C141.318 112.057 141.614 112.136 141.866 112.294C142.123 112.452 142.321 112.674 142.459 112.961C142.597 113.242 142.666 113.573 142.666 113.954C142.666 114.329 142.597 114.66 142.459 114.947C142.321 115.233 142.126 115.458 141.874 115.621C141.622 115.779 141.323 115.858 140.977 115.858C140.671 115.858 140.404 115.784 140.177 115.636C139.954 115.488 139.791 115.29 139.688 115.043H139.673V117.125H139.006ZM140.829 115.31C141.189 115.31 141.473 115.189 141.681 114.947C141.893 114.7 142 114.366 142 113.946C142 113.531 141.896 113.205 141.688 112.968C141.481 112.726 141.197 112.605 140.836 112.605C140.471 112.605 140.184 112.726 139.977 112.968C139.769 113.205 139.665 113.531 139.665 113.946C139.665 114.366 139.769 114.7 139.977 114.947C140.184 115.189 140.468 115.31 140.829 115.31ZM145.814 115.792V115.295L147.651 113.376C147.834 113.183 147.975 113.01 148.074 112.857C148.172 112.704 148.242 112.558 148.281 112.42C148.326 112.277 148.348 112.133 148.348 111.99C148.348 111.699 148.254 111.476 148.066 111.323C147.883 111.165 147.632 111.086 147.31 111.086C147.063 111.086 146.819 111.133 146.577 111.227C146.335 111.321 146.108 111.474 145.895 111.686L145.636 111.16C145.858 110.948 146.117 110.785 146.414 110.671C146.715 110.558 147.029 110.501 147.355 110.501C147.696 110.501 147.99 110.56 148.237 110.679C148.484 110.797 148.671 110.965 148.8 111.182C148.933 111.395 149 111.649 149 111.946C149 112.099 148.983 112.25 148.948 112.398C148.918 112.541 148.867 112.684 148.792 112.828C148.718 112.971 148.624 113.119 148.511 113.272C148.397 113.42 148.261 113.578 148.103 113.746L146.681 115.228V115.214H149.215V115.792H145.814ZM151.88 115.858C151.479 115.858 151.141 115.757 150.864 115.554C150.588 115.347 150.378 115.046 150.235 114.65C150.096 114.25 150.027 113.759 150.027 113.176C150.027 112.593 150.096 112.104 150.235 111.709C150.378 111.313 150.588 111.015 150.864 110.812C151.141 110.604 151.479 110.501 151.88 110.501C152.29 110.501 152.63 110.602 152.902 110.805C153.179 111.007 153.386 111.306 153.525 111.701C153.663 112.096 153.732 112.585 153.732 113.168C153.732 113.751 153.66 114.243 153.517 114.643C153.379 115.043 153.171 115.347 152.895 115.554C152.623 115.757 152.285 115.858 151.88 115.858ZM151.88 115.273C152.285 115.273 152.586 115.102 152.784 114.762C152.981 114.421 153.08 113.89 153.08 113.168C153.08 112.452 152.981 111.926 152.784 111.59C152.591 111.254 152.292 111.086 151.887 111.086C151.477 111.086 151.173 111.257 150.976 111.597C150.778 111.933 150.679 112.459 150.679 113.176C150.679 113.887 150.778 114.416 150.976 114.762C151.173 115.102 151.474 115.273 151.88 115.273ZM154.7 115.792V115.295L156.538 113.376C156.72 113.183 156.861 113.01 156.96 112.857C157.059 112.704 157.128 112.558 157.167 112.42C157.212 112.277 157.234 112.133 157.234 111.99C157.234 111.699 157.14 111.476 156.953 111.323C156.77 111.165 156.518 111.086 156.197 111.086C155.95 111.086 155.705 111.133 155.463 111.227C155.221 111.321 154.994 111.474 154.781 111.686L154.522 111.16C154.744 110.948 155.004 110.785 155.3 110.671C155.601 110.558 155.915 110.501 156.241 110.501C156.582 110.501 156.876 110.56 157.123 110.679C157.37 110.797 157.558 110.965 157.686 111.182C157.82 111.395 157.886 111.649 157.886 111.946C157.886 112.099 157.869 112.25 157.834 112.398C157.805 112.541 157.753 112.684 157.679 112.828C157.605 112.971 157.511 113.119 157.397 113.272C157.284 113.42 157.148 113.578 156.99 113.746L155.567 115.228V115.214H158.101V115.792H154.7ZM161.373 115.792V114.71H158.928V114.213L161.314 110.567H162.003V114.161H162.722V114.71H162.003V115.792H161.373ZM161.396 114.161V111.39H161.411L159.521 114.272L159.454 114.161H161.396Z" fill="#636B7A"/>
<rect x="210.477" y="39.8293" width="54.2152" height="18.6446" rx="3.30581" fill="white"/>
<path d="M215.697 53.1516V52.3735L218.354 49.5281C218.606 49.2539 218.806 49.0019 218.954 48.7722C219.11 48.5425 219.221 48.3202 219.287 48.1053C219.361 47.883 219.399 47.6607 219.399 47.4384C219.399 47.0086 219.265 46.6826 218.998 46.4603C218.739 46.238 218.361 46.1268 217.865 46.1268C217.487 46.1268 217.124 46.1972 216.775 46.338C216.427 46.4788 216.097 46.6974 215.786 46.9938L215.408 46.1935C215.712 45.8971 216.09 45.66 216.542 45.4822C216.994 45.3043 217.468 45.2154 217.965 45.2154C218.498 45.2154 218.947 45.3006 219.31 45.471C219.68 45.6341 219.962 45.8749 220.154 46.1935C220.347 46.5122 220.443 46.8975 220.443 47.3495C220.443 47.5866 220.414 47.82 220.354 48.0497C220.303 48.272 220.217 48.4944 220.099 48.7167C219.988 48.939 219.843 49.1687 219.665 49.4058C219.495 49.6355 219.291 49.8763 219.054 50.1283L216.798 52.5069V52.2624H220.755V53.1516H215.697ZM221.984 53.1516V51.9067H223.251V53.1516H221.984ZM227.166 53.2516C226.277 53.2516 225.584 53.059 225.088 52.6736C224.591 52.2883 224.343 51.7548 224.343 51.0731C224.343 50.7026 224.417 50.3802 224.565 50.106C224.714 49.8245 224.917 49.5947 225.177 49.4169C225.436 49.2391 225.736 49.1279 226.077 49.0835V49.2279C225.773 49.1538 225.503 49.0279 225.266 48.85C225.028 48.6722 224.847 48.4499 224.721 48.1831C224.595 47.9164 224.532 47.6237 224.532 47.305C224.532 46.6529 224.769 46.1417 225.243 45.7711C225.725 45.4006 226.366 45.2154 227.166 45.2154C227.974 45.2154 228.615 45.4006 229.089 45.7711C229.571 46.1417 229.812 46.6529 229.812 47.305C229.812 47.6237 229.745 47.9164 229.612 48.1831C229.486 48.4499 229.304 48.6722 229.067 48.85C228.837 49.0279 228.567 49.1501 228.256 49.2168V49.0835C228.604 49.1279 228.908 49.2391 229.167 49.4169C229.426 49.5947 229.626 49.8245 229.767 50.106C229.915 50.3876 229.99 50.71 229.99 51.0731C229.99 51.7548 229.741 52.2883 229.245 52.6736C228.748 53.059 228.055 53.2516 227.166 53.2516ZM227.166 52.3958C227.774 52.3958 228.23 52.2809 228.533 52.0512C228.845 51.8141 229 51.4658 229 51.0064C229 50.5395 228.845 50.1913 228.533 49.9615C228.222 49.7244 227.766 49.6059 227.166 49.6059C226.566 49.6059 226.11 49.7244 225.799 49.9615C225.488 50.1913 225.332 50.5395 225.332 51.0064C225.332 51.4658 225.488 51.8141 225.799 52.0512C226.11 52.2809 226.566 52.3958 227.166 52.3958ZM227.166 48.75C227.685 48.75 228.089 48.6314 228.378 48.3943C228.674 48.1572 228.822 47.8274 228.822 47.4051C228.822 46.9827 228.674 46.6567 228.378 46.4269C228.089 46.1898 227.685 46.0713 227.166 46.0713C226.655 46.0713 226.251 46.1898 225.955 46.4269C225.666 46.6567 225.521 46.9827 225.521 47.4051C225.521 47.8274 225.666 48.1572 225.955 48.3943C226.251 48.6314 226.655 48.75 227.166 48.75ZM230.485 53.1516L233.564 48.939V49.3502L230.619 45.3154H231.841L234.187 48.5944H233.92L236.254 45.3154H237.488L234.531 49.3502V48.939L237.61 53.1516H236.376L233.887 49.6837H234.209L231.719 53.1516H230.485Z" fill="#5172E7"/>
<path d="M244.968 51.1516V46.5796H243.108V45.9275H247.569V46.5796H245.717V51.1516H244.968ZM250.267 51.1516L248.007 45.9275H248.807L250.615 50.2476H250.586L252.386 45.9275H253.187L250.919 51.1516H250.267ZM254.114 51.1516V45.9275H256.322C256.698 45.9275 257.019 45.9917 257.286 46.1201C257.552 46.2436 257.755 46.424 257.893 46.6611C258.036 46.8982 258.108 47.1847 258.108 47.5206C258.108 47.8467 258.036 48.1307 257.893 48.3728C257.75 48.6149 257.545 48.8026 257.278 48.936C257.016 49.0644 256.698 49.1286 256.322 49.1286H254.862V51.1516H254.114ZM254.862 48.4988H256.211C256.587 48.4988 256.871 48.4197 257.063 48.2617C257.261 48.0986 257.36 47.8541 257.36 47.5281C257.36 47.1971 257.263 46.9525 257.071 46.7945C256.878 46.6364 256.591 46.5573 256.211 46.5573H254.862V48.4988ZM259.443 51.1516V45.9275H260.192V51.1516H259.443Z" fill="#A6A6A6"/>
<mask id="path-14-inside-1_4508_691" fill="white">
<path d="M218.597 83.6327C218.597 86.0655 219.076 88.4744 220.007 90.722C220.938 92.9695 222.303 95.0117 224.023 96.732C225.743 98.4522 227.785 99.8167 230.033 100.748C232.281 101.679 234.69 102.158 237.122 102.158L237.122 92.8953C235.906 92.8953 234.701 92.6557 233.578 92.1902C232.454 91.7247 231.433 91.0424 230.573 90.1823C229.713 89.3222 229.03 88.3011 228.565 87.1773C228.099 86.0535 227.86 84.8491 227.86 83.6327H218.597Z"/>
</mask>
<path d="M218.597 83.6327C218.597 86.0655 219.076 88.4744 220.007 90.722C220.938 92.9695 222.303 95.0117 224.023 96.732C225.743 98.4522 227.785 99.8167 230.033 100.748C232.281 101.679 234.69 102.158 237.122 102.158L237.122 92.8953C235.906 92.8953 234.701 92.6557 233.578 92.1902C232.454 91.7247 231.433 91.0424 230.573 90.1823C229.713 89.3222 229.03 88.3011 228.565 87.1773C228.099 86.0535 227.86 84.8491 227.86 83.6327H218.597Z" stroke="white" stroke-width="1.57661" mask="url(#path-14-inside-1_4508_691)"/>
<mask id="path-15-inside-2_4508_691" fill="white">
<path d="M237.122 65.1075C234.689 65.1075 232.28 65.5867 230.033 66.5177C227.785 67.4486 225.743 68.8132 224.023 70.5334C222.302 72.2536 220.938 74.2958 220.007 76.5434C219.076 78.791 218.597 81.1999 218.597 83.6327L227.859 83.6327C227.859 82.4163 228.099 81.2118 228.564 80.0881C229.03 78.9643 229.712 77.9432 230.572 77.0831C231.432 76.2229 232.453 75.5407 233.577 75.0752C234.701 74.6097 235.905 74.3701 237.122 74.3701L237.122 65.1075Z"/>
</mask>
<path d="M237.122 65.1075C234.689 65.1075 232.28 65.5867 230.033 66.5177C227.785 67.4486 225.743 68.8132 224.023 70.5334C222.302 72.2536 220.938 74.2958 220.007 76.5434C219.076 78.791 218.597 81.1999 218.597 83.6327L227.859 83.6327C227.859 82.4163 228.099 81.2118 228.564 80.0881C229.03 78.9643 229.712 77.9432 230.572 77.0831C231.432 76.2229 232.453 75.5407 233.577 75.0752C234.701 74.6097 235.905 74.3701 237.122 74.3701L237.122 65.1075Z" fill="#5172E7" stroke="white" stroke-width="1.57661" mask="url(#path-15-inside-2_4508_691)"/>
<mask id="path-16-inside-3_4508_691" fill="white">
<path d="M255.647 83.6327C255.647 81.1999 255.168 78.791 254.237 76.5434C253.306 74.2958 251.941 72.2536 250.221 70.5334C248.501 68.8132 246.459 67.4486 244.211 66.5177C241.964 65.5867 239.555 65.1075 237.122 65.1075L237.122 74.3701C238.338 74.3701 239.543 74.6097 240.666 75.0752C241.79 75.5407 242.811 76.2229 243.671 77.0831C244.532 77.9432 245.214 78.9643 245.679 80.0881C246.145 81.2118 246.384 82.4163 246.384 83.6327L255.647 83.6327Z"/>
</mask>
<path d="M255.647 83.6327C255.647 81.1999 255.168 78.791 254.237 76.5434C253.306 74.2958 251.941 72.2536 250.221 70.5334C248.501 68.8132 246.459 67.4486 244.211 66.5177C241.964 65.5867 239.555 65.1075 237.122 65.1075L237.122 74.3701C238.338 74.3701 239.543 74.6097 240.666 75.0752C241.79 75.5407 242.811 76.2229 243.671 77.0831C244.532 77.9432 245.214 78.9643 245.679 80.0881C246.145 81.2118 246.384 82.4163 246.384 83.6327L255.647 83.6327Z" stroke="white" stroke-width="1.57661" mask="url(#path-16-inside-3_4508_691)"/>
<mask id="path-17-inside-4_4508_691" fill="white">
<path d="M237.122 102.158C239.555 102.158 241.964 101.679 244.212 100.748C246.459 99.8167 248.501 98.4522 250.222 96.732C251.942 95.0117 253.306 92.9695 254.237 90.722C255.168 88.4744 255.647 86.0654 255.647 83.6327L246.385 83.6327C246.385 84.8491 246.145 86.0535 245.68 87.1773C245.214 88.3011 244.532 89.3222 243.672 90.1823C242.812 91.0424 241.791 91.7247 240.667 92.1902C239.543 92.6557 238.339 92.8953 237.122 92.8953L237.122 102.158Z"/>
</mask>
<path d="M237.122 102.158C239.555 102.158 241.964 101.679 244.212 100.748C246.459 99.8167 248.501 98.4522 250.222 96.732C251.942 95.0117 253.306 92.9695 254.237 90.722C255.168 88.4744 255.647 86.0654 255.647 83.6327L246.385 83.6327C246.385 84.8491 246.145 86.0535 245.68 87.1773C245.214 88.3011 244.532 89.3222 243.672 90.1823C242.812 91.0424 241.791 91.7247 240.667 92.1902C239.543 92.6557 238.339 92.8953 237.122 92.8953L237.122 102.158Z" stroke="white" stroke-width="1.57661" mask="url(#path-17-inside-4_4508_691)"/>
<rect width="3.94153" height="35.4737" transform="translate(235.153 65.8963)" fill="white"/>
<rect x="254.362" y="82.9496" width="2.94153" height="34.4737" transform="rotate(90 254.362 82.9496)" fill="white"/>
<rect x="254.362" y="82.9496" width="2.94153" height="34.4737" transform="rotate(90 254.362 82.9496)" stroke="white"/>
<rect x="230.472" y="80.1538" width="13.5571" height="7.99951" rx="2.29434" fill="#5172E7"/>
<path d="M232.675 86.8379V85.982H233.829V83.1162L234.322 83.1551L232.928 83.9915L232.519 83.2134L234.114 82.2668H234.86V85.982H235.923V86.8379H232.675ZM236.705 87.3306L235.927 87.1231L237.607 81.8777L238.385 82.0917L236.705 87.3306ZM240.529 86.8379V86.0274H238.5V85.3012L240.439 82.2668H241.482V85.2364H242.021V86.0274H241.482V86.8379H240.529ZM240.588 85.2364V83.4468H240.562L239.349 85.3531L239.272 85.2364H240.588Z" fill="white"/>
<path d="M212.004 117.86L211.118 116.434C211.009 116.257 210.863 116.121 210.679 116.026C210.503 115.931 210.285 115.883 210.027 115.883L210.792 115.568C211.009 115.568 211.196 115.591 211.352 115.639C211.515 115.68 211.658 115.754 211.78 115.863C211.909 115.972 212.031 116.125 212.147 116.322L212.839 117.442L212.004 117.86ZM210.007 115.883C209.498 115.883 209.036 115.799 208.621 115.629C208.214 115.459 207.864 115.214 207.572 114.895C207.28 114.569 207.056 114.179 206.899 113.723C206.743 113.268 206.665 112.759 206.665 112.195C206.665 111.625 206.74 111.115 206.889 110.667C207.045 110.212 207.27 109.825 207.562 109.505C207.854 109.186 208.207 108.941 208.621 108.772C209.036 108.602 209.498 108.517 210.007 108.517C210.523 108.517 210.985 108.602 211.393 108.772C211.807 108.941 212.16 109.186 212.452 109.505C212.751 109.825 212.975 110.212 213.125 110.667C213.281 111.115 213.359 111.621 213.359 112.185C213.359 112.756 213.281 113.268 213.125 113.723C212.969 114.179 212.744 114.569 212.452 114.895C212.16 115.214 211.807 115.459 211.393 115.629C210.985 115.799 210.523 115.883 210.007 115.883ZM210.007 115.017C210.503 115.017 210.924 114.909 211.27 114.691C211.617 114.474 211.882 114.155 212.065 113.734C212.249 113.306 212.34 112.793 212.34 112.195C212.34 111.591 212.249 111.081 212.065 110.667C211.889 110.246 211.624 109.926 211.27 109.709C210.924 109.492 210.503 109.383 210.007 109.383C209.525 109.383 209.107 109.492 208.754 109.709C208.407 109.926 208.142 110.246 207.959 110.667C207.776 111.081 207.684 111.591 207.684 112.195C207.684 112.793 207.776 113.302 207.959 113.723C208.142 114.145 208.407 114.467 208.754 114.691C209.107 114.909 209.525 115.017 210.007 115.017ZM216.661 115.883C216.253 115.883 215.91 115.809 215.632 115.659C215.36 115.51 215.156 115.286 215.021 114.987C214.885 114.688 214.817 114.318 214.817 113.876V110.789H215.785V113.856C215.785 114.121 215.822 114.345 215.897 114.528C215.972 114.712 216.09 114.851 216.253 114.946C216.416 115.041 216.624 115.089 216.875 115.089C217.153 115.089 217.398 115.024 217.609 114.895C217.819 114.766 217.982 114.593 218.098 114.376C218.22 114.151 218.281 113.897 218.281 113.611V110.789H219.249V115.792H218.332V114.681H218.403C218.254 115.068 218.03 115.367 217.731 115.578C217.432 115.782 217.075 115.883 216.661 115.883ZM222.487 115.883C222.141 115.883 221.828 115.816 221.55 115.68C221.271 115.544 221.051 115.36 220.887 115.13C220.731 114.899 220.653 114.64 220.653 114.355C220.653 113.982 220.752 113.686 220.949 113.469C221.146 113.251 221.465 113.095 221.906 113C222.348 112.905 222.932 112.857 223.659 112.857H224.24V113.479H223.689C223.302 113.479 222.976 113.492 222.711 113.52C222.446 113.547 222.232 113.591 222.069 113.652C221.906 113.713 221.788 113.798 221.713 113.907C221.645 114.009 221.611 114.138 221.611 114.294C221.611 114.559 221.706 114.773 221.896 114.936C222.093 115.092 222.355 115.17 222.681 115.17C222.946 115.17 223.183 115.106 223.394 114.977C223.611 114.848 223.781 114.678 223.903 114.467C224.032 114.25 224.097 114.005 224.097 113.734V112.582C224.097 112.188 224.002 111.903 223.812 111.726C223.621 111.55 223.326 111.462 222.925 111.462C222.633 111.462 222.341 111.506 222.049 111.594C221.764 111.675 221.468 111.808 221.163 111.991L220.857 111.298C221.047 111.176 221.258 111.071 221.489 110.983C221.726 110.888 221.974 110.816 222.232 110.769C222.491 110.721 222.742 110.697 222.986 110.697C223.428 110.697 223.801 110.769 224.107 110.911C224.413 111.047 224.644 111.261 224.8 111.553C224.956 111.845 225.034 112.219 225.034 112.674V115.792H224.158V114.681H224.199C224.131 114.912 224.015 115.119 223.852 115.303C223.696 115.486 223.503 115.629 223.272 115.731C223.048 115.833 222.786 115.883 222.487 115.883ZM226.628 115.792V110.789H227.535V111.971H227.484C227.599 111.584 227.803 111.285 228.095 111.074C228.387 110.857 228.761 110.735 229.216 110.708L229.613 110.677L229.685 111.523L229.022 111.594C228.567 111.635 228.217 111.781 227.973 112.032C227.728 112.283 227.606 112.616 227.606 113.031V115.792H226.628ZM233.016 115.883C232.398 115.883 231.936 115.724 231.63 115.405C231.324 115.085 231.172 114.623 231.172 114.019V111.553H230.183V110.789H231.192V109.301H232.14V110.789H233.8V111.553H232.14V113.948C232.14 114.314 232.221 114.593 232.384 114.783C232.547 114.973 232.805 115.068 233.158 115.068C233.281 115.068 233.4 115.055 233.515 115.028C233.631 115 233.743 114.966 233.851 114.926L234.004 115.67C233.889 115.737 233.739 115.788 233.556 115.822C233.372 115.863 233.192 115.883 233.016 115.883ZM234.745 109.607V108.568H235.906V109.607H234.745ZM234.847 115.792V110.789H235.815V115.792H234.847ZM239.003 115.883C238.487 115.883 238.093 115.737 237.821 115.445C237.556 115.146 237.424 114.719 237.424 114.162V108.609H238.392V114.09C238.392 114.301 238.422 114.481 238.483 114.63C238.545 114.78 238.633 114.892 238.748 114.966C238.871 115.041 239.02 115.079 239.197 115.079C239.285 115.079 239.37 115.075 239.451 115.068C239.533 115.062 239.618 115.045 239.706 115.017V115.792C239.591 115.819 239.475 115.839 239.36 115.853C239.251 115.873 239.132 115.883 239.003 115.883ZM242.952 115.883C242.402 115.883 241.926 115.782 241.525 115.578C241.125 115.367 240.816 115.068 240.598 114.681C240.388 114.294 240.282 113.832 240.282 113.296C240.282 112.786 240.384 112.338 240.588 111.951C240.799 111.557 241.087 111.251 241.454 111.034C241.828 110.809 242.259 110.697 242.748 110.697C243.224 110.697 243.628 110.799 243.961 111.003C244.293 111.207 244.548 111.495 244.725 111.869C244.908 112.243 245 112.688 245 113.204V113.53H241.026V112.898H244.358L244.175 113.071C244.175 112.535 244.052 112.124 243.808 111.839C243.57 111.553 243.224 111.411 242.769 111.411C242.442 111.411 242.164 111.485 241.933 111.635C241.702 111.777 241.522 111.981 241.393 112.246C241.271 112.511 241.21 112.827 241.21 113.194V113.275C241.21 113.683 241.278 114.022 241.413 114.294C241.549 114.566 241.746 114.769 242.004 114.905C242.269 115.041 242.589 115.109 242.962 115.109C243.247 115.109 243.529 115.068 243.808 114.987C244.086 114.905 244.351 114.766 244.603 114.569L244.908 115.242C244.664 115.445 244.365 115.605 244.012 115.72C243.658 115.829 243.305 115.883 242.952 115.883ZM254.722 115.792V114.681H256.444V109.709L257.096 109.74L255.109 110.952L254.569 109.964L256.821 108.609H257.768V114.681H259.368V115.792H254.722ZM260.617 116.515L259.629 116.23L262.268 108.048L263.246 108.334L260.617 116.515ZM266.663 115.792V114.437H263.494V113.469L266.765 108.609H267.957V113.357H268.925V114.437H267.957V115.792H266.663ZM266.683 113.357V110.188H266.877L264.564 113.642L264.513 113.357H266.683Z" fill="white"/>
<line x1="302.366" y1="39.8291" x2="302.366" y2="115.792" stroke="#D0D5DD" stroke-width="0.926259"/>
<rect x="337.614" y="39.8291" width="54.2152" height="18.6446" rx="3.30581" fill="white"/>
<path d="M345.373 53.1515V52.2623H347.23V46.1934L347.774 46.2156L345.762 47.4828L345.318 46.6936L347.519 45.3153H348.274V52.2623H350.008V53.1515H345.373ZM353.439 53.2515C353.172 53.2515 352.901 53.2181 352.627 53.1515C352.353 53.0774 352.094 52.9699 351.849 52.8291C351.605 52.6883 351.39 52.5216 351.204 52.3289L351.582 51.5287C351.857 51.8102 352.153 52.0177 352.472 52.1511C352.79 52.2771 353.116 52.3401 353.45 52.3401C353.805 52.3401 354.12 52.2771 354.394 52.1511C354.669 52.0177 354.898 51.8214 355.084 51.562C355.276 51.3026 355.421 50.9803 355.517 50.595C355.613 50.2023 355.662 49.7539 355.662 49.2501V48.3386H355.728C355.684 48.7314 355.562 49.0722 355.361 49.3612C355.161 49.6502 354.906 49.8725 354.595 50.0281C354.291 50.1763 353.946 50.2504 353.561 50.2504C353.101 50.2504 352.694 50.1467 352.338 49.9392C351.982 49.7243 351.701 49.4316 351.493 49.0611C351.293 48.6832 351.193 48.2534 351.193 47.7717C351.193 47.2753 351.301 46.8344 351.516 46.449C351.731 46.0637 352.027 45.7636 352.405 45.5487C352.783 45.3264 353.216 45.2153 353.705 45.2153C354.343 45.2153 354.88 45.3672 355.317 45.671C355.754 45.9674 356.084 46.4046 356.306 46.9826C356.536 47.5531 356.651 48.246 356.651 49.0611C356.651 49.9503 356.521 50.7098 356.262 51.3397C356.01 51.9621 355.647 52.4364 355.173 52.7624C354.698 53.0885 354.12 53.2515 353.439 53.2515ZM353.783 49.3946C354.094 49.3946 354.369 49.3242 354.606 49.1834C354.85 49.0426 355.039 48.8499 355.173 48.6054C355.306 48.3534 355.373 48.0644 355.373 47.7384C355.373 47.4049 355.306 47.116 355.173 46.8714C355.039 46.6195 354.854 46.4268 354.617 46.2934C354.38 46.1526 354.102 46.0822 353.783 46.0822C353.464 46.0822 353.187 46.1526 352.949 46.2934C352.712 46.4342 352.527 46.6269 352.394 46.8714C352.26 47.116 352.194 47.4049 352.194 47.7384C352.194 48.0644 352.26 48.3534 352.394 48.6054C352.527 48.8499 352.712 49.0426 352.949 49.1834C353.187 49.3242 353.464 49.3946 353.783 49.3946ZM360.459 53.4405L359.759 53.0292L364.36 45.0263L365.061 45.4376L360.459 53.4405ZM359.703 50.0059C359.31 50.0059 358.966 49.9133 358.669 49.728C358.38 49.5353 358.158 49.2612 358.003 48.9055C357.854 48.5424 357.78 48.1089 357.78 47.605C357.78 46.8566 357.951 46.2712 358.292 45.8488C358.64 45.4265 359.11 45.2153 359.703 45.2153C360.103 45.2153 360.448 45.3116 360.737 45.5043C361.026 45.6895 361.248 45.96 361.404 46.3157C361.559 46.6714 361.637 47.1011 361.637 47.605C361.637 48.1089 361.559 48.5387 361.404 48.8944C361.248 49.2501 361.026 49.5242 360.737 49.7169C360.448 49.9096 360.103 50.0059 359.703 50.0059ZM359.703 49.2834C360.029 49.2834 360.289 49.1463 360.481 48.8721C360.674 48.5906 360.77 48.1682 360.77 47.605C360.77 47.0493 360.674 46.6343 360.481 46.3601C360.289 46.0785 360.029 45.9378 359.703 45.9378C359.377 45.9378 359.118 46.0748 358.925 46.349C358.74 46.6232 358.647 47.0419 358.647 47.605C358.647 48.1682 358.74 48.5906 358.925 48.8721C359.118 49.1463 359.377 49.2834 359.703 49.2834ZM365.116 53.2515C364.716 53.2515 364.371 53.1589 364.082 52.9736C363.793 52.781 363.571 52.5068 363.416 52.1511C363.267 51.788 363.193 51.3545 363.193 50.8506C363.193 50.1022 363.364 49.5168 363.705 49.0944C364.053 48.6721 364.523 48.4609 365.116 48.4609C365.516 48.4609 365.857 48.5572 366.139 48.7499C366.428 48.9351 366.65 49.2093 366.806 49.5724C366.961 49.9281 367.039 50.3542 367.039 50.8506C367.039 51.3545 366.961 51.788 366.806 52.1511C366.657 52.5068 366.439 52.781 366.15 52.9736C365.861 53.1589 365.516 53.2515 365.116 53.2515ZM365.116 52.529C365.442 52.529 365.698 52.3919 365.883 52.1178C366.076 51.8362 366.172 51.4138 366.172 50.8506C366.172 50.2949 366.076 49.8799 365.883 49.6057C365.698 49.3242 365.442 49.1834 365.116 49.1834C364.79 49.1834 364.531 49.3205 364.338 49.5946C364.153 49.8688 364.06 50.2875 364.06 50.8506C364.06 51.4138 364.153 51.8362 364.338 52.1178C364.531 52.3919 364.79 52.529 365.116 52.529Z" fill="#5172E7"/>
<path d="M373.171 51.1515V45.9274H373.919V51.1515H373.171ZM375.598 51.1515V45.9274H377.799C378.372 45.9274 378.812 46.0583 379.118 46.3201C379.429 46.577 379.585 46.9499 379.585 47.439C379.585 47.7157 379.531 47.9552 379.422 48.1578C379.313 48.3554 379.163 48.5159 378.97 48.6394C378.782 48.758 378.557 48.837 378.296 48.8766L378.318 48.884L378.385 48.8988C378.498 48.9235 378.599 48.9778 378.688 49.0618C378.782 49.1409 378.874 49.2644 378.963 49.4323L379.881 51.1515H379.059L378.199 49.5287C378.13 49.3953 378.054 49.2915 377.97 49.2174C377.886 49.1433 377.787 49.0939 377.673 49.0692C377.565 49.0396 377.434 49.0248 377.28 49.0248H376.347V51.1515H375.598ZM376.347 48.4097H377.747C378.128 48.4097 378.404 48.3332 378.577 48.18C378.75 48.0219 378.837 47.7848 378.837 47.4687C378.837 47.1525 378.745 46.9228 378.562 46.7795C378.385 46.6313 378.103 46.5572 377.718 46.5572H376.347V48.4097ZM381.138 51.1515V45.9274H383.338C383.912 45.9274 384.351 46.0583 384.657 46.3201C384.969 46.577 385.124 46.9499 385.124 47.439C385.124 47.7157 385.07 47.9552 384.961 48.1578C384.853 48.3554 384.702 48.5159 384.509 48.6394C384.322 48.758 384.097 48.837 383.835 48.8766L383.857 48.884L383.924 48.8988C384.037 48.9235 384.139 48.9778 384.228 49.0618C384.322 49.1409 384.413 49.2644 384.502 49.4323L385.421 51.1515H384.598L383.739 49.5287C383.669 49.3953 383.593 49.2915 383.509 49.2174C383.425 49.1433 383.326 49.0939 383.213 49.0692C383.104 49.0396 382.973 49.0248 382.82 49.0248H381.886V51.1515H381.138ZM381.886 48.4097H383.287C383.667 48.4097 383.944 48.3332 384.117 48.18C384.289 48.0219 384.376 47.7848 384.376 47.4687C384.376 47.1525 384.284 46.9228 384.102 46.7795C383.924 46.6313 383.642 46.5572 383.257 46.5572H381.886V48.4097Z" fill="#A6A6A6"/>
<mask id="path-26-inside-5_4508_691" fill="white">
<path d="M377.59 86.731C377.59 88.5119 377.24 90.2753 376.558 91.9207C375.877 93.566 374.878 95.061 373.618 96.3203C372.359 97.5796 370.864 98.5785 369.219 99.26C367.573 99.9415 365.81 100.292 364.029 100.292L364.029 86.731H377.59Z"/>
</mask>
<path d="M377.59 86.731C377.59 88.5119 377.24 90.2753 376.558 91.9207C375.877 93.566 374.878 95.061 373.618 96.3203C372.359 97.5796 370.864 98.5785 369.219 99.26C367.573 99.9415 365.81 100.292 364.029 100.292L364.029 86.731H377.59Z" stroke="#F8F8F8" stroke-width="1.13011" mask="url(#path-26-inside-5_4508_691)"/>
<mask id="path-27-inside-6_4508_691" fill="white">
<path d="M364.891 64.7433C367.812 64.7433 370.706 65.2932 373.405 66.3616C376.104 67.43 378.557 68.9961 380.623 70.9702C382.689 72.9444 384.328 75.2881 385.446 77.8675C386.564 80.4469 387.14 83.2115 387.14 86.0034L364.891 86.0034L364.891 64.7433Z"/>
</mask>
<path d="M364.891 64.7433C367.812 64.7433 370.706 65.2932 373.405 66.3616C376.104 67.43 378.557 68.9961 380.623 70.9702C382.689 72.9444 384.328 75.2881 385.446 77.8675C386.564 80.4469 387.14 83.2115 387.14 86.0034L364.891 86.0034L364.891 64.7433Z" fill="#5172E7" stroke="#F8F8F8" stroke-width="1.13011" mask="url(#path-27-inside-6_4508_691)"/>
<mask id="path-28-inside-7_4508_691" fill="white">
<path d="M349.903 86.1681C349.903 84.3872 350.254 82.6237 350.935 80.9784C351.617 79.333 352.616 77.8381 353.875 76.5788C355.134 75.3195 356.629 74.3206 358.274 73.6391C359.92 72.9575 361.683 72.6068 363.464 72.6068L363.464 86.1681L349.903 86.1681Z"/>
</mask>
<path d="M349.903 86.1681C349.903 84.3872 350.254 82.6237 350.935 80.9784C351.617 79.333 352.616 77.8381 353.875 76.5788C355.134 75.3195 356.629 74.3206 358.274 73.6391C359.92 72.9575 361.683 72.6068 363.464 72.6068L363.464 86.1681L349.903 86.1681Z" stroke="#F8F8F8" stroke-width="1.13011" mask="url(#path-28-inside-7_4508_691)"/>
<mask id="path-29-inside-8_4508_691" fill="white">
<path d="M363.464 100.292C361.683 100.292 359.92 99.9415 358.274 99.26C356.629 98.5785 355.134 97.5796 353.875 96.3203C352.616 95.061 351.617 93.566 350.935 91.9207C350.254 90.2753 349.903 88.5119 349.903 86.731L363.464 86.731L363.464 100.292Z"/>
</mask>
<path d="M363.464 100.292C361.683 100.292 359.92 99.9415 358.274 99.26C356.629 98.5785 355.134 97.5796 353.875 96.3203C352.616 95.061 351.617 93.566 350.935 91.9207C350.254 90.2753 349.903 88.5119 349.903 86.731L363.464 86.731L363.464 100.292Z" stroke="#F8F8F8" stroke-width="1.13011" mask="url(#path-29-inside-8_4508_691)"/>
<path d="M372.116 80.6428V79.6935L374.41 77.2906C374.615 77.0665 374.776 76.8654 374.895 76.6874C375.02 76.5028 375.109 76.3281 375.162 76.1633C375.221 75.9985 375.251 75.8304 375.251 75.659C375.251 75.336 375.145 75.0888 374.934 74.9174C374.723 74.746 374.423 74.6603 374.035 74.6603C373.731 74.6603 373.428 74.7196 373.125 74.8383C372.828 74.9503 372.545 75.1283 372.274 75.3723L371.829 74.4032C372.119 74.1461 372.472 73.945 372.887 73.8C373.309 73.6484 373.744 73.5726 374.193 73.5726C374.687 73.5726 375.106 73.6517 375.449 73.8099C375.798 73.9615 376.062 74.1856 376.24 74.4823C376.424 74.7789 376.517 75.1349 376.517 75.5502C376.517 75.7546 376.49 75.959 376.437 76.1633C376.391 76.3611 376.315 76.5589 376.21 76.7566C376.111 76.9478 375.986 77.1456 375.834 77.3499C375.683 77.5477 375.498 77.7587 375.28 77.9828L373.57 79.7627V79.565H376.783V80.6428H372.116Z" fill="white"/>
<path d="M340.233 117.86L339.347 116.434C339.238 116.257 339.092 116.121 338.909 116.026C338.732 115.931 338.515 115.883 338.256 115.883L339.021 115.568C339.238 115.568 339.425 115.591 339.581 115.639C339.744 115.68 339.887 115.754 340.009 115.863C340.138 115.972 340.26 116.124 340.376 116.321L341.069 117.442L340.233 117.86ZM338.236 115.883C337.727 115.883 337.265 115.798 336.85 115.629C336.443 115.459 336.093 115.214 335.801 114.895C335.509 114.569 335.285 114.178 335.128 113.723C334.972 113.268 334.894 112.759 334.894 112.195C334.894 111.624 334.969 111.115 335.118 110.667C335.275 110.212 335.499 109.824 335.791 109.505C336.083 109.186 336.436 108.941 336.85 108.772C337.265 108.602 337.727 108.517 338.236 108.517C338.752 108.517 339.214 108.602 339.622 108.772C340.036 108.941 340.389 109.186 340.681 109.505C340.98 109.824 341.204 110.212 341.354 110.667C341.51 111.115 341.588 111.621 341.588 112.185C341.588 112.755 341.51 113.268 341.354 113.723C341.198 114.178 340.973 114.569 340.681 114.895C340.389 115.214 340.036 115.459 339.622 115.629C339.214 115.798 338.752 115.883 338.236 115.883ZM338.236 115.017C338.732 115.017 339.153 114.909 339.5 114.691C339.846 114.474 340.111 114.155 340.294 113.734C340.478 113.306 340.569 112.793 340.569 112.195C340.569 111.59 340.478 111.081 340.294 110.667C340.118 110.246 339.853 109.926 339.5 109.709C339.153 109.492 338.732 109.383 338.236 109.383C337.754 109.383 337.336 109.492 336.983 109.709C336.636 109.926 336.372 110.246 336.188 110.667C336.005 111.081 335.913 111.59 335.913 112.195C335.913 112.793 336.005 113.302 336.188 113.723C336.372 114.144 336.636 114.467 336.983 114.691C337.336 114.909 337.754 115.017 338.236 115.017ZM344.89 115.883C344.482 115.883 344.139 115.809 343.861 115.659C343.589 115.51 343.385 115.286 343.25 114.987C343.114 114.688 343.046 114.318 343.046 113.876V110.789H344.014V113.856C344.014 114.121 344.051 114.345 344.126 114.528C344.201 114.712 344.319 114.851 344.482 114.946C344.646 115.041 344.853 115.089 345.104 115.089C345.383 115.089 345.627 115.024 345.838 114.895C346.048 114.766 346.211 114.593 346.327 114.375C346.449 114.151 346.51 113.897 346.51 113.611V110.789H347.478V115.792H346.561V114.681H346.632C346.483 115.068 346.259 115.367 345.96 115.578C345.661 115.781 345.304 115.883 344.89 115.883ZM350.716 115.883C350.37 115.883 350.057 115.815 349.779 115.68C349.5 115.544 349.28 115.36 349.117 115.129C348.96 114.898 348.882 114.64 348.882 114.355C348.882 113.981 348.981 113.686 349.178 113.469C349.375 113.251 349.694 113.095 350.135 113C350.577 112.905 351.161 112.857 351.888 112.857H352.469V113.479H351.919C351.531 113.479 351.205 113.492 350.94 113.52C350.675 113.547 350.462 113.591 350.298 113.652C350.135 113.713 350.017 113.798 349.942 113.907C349.874 114.009 349.84 114.138 349.84 114.294C349.84 114.559 349.935 114.773 350.125 114.936C350.322 115.092 350.584 115.17 350.91 115.17C351.175 115.17 351.412 115.106 351.623 114.977C351.84 114.847 352.01 114.678 352.132 114.467C352.262 114.25 352.326 114.005 352.326 113.734V112.582C352.326 112.188 352.231 111.903 352.041 111.726C351.851 111.55 351.555 111.461 351.154 111.461C350.862 111.461 350.57 111.506 350.278 111.594C349.993 111.675 349.697 111.808 349.392 111.991L349.086 111.298C349.276 111.176 349.487 111.071 349.718 110.983C349.955 110.887 350.203 110.816 350.462 110.769C350.72 110.721 350.971 110.697 351.215 110.697C351.657 110.697 352.031 110.769 352.336 110.911C352.642 111.047 352.873 111.261 353.029 111.553C353.185 111.845 353.263 112.219 353.263 112.674V115.792H352.387V114.681H352.428C352.36 114.912 352.245 115.119 352.082 115.303C351.925 115.486 351.732 115.629 351.501 115.731C351.277 115.832 351.015 115.883 350.716 115.883ZM354.857 115.792V110.789H355.764V111.971H355.713C355.828 111.584 356.032 111.285 356.324 111.074C356.616 110.857 356.99 110.735 357.445 110.707L357.842 110.677L357.914 111.523L357.251 111.594C356.796 111.635 356.447 111.781 356.202 112.032C355.957 112.283 355.835 112.616 355.835 113.03V115.792H354.857ZM361.245 115.883C360.627 115.883 360.165 115.724 359.859 115.404C359.554 115.085 359.401 114.623 359.401 114.019V111.553H358.412V110.789H359.421V109.301H360.369V110.789H362.029V111.553H360.369V113.947C360.369 114.314 360.45 114.593 360.613 114.783C360.776 114.973 361.034 115.068 361.388 115.068C361.51 115.068 361.629 115.055 361.744 115.027C361.86 115 361.972 114.966 362.08 114.926L362.233 115.669C362.118 115.737 361.968 115.788 361.785 115.822C361.602 115.863 361.422 115.883 361.245 115.883ZM362.974 109.607V108.568H364.135V109.607H362.974ZM363.076 115.792V110.789H364.044V115.792H363.076ZM367.232 115.883C366.716 115.883 366.322 115.737 366.05 115.445C365.785 115.146 365.653 114.718 365.653 114.161V108.609H366.621V114.09C366.621 114.301 366.651 114.481 366.712 114.63C366.774 114.78 366.862 114.892 366.977 114.966C367.1 115.041 367.249 115.078 367.426 115.078C367.514 115.078 367.599 115.075 367.68 115.068C367.762 115.061 367.847 115.044 367.935 115.017V115.792C367.82 115.819 367.704 115.839 367.589 115.853C367.48 115.873 367.361 115.883 367.232 115.883ZM371.181 115.883C370.631 115.883 370.155 115.781 369.755 115.578C369.354 115.367 369.045 115.068 368.827 114.681C368.617 114.294 368.512 113.832 368.512 113.295C368.512 112.786 368.613 112.338 368.817 111.95C369.028 111.556 369.316 111.251 369.683 111.033C370.057 110.809 370.488 110.697 370.977 110.697C371.453 110.697 371.857 110.799 372.19 111.003C372.523 111.207 372.777 111.495 372.954 111.869C373.137 112.243 373.229 112.687 373.229 113.204V113.53H369.255V112.898H372.587L372.404 113.071C372.404 112.535 372.281 112.124 372.037 111.838C371.799 111.553 371.453 111.41 370.998 111.41C370.672 111.41 370.393 111.485 370.162 111.635C369.931 111.777 369.751 111.981 369.622 112.246C369.5 112.511 369.439 112.827 369.439 113.193V113.275C369.439 113.683 369.507 114.022 369.642 114.294C369.778 114.566 369.975 114.769 370.233 114.905C370.498 115.041 370.818 115.109 371.191 115.109C371.476 115.109 371.758 115.068 372.037 114.987C372.315 114.905 372.58 114.766 372.832 114.569L373.137 115.241C372.893 115.445 372.594 115.605 372.241 115.72C371.887 115.829 371.534 115.883 371.181 115.883ZM379.98 115.792V114.814L382.344 112.338C382.555 112.107 382.721 111.9 382.844 111.716C382.973 111.526 383.064 111.346 383.119 111.176C383.18 111.006 383.21 110.833 383.21 110.656C383.21 110.324 383.102 110.069 382.884 109.892C382.667 109.716 382.358 109.627 381.957 109.627C381.645 109.627 381.332 109.689 381.02 109.811C380.714 109.926 380.422 110.11 380.143 110.361L379.695 109.362C379.987 109.098 380.347 108.89 380.775 108.741C381.21 108.585 381.658 108.507 382.12 108.507C382.63 108.507 383.061 108.588 383.414 108.751C383.774 108.907 384.046 109.138 384.229 109.444C384.419 109.743 384.514 110.106 384.514 110.534C384.514 110.752 384.487 110.966 384.433 111.176C384.385 111.38 384.307 111.584 384.199 111.787C384.097 111.984 383.968 112.188 383.811 112.399C383.655 112.603 383.465 112.82 383.241 113.051L381.448 114.905V114.681H384.79V115.792H379.98ZM386.1 116.515L385.112 116.23L387.751 108.048L388.729 108.333L386.1 116.515ZM392.146 115.792V114.437H388.977V113.469L392.247 108.609H393.44V113.357H394.408V114.437H393.44V115.792H392.146ZM392.166 113.357V110.188H392.36L390.047 113.642L389.996 113.357H392.166Z" fill="white"/>
<line x1="428.003" y1="39.8291" x2="428.003" y2="115.792" stroke="#D0D5DD" stroke-width="0.926259"/>
<rect x="459.858" y="39.8291" width="54.2152" height="18.6446" rx="3.30581" fill="white"/>
<path d="M473.57 53.2515C472.97 53.2515 472.462 53.0996 472.047 52.7958C471.633 52.4846 471.318 52.0288 471.103 51.4286C470.895 50.8284 470.791 50.0948 470.791 49.2278C470.791 48.346 470.895 47.6087 471.103 47.0159C471.318 46.4231 471.633 45.9748 472.047 45.671C472.462 45.3672 472.97 45.2153 473.57 45.2153C474.178 45.2153 474.685 45.3672 475.093 45.671C475.508 45.9748 475.819 46.4231 476.027 47.0159C476.242 47.6087 476.349 48.3423 476.349 49.2167C476.349 50.0837 476.242 50.8173 476.027 51.4175C475.819 52.0177 475.508 52.4734 475.093 52.7847C474.685 53.0959 474.178 53.2515 473.57 53.2515ZM473.57 52.3623C474.163 52.3623 474.6 52.1103 474.882 51.6065C475.171 51.0952 475.315 50.2986 475.315 49.2167C475.315 48.1423 475.175 47.3568 474.893 46.8603C474.611 46.3564 474.17 46.1045 473.57 46.1045C472.985 46.1045 472.548 46.3564 472.259 46.8603C471.97 47.3568 471.825 48.1423 471.825 49.2167C471.825 50.2912 471.966 51.084 472.248 51.5953C472.537 52.1066 472.977 52.3623 473.57 52.3623ZM477.478 53.1515V51.9066H478.746V53.1515H477.478ZM482.116 53.2515C481.849 53.2515 481.579 53.2181 481.305 53.1515C481.03 53.0774 480.771 52.9699 480.527 52.8291C480.282 52.6883 480.067 52.5216 479.882 52.3289L480.26 51.5287C480.534 51.8102 480.83 52.0177 481.149 52.1511C481.468 52.2771 481.794 52.3401 482.127 52.3401C482.483 52.3401 482.798 52.2771 483.072 52.1511C483.346 52.0177 483.576 51.8214 483.761 51.562C483.954 51.3026 484.098 50.9803 484.195 50.595C484.291 50.2023 484.339 49.7539 484.339 49.2501V48.3386H484.406C484.361 48.7314 484.239 49.0722 484.039 49.3612C483.839 49.6502 483.583 49.8725 483.272 50.0281C482.968 50.1763 482.624 50.2504 482.238 50.2504C481.779 50.2504 481.371 50.1467 481.016 49.9392C480.66 49.7243 480.378 49.4316 480.171 49.0611C479.971 48.6832 479.871 48.2534 479.871 47.7717C479.871 47.2753 479.978 46.8344 480.193 46.449C480.408 46.0637 480.704 45.7636 481.082 45.5487C481.46 45.3264 481.894 45.2153 482.383 45.2153C483.02 45.2153 483.557 45.3672 483.994 45.671C484.432 45.9674 484.761 46.4046 484.984 46.9826C485.213 47.5531 485.328 48.246 485.328 49.0611C485.328 49.9503 485.199 50.7098 484.939 51.3397C484.687 51.9621 484.324 52.4364 483.85 52.7624C483.376 53.0885 482.798 53.2515 482.116 53.2515ZM482.461 49.3946C482.772 49.3946 483.046 49.3242 483.283 49.1834C483.528 49.0426 483.717 48.8499 483.85 48.6054C483.983 48.3534 484.05 48.0644 484.05 47.7384C484.05 47.4049 483.983 47.116 483.85 46.8714C483.717 46.6195 483.531 46.4268 483.294 46.2934C483.057 46.1526 482.779 46.0822 482.461 46.0822C482.142 46.0822 481.864 46.1526 481.627 46.2934C481.39 46.4342 481.205 46.6269 481.071 46.8714C480.938 47.116 480.871 47.4049 480.871 47.7384C480.871 48.0644 480.938 48.3534 481.071 48.6054C481.205 48.8499 481.39 49.0426 481.627 49.1834C481.864 49.3242 482.142 49.3946 482.461 49.3946Z" fill="#5172E7"/>
<path d="M491.076 51.1515V45.9274H493.285C493.66 45.9274 493.981 45.9916 494.248 46.12C494.515 46.2435 494.717 46.4238 494.856 46.661C494.999 46.8981 495.07 47.1846 495.07 47.5205C495.07 47.8466 494.999 48.1306 494.856 48.3727C494.712 48.6147 494.507 48.8025 494.24 48.9358C493.979 49.0643 493.66 49.1285 493.285 49.1285H491.825V51.1515H491.076ZM491.825 48.4987H493.173C493.549 48.4987 493.833 48.4196 494.026 48.2615C494.223 48.0985 494.322 47.854 494.322 47.5279C494.322 47.197 494.226 46.9524 494.033 46.7943C493.84 46.6363 493.554 46.5572 493.173 46.5572H491.825V48.4987ZM496.406 51.1515V45.9274H497.154V51.1515H496.406ZM501.101 51.2256C500.597 51.2256 500.157 51.1169 499.782 50.8995C499.412 50.6822 499.125 50.3734 498.922 49.9733C498.72 49.5731 498.619 49.0939 498.619 48.5357C498.619 47.9775 498.72 47.5008 498.922 47.1056C499.125 46.7054 499.412 46.3991 499.782 46.1867C500.153 45.9693 500.592 45.8607 501.101 45.8607C501.462 45.8607 501.793 45.915 502.094 46.0237C502.4 46.1274 502.66 46.2855 502.872 46.4979L502.598 47.0833C502.371 46.8857 502.138 46.7449 501.901 46.661C501.664 46.572 501.402 46.5276 501.116 46.5276C500.582 46.5276 500.162 46.698 499.856 47.0389C499.55 47.3797 499.397 47.8787 499.397 48.5357C499.397 49.1927 499.547 49.6941 499.849 50.0399C500.155 50.3808 500.577 50.5512 501.116 50.5512C501.402 50.5512 501.664 50.5093 501.901 50.4253C502.138 50.3364 502.371 50.1931 502.598 49.9955L502.872 50.5809C502.66 50.7933 502.4 50.9539 502.094 51.0625C501.793 51.1712 501.462 51.2256 501.101 51.2256Z" fill="#A6A6A6"/>
<path d="M512.037 89.7733C512.037 103.412 500.981 114.469 487.342 114.469C473.703 114.469 462.646 103.412 462.646 89.7733C462.646 76.1344 473.703 65.0779 487.342 65.0779C500.981 65.0779 512.037 76.1344 512.037 89.7733ZM474.801 89.7733C474.801 96.6996 480.416 102.314 487.342 102.314C494.268 102.314 499.883 96.6996 499.883 89.7733C499.883 82.8471 494.268 77.2323 487.342 77.2323C480.416 77.2323 474.801 82.8471 474.801 89.7733Z" fill="#E5E5E5"/>
<path d="M467.127 89.7733C464.653 89.7733 462.605 87.751 463.052 85.3169C463.785 81.3194 465.499 77.5405 468.069 74.3327C471.579 69.9517 476.476 66.8972 481.955 65.6727C487.433 64.4481 493.165 65.1265 498.206 67.5962C503.248 70.0658 507.297 74.1792 509.687 79.2585C512.077 84.3378 512.665 90.0799 511.355 95.5384C510.045 100.997 506.914 105.846 502.478 109.287C498.042 112.727 492.567 114.554 486.954 114.466C482.844 114.401 478.84 113.313 475.293 111.33C473.132 110.122 472.879 107.256 474.457 105.349L476.492 102.889C478.069 100.982 480.894 100.811 483.232 101.622C484.483 102.056 485.803 102.292 487.145 102.313C489.995 102.358 492.776 101.43 495.028 99.6827C497.281 97.9355 498.871 95.4729 499.536 92.701C500.202 89.929 499.903 87.013 498.689 84.4336C497.476 81.8542 495.419 79.7653 492.859 78.5111C490.299 77.257 487.388 76.9125 484.606 77.5343C481.824 78.1562 479.337 79.7074 477.555 81.9321C476.715 82.9798 476.056 84.1473 475.593 85.3872C474.727 87.7056 472.795 89.7733 470.32 89.7733L467.127 89.7733Z" fill="#5172E7"/>
</g>
<defs>
<filter id="filter0_d_4508_691" x="0.000337601" y="-1.33514e-05" width="574.281" height="179.703" filterUnits="userSpaceOnUse" color-interpolation-filters="sRGB">
<feFlood flood-opacity="0" result="BackgroundImageFix"/>
<feColorMatrix in="SourceAlpha" type="matrix" values="0 0 0 0 0 0 0 0 0 0 0 0 0 0 0 0 0 0 127 0" result="hardAlpha"/>
<feOffset dy="12.0414"/>
<feGaussianBlur stdDeviation="14.8201"/>
<feComposite in2="hardAlpha" operator="out"/>
<feColorMatrix type="matrix" values="0 0 0 0 0 0 0 0 0 0 0 0 0 0 0 0 0 0 0.16 0"/>
<feBlend mode="normal" in2="BackgroundImageFix" result="effect1_dropShadow_4508_691"/>
<feBlend mode="normal" in="SourceGraphic" in2="effect1_dropShadow_4508_691" result="shape"/>
</filter>
</defs>
</svg>
