<svg width="307" height="99" viewBox="0 0 307 99" fill="none" xmlns="http://www.w3.org/2000/svg">
<line x1="304.997" y1="18.2219" x2="0.257874" y2="18.2219" stroke="#B3B3B3" stroke-width="0.272706"/>
<line x1="304.997" y1="36.9786" x2="0.257874" y2="36.9786" stroke="#B3B3B3" stroke-width="0.272706"/>
<line x1="304.997" y1="55.7354" x2="0.257874" y2="55.7354" stroke="#B3B3B3" stroke-width="0.272706"/>
<line x1="304.997" y1="74.4922" x2="0.257874" y2="74.4922" stroke="#B3B3B3" stroke-width="0.272706"/>
<path d="M18.4493 54.8146L0.683991 66.6275L1.79775 78.611L305.84 61.5591L304.868 51.1055L255.816 38.8513C252.849 38.11 249.756 38.3315 246.994 39.4827L211.518 54.2719C207.868 55.7933 203.684 55.6746 200.009 53.9454L190.388 49.418C186.855 47.7557 182.845 47.579 179.287 48.9289L150.138 59.9911C146.506 61.3695 142.405 61.155 138.824 59.3995L120.868 50.5955C116.811 48.6062 112.116 48.6083 108.205 50.6014L73.7591 68.1582C69.8365 70.1574 65.1252 70.1531 61.0604 68.1464L32.49 54.0418C27.9153 51.7834 22.565 52.0779 18.4493 54.8146Z" fill="url(#paint0_linear_4502_395)"/>
<path d="M0.820275 66.7278L18.705 55.0077C22.7856 52.3337 28.0583 52.0434 32.5868 54.2436L61.3417 68.2142C65.3642 70.1685 70.0068 70.1705 73.8887 68.2194L108.569 50.7889C112.439 48.844 117.065 48.8395 121.08 50.7768L139.192 59.5165C142.735 61.2259 146.777 61.4329 150.367 60.0885L179.728 49.0925C183.243 47.776 187.195 47.9461 190.69 49.5642L200.457 54.0866C204.092 55.7698 208.215 55.8833 211.823 54.3994L247.504 39.7243C250.232 38.6023 253.279 38.3847 256.207 39.103L305.364 51.1644" stroke="#B5E4CA" stroke-width="1.63623" stroke-linecap="round"/>
<path opacity="0.68" d="M0.501432 96.3667L0.435829 95.5795L1.11997 95.542C1.32616 95.5295 1.50422 95.4795 1.65417 95.392C1.80412 95.3045 1.91971 95.1796 2.00093 95.0171C2.08215 94.8547 2.12276 94.6641 2.12276 94.4455V89.6846H3.03183V94.4829C3.03183 94.8453 2.95998 95.1608 2.81628 95.4295C2.67883 95.6982 2.47577 95.9106 2.20711 96.0668C1.9447 96.2167 1.62606 96.3042 1.25118 96.3292L0.501432 96.3667ZM6.2283 96.3761C5.89716 96.3761 5.60038 96.3136 5.33797 96.1886C5.08181 96.0637 4.87875 95.895 4.7288 95.6825C4.5851 95.4701 4.51325 95.2296 4.51325 94.9609C4.51325 94.6173 4.60696 94.3455 4.7944 94.1456C4.98809 93.9394 5.28799 93.7926 5.6941 93.7051C6.10646 93.6176 6.64066 93.5739 7.29669 93.5739H7.87774V94.1643H7.33418C6.98429 94.1643 6.68439 94.1768 6.43448 94.2018C6.19081 94.2205 5.994 94.258 5.84405 94.3143C5.6941 94.3705 5.58476 94.4486 5.51603 94.5486C5.44731 94.6423 5.41294 94.7641 5.41294 94.9141C5.41294 95.1577 5.50354 95.3514 5.68473 95.4951C5.86592 95.6326 6.10334 95.7013 6.39699 95.7013C6.65315 95.7013 6.8812 95.6419 7.08114 95.5232C7.28107 95.4045 7.44039 95.2452 7.5591 95.0453C7.68406 94.8453 7.74654 94.6267 7.74654 94.3892V93.3208C7.74654 92.9647 7.65282 92.7085 7.46538 92.5523C7.28419 92.3899 7.00304 92.3087 6.62191 92.3087C6.35325 92.3087 6.08459 92.3462 5.81593 92.4211C5.54727 92.4961 5.26924 92.6211 4.98184 92.796L4.70068 92.14C4.88812 92.0275 5.09118 91.9307 5.30985 91.8495C5.52853 91.7682 5.75658 91.7058 5.994 91.662C6.23142 91.612 6.46572 91.587 6.69689 91.587C7.103 91.587 7.44976 91.6526 7.73717 91.7839C8.02457 91.9151 8.24325 92.115 8.3932 92.3837C8.54314 92.6461 8.61812 92.9897 8.61812 93.4146V96.2917H7.81214V95.2796H7.84026C7.76528 95.4857 7.65282 95.6732 7.50287 95.8419C7.35917 96.0106 7.17798 96.1418 6.9593 96.2355C6.74687 96.3292 6.5032 96.3761 6.2283 96.3761ZM10.1371 96.2917V91.6808H10.9899V92.6648H10.9524C11.0961 92.3212 11.3179 92.0556 11.6178 91.8682C11.9177 91.6808 12.2551 91.587 12.63 91.587C13.0111 91.587 13.3266 91.6558 13.5766 91.7932C13.8265 91.9307 14.0139 92.1369 14.1389 92.4118C14.2638 92.6867 14.3263 93.0366 14.3263 93.4614V96.2917H13.4172V93.5083C13.4172 93.2521 13.3829 93.0397 13.3142 92.871C13.2454 92.696 13.1361 92.5648 12.9861 92.4774C12.8424 92.3899 12.6488 92.3462 12.4051 92.3462C12.1364 92.3462 11.899 92.4055 11.6928 92.5242C11.4866 92.6367 11.3242 92.796 11.2055 93.0022C11.093 93.2084 11.0368 93.4427 11.0368 93.7051V96.2917H10.1371Z" fill="#636B7A"/>
<path opacity="0.68" d="M48.0242 96.2917V89.6846H52.2884V90.453H48.9333V92.5992H52.0916V93.3677H48.9333V96.2917H48.0242ZM55.4499 96.3761C54.9313 96.3761 54.4846 96.2823 54.1097 96.0949C53.7411 95.9012 53.4568 95.6263 53.2569 95.2702C53.0569 94.9078 52.957 94.4798 52.957 93.9862C52.957 93.5176 53.0507 93.1053 53.2381 92.7492C53.4256 92.3868 53.6911 92.1025 54.0347 91.8963C54.3784 91.6901 54.7814 91.587 55.2437 91.587C55.6873 91.587 56.0653 91.6839 56.3777 91.8776C56.6901 92.065 56.9275 92.3337 57.09 92.6836C57.2587 93.0272 57.343 93.4395 57.343 93.9206V94.2205H53.6505V93.6207H56.7432L56.5745 93.7801C56.5745 93.2927 56.4621 92.9178 56.2371 92.6554C56.0122 92.393 55.6873 92.2618 55.2625 92.2618C54.9688 92.2618 54.7126 92.3274 54.494 92.4586C54.2815 92.5898 54.116 92.7773 53.9973 93.0209C53.8785 93.2646 53.8192 93.552 53.8192 93.8832V93.9675C53.8192 94.3424 53.8817 94.6548 54.0066 94.9047C54.1378 95.1484 54.3253 95.3358 54.5689 95.467C54.8189 95.592 55.1156 95.6544 55.4593 95.6544C55.7154 95.6544 55.9747 95.6169 56.2371 95.542C56.4995 95.467 56.7432 95.3389 56.9681 95.1577L57.2587 95.795C57.0275 95.9887 56.7463 96.1355 56.4152 96.2355C56.0903 96.3292 55.7685 96.3761 55.4499 96.3761ZM61.0755 96.3761C60.6756 96.3761 60.3289 96.2792 60.0352 96.0855C59.7416 95.8856 59.5323 95.6138 59.4073 95.2702H59.4354V96.2917H58.592V89.6846H59.4917V92.6461H59.4542C59.5791 92.3212 59.7822 92.065 60.0633 91.8776C60.3507 91.6839 60.6913 91.587 61.0849 91.587C61.5097 91.587 61.8784 91.687 62.1908 91.8869C62.5031 92.0869 62.7437 92.3649 62.9124 92.721C63.0811 93.0772 63.1654 93.4989 63.1654 93.9862C63.1654 94.4611 63.078 94.8797 62.903 95.2421C62.7343 95.6044 62.4938 95.8856 62.1814 96.0855C61.869 96.2792 61.5004 96.3761 61.0755 96.3761ZM60.8693 95.6544C61.3004 95.6544 61.6409 95.5076 61.8909 95.214C62.1408 94.9203 62.2657 94.5111 62.2657 93.9862C62.2657 93.4552 62.1408 93.0459 61.8909 92.7585C61.6409 92.4649 61.3004 92.318 60.8693 92.318C60.4445 92.318 60.1071 92.4649 59.8572 92.7585C59.6072 93.0459 59.4823 93.4552 59.4823 93.9862C59.4823 94.5111 59.6072 94.9203 59.8572 95.214C60.1071 95.5076 60.4445 95.6544 60.8693 95.6544Z" fill="#636B7A"/>
<path opacity="0.68" d="M96.6378 96.2917V89.6846H97.5656L99.9929 94.3986H99.8523L102.28 89.6846H103.189V96.2917H102.336V90.9779H102.439L100.227 95.2514H99.6086L97.3875 90.9779H97.4906V96.2917H96.6378ZM106.399 96.3761C106.068 96.3761 105.771 96.3136 105.509 96.1886C105.252 96.0637 105.049 95.895 104.899 95.6825C104.756 95.4701 104.684 95.2296 104.684 94.9609C104.684 94.6173 104.778 94.3455 104.965 94.1456C105.159 93.9394 105.459 93.7926 105.865 93.7051C106.277 93.6176 106.811 93.5739 107.467 93.5739H108.048V94.1643H107.505C107.155 94.1643 106.855 94.1768 106.605 94.2018C106.361 94.2205 106.165 94.258 106.015 94.3143C105.865 94.3705 105.755 94.4486 105.687 94.5486C105.618 94.6423 105.583 94.7641 105.583 94.9141C105.583 95.1577 105.674 95.3514 105.855 95.4951C106.036 95.6326 106.274 95.7013 106.568 95.7013C106.824 95.7013 107.052 95.6419 107.252 95.5232C107.452 95.4045 107.611 95.2452 107.73 95.0453C107.855 94.8453 107.917 94.6267 107.917 94.3892V93.3208C107.917 92.9647 107.823 92.7085 107.636 92.5523C107.455 92.3899 107.174 92.3087 106.792 92.3087C106.524 92.3087 106.255 92.3462 105.986 92.4211C105.718 92.4961 105.44 92.6211 105.152 92.796L104.871 92.14C105.059 92.0275 105.262 91.9307 105.48 91.8495C105.699 91.7682 105.927 91.7058 106.165 91.662C106.402 91.612 106.636 91.587 106.867 91.587C107.274 91.587 107.62 91.6526 107.908 91.7839C108.195 91.9151 108.414 92.115 108.564 92.3837C108.714 92.6461 108.789 92.9897 108.789 93.4146V96.2917H107.983V95.2796H108.011C107.936 95.4857 107.823 95.6732 107.673 95.8419C107.53 96.0106 107.349 96.1418 107.13 96.2355C106.917 96.3292 106.674 96.3761 106.399 96.3761ZM110.308 96.2917V91.6808H111.142V92.7679H111.114C111.226 92.4118 111.417 92.1369 111.685 91.9432C111.96 91.7432 112.304 91.6277 112.716 91.5964L113.1 91.5777L113.185 92.3837L112.529 92.4399C112.11 92.4774 111.785 92.6148 111.554 92.8522C111.329 93.0834 111.217 93.3864 111.217 93.7613V96.2917H110.308Z" fill="#636B7A"/>
<path opacity="0.68" d="M145.528 96.2917L148.452 89.6846H149.249L152.173 96.2917H151.227L150.421 94.4173L150.852 94.6891H146.841L147.262 94.4173L146.466 96.2917H145.528ZM148.827 90.7061L147.375 94.1268L147.15 93.93H150.542L150.308 94.1268L148.865 90.7061H148.827ZM153.156 97.9787V91.6714H153.999V92.6929H153.971C154.096 92.3493 154.305 92.0806 154.599 91.8869C154.899 91.687 155.249 91.587 155.649 91.587C156.067 91.587 156.433 91.687 156.745 91.8869C157.058 92.0869 157.298 92.3649 157.467 92.721C157.642 93.0772 157.729 93.4989 157.729 93.9862C157.729 94.4611 157.645 94.8797 157.476 95.2421C157.308 95.5982 157.067 95.8762 156.755 96.0762C156.442 96.2761 156.074 96.3761 155.649 96.3761C155.255 96.3761 154.915 96.2792 154.627 96.0855C154.346 95.8919 154.143 95.6357 154.018 95.317H154.056V97.9787H153.156ZM155.433 95.6544C155.864 95.6544 156.205 95.5076 156.455 95.214C156.705 94.9141 156.83 94.5017 156.83 93.9769C156.83 93.452 156.705 93.0459 156.455 92.7585C156.205 92.4649 155.864 92.318 155.433 92.318C155.008 92.318 154.671 92.4649 154.421 92.7585C154.171 93.0459 154.046 93.452 154.046 93.9769C154.046 94.5017 154.171 94.9141 154.421 95.214C154.671 95.5076 155.008 95.6544 155.433 95.6544ZM158.995 96.2917V91.6808H159.829V92.7679H159.801C159.913 92.4118 160.104 92.1369 160.373 91.9432C160.647 91.7432 160.991 91.6277 161.403 91.5964L161.788 91.5777L161.872 92.3837L161.216 92.4399C160.797 92.4774 160.473 92.6148 160.241 92.8522C160.016 93.0834 159.904 93.3864 159.904 93.7613V96.2917H158.995Z" fill="#636B7A"/>
<path opacity="0.68" d="M194.81 96.2917V89.6846H195.738L198.165 94.3986H198.024L200.452 89.6846H201.361V96.2917H200.508V90.9779H200.611L198.399 95.2514H197.781L195.56 90.9779H195.663V96.2917H194.81ZM204.571 96.3761C204.24 96.3761 203.943 96.3136 203.681 96.1886C203.424 96.0637 203.221 95.895 203.071 95.6825C202.928 95.4701 202.856 95.2296 202.856 94.9609C202.856 94.6173 202.95 94.3455 203.137 94.1456C203.331 93.9394 203.631 93.7926 204.037 93.7051C204.449 93.6176 204.983 93.5739 205.639 93.5739H206.22V94.1643H205.677C205.327 94.1643 205.027 94.1768 204.777 94.2018C204.533 94.2205 204.337 94.258 204.187 94.3143C204.037 94.3705 203.927 94.4486 203.859 94.5486C203.79 94.6423 203.756 94.7641 203.756 94.9141C203.756 95.1577 203.846 95.3514 204.027 95.4951C204.208 95.6326 204.446 95.7013 204.74 95.7013C204.996 95.7013 205.224 95.6419 205.424 95.5232C205.624 95.4045 205.783 95.2452 205.902 95.0453C206.027 94.8453 206.089 94.6267 206.089 94.3892V93.3208C206.089 92.9647 205.995 92.7085 205.808 92.5523C205.627 92.3899 205.346 92.3087 204.964 92.3087C204.696 92.3087 204.427 92.3462 204.159 92.4211C203.89 92.4961 203.612 92.6211 203.324 92.796L203.043 92.14C203.231 92.0275 203.434 91.9307 203.652 91.8495C203.871 91.7682 204.099 91.7058 204.337 91.662C204.574 91.612 204.808 91.587 205.039 91.587C205.446 91.587 205.792 91.6526 206.08 91.7839C206.367 91.9151 206.586 92.115 206.736 92.3837C206.886 92.6461 206.961 92.9897 206.961 93.4146V96.2917H206.155V95.2796H206.183C206.108 95.4857 205.995 95.6732 205.845 95.8419C205.702 96.0106 205.521 96.1418 205.302 96.2355C205.089 96.3292 204.846 96.3761 204.571 96.3761ZM208.968 97.9787L209.849 95.9731V96.5354L207.787 91.6808H208.762L210.261 95.467H210.14L211.648 91.6808H212.586L209.905 97.9787H208.968Z" fill="#636B7A"/>
<path opacity="0.68" d="M244.574 96.3667L244.508 95.5795L245.192 95.542C245.399 95.5295 245.577 95.4795 245.727 95.392C245.877 95.3045 245.992 95.1796 246.073 95.0171C246.155 94.8547 246.195 94.6641 246.195 94.4455V89.6846H247.104V94.4829C247.104 94.8453 247.032 95.1608 246.889 95.4295C246.751 95.6982 246.548 95.9106 246.28 96.0668C246.017 96.2167 245.699 96.3042 245.324 96.3292L244.574 96.3667ZM250.469 96.3761C250.095 96.3761 249.779 96.3073 249.523 96.1699C249.267 96.0324 249.073 95.8262 248.942 95.5513C248.817 95.2764 248.754 94.9328 248.754 94.5204V91.6808H249.654V94.4923C249.654 94.7297 249.688 94.9359 249.757 95.1109C249.826 95.2796 249.935 95.4076 250.085 95.4951C250.241 95.5826 250.438 95.6263 250.676 95.6263C250.932 95.6263 251.157 95.567 251.35 95.4483C251.55 95.3295 251.707 95.1671 251.819 94.9609C251.931 94.7547 251.988 94.5267 251.988 94.2768V91.6808H252.887V96.2917H252.035V95.2796H252.081C251.938 95.6294 251.728 95.9012 251.454 96.0949C251.179 96.2823 250.851 96.3761 250.469 96.3761ZM254.42 96.2917V91.6808H255.273V92.6648H255.235C255.379 92.3212 255.601 92.0556 255.901 91.8682C256.201 91.6808 256.538 91.587 256.913 91.587C257.294 91.587 257.61 91.6558 257.86 91.7932C258.109 91.9307 258.297 92.1369 258.422 92.4118C258.547 92.6867 258.609 93.0366 258.609 93.4614V96.2917H257.7V93.5083C257.7 93.2521 257.666 93.0397 257.597 92.871C257.528 92.696 257.419 92.5648 257.269 92.4774C257.125 92.3899 256.932 92.3462 256.688 92.3462C256.419 92.3462 256.182 92.4055 255.976 92.5242C255.77 92.6367 255.607 92.796 255.488 93.0022C255.376 93.2084 255.32 93.4427 255.32 93.7051V96.2917H254.42Z" fill="#636B7A"/>
<path opacity="0.68" d="M291.563 96.3667L291.498 95.5795L292.182 95.542C292.388 95.5295 292.566 95.4795 292.716 95.392C292.866 95.3045 292.981 95.1796 293.063 95.0171C293.144 94.8547 293.185 94.6641 293.185 94.4455V89.6846H294.094V94.4829C294.094 94.8453 294.022 95.1608 293.878 95.4295C293.741 95.6982 293.538 95.9106 293.269 96.0668C293.006 96.2167 292.688 96.3042 292.313 96.3292L291.563 96.3667ZM297.459 96.3761C297.084 96.3761 296.768 96.3073 296.512 96.1699C296.256 96.0324 296.062 95.8262 295.931 95.5513C295.806 95.2764 295.744 94.9328 295.744 94.5204V91.6808H296.643V94.4923C296.643 94.7297 296.678 94.9359 296.747 95.1109C296.815 95.2796 296.925 95.4076 297.075 95.4951C297.231 95.5826 297.428 95.6263 297.665 95.6263C297.921 95.6263 298.146 95.567 298.34 95.4483C298.54 95.3295 298.696 95.1671 298.808 94.9609C298.921 94.7547 298.977 94.5267 298.977 94.2768V91.6808H299.877V96.2917H299.024V95.2796H299.071C298.927 95.6294 298.718 95.9012 298.443 96.0949C298.168 96.2823 297.84 96.3761 297.459 96.3761ZM302.862 96.3761C302.387 96.3761 302.025 96.2417 301.775 95.9731C301.531 95.6982 301.409 95.3108 301.409 94.811V89.6846H302.309V94.736C302.309 94.9297 302.337 95.0952 302.393 95.2327C302.45 95.3639 302.531 95.4639 302.637 95.5326C302.75 95.6013 302.884 95.6357 303.04 95.6357C303.121 95.6357 303.199 95.6326 303.274 95.6263C303.356 95.6138 303.437 95.5951 303.518 95.5701L303.527 96.2823C303.421 96.3136 303.315 96.3355 303.209 96.3479C303.103 96.3667 302.987 96.3761 302.862 96.3761Z" fill="#636B7A"/>
<rect x="227.191" width="48.0402" height="18.1469" rx="3.15435" fill="#B5E4CA"/>
<path d="M235.242 13.2321V11.9482L235.43 12.1169C234.98 12.1106 234.555 12.0481 234.155 11.9294C233.755 11.8045 233.405 11.6139 233.106 11.3578L233.415 10.6455C233.615 10.8017 233.821 10.9329 234.033 11.0391C234.246 11.1391 234.474 11.2172 234.717 11.2734C234.967 11.3234 235.236 11.3484 235.523 11.3484C236.036 11.3484 236.414 11.2515 236.657 11.0579C236.907 10.8642 237.032 10.6205 237.032 10.3268C237.032 10.0519 236.939 9.83951 236.751 9.68956C236.57 9.53961 236.279 9.43027 235.88 9.36154L234.924 9.18348C234.368 9.07726 233.949 8.8867 233.668 8.6118C233.387 8.33689 233.246 7.95889 233.246 7.4778C233.246 7.12792 233.334 6.81552 233.509 6.54061C233.69 6.25946 233.94 6.03766 234.258 5.87521C234.583 5.70652 234.958 5.6128 235.383 5.59406L235.242 5.72526V4.46943H235.983V5.72526L235.833 5.59406C236.176 5.60655 236.52 5.6784 236.864 5.80961C237.207 5.93457 237.498 6.12201 237.735 6.37192L237.435 7.05607C237.192 6.81865 236.917 6.64371 236.611 6.53124C236.311 6.41253 235.973 6.35318 235.598 6.35318C235.149 6.35318 234.789 6.45939 234.521 6.67182C234.258 6.878 234.127 7.14666 234.127 7.4778C234.127 7.74646 234.208 7.95889 234.371 8.11509C234.539 8.26504 234.811 8.37438 235.186 8.4431L236.142 8.6118C236.748 8.72426 237.195 8.92107 237.482 9.20222C237.776 9.47713 237.923 9.84263 237.923 10.2987C237.923 10.6486 237.832 10.9548 237.651 11.2172C237.47 11.4733 237.223 11.6795 236.911 11.8357C236.598 11.9857 236.236 12.0763 235.823 12.1075L235.983 11.9388V13.2321H235.242ZM239.278 12.1544V11.3859H240.965V6.29695L241.433 6.33443L239.615 7.48717L239.222 6.80303L241.209 5.5472H241.865V11.3859H243.43V12.1544H239.278ZM246.987 12.2387C246.456 12.2387 246.003 12.1106 245.628 11.8545C245.26 11.5983 244.979 11.2297 244.785 10.7486C244.591 10.2612 244.494 9.67394 244.494 8.98667C244.494 8.23067 244.601 7.59339 244.813 7.07481C245.032 6.54999 245.344 6.15012 245.75 5.87521C246.156 5.60031 246.644 5.46285 247.212 5.46285C247.45 5.46285 247.681 5.49409 247.906 5.55657C248.137 5.6128 248.352 5.70027 248.552 5.81898C248.759 5.93144 248.946 6.07202 249.115 6.24072L248.787 6.9436C248.549 6.69994 248.296 6.525 248.028 6.41878C247.765 6.30632 247.49 6.25009 247.203 6.25009C246.903 6.25009 246.637 6.30632 246.406 6.41878C246.175 6.53124 245.981 6.69681 245.825 6.91549C245.669 7.13417 245.55 7.40595 245.469 7.73084C245.388 8.04948 245.347 8.42436 245.347 8.85546V9.48338H245.31C245.366 9.17098 245.475 8.90232 245.638 8.6774C245.806 8.45247 246.019 8.28066 246.275 8.16195C246.531 8.04324 246.809 7.98388 247.109 7.98388C247.503 7.98388 247.85 8.07448 248.149 8.25567C248.456 8.43061 248.693 8.6774 248.862 8.99604C249.03 9.30844 249.115 9.67082 249.115 10.0832C249.115 10.4955 249.024 10.8673 248.843 11.1984C248.668 11.5233 248.418 11.7795 248.093 11.9669C247.775 12.1481 247.406 12.2387 246.987 12.2387ZM246.94 11.4796C247.203 11.4796 247.434 11.4234 247.634 11.3109C247.834 11.1922 247.99 11.0297 248.103 10.8236C248.215 10.6174 248.271 10.3768 248.271 10.1019C248.271 9.83326 248.215 9.59584 248.103 9.38966C247.99 9.18348 247.834 9.02416 247.634 8.9117C247.434 8.79298 247.203 8.73363 246.94 8.73363C246.672 8.73363 246.434 8.79298 246.228 8.9117C246.028 9.02416 245.872 9.18348 245.76 9.38966C245.647 9.59584 245.591 9.83326 245.591 10.1019C245.591 10.3768 245.647 10.6174 245.76 10.8236C245.872 11.0297 246.028 11.1922 246.228 11.3109C246.434 11.4234 246.672 11.4796 246.94 11.4796ZM252.466 12.2387C252.179 12.2387 251.901 12.2075 251.632 12.145C251.363 12.0825 251.11 11.9919 250.873 11.8732C250.642 11.7545 250.436 11.6108 250.254 11.4421L250.592 10.7392C250.879 10.9829 251.176 11.1641 251.482 11.2828C251.788 11.3952 252.113 11.4515 252.457 11.4515C252.9 11.4515 253.247 11.3359 253.497 11.1047C253.753 10.8673 253.881 10.5424 253.881 10.13C253.881 9.71767 253.763 9.38654 253.525 9.13662C253.288 8.8867 252.96 8.76175 252.541 8.76175C252.248 8.76175 251.985 8.8211 251.754 8.93981C251.529 9.05227 251.323 9.23346 251.135 9.48338H250.451V5.5472H254.416V6.32506H251.295V8.743H251.192C251.342 8.51183 251.551 8.33064 251.82 8.19943C252.088 8.06198 252.385 7.99325 252.71 7.99325C253.128 7.99325 253.491 8.08385 253.797 8.26504C254.103 8.43998 254.341 8.68365 254.509 8.99604C254.678 9.30844 254.762 9.67394 254.762 10.0925C254.762 10.5299 254.669 10.911 254.481 11.2359C254.294 11.5546 254.028 11.8014 253.685 11.9763C253.341 12.1512 252.935 12.2387 252.466 12.2387ZM255.818 12.1544V11.0672H256.933V12.1544H255.818ZM258.338 12.1544V11.4796L260.606 9.08039C260.825 8.84922 260.996 8.63991 261.121 8.45247C261.246 8.25879 261.337 8.07448 261.393 7.89953C261.449 7.71835 261.478 7.53403 261.478 7.34659C261.478 6.99046 261.365 6.71868 261.14 6.53124C260.915 6.34381 260.6 6.25009 260.194 6.25009C259.881 6.25009 259.575 6.30944 259.275 6.42815C258.982 6.54686 258.7 6.7343 258.432 6.99046L258.094 6.28757C258.363 6.03141 258.688 5.83148 259.069 5.68778C259.456 5.53783 259.856 5.46285 260.269 5.46285C260.712 5.46285 261.09 5.5347 261.403 5.6784C261.715 5.82211 261.956 6.03141 262.124 6.30632C262.293 6.57498 262.377 6.89987 262.377 7.28099C262.377 7.48092 262.352 7.67461 262.302 7.86205C262.259 8.04948 262.19 8.23692 262.096 8.42436C262.002 8.60555 261.881 8.79298 261.731 8.98667C261.587 9.18035 261.415 9.38341 261.215 9.59584L259.397 11.4983V11.3765H262.64V12.1544H258.338ZM265.991 12.2387C265.479 12.2387 265.048 12.1106 264.698 11.8545C264.348 11.592 264.082 11.2109 263.901 10.7111C263.726 10.205 263.639 9.58334 263.639 8.84609C263.639 8.10884 263.726 7.4903 263.901 6.99046C264.082 6.48438 264.348 6.10326 264.698 5.8471C265.048 5.59093 265.479 5.46285 265.991 5.46285C266.51 5.46285 266.941 5.59093 267.284 5.8471C267.634 6.10326 267.897 6.48126 268.072 6.98109C268.253 7.48092 268.343 8.09947 268.343 8.83672C268.343 9.57397 268.253 10.1956 268.072 10.7017C267.897 11.2078 267.634 11.592 267.284 11.8545C266.935 12.1106 266.503 12.2387 265.991 12.2387ZM265.991 11.4608C266.485 11.4608 266.85 11.2484 267.088 10.8236C267.331 10.3987 267.453 9.73642 267.453 8.83672C267.453 7.93702 267.334 7.28099 267.097 6.86863C266.86 6.45002 266.491 6.24072 265.991 6.24072C265.498 6.24072 265.129 6.45002 264.885 6.86863C264.648 7.28724 264.529 7.94639 264.529 8.84609C264.529 9.73954 264.648 10.3987 264.885 10.8236C265.129 11.2484 265.498 11.4608 265.991 11.4608Z" fill="white"/>
<path d="M251.211 21.4382L247.271 17.4932H255.152L251.211 21.4382Z" fill="#B5E4CA"/>
<defs>
<linearGradient id="paint0_linear_4502_395" x1="139.002" y1="40.7789" x2="140.522" y2="70.8359" gradientUnits="userSpaceOnUse">
<stop stop-color="#5DB48A" stop-opacity="0.4"/>
<stop offset="1" stop-color="white" stop-opacity="0"/>
</linearGradient>
</defs>
</svg>
