<svg width="575" height="192" viewBox="0 0 575 192" fill="none" xmlns="http://www.w3.org/2000/svg">
<g filter="url(#filter0_d_4508_654)">
<rect x="29.6406" y="17.5989" width="515" height="132.455" rx="9.26259" fill="white" fill-opacity="0.1" shape-rendering="crispEdges"/>
<path d="M51.8841 51.7392L56.0207 42.597H57.3823L61.519 51.7392H59.8332L58.731 49.1716L59.4312 49.6255H53.9589L54.6591 49.1716L53.5699 51.7392H51.8841ZM56.6821 44.3995L54.8666 48.7177L54.5295 48.3028H58.8606L58.5365 48.7177L56.708 44.3995H56.6821ZM64.5682 51.8689C63.8161 51.8689 63.2585 51.6657 62.8954 51.2594C62.541 50.8444 62.3637 50.2393 62.3637 49.4439V42.597H63.9847V49.3661C63.9847 49.6168 64.0193 49.833 64.0884 50.0145C64.1662 50.1874 64.2786 50.3171 64.4256 50.4035C64.5725 50.49 64.7541 50.5332 64.9702 50.5332C65.0653 50.5332 65.1604 50.5289 65.2555 50.5202C65.3506 50.5116 65.4414 50.4943 65.5278 50.4684L65.5019 51.7522C65.3463 51.7867 65.1907 51.8127 65.0351 51.83C64.8881 51.8559 64.7325 51.8689 64.5682 51.8689ZM69.2449 51.8689C68.3977 51.8689 67.7666 51.6571 67.3516 51.2335C66.9366 50.8099 66.7292 50.1917 66.7292 49.3791V46.617H65.5102V45.398H66.7292V43.5048H68.3501V45.398H70.2693V46.617H68.3501V49.2883C68.3501 49.7033 68.4409 50.0145 68.6224 50.222C68.804 50.4295 69.0979 50.5332 69.5042 50.5332C69.6253 50.5332 69.7506 50.5202 69.8803 50.4943C70.01 50.4597 70.144 50.4251 70.2823 50.3906L70.5287 51.5836C70.3731 51.67 70.1742 51.7392 69.9322 51.7911C69.6987 51.8429 69.4696 51.8689 69.2449 51.8689ZM74.9678 51.7392V42.597H78.9358C79.9387 42.597 80.7124 42.8391 81.2571 43.3232C81.8017 43.7987 82.074 44.4687 82.074 45.3332C82.074 45.8951 81.9487 46.3792 81.698 46.7856C81.4559 47.1919 81.1014 47.5031 80.6346 47.7192C80.1678 47.9354 79.6015 48.0434 78.9358 48.0434L79.0526 47.8489H79.4805C79.8349 47.8489 80.1418 47.9354 80.4012 48.1083C80.6692 48.2812 80.9026 48.5535 81.1014 48.9252L82.6316 51.7392H80.8032L79.2211 48.8215C79.1174 48.6313 79.0007 48.4843 78.871 48.3806C78.7413 48.2682 78.5944 48.1904 78.4301 48.1472C78.2659 48.1039 78.0757 48.0823 77.8595 48.0823H76.6276V51.7392H74.9678ZM76.6276 46.8504H78.6506C79.2471 46.8504 79.6966 46.7294 79.9992 46.4873C80.3104 46.2366 80.466 45.8649 80.466 45.3721C80.466 44.888 80.3104 44.5249 79.9992 44.2828C79.6966 44.0321 79.2471 43.9068 78.6506 43.9068H76.6276V46.8504ZM83.8577 51.7392V42.597H89.9395V43.9197H85.4527V46.4354H89.6542V47.7581H85.4527V50.4165H89.9395V51.7392H83.8577ZM91.5952 51.7392V42.597H93.255V51.7392H91.5952ZM97.4468 51.7392V43.9846H94.3087V42.597H102.245V43.9846H99.1067V51.7392H97.4468ZM106.792 51.7392V42.597H108.451V51.7392H106.792ZM110.439 51.7392V42.597H112.099V51.7392H110.439ZM114.086 51.7392V42.597H115.746V51.7392H114.086Z" fill="white"/>
<rect x="127.986" y="39.8291" width="32.2626" height="14.8201" rx="7.41007" fill="white" fill-opacity="0.1"/>
<path d="M133.386 49.7392V49.0723L135.628 46.7011C135.844 46.4726 136.013 46.2657 136.137 46.0805C136.26 45.889 136.35 45.7069 136.406 45.534C136.461 45.3549 136.489 45.1758 136.489 44.9968C136.489 44.6448 136.378 44.3762 136.155 44.1909C135.933 43.9995 135.621 43.9038 135.22 43.9038C134.911 43.9038 134.609 43.9624 134.312 44.0798C134.022 44.1971 133.744 44.3823 133.479 44.6355L133.145 43.9408C133.411 43.6876 133.732 43.49 134.108 43.348C134.491 43.1998 134.887 43.1257 135.294 43.1257C135.733 43.1257 136.106 43.1967 136.415 43.3387C136.724 43.4808 136.961 43.6876 137.128 43.9593C137.295 44.231 137.378 44.5552 137.378 44.9319C137.378 45.1233 137.353 45.3117 137.304 45.4969C137.261 45.6822 137.193 45.8674 137.1 46.0527C137.008 46.2318 136.887 46.417 136.739 46.6084C136.597 46.7999 136.427 47.0006 136.23 47.2105L134.442 49.0816V48.9704H137.638V49.7392H133.386ZM140.894 49.8226C140.388 49.8226 139.962 49.696 139.616 49.4428C139.27 49.1834 139.008 48.8068 138.829 48.3128C138.656 47.8126 138.569 47.1982 138.569 46.4695C138.569 45.7408 138.656 45.1295 138.829 44.6355C139.008 44.1353 139.27 43.7587 139.616 43.5055C139.962 43.2523 140.388 43.1257 140.894 43.1257C141.407 43.1257 141.833 43.2523 142.173 43.5055C142.518 43.7587 142.778 44.1322 142.951 44.6262C143.13 45.1203 143.219 45.7316 143.219 46.4602C143.219 47.1889 143.13 47.8033 142.951 48.3035C142.778 48.8037 142.518 49.1834 142.173 49.4428C141.827 49.696 141.401 49.8226 140.894 49.8226ZM140.894 49.0538C141.382 49.0538 141.743 48.8438 141.978 48.4239C142.219 48.004 142.339 47.3494 142.339 46.4602C142.339 45.5772 142.222 44.9288 141.987 44.5151C141.753 44.1014 141.388 43.8945 140.894 43.8945C140.406 43.8945 140.042 44.1014 139.801 44.5151C139.567 44.9288 139.449 45.5803 139.449 46.4695C139.449 47.3525 139.567 48.004 139.801 48.4239C140.042 48.8438 140.406 49.0538 140.894 49.0538ZM144.54 49.7392V48.9704H146.217V43.9501L146.689 43.9871L144.874 45.1357L144.485 44.4503L146.458 43.2091H147.115V48.9704H148.662V49.7392H144.54ZM151.891 49.8226C151.15 49.8226 150.57 49.662 150.15 49.3409C149.73 49.0198 149.52 48.5752 149.52 48.0071C149.52 47.7107 149.578 47.4482 149.696 47.2198C149.819 46.9913 149.986 46.806 150.196 46.664C150.406 46.5158 150.65 46.417 150.928 46.3676V46.4325C150.681 46.3707 150.465 46.2688 150.279 46.1268C150.094 45.9786 149.949 45.7964 149.844 45.5803C149.739 45.3642 149.687 45.1264 149.687 44.8671C149.687 44.3237 149.884 43.8976 150.279 43.5888C150.681 43.2801 151.218 43.1257 151.891 43.1257C152.564 43.1257 153.101 43.2801 153.503 43.5888C153.904 43.8976 154.105 44.3237 154.105 44.8671C154.105 45.1264 154.049 45.3642 153.938 45.5803C153.833 45.7964 153.688 45.9786 153.503 46.1268C153.317 46.2688 153.104 46.3707 152.864 46.4325V46.3676C153.129 46.4108 153.367 46.5066 153.577 46.6548C153.787 46.803 153.954 46.9913 154.077 47.2198C154.201 47.4482 154.262 47.7107 154.262 48.0071C154.262 48.5752 154.052 49.0198 153.632 49.3409C153.213 49.662 152.632 49.8226 151.891 49.8226ZM151.891 49.0816C152.391 49.0816 152.771 48.9858 153.03 48.7944C153.29 48.603 153.419 48.3189 153.419 47.9423C153.419 47.5718 153.287 47.2908 153.021 47.0994C152.762 46.9018 152.385 46.803 151.891 46.803C151.397 46.803 151.017 46.9018 150.752 47.0994C150.492 47.2908 150.363 47.5718 150.363 47.9423C150.363 48.3189 150.492 48.603 150.752 48.7944C151.017 48.9858 151.397 49.0816 151.891 49.0816ZM151.891 46.0619C152.323 46.0619 152.66 45.9662 152.901 45.7748C153.141 45.5772 153.262 45.3024 153.262 44.9504C153.262 44.6108 153.141 44.3453 152.901 44.1539C152.66 43.9563 152.323 43.8575 151.891 43.8575C151.465 43.8575 151.132 43.9563 150.891 44.1539C150.65 44.3453 150.529 44.6108 150.529 44.9504C150.529 45.2962 150.65 45.5679 150.891 45.7655C151.132 45.9631 151.465 46.0619 151.891 46.0619Z" fill="white"/>
<path d="M52.6417 78.5315V73.3074H53.3012L56.4061 77.42H56.3912V73.3074H57.11V78.5315H56.4209L53.3457 74.4485H53.3605V78.5315H52.6417ZM58.7889 78.5315V73.3074H62.2494V73.952H59.5299V75.56H62.0938V76.2047H59.5299V77.8868H62.2494V78.5315H58.7889ZM64.9296 78.5315V73.9594H63.0697V73.3074H67.5305V73.9594H65.678V78.5315H64.9296ZM70.3575 78.5315L72.6694 73.3074H73.3363L75.6483 78.5315H74.8628L74.233 77.0494L74.5886 77.294H71.4171L71.7654 77.0494L71.1281 78.5315H70.3575ZM72.9807 74.1373L71.8469 76.8197L71.6617 76.6641H74.3441L74.1514 76.8197L73.0177 74.1373H72.9807ZM78.5277 78.5982C78.2411 78.5982 77.967 78.5759 77.7052 78.5315C77.4433 78.4919 77.2037 78.4302 76.9864 78.3462C76.774 78.2573 76.5862 78.1486 76.4232 78.0202L76.69 77.4125C76.8579 77.541 77.0382 77.6447 77.2309 77.7238C77.4236 77.8028 77.6286 77.8596 77.8459 77.8942C78.0633 77.9238 78.2905 77.9387 78.5277 77.9387C78.9229 77.9387 79.2267 77.8621 79.4391 77.7089C79.6515 77.5558 79.7577 77.3459 79.7577 77.0791C79.7577 76.9309 79.7232 76.8123 79.654 76.7234C79.5848 76.6295 79.4762 76.553 79.328 76.4937C79.1847 76.4344 78.997 76.3825 78.7648 76.3381L77.9126 76.1677C77.4236 76.0738 77.0704 75.9083 76.853 75.6712C76.6406 75.4291 76.5344 75.1253 76.5344 74.7597C76.5344 74.4535 76.6233 74.1867 76.8011 73.9594C76.979 73.7322 77.221 73.5568 77.5273 73.4333C77.8385 73.3049 78.1942 73.2407 78.5944 73.2407C78.8414 73.2407 79.0735 73.2629 79.2909 73.3074C79.5132 73.3518 79.7158 73.421 79.8985 73.5148C80.0813 73.6038 80.2443 73.7124 80.3876 73.8409L80.1134 74.4485C79.9059 74.2509 79.6762 74.1101 79.4243 74.0261C79.1723 73.9422 78.8932 73.9002 78.587 73.9002C78.3399 73.9002 78.1176 73.9347 77.92 74.0039C77.7224 74.0681 77.5668 74.1645 77.4532 74.2929C77.3396 74.4164 77.2828 74.572 77.2828 74.7597C77.2828 74.9672 77.347 75.1302 77.4754 75.2488C77.6088 75.3624 77.841 75.4513 78.172 75.5156L79.0167 75.6786C79.5256 75.7724 79.901 75.933 80.1431 76.1602C80.3851 76.3875 80.5062 76.6814 80.5062 77.042C80.5062 77.3434 80.4246 77.6126 80.2616 77.8497C80.0986 78.0819 79.8689 78.2647 79.5725 78.3981C79.2761 78.5315 78.9278 78.5982 78.5277 78.5982ZM83.6183 78.5982C83.3318 78.5982 83.0576 78.5759 82.7958 78.5315C82.534 78.4919 82.2944 78.4302 82.077 78.3462C81.8646 78.2573 81.6769 78.1486 81.5139 78.0202L81.7806 77.4125C81.9486 77.541 82.1289 77.6447 82.3216 77.7238C82.5142 77.8028 82.7192 77.8596 82.9366 77.8942C83.154 77.9238 83.3812 77.9387 83.6183 77.9387C84.0135 77.9387 84.3173 77.8621 84.5298 77.7089C84.7422 77.5558 84.8484 77.3459 84.8484 77.0791C84.8484 76.9309 84.8138 76.8123 84.7447 76.7234C84.6755 76.6295 84.5668 76.553 84.4186 76.4937C84.2754 76.4344 84.0876 76.3825 83.8555 76.3381L83.0033 76.1677C82.5142 76.0738 82.161 75.9083 81.9437 75.6712C81.7312 75.4291 81.625 75.1253 81.625 74.7597C81.625 74.4535 81.7139 74.1867 81.8918 73.9594C82.0696 73.7322 82.3117 73.5568 82.618 73.4333C82.9292 73.3049 83.2849 73.2407 83.685 73.2407C83.932 73.2407 84.1642 73.2629 84.3816 73.3074C84.6039 73.3518 84.8064 73.421 84.9892 73.5148C85.172 73.6038 85.335 73.7124 85.4783 73.8409L85.2041 74.4485C84.9966 74.2509 84.7669 74.1101 84.515 74.0261C84.263 73.9422 83.9839 73.9002 83.6776 73.9002C83.4306 73.9002 83.2083 73.9347 83.0107 74.0039C82.8131 74.0681 82.6575 74.1645 82.5439 74.2929C82.4303 74.4164 82.3734 74.572 82.3734 74.7597C82.3734 74.9672 82.4377 75.1302 82.5661 75.2488C82.6995 75.3624 82.9317 75.4513 83.2626 75.5156L84.1074 75.6786C84.6162 75.7724 84.9917 75.933 85.2337 76.1602C85.4758 76.3875 85.5968 76.6814 85.5968 77.042C85.5968 77.3434 85.5153 77.6126 85.3523 77.8497C85.1893 78.0819 84.9596 78.2647 84.6632 78.3981C84.3667 78.5315 84.0185 78.5982 83.6183 78.5982ZM86.9232 78.5315V73.3074H90.3837V73.952H87.6642V75.56H90.2281V76.2047H87.6642V77.8868H90.3837V78.5315H86.9232ZM93.0639 78.5315V73.9594H91.2039V73.3074H95.6648V73.9594H93.8123V78.5315H93.0639ZM100.537 78.5315L98.2768 73.3074H99.0771L100.885 77.6274H100.856L102.656 73.3074H103.456L101.189 78.5315H100.537ZM103.423 78.5315L105.735 73.3074H106.402L108.714 78.5315H107.929L107.299 77.0494L107.654 77.294H104.483L104.831 77.0494L104.194 78.5315H103.423ZM106.046 74.1373L104.913 76.8197L104.727 76.6641H107.41L107.217 76.8197L106.083 74.1373H106.046ZM109.858 78.5315V73.3074H110.607V77.872H113.222V78.5315H109.858ZM116.242 78.5982C115.555 78.5982 115.029 78.4203 114.663 78.0646C114.303 77.7089 114.122 77.1853 114.122 76.4937V73.3074H114.871V76.4789C114.871 76.9729 114.987 77.3335 115.219 77.5607C115.456 77.788 115.797 77.9016 116.242 77.9016C116.696 77.9016 117.039 77.788 117.272 77.5607C117.504 77.3335 117.62 76.9729 117.62 76.4789V73.3074H118.368V76.4937C118.368 77.1853 118.186 77.7089 117.82 78.0646C117.459 78.4203 116.933 78.5982 116.242 78.5982ZM119.989 78.5315V73.3074H123.449V73.952H120.73V75.56H123.294V76.2047H120.73V77.8868H123.449V78.5315H119.989Z" fill="#636B7A"/>
<path d="M58.6143 105.219V101.822L59.2108 102.392C57.9486 102.358 56.7556 102.167 55.6317 101.822C54.5251 101.458 53.5655 100.957 52.7529 100.317L53.7644 97.6978C54.3004 98.0955 54.8709 98.4413 55.4761 98.7353C56.0985 99.0119 56.7469 99.228 57.4212 99.3836C58.1128 99.522 58.8477 99.5911 59.6257 99.5911C60.8879 99.5911 61.8129 99.3663 62.4008 98.9168C62.9887 98.4673 63.2826 97.9053 63.2826 97.231C63.2826 96.6259 63.0838 96.1417 62.6861 95.7786C62.2884 95.4155 61.5795 95.1216 60.5594 94.8968L57.8103 94.3003C56.2542 93.9545 55.0784 93.3839 54.2831 92.5886C53.505 91.776 53.116 90.704 53.116 89.3726C53.116 88.3525 53.3667 87.4448 53.8681 86.6494C54.3695 85.8368 55.0698 85.1884 55.9689 84.7043C56.868 84.2202 57.9227 83.9349 59.133 83.8484L58.6143 84.2374V80.9696H61.2078V84.2374L60.6631 83.8225C61.6487 83.8744 62.6169 84.0732 63.5679 84.419C64.5361 84.7648 65.3401 85.2662 65.9799 85.9232L64.9943 88.413C64.3373 87.8079 63.5852 87.3583 62.738 87.0644C61.8907 86.7532 60.9657 86.5976 59.9629 86.5976C58.8909 86.5976 58.0264 86.8483 57.3694 87.3497C56.7296 87.8338 56.4098 88.4735 56.4098 89.2689C56.4098 89.8568 56.6086 90.3322 57.0063 90.6953C57.4039 91.0584 58.0437 91.3351 58.9255 91.5253L61.6746 92.1218C63.3345 92.4849 64.5621 93.0641 65.3574 93.8594C66.1701 94.6375 66.5764 95.6749 66.5764 96.9717C66.5764 97.9745 66.3257 98.8649 65.8243 99.643C65.3228 100.404 64.6312 101.018 63.7494 101.484C62.8849 101.934 61.8735 102.219 60.715 102.34L61.2078 101.796V105.219H58.6143ZM70.2491 102.237V99.4874H74.3728V86.7532H75.9807L71.1827 89.6579L69.886 87.22L75.3324 83.9522H77.6925V99.4874H81.5568V102.237H70.2491ZM91.428 102.496C89.9238 102.496 88.6357 102.141 87.5637 101.433C86.509 100.706 85.705 99.6689 85.1517 98.3203C84.5984 96.9717 84.3218 95.3377 84.3218 93.4185C84.3218 91.3437 84.633 89.5888 85.2554 88.1537C85.8779 86.7013 86.777 85.5947 87.9527 84.834C89.1284 84.0732 90.5376 83.6928 92.1801 83.6928C92.8199 83.6928 93.4596 83.7793 94.0994 83.9522C94.7564 84.1078 95.3702 84.3412 95.9408 84.6524C96.5286 84.9463 97.0473 85.3094 97.4969 85.7417L96.4076 88.2315C95.7679 87.6436 95.0849 87.2114 94.3587 86.9347C93.6325 86.6408 92.889 86.4938 92.1283 86.4938C91.3848 86.4938 90.7191 86.6321 90.1313 86.9088C89.5607 87.1681 89.0766 87.5658 88.6789 88.1018C88.2812 88.6205 87.9786 89.2775 87.7712 90.0729C87.581 90.8509 87.4859 91.7587 87.4859 92.7961V94.7412H87.1746C87.313 93.8594 87.5983 93.1073 88.0305 92.4849C88.4801 91.8451 89.0506 91.361 89.7422 91.0325C90.4338 90.6867 91.2033 90.5138 92.0505 90.5138C93.1052 90.5138 94.0388 90.7645 94.8515 91.2659C95.6641 91.7673 96.3039 92.4589 96.7707 93.3407C97.2375 94.2225 97.4709 95.234 97.4709 96.3751C97.4709 97.5509 97.2116 98.6056 96.6929 99.5392C96.1915 100.456 95.4826 101.182 94.5662 101.718C93.6671 102.237 92.621 102.496 91.428 102.496ZM91.2465 99.8505C91.8689 99.8505 92.4136 99.7121 92.8804 99.4355C93.3645 99.1589 93.7363 98.7698 93.9956 98.2684C94.255 97.7497 94.3846 97.1618 94.3846 96.5048C94.3846 95.8305 94.255 95.2426 93.9956 94.7412C93.7363 94.2398 93.3645 93.8508 92.8804 93.5741C92.4136 93.2802 91.8689 93.1332 91.2465 93.1332C90.624 93.1332 90.0794 93.2802 89.6126 93.5741C89.1457 93.8508 88.774 94.2398 88.4973 94.7412C88.238 95.2426 88.1083 95.8305 88.1083 96.5048C88.1083 97.1618 88.238 97.7497 88.4973 98.2684C88.774 98.7698 89.1457 99.1589 89.6126 99.4355C90.0794 99.7121 90.624 99.8505 91.2465 99.8505ZM106.46 102.496C105.665 102.496 104.878 102.409 104.1 102.237C103.339 102.064 102.622 101.822 101.948 101.51C101.291 101.199 100.72 100.836 100.236 100.421L101.325 97.8794C102.121 98.4845 102.942 98.9427 103.789 99.254C104.636 99.5479 105.509 99.6949 106.408 99.6949C107.498 99.6949 108.345 99.4182 108.95 98.8649C109.573 98.2944 109.884 97.5336 109.884 96.5826C109.884 95.6144 109.59 94.8363 109.002 94.2485C108.414 93.6433 107.61 93.3407 106.59 93.3407C105.847 93.3407 105.181 93.4877 104.593 93.7816C104.005 94.0583 103.469 94.4905 102.985 95.0784H100.755V83.9522H111.985V86.7013H103.996V92.5108H103.141C103.59 91.9056 104.178 91.4388 104.904 91.1103C105.648 90.7818 106.469 90.6175 107.368 90.6175C108.527 90.6175 109.529 90.8682 110.377 91.3696C111.241 91.8538 111.907 92.5367 112.374 93.4185C112.858 94.283 113.1 95.2945 113.1 96.453C113.1 97.646 112.832 98.7007 112.296 99.6171C111.76 100.516 110.99 101.225 109.988 101.744C109.002 102.245 107.826 102.496 106.46 102.496ZM115.476 102.237V98.6315H119.107V102.237H115.476ZM122.583 102.237V99.7727L128.496 93.4704C129.032 92.8998 129.456 92.3725 129.767 91.8883C130.096 91.4042 130.338 90.9374 130.493 90.4878C130.649 90.0383 130.727 89.5888 130.727 89.1392C130.727 88.2747 130.45 87.6177 129.897 87.1681C129.361 86.7186 128.574 86.4938 127.537 86.4938C126.724 86.4938 125.929 86.6494 125.151 86.9606C124.39 87.2546 123.655 87.7214 122.946 88.3612L121.831 85.8714C122.557 85.2143 123.465 84.687 124.554 84.2893C125.644 83.8916 126.776 83.6928 127.952 83.6928C129.266 83.6928 130.372 83.8916 131.271 84.2893C132.171 84.687 132.854 85.2662 133.32 86.027C133.787 86.7877 134.021 87.7128 134.021 88.8021C134.021 89.3553 133.951 89.9 133.813 90.436C133.692 90.9547 133.493 91.4734 133.217 91.9921C132.957 92.5108 132.62 93.0468 132.205 93.6001C131.807 94.1361 131.323 94.698 130.753 95.2859L125.877 100.369V99.4874H134.721V102.237H122.583Z" fill="#B5E4CA"/>
<path d="M144.007 95.3814L143.357 94.7323L146.789 91.278L148.643 93.1327L151.054 90.7448H149.849V89.8175H152.631V92.5995H151.703V91.394L148.643 94.4541L146.789 92.5995L144.007 95.3814Z" fill="#B5E4CA"/>
<path d="M157.551 96.0342C157.328 96.0342 157.109 96.012 156.891 95.9675C156.679 95.9231 156.476 95.8564 156.284 95.7675C156.091 95.6736 155.918 95.5575 155.765 95.4192L156.039 94.8412C156.271 95.0388 156.516 95.1796 156.773 95.2636C157.03 95.3476 157.286 95.3895 157.543 95.3895C157.756 95.3895 157.946 95.3599 158.114 95.3006C158.282 95.2413 158.415 95.1475 158.514 95.019C158.613 94.8857 158.662 94.7177 158.662 94.5152C158.662 94.2237 158.563 94.0039 158.366 93.8557C158.173 93.7075 157.892 93.6334 157.521 93.6334H156.713V93.0035H157.417C157.635 93.0035 157.827 92.9714 157.995 92.9072C158.163 92.838 158.294 92.7367 158.388 92.6034C158.487 92.465 158.536 92.2946 158.536 92.0921C158.536 91.8302 158.445 91.6376 158.262 91.5141C158.084 91.3856 157.852 91.3214 157.566 91.3214C157.309 91.3214 157.054 91.3659 156.802 91.4548C156.555 91.5388 156.328 91.6845 156.121 91.892L155.854 91.3288C156.066 91.1065 156.328 90.9435 156.639 90.8398C156.95 90.7311 157.272 90.6767 157.603 90.6767C157.938 90.6767 158.23 90.7311 158.477 90.8398C158.724 90.9435 158.914 91.0966 159.048 91.2992C159.181 91.4968 159.248 91.7388 159.248 92.0254C159.248 92.3168 159.166 92.5737 159.003 92.796C158.845 93.0183 158.623 93.1789 158.336 93.2777V93.2851C158.534 93.3246 158.712 93.4012 158.87 93.5148C159.028 93.6235 159.151 93.7643 159.24 93.9372C159.334 94.1101 159.381 94.3126 159.381 94.5448C159.381 94.861 159.304 95.1302 159.151 95.3525C158.998 95.5748 158.783 95.7452 158.507 95.8638C158.235 95.9774 157.916 96.0342 157.551 96.0342ZM160.334 95.9675V95.0783H161.268V95.9675H160.334ZM163.969 96.0342C163.564 96.0342 163.221 95.9329 162.939 95.7304C162.663 95.5229 162.453 95.2216 162.309 94.8264C162.171 94.4262 162.102 93.9347 162.102 93.3518C162.102 92.7688 162.171 92.2798 162.309 91.8846C162.453 91.4844 162.663 91.1831 162.939 90.9806C163.221 90.778 163.564 90.6767 163.969 90.6767C164.384 90.6767 164.73 90.778 165.007 90.9806C165.283 91.1831 165.491 91.482 165.629 91.8772C165.767 92.2724 165.837 92.7614 165.837 93.3444C165.837 93.9273 165.765 94.4188 165.622 94.819C165.483 95.2191 165.273 95.5229 164.992 95.7304C164.715 95.9329 164.374 96.0342 163.969 96.0342ZM163.969 95.397C164.355 95.397 164.641 95.2315 164.829 94.9005C165.021 94.5646 165.118 94.0459 165.118 93.3444C165.118 92.6478 165.024 92.1365 164.836 91.8105C164.648 91.4795 164.362 91.314 163.977 91.314C163.586 91.314 163.295 91.4795 163.102 91.8105C162.915 92.1365 162.821 92.6503 162.821 93.3518C162.821 94.0483 162.915 94.5646 163.102 94.9005C163.29 95.2315 163.579 95.397 163.969 95.397ZM168.42 96.1602L167.938 95.8786L170.998 90.5508L171.48 90.8323L168.42 96.1602ZM167.864 93.8705C167.597 93.8705 167.363 93.8063 167.16 93.6778C166.962 93.5494 166.809 93.3666 166.701 93.1295C166.592 92.8874 166.538 92.5984 166.538 92.2625C166.538 91.7635 166.659 91.3758 166.901 91.0991C167.148 90.8175 167.469 90.6767 167.864 90.6767C168.131 90.6767 168.363 90.741 168.561 90.8694C168.763 90.9929 168.919 91.1732 169.027 91.4103C169.141 91.6475 169.198 91.9315 169.198 92.2625C169.198 92.5984 169.141 92.8874 169.027 93.1295C168.919 93.3666 168.763 93.5494 168.561 93.6778C168.363 93.8063 168.131 93.8705 167.864 93.8705ZM167.864 93.374C168.081 93.374 168.257 93.2826 168.39 93.0998C168.528 92.917 168.598 92.6379 168.598 92.2625C168.598 91.8969 168.528 91.6252 168.39 91.4474C168.257 91.2646 168.081 91.1732 167.864 91.1732C167.652 91.1732 167.476 91.2621 167.338 91.44C167.2 91.6129 167.13 91.887 167.13 92.2625C167.13 92.6429 167.2 92.9245 167.338 93.1072C167.476 93.2851 167.652 93.374 167.864 93.374ZM171.562 96.0342C171.295 96.0342 171.06 95.9725 170.858 95.849C170.66 95.7205 170.504 95.5377 170.391 95.3006C170.282 95.0586 170.228 94.7696 170.228 94.4336C170.228 93.9347 170.349 93.5444 170.591 93.2629C170.838 92.9813 171.161 92.8405 171.562 92.8405C171.823 92.8405 172.053 92.9047 172.251 93.0331C172.453 93.1616 172.609 93.3444 172.718 93.5815C172.831 93.8186 172.888 94.1027 172.888 94.4336C172.888 94.7646 172.834 95.0512 172.725 95.2932C172.616 95.5303 172.461 95.7131 172.258 95.8416C172.061 95.97 171.828 96.0342 171.562 96.0342ZM171.562 95.5377C171.774 95.5377 171.947 95.4488 172.08 95.271C172.219 95.0882 172.288 94.8091 172.288 94.4336C172.288 94.0631 172.219 93.789 172.08 93.6111C171.947 93.4283 171.774 93.337 171.562 93.337C171.344 93.337 171.166 93.4259 171.028 93.6037C170.895 93.7816 170.828 94.0582 170.828 94.4336C170.828 94.8091 170.895 95.0882 171.028 95.271C171.166 95.4488 171.344 95.5377 171.562 95.5377Z" fill="#B5E4CA"/>
<path d="M144.103 102.237L142.562 98.5611H143.362L144.489 101.481H144.481L145.622 98.5611H146.386L144.844 102.237H144.103ZM148.446 102.303C148.238 102.303 148.033 102.286 147.831 102.251C147.628 102.217 147.443 102.167 147.275 102.103C147.107 102.034 146.964 101.952 146.845 101.859L147.067 101.325C147.196 101.419 147.337 101.496 147.49 101.555C147.643 101.614 147.801 101.656 147.964 101.681C148.127 101.705 148.283 101.718 148.431 101.718C148.732 101.718 148.964 101.676 149.127 101.592C149.29 101.508 149.372 101.387 149.372 101.229C149.372 101.09 149.325 100.987 149.231 100.918C149.137 100.843 148.984 100.789 148.772 100.754L147.979 100.621C147.633 100.567 147.371 100.451 147.193 100.273C147.02 100.095 146.934 99.8702 146.934 99.5985C146.934 99.3812 146.996 99.191 147.119 99.0279C147.243 98.86 147.421 98.7291 147.653 98.6352C147.89 98.5364 148.174 98.487 148.505 98.487C148.688 98.487 148.87 98.5043 149.053 98.5389C149.236 98.5735 149.406 98.6229 149.565 98.6871C149.728 98.7513 149.858 98.8328 149.957 98.9316L149.72 99.4503C149.621 99.3614 149.503 99.2898 149.364 99.2354C149.226 99.1811 149.083 99.1416 148.935 99.1169C148.786 99.0922 148.643 99.0798 148.505 99.0798C148.223 99.0798 148.003 99.1243 147.845 99.2132C147.692 99.2972 147.616 99.4207 147.616 99.5837C147.616 99.7171 147.658 99.8208 147.742 99.8949C147.831 99.9641 147.976 100.016 148.179 100.051L148.942 100.184C149.318 100.248 149.594 100.364 149.772 100.532C149.955 100.695 150.046 100.92 150.046 101.207C150.046 101.434 149.98 101.629 149.846 101.792C149.718 101.955 149.532 102.081 149.29 102.17C149.053 102.259 148.772 102.303 148.446 102.303ZM154.292 102.303C153.926 102.303 153.642 102.199 153.44 101.992C153.242 101.78 153.144 101.483 153.144 101.103V97.0124H153.892V101.029C153.892 101.172 153.912 101.293 153.951 101.392C153.996 101.491 154.057 101.567 154.136 101.621C154.22 101.671 154.319 101.696 154.433 101.696C154.502 101.696 154.571 101.693 154.64 101.688C154.709 101.678 154.779 101.666 154.848 101.651L154.877 102.214C154.784 102.244 154.692 102.266 154.603 102.281C154.514 102.296 154.411 102.303 154.292 102.303ZM156.819 102.303C156.552 102.303 156.313 102.254 156.1 102.155C155.893 102.056 155.727 101.923 155.604 101.755C155.485 101.587 155.426 101.397 155.426 101.184C155.426 100.908 155.507 100.688 155.67 100.525C155.833 100.357 156.08 100.238 156.411 100.169C156.742 100.095 157.162 100.058 157.671 100.058H158.219V100.547H157.708C157.436 100.547 157.202 100.557 157.004 100.577C156.812 100.591 156.653 100.621 156.53 100.666C156.406 100.71 156.315 100.772 156.256 100.851C156.197 100.925 156.167 101.021 156.167 101.14C156.167 101.337 156.241 101.486 156.389 101.584C156.542 101.683 156.735 101.733 156.967 101.733C157.175 101.733 157.362 101.686 157.53 101.592C157.703 101.498 157.842 101.372 157.945 101.214C158.049 101.056 158.101 100.885 158.101 100.703V99.8653C158.101 99.5886 158.019 99.3886 157.856 99.2651C157.693 99.1416 157.451 99.0798 157.13 99.0798C156.918 99.0798 156.703 99.1095 156.486 99.1687C156.268 99.228 156.043 99.3268 155.811 99.4651L155.581 98.9242C155.74 98.8303 155.908 98.7513 156.085 98.6871C156.268 98.6229 156.456 98.5735 156.649 98.5389C156.841 98.5043 157.034 98.487 157.227 98.487C157.553 98.487 157.834 98.5389 158.071 98.6426C158.313 98.7464 158.499 98.9044 158.627 99.1169C158.76 99.3244 158.827 99.5985 158.827 99.9394V102.237H158.19V101.444H158.175C158.101 101.602 158.002 101.745 157.879 101.873C157.755 102.002 157.604 102.106 157.427 102.185C157.254 102.264 157.051 102.303 156.819 102.303ZM161.474 102.303C161.267 102.303 161.062 102.286 160.859 102.251C160.657 102.217 160.471 102.167 160.303 102.103C160.135 102.034 159.992 101.952 159.874 101.859L160.096 101.325C160.224 101.419 160.365 101.496 160.518 101.555C160.671 101.614 160.83 101.656 160.993 101.681C161.156 101.705 161.311 101.718 161.459 101.718C161.761 101.718 161.993 101.676 162.156 101.592C162.319 101.508 162.4 101.387 162.4 101.229C162.4 101.09 162.354 100.987 162.26 100.918C162.166 100.843 162.013 100.789 161.8 100.754L161.007 100.621C160.662 100.567 160.4 100.451 160.222 100.273C160.049 100.095 159.963 99.8702 159.963 99.5985C159.963 99.3812 160.024 99.191 160.148 99.0279C160.271 98.86 160.449 98.7291 160.681 98.6352C160.918 98.5364 161.203 98.487 161.533 98.487C161.716 98.487 161.899 98.5043 162.082 98.5389C162.265 98.5735 162.435 98.6229 162.593 98.6871C162.756 98.7513 162.887 98.8328 162.986 98.9316L162.749 99.4503C162.65 99.3614 162.531 99.2898 162.393 99.2354C162.255 99.1811 162.111 99.1416 161.963 99.1169C161.815 99.0922 161.672 99.0798 161.533 99.0798C161.252 99.0798 161.032 99.1243 160.874 99.2132C160.721 99.2972 160.644 99.4207 160.644 99.5837C160.644 99.7171 160.686 99.8208 160.77 99.8949C160.859 99.9641 161.005 100.016 161.207 100.051L161.971 100.184C162.346 100.248 162.623 100.364 162.801 100.532C162.983 100.695 163.075 100.92 163.075 101.207C163.075 101.434 163.008 101.629 162.875 101.792C162.746 101.955 162.561 102.081 162.319 102.17C162.082 102.259 161.8 102.303 161.474 102.303ZM165.668 102.303C165.209 102.303 164.863 102.185 164.631 101.948C164.398 101.705 164.282 101.365 164.282 100.925V99.1687H163.541V98.5611H164.312V97.4867H165.023V98.5611H166.357V99.1687H165.023V100.873C165.023 101.14 165.085 101.34 165.209 101.473C165.337 101.602 165.527 101.666 165.779 101.666C165.883 101.666 165.984 101.656 166.083 101.636C166.182 101.617 166.278 101.587 166.372 101.547L166.483 102.133C166.379 102.192 166.253 102.234 166.105 102.259C165.962 102.288 165.816 102.303 165.668 102.303ZM169.734 103.57L170.453 101.962V102.518L168.778 98.5611H169.579L170.712 101.488H170.698L171.839 98.5611H172.609L170.512 103.57H169.734ZM175.113 102.303C174.689 102.303 174.323 102.229 174.017 102.081C173.715 101.928 173.483 101.708 173.32 101.421C173.157 101.135 173.076 100.794 173.076 100.399C173.076 100.028 173.15 99.6998 173.298 99.4133C173.451 99.1268 173.666 98.902 173.943 98.739C174.219 98.571 174.55 98.487 174.936 98.487C175.296 98.487 175.605 98.5661 175.862 98.7241C176.119 98.8773 176.314 99.0946 176.447 99.3762C176.586 99.6578 176.655 99.9913 176.655 100.377V100.606H173.639V100.11H176.151L176.018 100.251C176.018 99.8603 175.924 99.5639 175.736 99.3614C175.548 99.1539 175.281 99.0502 174.936 99.0502C174.713 99.0502 174.516 99.0996 174.343 99.1984C174.17 99.2972 174.034 99.4404 173.935 99.6282C173.836 99.8109 173.787 100.036 173.787 100.302V100.384C173.787 100.68 173.839 100.925 173.943 101.118C174.051 101.31 174.205 101.456 174.402 101.555C174.605 101.654 174.847 101.703 175.128 101.703C175.331 101.703 175.536 101.676 175.743 101.621C175.956 101.567 176.151 101.471 176.329 101.332L176.566 101.859C176.378 102.012 176.151 102.125 175.884 102.199C175.622 102.269 175.365 102.303 175.113 102.303ZM178.934 102.303C178.668 102.303 178.428 102.254 178.216 102.155C178.008 102.056 177.843 101.923 177.719 101.755C177.601 101.587 177.541 101.397 177.541 101.184C177.541 100.908 177.623 100.688 177.786 100.525C177.949 100.357 178.196 100.238 178.527 100.169C178.858 100.095 179.278 100.058 179.787 100.058H180.335V100.547H179.824C179.552 100.547 179.317 100.557 179.12 100.577C178.927 100.591 178.769 100.621 178.645 100.666C178.522 100.71 178.43 100.772 178.371 100.851C178.312 100.925 178.282 101.021 178.282 101.14C178.282 101.337 178.356 101.486 178.505 101.584C178.658 101.683 178.85 101.733 179.083 101.733C179.29 101.733 179.478 101.686 179.646 101.592C179.819 101.498 179.957 101.372 180.061 101.214C180.164 101.056 180.216 100.885 180.216 100.703V99.8653C180.216 99.5886 180.135 99.3886 179.972 99.2651C179.809 99.1416 179.567 99.0798 179.246 99.0798C179.033 99.0798 178.818 99.1095 178.601 99.1687C178.384 99.228 178.159 99.3268 177.927 99.4651L177.697 98.9242C177.855 98.8303 178.023 98.7513 178.201 98.6871C178.384 98.6229 178.571 98.5735 178.764 98.5389C178.957 98.5043 179.149 98.487 179.342 98.487C179.668 98.487 179.95 98.5389 180.187 98.6426C180.429 98.7464 180.614 98.9044 180.742 99.1169C180.876 99.3244 180.943 99.5985 180.943 99.9394V102.237H180.305V101.444H180.29C180.216 101.602 180.118 101.745 179.994 101.873C179.871 102.002 179.72 102.106 179.542 102.185C179.369 102.264 179.167 102.303 178.934 102.303ZM182.197 102.237V98.5611H182.863V99.4133H182.886C182.975 99.1465 183.128 98.9341 183.345 98.776C183.567 98.6179 183.837 98.529 184.153 98.5092L184.523 98.487L184.59 99.1687L184.005 99.2132C183.669 99.2428 183.407 99.354 183.219 99.5467C183.036 99.7393 182.945 99.9764 182.945 100.258V102.237H182.197Z" fill="#636B7A"/>
<path d="M52.6195 127.824V122.6H53.4494V127.105H56.0356V127.824H52.6195ZM58.1823 127.89C57.9155 127.89 57.6759 127.841 57.4635 127.742C57.256 127.643 57.0905 127.51 56.967 127.342C56.8435 127.169 56.7818 126.974 56.7818 126.757C56.7818 126.48 56.8608 126.26 57.0189 126.097C57.1819 125.929 57.4289 125.808 57.7599 125.734C58.0909 125.66 58.5133 125.623 59.027 125.623H59.568V126.149H59.0715C58.8146 126.149 58.5923 126.159 58.4046 126.179C58.2169 126.194 58.0637 126.223 57.9452 126.268C57.8266 126.307 57.7377 126.364 57.6784 126.438C57.6191 126.507 57.5895 126.599 57.5895 126.712C57.5895 126.9 57.6611 127.041 57.8044 127.135C57.9526 127.228 58.1403 127.275 58.3675 127.275C58.5602 127.275 58.738 127.231 58.9011 127.142C59.069 127.048 59.2024 126.927 59.3012 126.779C59.4 126.626 59.4494 126.46 59.4494 126.282V125.46C59.4494 125.188 59.3679 124.996 59.2049 124.882C59.0468 124.768 58.8121 124.712 58.5009 124.712C58.2885 124.712 58.0736 124.741 57.8562 124.8C57.6438 124.855 57.4166 124.951 57.1745 125.089L56.9374 124.504C57.1004 124.405 57.2708 124.326 57.4487 124.267C57.6315 124.203 57.8217 124.153 58.0193 124.119C58.2169 124.084 58.4145 124.067 58.6121 124.067C58.943 124.067 59.232 124.119 59.479 124.222C59.726 124.326 59.9162 124.487 60.0496 124.704C60.183 124.917 60.2497 125.198 60.2497 125.549V127.824H59.5531V127.046H59.5309C59.4568 127.199 59.358 127.34 59.2345 127.468C59.1159 127.596 58.9677 127.7 58.7899 127.779C58.617 127.853 58.4145 127.89 58.1823 127.89ZM62.9184 127.89C62.7059 127.89 62.4984 127.873 62.2959 127.839C62.0934 127.804 61.9056 127.757 61.7327 127.698C61.5648 127.634 61.4215 127.552 61.303 127.453L61.5327 126.875C61.6661 126.964 61.8093 127.038 61.9625 127.098C62.1156 127.152 62.2712 127.194 62.4293 127.224C62.5923 127.248 62.7479 127.261 62.8961 127.261C63.1925 127.261 63.4198 127.221 63.5778 127.142C63.7359 127.063 63.815 126.949 63.815 126.801C63.815 126.668 63.7705 126.569 63.6816 126.505C63.5927 126.441 63.4445 126.391 63.237 126.357L62.4367 126.231C62.086 126.176 61.8241 126.058 61.6512 125.875C61.4783 125.692 61.3919 125.467 61.3919 125.201C61.3919 124.973 61.4536 124.776 61.5771 124.608C61.7006 124.44 61.8809 124.309 62.1181 124.215C62.3601 124.116 62.6516 124.067 62.9925 124.067C63.1752 124.067 63.358 124.084 63.5408 124.119C63.7285 124.148 63.9014 124.195 64.0595 124.259C64.2225 124.324 64.3534 124.405 64.4522 124.504L64.2077 125.067C64.104 124.983 63.9829 124.914 63.8446 124.86C63.7112 124.805 63.5704 124.766 63.4222 124.741C63.274 124.716 63.1308 124.704 62.9925 124.704C62.7158 124.704 62.5009 124.746 62.3478 124.83C62.1996 124.909 62.1255 125.025 62.1255 125.178C62.1255 125.302 62.1675 125.398 62.2514 125.467C62.3354 125.532 62.4737 125.578 62.6664 125.608L63.4371 125.742C63.8174 125.806 64.0966 125.924 64.2744 126.097C64.4572 126.265 64.5486 126.492 64.5486 126.779C64.5486 127.006 64.4819 127.204 64.3485 127.372C64.2151 127.54 64.0249 127.668 63.7779 127.757C63.5359 127.846 63.2493 127.89 62.9184 127.89ZM67.1936 127.89C66.7193 127.89 66.3612 127.769 66.1191 127.527C65.882 127.28 65.7634 126.93 65.7634 126.475V124.808H65.0298V124.141H65.8005V123.074H66.5859V124.141H67.9049V124.808H66.5859V126.431C66.5859 126.688 66.6452 126.88 66.7638 127.009C66.8873 127.132 67.0725 127.194 67.3195 127.194C67.4233 127.194 67.5221 127.184 67.6159 127.164C67.7147 127.144 67.8111 127.117 67.9049 127.083L68.0309 127.72C67.9173 127.779 67.7864 127.821 67.6382 127.846C67.4949 127.876 67.3467 127.89 67.1936 127.89ZM71.0579 127.824V122.6H73.3031C73.886 122.6 74.3331 122.731 74.6443 122.992C74.9556 123.254 75.1112 123.632 75.1112 124.126C75.1112 124.403 75.0568 124.64 74.9481 124.837C74.8395 125.035 74.6888 125.196 74.4961 125.319C74.3035 125.438 74.0812 125.519 73.8292 125.564L73.844 125.571L73.9181 125.586C74.0318 125.611 74.133 125.665 74.222 125.749C74.3158 125.828 74.4097 125.951 74.5035 126.119L75.4076 127.824H74.5035L73.644 126.208C73.5797 126.08 73.5056 125.981 73.4217 125.912C73.3426 125.843 73.2512 125.796 73.1475 125.771C73.0438 125.742 72.9178 125.727 72.7696 125.727H71.8878V127.824H71.0579ZM71.8878 125.06H73.2364C73.602 125.06 73.8687 124.986 74.0367 124.837C74.2047 124.689 74.2886 124.464 74.2886 124.163C74.2886 123.862 74.1997 123.642 74.0219 123.504C73.849 123.36 73.5773 123.289 73.2068 123.289H71.8878V125.06ZM78.1399 127.89C77.7051 127.89 77.3322 127.816 77.0209 127.668C76.7097 127.515 76.4726 127.295 76.3096 127.009C76.1465 126.717 76.065 126.374 76.065 125.979C76.065 125.613 76.1391 125.287 76.2873 125C76.4405 124.709 76.6578 124.482 76.9394 124.319C77.221 124.151 77.5569 124.067 77.9472 124.067C78.3128 124.067 78.624 124.146 78.8809 124.304C79.1427 124.457 79.3428 124.674 79.4811 124.956C79.6194 125.238 79.6886 125.574 79.6886 125.964V126.216H76.6949V125.682H79.1254L78.992 125.823C78.992 125.448 78.9006 125.164 78.7178 124.971C78.54 124.773 78.2856 124.674 77.9546 124.674C77.7372 124.674 77.5446 124.721 77.3766 124.815C77.2136 124.909 77.0827 125.045 76.9839 125.223C76.89 125.401 76.8431 125.618 76.8431 125.875V125.964C76.8431 126.25 76.895 126.487 76.9987 126.675C77.1024 126.863 77.2531 127.004 77.4507 127.098C77.6483 127.191 77.8854 127.238 78.1621 127.238C78.3597 127.238 78.5622 127.214 78.7697 127.164C78.9821 127.11 79.1748 127.016 79.3477 126.883L79.5996 127.453C79.407 127.606 79.1773 127.718 78.9105 127.787C78.6487 127.856 78.3918 127.89 78.1399 127.89ZM80.7376 129.158V124.134H81.4786V124.912H81.4934C81.607 124.64 81.7799 124.432 82.0121 124.289C82.2443 124.141 82.516 124.067 82.8272 124.067C83.173 124.067 83.4719 124.148 83.7238 124.311C83.9758 124.469 84.1709 124.692 84.3092 124.978C84.4475 125.265 84.5167 125.598 84.5167 125.979C84.5167 126.349 84.45 126.68 84.3166 126.972C84.1832 127.258 83.9906 127.483 83.7386 127.646C83.4867 127.809 83.1853 127.89 82.8346 127.89C82.5333 127.89 82.2739 127.821 82.0565 127.683C81.8392 127.54 81.6762 127.349 81.5675 127.112H81.5601V129.158H80.7376ZM82.6271 127.238C82.963 127.238 83.2249 127.125 83.4126 126.897C83.6052 126.67 83.7016 126.361 83.7016 125.971C83.7016 125.581 83.6052 125.275 83.4126 125.052C83.2249 124.83 82.963 124.719 82.6271 124.719C82.2912 124.719 82.0269 124.83 81.8342 125.052C81.6416 125.275 81.5452 125.581 81.5452 125.971C81.5452 126.361 81.6416 126.67 81.8342 126.897C82.0269 127.125 82.2912 127.238 82.6271 127.238ZM87.2606 127.89C86.8753 127.89 86.5394 127.811 86.2528 127.653C85.9713 127.495 85.7539 127.273 85.6008 126.986C85.4476 126.695 85.371 126.359 85.371 125.979C85.371 125.593 85.4476 125.257 85.6008 124.971C85.7539 124.684 85.9713 124.462 86.2528 124.304C86.5394 124.146 86.8753 124.067 87.2606 124.067C87.6459 124.067 87.9769 124.146 88.2536 124.304C88.5351 124.462 88.7525 124.684 88.9056 124.971C89.0637 125.257 89.1428 125.593 89.1428 125.979C89.1428 126.359 89.0662 126.695 88.9131 126.986C88.7599 127.273 88.5426 127.495 88.261 127.653C87.9794 127.811 87.6459 127.89 87.2606 127.89ZM87.2532 127.209C87.5891 127.209 87.8534 127.098 88.0461 126.875C88.2387 126.653 88.3351 126.352 88.3351 125.971C88.3351 125.591 88.2387 125.294 88.0461 125.082C87.8584 124.865 87.5965 124.756 87.2606 124.756C86.9197 124.756 86.653 124.865 86.4603 125.082C86.2726 125.294 86.1787 125.591 86.1787 125.971C86.1787 126.352 86.2751 126.653 86.4677 126.875C86.6604 127.098 86.9222 127.209 87.2532 127.209ZM90.2028 127.824V124.141H90.9289V125.008H90.9512C91.0401 124.741 91.1908 124.526 91.4032 124.363C91.6206 124.2 91.8873 124.109 92.2035 124.089L92.5888 124.059L92.6629 124.815L92.0479 124.867C91.7218 124.892 91.4699 124.998 91.292 125.186C91.1142 125.373 91.0253 125.603 91.0253 125.875V127.824H90.2028ZM95.3287 127.89C94.8544 127.89 94.4963 127.769 94.2542 127.527C94.0171 127.28 93.8985 126.93 93.8985 126.475V124.808H93.1649V124.141H93.9356V123.074H94.721V124.141H96.04V124.808H94.721V126.431C94.721 126.688 94.7803 126.88 94.8989 127.009C95.0224 127.132 95.2076 127.194 95.4546 127.194C95.5584 127.194 95.6572 127.184 95.751 127.164C95.8499 127.144 95.9462 127.117 96.04 127.083L96.166 127.72C96.0524 127.779 95.9215 127.821 95.7733 127.846C95.63 127.876 95.4818 127.89 95.3287 127.89ZM98.7636 127.89C98.3289 127.89 97.9559 127.816 97.6447 127.668C97.3334 127.515 97.0963 127.295 96.9333 127.009C96.7703 126.717 96.6888 126.374 96.6888 125.979C96.6888 125.613 96.7629 125.287 96.9111 125C97.0642 124.709 97.2816 124.482 97.5632 124.319C97.8447 124.151 98.1807 124.067 98.5709 124.067C98.9365 124.067 99.2477 124.146 99.5046 124.304C99.7664 124.457 99.9665 124.674 100.105 124.956C100.243 125.238 100.312 125.574 100.312 125.964V126.216H97.3186V125.682H99.7491L99.6158 125.823C99.6158 125.448 99.5244 125.164 99.3416 124.971C99.1637 124.773 98.9093 124.674 98.5783 124.674C98.361 124.674 98.1683 124.721 98.0004 124.815C97.8373 124.909 97.7064 125.045 97.6076 125.223C97.5138 125.401 97.4668 125.618 97.4668 125.875V125.964C97.4668 126.25 97.5187 126.487 97.6224 126.675C97.7262 126.863 97.8769 127.004 98.0745 127.098C98.2721 127.191 98.5092 127.238 98.7858 127.238C98.9834 127.238 99.186 127.214 99.3934 127.164C99.6059 127.11 99.7985 127.016 99.9714 126.883L100.223 127.453C100.031 127.606 99.801 127.718 99.5342 127.787C99.2724 127.856 99.0155 127.89 98.7636 127.89ZM102.843 127.89C102.497 127.89 102.196 127.811 101.939 127.653C101.687 127.49 101.492 127.266 101.354 126.979C101.216 126.688 101.146 126.354 101.146 125.979C101.146 125.603 101.216 125.272 101.354 124.986C101.492 124.699 101.687 124.474 101.939 124.311C102.191 124.148 102.488 124.067 102.828 124.067C103.14 124.067 103.404 124.138 103.621 124.282C103.839 124.42 103.997 124.608 104.096 124.845H104.11V122.6H104.933V127.824H104.192V127.046H104.17C104.056 127.317 103.886 127.527 103.658 127.676C103.431 127.819 103.159 127.89 102.843 127.89ZM103.043 127.238C103.384 127.238 103.649 127.127 103.836 126.905C104.029 126.678 104.125 126.369 104.125 125.979C104.125 125.588 104.029 125.282 103.836 125.06C103.649 124.833 103.387 124.719 103.051 124.719C102.715 124.719 102.451 124.833 102.258 125.06C102.065 125.282 101.969 125.588 101.969 125.979C101.969 126.369 102.065 126.678 102.258 126.905C102.451 127.127 102.712 127.238 103.043 127.238ZM109.834 127.89C109.488 127.89 109.187 127.811 108.93 127.653C108.678 127.49 108.483 127.266 108.344 126.979C108.206 126.688 108.137 126.354 108.137 125.979C108.137 125.603 108.206 125.272 108.344 124.986C108.483 124.699 108.678 124.474 108.93 124.311C109.182 124.148 109.478 124.067 109.819 124.067C110.13 124.067 110.394 124.138 110.612 124.282C110.829 124.42 110.987 124.608 111.086 124.845H111.101V122.6H111.923V127.824H111.182V127.046H111.16C111.046 127.317 110.876 127.527 110.649 127.676C110.422 127.819 110.15 127.89 109.834 127.89ZM110.034 127.238C110.375 127.238 110.639 127.127 110.827 126.905C111.019 126.678 111.116 126.369 111.116 125.979C111.116 125.588 111.019 125.282 110.827 125.06C110.639 124.833 110.377 124.719 110.041 124.719C109.705 124.719 109.441 124.833 109.248 125.06C109.056 125.282 108.959 125.588 108.959 125.979C108.959 126.369 109.056 126.678 109.248 126.905C109.441 127.127 109.703 127.238 110.034 127.238ZM114.46 127.89C114.193 127.89 113.953 127.841 113.741 127.742C113.533 127.643 113.368 127.51 113.244 127.342C113.121 127.169 113.059 126.974 113.059 126.757C113.059 126.48 113.138 126.26 113.296 126.097C113.459 125.929 113.706 125.808 114.037 125.734C114.368 125.66 114.791 125.623 115.304 125.623H115.845V126.149H115.349C115.092 126.149 114.87 126.159 114.682 126.179C114.494 126.194 114.341 126.223 114.223 126.268C114.104 126.307 114.015 126.364 113.956 126.438C113.897 126.507 113.867 126.599 113.867 126.712C113.867 126.9 113.939 127.041 114.082 127.135C114.23 127.228 114.418 127.275 114.645 127.275C114.838 127.275 115.016 127.231 115.179 127.142C115.346 127.048 115.48 126.927 115.579 126.779C115.677 126.626 115.727 126.46 115.727 126.282V125.46C115.727 125.188 115.645 124.996 115.482 124.882C115.324 124.768 115.09 124.712 114.778 124.712C114.566 124.712 114.351 124.741 114.134 124.8C113.921 124.855 113.694 124.951 113.452 125.089L113.215 124.504C113.378 124.405 113.548 124.326 113.726 124.267C113.909 124.203 114.099 124.153 114.297 124.119C114.494 124.084 114.692 124.067 114.89 124.067C115.221 124.067 115.51 124.119 115.757 124.222C116.004 124.326 116.194 124.487 116.327 124.704C116.46 124.917 116.527 125.198 116.527 125.549V127.824H115.831V127.046H115.808C115.734 127.199 115.635 127.34 115.512 127.468C115.393 127.596 115.245 127.7 115.067 127.779C114.894 127.853 114.692 127.89 114.46 127.89ZM119.44 127.89C118.966 127.89 118.608 127.769 118.366 127.527C118.129 127.28 118.01 126.93 118.01 126.475V124.808H117.277V124.141H118.047V123.074H118.833V124.141H120.152V124.808H118.833V126.431C118.833 126.688 118.892 126.88 119.011 127.009C119.134 127.132 119.319 127.194 119.566 127.194C119.67 127.194 119.769 127.184 119.863 127.164C119.962 127.144 120.058 127.117 120.152 127.083L120.278 127.72C120.164 127.779 120.033 127.821 119.885 127.846C119.742 127.876 119.593 127.89 119.44 127.89ZM122.875 127.89C122.441 127.89 122.068 127.816 121.756 127.668C121.445 127.515 121.208 127.295 121.045 127.009C120.882 126.717 120.8 126.374 120.8 125.979C120.8 125.613 120.875 125.287 121.023 125C121.176 124.709 121.393 124.482 121.675 124.319C121.956 124.151 122.292 124.067 122.683 124.067C123.048 124.067 123.359 124.146 123.616 124.304C123.878 124.457 124.078 124.674 124.216 124.956C124.355 125.238 124.424 125.574 124.424 125.964V126.216H121.43V125.682H123.861L123.727 125.823C123.727 125.448 123.636 125.164 123.453 124.971C123.275 124.773 123.021 124.674 122.69 124.674C122.473 124.674 122.28 124.721 122.112 124.815C121.949 124.909 121.818 125.045 121.719 125.223C121.625 125.401 121.579 125.618 121.579 125.875V125.964C121.579 126.25 121.63 126.487 121.734 126.675C121.838 126.863 121.989 127.004 122.186 127.098C122.384 127.191 122.621 127.238 122.897 127.238C123.095 127.238 123.298 127.214 123.505 127.164C123.718 127.11 123.91 127.016 124.083 126.883L124.335 127.453C124.142 127.606 123.913 127.718 123.646 127.787C123.384 127.856 123.127 127.89 122.875 127.89ZM125.34 125.06V124.141H126.355V125.06H125.34ZM125.34 127.824V126.905H126.355V127.824H125.34Z" fill="white"/>
<path d="M131.553 127.89C131.261 127.89 130.985 127.868 130.723 127.824C130.466 127.784 130.231 127.72 130.019 127.631C129.807 127.542 129.619 127.431 129.456 127.298L129.708 126.749C129.881 126.883 130.061 126.991 130.249 127.075C130.441 127.154 130.646 127.211 130.864 127.246C131.081 127.275 131.311 127.29 131.553 127.29C131.958 127.29 132.269 127.211 132.487 127.053C132.709 126.89 132.82 126.665 132.82 126.379C132.82 126.226 132.783 126.102 132.709 126.008C132.64 125.909 132.529 125.828 132.375 125.764C132.227 125.7 132.032 125.645 131.79 125.601L130.938 125.43C130.454 125.336 130.105 125.171 129.893 124.934C129.681 124.697 129.574 124.398 129.574 124.037C129.574 123.736 129.661 123.472 129.834 123.244C130.012 123.017 130.254 122.842 130.56 122.718C130.866 122.595 131.215 122.533 131.605 122.533C131.852 122.533 132.082 122.558 132.294 122.607C132.511 122.651 132.711 122.721 132.894 122.815C133.077 122.903 133.24 123.017 133.383 123.155L133.131 123.704C132.919 123.496 132.687 123.351 132.435 123.267C132.183 123.178 131.904 123.133 131.597 123.133C131.341 123.133 131.108 123.17 130.901 123.244C130.698 123.313 130.538 123.415 130.419 123.548C130.306 123.682 130.249 123.847 130.249 124.045C130.249 124.262 130.315 124.432 130.449 124.556C130.587 124.679 130.824 124.773 131.16 124.837L132.005 125C132.514 125.099 132.889 125.26 133.131 125.482C133.373 125.704 133.494 125.993 133.494 126.349C133.494 126.646 133.413 126.91 133.25 127.142C133.092 127.374 132.867 127.557 132.576 127.69C132.284 127.824 131.943 127.89 131.553 127.89ZM136.363 127.89C135.948 127.89 135.59 127.816 135.288 127.668C134.992 127.515 134.762 127.298 134.599 127.016C134.441 126.73 134.362 126.386 134.362 125.986C134.362 125.62 134.436 125.294 134.584 125.008C134.733 124.721 134.943 124.497 135.214 124.334C135.491 124.171 135.817 124.089 136.192 124.089C136.558 124.089 136.867 124.166 137.119 124.319C137.371 124.472 137.561 124.689 137.689 124.971C137.823 125.247 137.889 125.578 137.889 125.964V126.171H134.859V125.704H137.46L137.311 125.86C137.311 125.455 137.215 125.144 137.022 124.926C136.83 124.709 136.556 124.6 136.2 124.6C135.963 124.6 135.755 124.652 135.577 124.756C135.4 124.86 135.259 125.008 135.155 125.201C135.056 125.393 135.007 125.625 135.007 125.897V125.979C135.007 126.28 135.061 126.532 135.17 126.734C135.279 126.932 135.434 127.083 135.637 127.186C135.844 127.29 136.091 127.342 136.378 127.342C136.575 127.342 136.78 127.315 136.993 127.261C137.205 127.206 137.403 127.105 137.586 126.957L137.815 127.431C137.623 127.589 137.395 127.705 137.134 127.779C136.872 127.853 136.615 127.89 136.363 127.89ZM139.006 129.158V124.148H139.614V124.949H139.628C139.742 124.672 139.915 124.46 140.147 124.311C140.384 124.163 140.661 124.089 140.977 124.089C141.318 124.089 141.614 124.168 141.866 124.326C142.123 124.484 142.321 124.707 142.459 124.993C142.597 125.275 142.666 125.606 142.666 125.986C142.666 126.361 142.597 126.692 142.459 126.979C142.321 127.266 142.126 127.49 141.874 127.653C141.622 127.811 141.323 127.89 140.977 127.89C140.671 127.89 140.404 127.816 140.177 127.668C139.954 127.52 139.791 127.322 139.688 127.075H139.673V129.158H139.006ZM140.829 127.342C141.189 127.342 141.473 127.221 141.681 126.979C141.893 126.732 142 126.399 142 125.979C142 125.564 141.896 125.238 141.688 125C141.481 124.758 141.197 124.637 140.836 124.637C140.471 124.637 140.184 124.758 139.977 125C139.769 125.238 139.665 125.564 139.665 125.979C139.665 126.399 139.769 126.732 139.977 126.979C140.184 127.221 140.468 127.342 140.829 127.342ZM145.814 127.824V127.327L147.651 125.408C147.834 125.215 147.975 125.042 148.074 124.889C148.172 124.736 148.242 124.59 148.281 124.452C148.326 124.309 148.348 124.166 148.348 124.022C148.348 123.731 148.254 123.509 148.066 123.355C147.883 123.197 147.632 123.118 147.31 123.118C147.063 123.118 146.819 123.165 146.577 123.259C146.335 123.353 146.108 123.506 145.895 123.719L145.636 123.192C145.858 122.98 146.117 122.817 146.414 122.703C146.715 122.59 147.029 122.533 147.355 122.533C147.696 122.533 147.99 122.592 148.237 122.711C148.484 122.829 148.671 122.997 148.8 123.215C148.933 123.427 149 123.681 149 123.978C149 124.131 148.983 124.282 148.948 124.43C148.918 124.573 148.867 124.716 148.792 124.86C148.718 125.003 148.624 125.151 148.511 125.304C148.397 125.453 148.261 125.611 148.103 125.779L146.681 127.261V127.246H149.215V127.824H145.814ZM151.88 127.89C151.479 127.89 151.141 127.789 150.864 127.587C150.588 127.379 150.378 127.078 150.235 126.683C150.096 126.282 150.027 125.791 150.027 125.208C150.027 124.625 150.096 124.136 150.235 123.741C150.378 123.346 150.588 123.047 150.864 122.844C151.141 122.637 151.479 122.533 151.88 122.533C152.29 122.533 152.63 122.634 152.902 122.837C153.179 123.039 153.386 123.338 153.525 123.733C153.663 124.129 153.732 124.618 153.732 125.201C153.732 125.783 153.66 126.275 153.517 126.675C153.379 127.075 153.171 127.379 152.895 127.587C152.623 127.789 152.285 127.89 151.88 127.89ZM151.88 127.305C152.285 127.305 152.586 127.135 152.784 126.794C152.981 126.453 153.08 125.922 153.08 125.201C153.08 124.484 152.981 123.958 152.784 123.622C152.591 123.286 152.292 123.118 151.887 123.118C151.477 123.118 151.173 123.289 150.976 123.63C150.778 123.966 150.679 124.492 150.679 125.208C150.679 125.919 150.778 126.448 150.976 126.794C151.173 127.135 151.474 127.305 151.88 127.305ZM154.7 127.824V127.327L156.538 125.408C156.72 125.215 156.861 125.042 156.96 124.889C157.059 124.736 157.128 124.59 157.167 124.452C157.212 124.309 157.234 124.166 157.234 124.022C157.234 123.731 157.14 123.509 156.953 123.355C156.77 123.197 156.518 123.118 156.197 123.118C155.95 123.118 155.705 123.165 155.463 123.259C155.221 123.353 154.994 123.506 154.781 123.719L154.522 123.192C154.744 122.98 155.004 122.817 155.3 122.703C155.601 122.59 155.915 122.533 156.241 122.533C156.582 122.533 156.876 122.592 157.123 122.711C157.37 122.829 157.558 122.997 157.686 123.215C157.82 123.427 157.886 123.681 157.886 123.978C157.886 124.131 157.869 124.282 157.834 124.43C157.805 124.573 157.753 124.716 157.679 124.86C157.605 125.003 157.511 125.151 157.397 125.304C157.284 125.453 157.148 125.611 156.99 125.779L155.567 127.261V127.246H158.101V127.824H154.7ZM161.373 127.824V126.742H158.928V126.245L161.314 122.6H162.003V126.194H162.722V126.742H162.003V127.824H161.373ZM161.396 126.194V123.422H161.411L159.521 126.305L159.454 126.194H161.396Z" fill="#636B7A"/>
<line x1="522.409" y1="47.4913" x2="217.67" y2="47.4913" stroke="#B3B3B3" stroke-width="0.272706"/>
<line x1="522.409" y1="66.2481" x2="217.67" y2="66.2481" stroke="#B3B3B3" stroke-width="0.272706"/>
<line x1="522.409" y1="85.0049" x2="217.67" y2="85.0049" stroke="#B3B3B3" stroke-width="0.272706"/>
<line x1="522.409" y1="103.762" x2="217.67" y2="103.762" stroke="#B3B3B3" stroke-width="0.272706"/>
<path d="M235.861 84.084L218.096 95.8969L219.21 107.88L523.252 90.8286L522.281 80.3749L473.229 68.1207C470.262 67.3795 467.168 67.6009 464.406 68.7522L428.93 83.5414C425.28 85.0628 421.096 84.944 417.421 83.2149L407.8 78.6875C404.267 77.0252 400.257 76.8485 396.7 78.1984L367.55 89.2606C363.918 90.6389 359.817 90.4245 356.236 88.6689L338.28 79.8649C334.223 77.8756 329.528 77.8778 325.617 79.8708L291.171 97.4276C287.249 99.4269 282.537 99.4225 278.473 97.4158L249.902 83.3113C245.327 81.0529 239.977 81.3473 235.861 84.084Z" fill="url(#paint0_linear_4508_654)"/>
<path d="M218.232 95.9973L236.117 84.2772C240.198 81.6031 245.47 81.3129 249.999 83.5131L278.754 97.4836C282.776 99.438 287.419 99.4399 291.301 97.4888L325.981 80.0584C329.851 78.1134 334.477 78.1089 338.492 80.0463L356.604 88.7859C360.147 90.4954 364.189 90.7023 367.779 89.358L397.14 78.3619C400.655 77.0455 404.608 77.2155 408.102 78.8336L417.869 83.356C421.504 85.0392 425.627 85.1527 429.235 83.6689L464.916 68.9937C467.644 67.8717 470.692 67.6541 473.619 68.3724L522.776 80.4338" stroke="#B5E4CA" stroke-width="1.63623" stroke-linecap="round"/>
<path opacity="0.68" d="M217.914 125.636L217.848 124.849L218.532 124.811C218.738 124.799 218.916 124.749 219.066 124.661C219.216 124.574 219.332 124.449 219.413 124.287C219.494 124.124 219.535 123.934 219.535 123.715V118.954H220.444V123.752C220.444 124.115 220.372 124.43 220.228 124.699C220.091 124.968 219.888 125.18 219.619 125.336C219.357 125.486 219.038 125.574 218.663 125.599L217.914 125.636ZM223.64 125.646C223.309 125.646 223.012 125.583 222.75 125.458C222.494 125.333 222.291 125.164 222.141 124.952C221.997 124.74 221.925 124.499 221.925 124.23C221.925 123.887 222.019 123.615 222.207 123.415C222.4 123.209 222.7 123.062 223.106 122.975C223.519 122.887 224.053 122.843 224.709 122.843H225.29V123.434H224.746C224.396 123.434 224.097 123.446 223.847 123.471C223.603 123.49 223.406 123.527 223.256 123.584C223.106 123.64 222.997 123.718 222.928 123.818C222.859 123.912 222.825 124.034 222.825 124.183C222.825 124.427 222.916 124.621 223.097 124.765C223.278 124.902 223.515 124.971 223.809 124.971C224.065 124.971 224.293 124.911 224.493 124.793C224.693 124.674 224.852 124.515 224.971 124.315C225.096 124.115 225.159 123.896 225.159 123.659V122.59C225.159 122.234 225.065 121.978 224.877 121.822C224.696 121.659 224.415 121.578 224.034 121.578C223.765 121.578 223.497 121.616 223.228 121.691C222.959 121.766 222.681 121.891 222.394 122.065L222.113 121.409C222.3 121.297 222.503 121.2 222.722 121.119C222.941 121.038 223.169 120.975 223.406 120.931C223.644 120.881 223.878 120.856 224.109 120.856C224.515 120.856 224.862 120.922 225.149 121.053C225.437 121.184 225.655 121.384 225.805 121.653C225.955 121.916 226.03 122.259 226.03 122.684V125.561H225.224V124.549H225.252C225.177 124.755 225.065 124.943 224.915 125.111C224.771 125.28 224.59 125.411 224.371 125.505C224.159 125.599 223.915 125.646 223.64 125.646ZM227.549 125.561V120.95H228.402V121.934H228.365C228.508 121.591 228.73 121.325 229.03 121.138C229.33 120.95 229.667 120.856 230.042 120.856C230.423 120.856 230.739 120.925 230.989 121.063C231.239 121.2 231.426 121.406 231.551 121.681C231.676 121.956 231.738 122.306 231.738 122.731V125.561H230.829V122.778C230.829 122.522 230.795 122.309 230.726 122.14C230.658 121.965 230.548 121.834 230.398 121.747C230.255 121.659 230.061 121.616 229.817 121.616C229.549 121.616 229.311 121.675 229.105 121.794C228.899 121.906 228.736 122.065 228.618 122.272C228.505 122.478 228.449 122.712 228.449 122.975V125.561H227.549Z" fill="#636B7A"/>
<path opacity="0.68" d="M265.436 125.561V118.954H269.701V119.722H266.345V121.869H269.504V122.637H266.345V125.561H265.436ZM272.862 125.646C272.343 125.646 271.897 125.552 271.522 125.364C271.153 125.171 270.869 124.896 270.669 124.54C270.469 124.177 270.369 123.749 270.369 123.256C270.369 122.787 270.463 122.375 270.65 122.019C270.838 121.656 271.103 121.372 271.447 121.166C271.79 120.96 272.193 120.856 272.656 120.856C273.099 120.856 273.477 120.953 273.79 121.147C274.102 121.334 274.34 121.603 274.502 121.953C274.671 122.297 274.755 122.709 274.755 123.19V123.49H271.063V122.89H274.155L273.987 123.049C273.987 122.562 273.874 122.187 273.649 121.925C273.424 121.662 273.099 121.531 272.675 121.531C272.381 121.531 272.125 121.597 271.906 121.728C271.694 121.859 271.528 122.047 271.409 122.29C271.291 122.534 271.231 122.821 271.231 123.153V123.237C271.231 123.612 271.294 123.924 271.419 124.174C271.55 124.418 271.737 124.605 271.981 124.736C272.231 124.861 272.528 124.924 272.871 124.924C273.128 124.924 273.387 124.886 273.649 124.811C273.912 124.736 274.155 124.608 274.38 124.427L274.671 125.064C274.44 125.258 274.158 125.405 273.827 125.505C273.502 125.599 273.181 125.646 272.862 125.646ZM278.488 125.646C278.088 125.646 277.741 125.549 277.447 125.355C277.154 125.155 276.944 124.883 276.819 124.54H276.848V125.561H276.004V118.954H276.904V121.916H276.866C276.991 121.591 277.194 121.334 277.475 121.147C277.763 120.953 278.103 120.856 278.497 120.856C278.922 120.856 279.29 120.956 279.603 121.156C279.915 121.356 280.156 121.634 280.324 121.99C280.493 122.347 280.578 122.768 280.578 123.256C280.578 123.731 280.49 124.149 280.315 124.512C280.146 124.874 279.906 125.155 279.593 125.355C279.281 125.549 278.912 125.646 278.488 125.646ZM278.281 124.924C278.713 124.924 279.053 124.777 279.303 124.483C279.553 124.19 279.678 123.781 279.678 123.256C279.678 122.725 279.553 122.315 279.303 122.028C279.053 121.734 278.713 121.587 278.281 121.587C277.857 121.587 277.519 121.734 277.269 122.028C277.019 122.315 276.894 122.725 276.894 123.256C276.894 123.781 277.019 124.19 277.269 124.483C277.519 124.777 277.857 124.924 278.281 124.924Z" fill="#636B7A"/>
<path opacity="0.68" d="M314.05 125.561V118.954H314.978L317.405 123.668H317.264L319.692 118.954H320.601V125.561H319.748V120.247H319.851L317.639 124.521H317.021L314.8 120.247H314.903V125.561H314.05ZM323.811 125.646C323.48 125.646 323.183 125.583 322.921 125.458C322.664 125.333 322.461 125.164 322.311 124.952C322.168 124.74 322.096 124.499 322.096 124.23C322.096 123.887 322.19 123.615 322.377 123.415C322.571 123.209 322.871 123.062 323.277 122.975C323.689 122.887 324.223 122.843 324.879 122.843H325.46V123.434H324.917C324.567 123.434 324.267 123.446 324.017 123.471C323.773 123.49 323.577 123.527 323.427 123.584C323.277 123.64 323.167 123.718 323.099 123.818C323.03 123.912 322.996 124.034 322.996 124.183C322.996 124.427 323.086 124.621 323.267 124.765C323.449 124.902 323.686 124.971 323.98 124.971C324.236 124.971 324.464 124.911 324.664 124.793C324.864 124.674 325.023 124.515 325.142 124.315C325.267 124.115 325.329 123.896 325.329 123.659V122.59C325.329 122.234 325.235 121.978 325.048 121.822C324.867 121.659 324.586 121.578 324.205 121.578C323.936 121.578 323.667 121.616 323.399 121.691C323.13 121.766 322.852 121.891 322.565 122.065L322.283 121.409C322.471 121.297 322.674 121.2 322.893 121.119C323.111 121.038 323.339 120.975 323.577 120.931C323.814 120.881 324.048 120.856 324.28 120.856C324.686 120.856 325.032 120.922 325.32 121.053C325.607 121.184 325.826 121.384 325.976 121.653C326.126 121.916 326.201 122.259 326.201 122.684V125.561H325.395V124.549H325.423C325.348 124.755 325.235 124.943 325.086 125.111C324.942 125.28 324.761 125.411 324.542 125.505C324.33 125.599 324.086 125.646 323.811 125.646ZM327.72 125.561V120.95H328.554V122.037H328.526C328.638 121.681 328.829 121.406 329.097 121.213C329.372 121.013 329.716 120.897 330.128 120.866L330.513 120.847L330.597 121.653L329.941 121.709C329.522 121.747 329.197 121.884 328.966 122.122C328.741 122.353 328.629 122.656 328.629 123.031V125.561H327.72Z" fill="#636B7A"/>
<path opacity="0.68" d="M362.941 125.561L365.865 118.954H366.661L369.585 125.561H368.639L367.833 123.687L368.264 123.959H364.253L364.674 123.687L363.878 125.561H362.941ZM366.239 119.976L364.787 123.396L364.562 123.199H367.955L367.72 123.396L366.277 119.976H366.239ZM370.568 127.248V120.941H371.411V121.962H371.383C371.508 121.619 371.718 121.35 372.011 121.156C372.311 120.956 372.661 120.856 373.061 120.856C373.479 120.856 373.845 120.956 374.157 121.156C374.47 121.356 374.71 121.634 374.879 121.99C375.054 122.347 375.141 122.768 375.141 123.256C375.141 123.731 375.057 124.149 374.888 124.512C374.72 124.868 374.479 125.146 374.167 125.346C373.854 125.546 373.486 125.646 373.061 125.646C372.667 125.646 372.327 125.549 372.039 125.355C371.758 125.161 371.555 124.905 371.43 124.586H371.468V127.248H370.568ZM372.845 124.924C373.276 124.924 373.617 124.777 373.867 124.483C374.117 124.183 374.242 123.771 374.242 123.246C374.242 122.721 374.117 122.315 373.867 122.028C373.617 121.734 373.276 121.587 372.845 121.587C372.42 121.587 372.083 121.734 371.833 122.028C371.583 122.315 371.458 122.721 371.458 123.246C371.458 123.771 371.583 124.183 371.833 124.483C372.083 124.777 372.42 124.924 372.845 124.924ZM376.407 125.561V120.95H377.241V122.037H377.213C377.325 121.681 377.516 121.406 377.785 121.213C378.06 121.013 378.403 120.897 378.816 120.866L379.2 120.847L379.284 121.653L378.628 121.709C378.21 121.747 377.885 121.884 377.653 122.122C377.429 122.353 377.316 122.656 377.316 123.031V125.561H376.407Z" fill="#636B7A"/>
<path opacity="0.68" d="M412.222 125.561V118.954H413.15L415.577 123.668H415.436L417.864 118.954H418.773V125.561H417.92V120.247H418.023L415.811 124.521H415.193L412.972 120.247H413.075V125.561H412.222ZM421.983 125.646C421.652 125.646 421.355 125.583 421.093 125.458C420.836 125.333 420.633 125.164 420.483 124.952C420.34 124.74 420.268 124.499 420.268 124.23C420.268 123.887 420.362 123.615 420.549 123.415C420.743 123.209 421.043 123.062 421.449 122.975C421.861 122.887 422.395 122.843 423.051 122.843H423.632V123.434H423.089C422.739 123.434 422.439 123.446 422.189 123.471C421.945 123.49 421.749 123.527 421.599 123.584C421.449 123.64 421.339 123.718 421.271 123.818C421.202 123.912 421.168 124.034 421.168 124.183C421.168 124.427 421.258 124.621 421.439 124.765C421.621 124.902 421.858 124.971 422.152 124.971C422.408 124.971 422.636 124.911 422.836 124.793C423.036 124.674 423.195 124.515 423.314 124.315C423.439 124.115 423.501 123.896 423.501 123.659V122.59C423.501 122.234 423.407 121.978 423.22 121.822C423.039 121.659 422.758 121.578 422.377 121.578C422.108 121.578 421.839 121.616 421.571 121.691C421.302 121.766 421.024 121.891 420.737 122.065L420.455 121.409C420.643 121.297 420.846 121.2 421.065 121.119C421.283 121.038 421.511 120.975 421.749 120.931C421.986 120.881 422.22 120.856 422.452 120.856C422.858 120.856 423.204 120.922 423.492 121.053C423.779 121.184 423.998 121.384 424.148 121.653C424.298 121.916 424.373 122.259 424.373 122.684V125.561H423.567V124.549H423.595C423.52 124.755 423.407 124.943 423.258 125.111C423.114 125.28 422.933 125.411 422.714 125.505C422.502 125.599 422.258 125.646 421.983 125.646ZM426.38 127.248L427.261 125.243V125.805L425.199 120.95H426.174L427.674 124.736H427.552L429.061 120.95H429.998L427.317 127.248H426.38Z" fill="#636B7A"/>
<path opacity="0.68" d="M461.986 125.636L461.92 124.849L462.605 124.811C462.811 124.799 462.989 124.749 463.139 124.661C463.289 124.574 463.404 124.449 463.486 124.287C463.567 124.124 463.607 123.934 463.607 123.715V118.954H464.516V123.752C464.516 124.115 464.445 124.43 464.301 124.699C464.163 124.968 463.96 125.18 463.692 125.336C463.429 125.486 463.111 125.574 462.736 125.599L461.986 125.636ZM467.882 125.646C467.507 125.646 467.191 125.577 466.935 125.439C466.679 125.302 466.485 125.096 466.354 124.821C466.229 124.546 466.167 124.202 466.167 123.79V120.95H467.066V123.762C467.066 123.999 467.101 124.205 467.169 124.38C467.238 124.549 467.347 124.677 467.497 124.765C467.654 124.852 467.85 124.896 468.088 124.896C468.344 124.896 468.569 124.836 468.763 124.718C468.962 124.599 469.119 124.437 469.231 124.23C469.344 124.024 469.4 123.796 469.4 123.546V120.95H470.3V125.561H469.447V124.549H469.494C469.35 124.899 469.141 125.171 468.866 125.364C468.591 125.552 468.263 125.646 467.882 125.646ZM471.832 125.561V120.95H472.685V121.934H472.648C472.791 121.591 473.013 121.325 473.313 121.138C473.613 120.95 473.95 120.856 474.325 120.856C474.706 120.856 475.022 120.925 475.272 121.063C475.522 121.2 475.709 121.406 475.834 121.681C475.959 121.956 476.021 122.306 476.021 122.731V125.561H475.112V122.778C475.112 122.522 475.078 122.309 475.009 122.14C474.941 121.965 474.831 121.834 474.681 121.747C474.538 121.659 474.344 121.616 474.1 121.616C473.832 121.616 473.594 121.675 473.388 121.794C473.182 121.906 473.019 122.065 472.901 122.272C472.788 122.478 472.732 122.712 472.732 122.975V125.561H471.832Z" fill="#636B7A"/>
<path opacity="0.68" d="M508.975 125.636L508.91 124.849L509.594 124.811C509.8 124.799 509.978 124.749 510.128 124.661C510.278 124.574 510.394 124.449 510.475 124.287C510.556 124.124 510.597 123.934 510.597 123.715V118.954H511.506V123.752C511.506 124.115 511.434 124.43 511.29 124.699C511.153 124.968 510.95 125.18 510.681 125.336C510.419 125.486 510.1 125.574 509.725 125.599L508.975 125.636ZM514.871 125.646C514.496 125.646 514.18 125.577 513.924 125.439C513.668 125.302 513.474 125.096 513.343 124.821C513.218 124.546 513.156 124.202 513.156 123.79V120.95H514.056V123.762C514.056 123.999 514.09 124.205 514.159 124.38C514.227 124.549 514.337 124.677 514.487 124.765C514.643 124.852 514.84 124.896 515.077 124.896C515.333 124.896 515.558 124.836 515.752 124.718C515.952 124.599 516.108 124.437 516.22 124.23C516.333 124.024 516.389 123.796 516.389 123.546V120.95H517.289V125.561H516.436V124.549H516.483C516.339 124.899 516.13 125.171 515.855 125.364C515.58 125.552 515.252 125.646 514.871 125.646ZM520.274 125.646C519.799 125.646 519.437 125.511 519.187 125.243C518.943 124.968 518.821 124.58 518.821 124.08V118.954H519.721V124.005C519.721 124.199 519.749 124.365 519.806 124.502C519.862 124.633 519.943 124.733 520.049 124.802C520.162 124.871 520.296 124.905 520.452 124.905C520.533 124.905 520.612 124.902 520.686 124.896C520.768 124.883 520.849 124.865 520.93 124.84L520.94 125.552C520.833 125.583 520.727 125.605 520.621 125.617C520.515 125.636 520.399 125.646 520.274 125.646Z" fill="#636B7A"/>
<rect x="444.604" y="29.2694" width="48.0402" height="18.1469" rx="3.15435" fill="#B5E4CA"/>
<path d="M452.654 42.5016V41.2176L452.842 41.3863C452.392 41.3801 451.967 41.3176 451.567 41.1989C451.167 41.0739 450.818 40.8834 450.518 40.6272L450.827 39.9149C451.027 40.0711 451.233 40.2023 451.445 40.3085C451.658 40.4085 451.886 40.4866 452.13 40.5428C452.38 40.5928 452.648 40.6178 452.936 40.6178C453.448 40.6178 453.826 40.521 454.07 40.3273C454.319 40.1336 454.444 39.8899 454.444 39.5963C454.444 39.3214 454.351 39.1089 454.163 38.959C453.982 38.809 453.692 38.6997 453.292 38.631L452.336 38.4529C451.78 38.3467 451.361 38.1561 451.08 37.8812C450.799 37.6063 450.658 37.2283 450.658 36.7472C450.658 36.3974 450.746 36.085 450.921 35.8101C451.102 35.5289 451.352 35.3071 451.67 35.1447C451.995 34.976 452.37 34.8822 452.795 34.8635L452.654 34.9947V33.7389H453.395V34.9947L453.245 34.8635C453.588 34.876 453.932 34.9478 454.276 35.079C454.619 35.204 454.91 35.3914 455.147 35.6414L454.847 36.3255C454.604 36.0881 454.329 35.9131 454.023 35.8007C453.723 35.682 453.385 35.6226 453.011 35.6226C452.561 35.6226 452.201 35.7288 451.933 35.9413C451.67 36.1474 451.539 36.4161 451.539 36.7472C451.539 37.0159 451.62 37.2283 451.783 37.3845C451.952 37.5345 452.223 37.6438 452.598 37.7125L453.554 37.8812C454.16 37.9937 454.607 38.1905 454.894 38.4717C455.188 38.7466 455.335 39.1121 455.335 39.5682C455.335 39.9181 455.244 40.2242 455.063 40.4866C454.882 40.7428 454.635 40.949 454.323 41.1052C454.01 41.2551 453.648 41.3457 453.235 41.3769L453.395 41.2082V42.5016H452.654ZM456.69 41.4238V40.6553H458.377V35.5664L458.846 35.6039L457.027 36.7566L456.634 36.0725L458.621 34.8166H459.277V40.6553H460.842V41.4238H456.69ZM464.399 41.5081C463.868 41.5081 463.415 41.3801 463.04 41.1239C462.672 40.8677 462.391 40.4991 462.197 40.018C462.003 39.5307 461.906 38.9434 461.906 38.2561C461.906 37.5001 462.013 36.8628 462.225 36.3443C462.444 35.8194 462.756 35.4196 463.162 35.1447C463.568 34.8697 464.056 34.7323 464.624 34.7323C464.862 34.7323 465.093 34.7635 465.318 34.826C465.549 34.8822 465.765 34.9697 465.965 35.0884C466.171 35.2009 466.358 35.3415 466.527 35.5102L466.199 36.213C465.961 35.9694 465.708 35.7944 465.44 35.6882C465.177 35.5758 464.902 35.5195 464.615 35.5195C464.315 35.5195 464.05 35.5758 463.818 35.6882C463.587 35.8007 463.394 35.9663 463.237 36.1849C463.081 36.4036 462.962 36.6754 462.881 37.0003C462.8 37.3189 462.759 37.6938 462.759 38.1249V38.7528H462.722C462.778 38.4404 462.887 38.1718 463.05 37.9468C463.219 37.7219 463.431 37.5501 463.687 37.4314C463.943 37.3127 464.221 37.2533 464.521 37.2533C464.915 37.2533 465.262 37.3439 465.562 37.5251C465.868 37.7 466.105 37.9468 466.274 38.2655C466.442 38.5779 466.527 38.9403 466.527 39.3526C466.527 39.765 466.436 40.1367 466.255 40.4679C466.08 40.7928 465.83 41.0489 465.505 41.2364C465.187 41.4175 464.818 41.5081 464.399 41.5081ZM464.353 40.749C464.615 40.749 464.846 40.6928 465.046 40.5803C465.246 40.4616 465.402 40.2992 465.515 40.093C465.627 39.8868 465.683 39.6463 465.683 39.3714C465.683 39.1027 465.627 38.8653 465.515 38.6591C465.402 38.4529 465.246 38.2936 465.046 38.1811C464.846 38.0624 464.615 38.0031 464.353 38.0031C464.084 38.0031 463.846 38.0624 463.64 38.1811C463.44 38.2936 463.284 38.4529 463.172 38.6591C463.059 38.8653 463.003 39.1027 463.003 39.3714C463.003 39.6463 463.059 39.8868 463.172 40.093C463.284 40.2992 463.44 40.4616 463.64 40.5803C463.846 40.6928 464.084 40.749 464.353 40.749ZM469.878 41.5081C469.591 41.5081 469.313 41.4769 469.044 41.4144C468.776 41.3519 468.522 41.2614 468.285 41.1426C468.054 41.0239 467.848 40.8802 467.667 40.7115L468.004 40.0086C468.291 40.2523 468.588 40.4335 468.894 40.5522C469.2 40.6647 469.525 40.7209 469.869 40.7209C470.313 40.7209 470.659 40.6053 470.909 40.3741C471.165 40.1367 471.293 39.8118 471.293 39.3995C471.293 38.9871 471.175 38.656 470.937 38.4061C470.7 38.1561 470.372 38.0312 469.953 38.0312C469.66 38.0312 469.397 38.0905 469.166 38.2093C468.941 38.3217 468.735 38.5029 468.547 38.7528H467.863V34.8166H471.828V35.5945H468.707V38.0124H468.604C468.754 37.7813 468.963 37.6001 469.232 37.4689C469.5 37.3314 469.797 37.2627 470.122 37.2627C470.541 37.2627 470.903 37.3533 471.209 37.5345C471.515 37.7094 471.753 37.9531 471.921 38.2655C472.09 38.5779 472.174 38.9434 472.174 39.362C472.174 39.7993 472.081 40.1805 471.893 40.5054C471.706 40.824 471.44 41.0708 471.097 41.2457C470.753 41.4207 470.347 41.5081 469.878 41.5081ZM473.23 41.4238V40.3367H474.345V41.4238H473.23ZM475.75 41.4238V40.749L478.018 38.3498C478.237 38.1187 478.409 37.9094 478.534 37.7219C478.659 37.5282 478.749 37.3439 478.805 37.169C478.862 36.9878 478.89 36.8035 478.89 36.616C478.89 36.2599 478.777 35.9881 478.552 35.8007C478.327 35.6132 478.012 35.5195 477.606 35.5195C477.293 35.5195 476.987 35.5789 476.687 35.6976C476.394 35.8163 476.113 36.0037 475.844 36.2599L475.506 35.557C475.775 35.3009 476.1 35.1009 476.481 34.9572C476.868 34.8073 477.268 34.7323 477.681 34.7323C478.124 34.7323 478.502 34.8041 478.815 34.9478C479.127 35.0915 479.368 35.3009 479.536 35.5758C479.705 35.8444 479.789 36.1693 479.789 36.5504C479.789 36.7504 479.764 36.944 479.714 37.1315C479.671 37.3189 479.602 37.5064 479.508 37.6938C479.415 37.875 479.293 38.0624 479.143 38.2561C478.999 38.4498 478.827 38.6529 478.627 38.8653L476.809 40.7678V40.6459H480.052V41.4238H475.75ZM483.403 41.5081C482.891 41.5081 482.46 41.3801 482.11 41.1239C481.76 40.8615 481.495 40.4804 481.313 39.9805C481.138 39.4745 481.051 38.8528 481.051 38.1155C481.051 37.3783 481.138 36.7597 481.313 36.2599C481.495 35.7538 481.76 35.3727 482.11 35.1165C482.46 34.8604 482.891 34.7323 483.403 34.7323C483.922 34.7323 484.353 34.8604 484.697 35.1165C485.046 35.3727 485.309 35.7507 485.484 36.2505C485.665 36.7504 485.756 37.3689 485.756 38.1062C485.756 38.8434 485.665 39.4651 485.484 39.9712C485.309 40.4772 485.046 40.8615 484.697 41.1239C484.347 41.3801 483.916 41.5081 483.403 41.5081ZM483.403 40.7303C483.897 40.7303 484.262 40.5179 484.5 40.093C484.743 39.6681 484.865 39.0059 484.865 38.1062C484.865 37.2065 484.747 36.5504 484.509 36.1381C484.272 35.7195 483.903 35.5102 483.403 35.5102C482.91 35.5102 482.541 35.7195 482.297 36.1381C482.06 36.5567 481.941 37.2158 481.941 38.1155C481.941 39.009 482.06 39.6681 482.297 40.093C482.541 40.5179 482.91 40.7303 483.403 40.7303Z" fill="white"/>
<path d="M468.624 50.7076L464.683 46.7626H472.564L468.624 50.7076Z" fill="#B5E4CA"/>
</g>
<defs>
<filter id="filter0_d_4508_654" x="0.000337601" y="-1.33514e-05" width="574.281" height="191.736" filterUnits="userSpaceOnUse" color-interpolation-filters="sRGB">
<feFlood flood-opacity="0" result="BackgroundImageFix"/>
<feColorMatrix in="SourceAlpha" type="matrix" values="0 0 0 0 0 0 0 0 0 0 0 0 0 0 0 0 0 0 127 0" result="hardAlpha"/>
<feOffset dy="12.0414"/>
<feGaussianBlur stdDeviation="14.8201"/>
<feComposite in2="hardAlpha" operator="out"/>
<feColorMatrix type="matrix" values="0 0 0 0 0 0 0 0 0 0 0 0 0 0 0 0 0 0 0.16 0"/>
<feBlend mode="normal" in2="BackgroundImageFix" result="effect1_dropShadow_4508_654"/>
<feBlend mode="normal" in="SourceGraphic" in2="effect1_dropShadow_4508_654" result="shape"/>
</filter>
<linearGradient id="paint0_linear_4508_654" x1="356.414" y1="70.0484" x2="357.934" y2="100.105" gradientUnits="userSpaceOnUse">
<stop stop-color="#5DB48A" stop-opacity="0.4"/>
<stop offset="1" stop-color="white" stop-opacity="0"/>
</linearGradient>
</defs>
</svg>
