<svg width="575" height="192" viewBox="0 0 575 192" fill="none" xmlns="http://www.w3.org/2000/svg">
<g filter="url(#filter0_d_4508_745)">
<path d="M29.6406 32.4191C29.6406 27.2315 29.6406 24.6378 30.6502 22.6564C31.5382 20.9135 32.9552 19.4965 34.6981 18.6085C36.6795 17.5989 39.2732 17.5989 44.4608 17.5989H529.82C535.008 17.5989 537.602 17.5989 539.583 18.6085C541.326 19.4965 542.743 20.9135 543.631 22.6564C544.641 24.6378 544.641 27.2315 544.641 32.4191V135.234C544.641 140.421 544.641 143.015 543.631 144.997C542.743 146.739 541.326 148.156 539.583 149.044C537.602 150.054 535.008 150.054 529.82 150.054H44.4608C39.2732 150.054 36.6795 150.054 34.6981 149.044C32.9552 148.156 31.5382 146.739 30.6502 144.997C29.6406 143.015 29.6406 140.421 29.6406 135.234V32.4191Z" fill="white" fill-opacity="0.1" shape-rendering="crispEdges"/>
<path d="M51.8841 51.7394L56.0207 42.5972H57.3823L61.519 51.7394H59.8332L58.731 49.1718L59.4312 49.6257H53.9589L54.6591 49.1718L53.5699 51.7394H51.8841ZM56.6821 44.3997L54.8666 48.7179L54.5295 48.303H58.8606L58.5365 48.7179L56.708 44.3997H56.6821ZM64.5682 51.8691C63.8161 51.8691 63.2585 51.6659 62.8954 51.2596C62.541 50.8446 62.3637 50.2395 62.3637 49.4441V42.5972H63.9847V49.3663C63.9847 49.617 64.0193 49.8331 64.0884 50.0147C64.1662 50.1876 64.2786 50.3173 64.4256 50.4037C64.5725 50.4902 64.7541 50.5334 64.9702 50.5334C65.0653 50.5334 65.1604 50.5291 65.2555 50.5204C65.3506 50.5118 65.4414 50.4945 65.5278 50.4686L65.5019 51.7523C65.3463 51.7869 65.1907 51.8129 65.0351 51.8302C64.8881 51.8561 64.7325 51.8691 64.5682 51.8691ZM69.2449 51.8691C68.3977 51.8691 67.7666 51.6573 67.3516 51.2336C66.9366 50.81 66.7292 50.1919 66.7292 49.3793V46.6172H65.5102V45.3982H66.7292V43.5049H68.3501V45.3982H70.2693V46.6172H68.3501V49.2885C68.3501 49.7035 68.4409 50.0147 68.6224 50.2222C68.804 50.4296 69.0979 50.5334 69.5042 50.5334C69.6253 50.5334 69.7506 50.5204 69.8803 50.4945C70.01 50.4599 70.144 50.4253 70.2823 50.3907L70.5287 51.5838C70.3731 51.6702 70.1742 51.7394 69.9322 51.7913C69.6987 51.8431 69.4696 51.8691 69.2449 51.8691ZM74.9678 51.7394V42.5972H76.6276V50.3259H81.0107V51.7394H74.9678ZM84.9222 51.8691C84.2652 51.8691 83.6946 51.7351 83.2105 51.4671C82.7264 51.1991 82.3503 50.8187 82.0823 50.3259C81.8143 49.8245 81.6803 49.2366 81.6803 48.5623C81.6803 47.888 81.8143 47.3045 82.0823 46.8117C82.3503 46.3189 82.7264 45.9385 83.2105 45.6705C83.6946 45.4025 84.2652 45.2685 84.9222 45.2685C85.5793 45.2685 86.1498 45.4025 86.634 45.6705C87.1181 45.9385 87.4941 46.3189 87.7621 46.8117C88.0301 47.3045 88.1641 47.888 88.1641 48.5623C88.1641 49.2366 88.0301 49.8245 87.7621 50.3259C87.4941 50.8187 87.1181 51.1991 86.634 51.4671C86.1498 51.7351 85.5793 51.8691 84.9222 51.8691ZM84.9222 50.6371C85.4064 50.6371 85.7954 50.4642 86.0893 50.1184C86.3832 49.764 86.5302 49.2453 86.5302 48.5623C86.5302 47.8707 86.3832 47.3563 86.0893 47.0192C85.7954 46.6734 85.4064 46.5005 84.9222 46.5005C84.4381 46.5005 84.0491 46.6734 83.7551 47.0192C83.4612 47.3563 83.3142 47.8707 83.3142 48.5623C83.3142 49.2453 83.4612 49.764 83.7551 50.1184C84.0491 50.4642 84.4381 50.6371 84.9222 50.6371ZM89.502 51.7394V45.3982H91.0841V46.669H90.9414C91.1316 46.2108 91.4256 45.865 91.8232 45.6316C92.2296 45.3896 92.6877 45.2685 93.1978 45.2685C93.7079 45.2685 94.1271 45.3636 94.4557 45.5538C94.7842 45.744 95.0306 46.0336 95.1948 46.4227C95.3591 46.803 95.4412 47.2872 95.4412 47.875V51.7394H93.8202V47.9528C93.8202 47.6243 93.777 47.3563 93.6906 47.1488C93.6128 46.9414 93.4874 46.7901 93.3145 46.695C93.1503 46.5912 92.9385 46.5394 92.6791 46.5394C92.3679 46.5394 92.0956 46.6085 91.8621 46.7468C91.6287 46.8765 91.4472 47.0667 91.3175 47.3174C91.1878 47.5595 91.123 47.8448 91.123 48.1733V51.7394H89.502ZM100.044 54.2032C99.4563 54.2032 98.903 54.1341 98.3843 53.9957C97.8743 53.8661 97.4247 53.6629 97.0357 53.3863L97.5025 52.2581C97.7446 52.4137 97.9996 52.5434 98.2676 52.6471C98.5356 52.7595 98.808 52.8416 99.0846 52.8935C99.3612 52.9454 99.6379 52.9713 99.9145 52.9713C100.494 52.9713 100.926 52.8287 101.211 52.5434C101.505 52.2667 101.652 51.8518 101.652 51.2985V50.1314H101.769C101.639 50.5723 101.367 50.9267 100.952 51.1947C100.546 51.4541 100.083 51.5838 99.5644 51.5838C98.9938 51.5838 98.4967 51.4541 98.0731 51.1947C97.6495 50.9267 97.321 50.555 97.0876 50.0795C96.8542 49.604 96.7375 49.0508 96.7375 48.4197C96.7375 47.7886 96.8542 47.2396 97.0876 46.7728C97.321 46.2973 97.6495 45.9299 98.0731 45.6705C98.4967 45.4025 98.9938 45.2685 99.5644 45.2685C100.1 45.2685 100.567 45.4025 100.965 45.6705C101.371 45.9299 101.635 46.2757 101.756 46.7079H101.652V45.3982H103.234V51.104C103.234 51.7869 103.113 52.3575 102.871 52.8157C102.629 53.2825 102.27 53.6283 101.795 53.8531C101.319 54.0865 100.736 54.2032 100.044 54.2032ZM100.005 50.3518C100.507 50.3518 100.904 50.1789 101.198 49.8331C101.492 49.4873 101.639 49.0162 101.639 48.4197C101.639 47.8232 101.492 47.3563 101.198 47.0192C100.904 46.6734 100.507 46.5005 100.005 46.5005C99.5039 46.5005 99.1062 46.6734 98.8123 47.0192C98.5183 47.3563 98.3714 47.8232 98.3714 48.4197C98.3714 49.0162 98.5183 49.4873 98.8123 49.8331C99.1062 50.1789 99.5039 50.3518 100.005 50.3518ZM111.716 51.8691C111.24 51.8691 110.782 51.8258 110.341 51.7394C109.909 51.6616 109.507 51.5449 109.135 51.3893C108.772 51.2336 108.448 51.0478 108.163 50.8316L108.668 49.5219C108.954 49.7208 109.252 49.8937 109.563 50.0406C109.883 50.1789 110.22 50.287 110.575 50.3648C110.938 50.434 111.318 50.4686 111.716 50.4686C112.399 50.4686 112.896 50.3562 113.207 50.1314C113.518 49.898 113.674 49.5997 113.674 49.2366C113.674 49.0378 113.626 48.8692 113.531 48.7309C113.436 48.5839 113.28 48.4586 113.064 48.3548C112.848 48.2511 112.563 48.1646 112.208 48.0955L110.782 47.7972C109.961 47.6243 109.347 47.3347 108.941 46.9284C108.543 46.5134 108.344 45.9688 108.344 45.2945C108.344 44.7239 108.495 44.2268 108.798 43.8032C109.101 43.3796 109.52 43.0511 110.056 42.8177C110.592 42.5842 111.21 42.4675 111.91 42.4675C112.325 42.4675 112.723 42.5108 113.103 42.5972C113.492 42.675 113.847 42.796 114.167 42.9603C114.495 43.1159 114.78 43.3061 115.022 43.5309L114.517 44.7758C114.154 44.4732 113.756 44.2484 113.324 44.1014C112.891 43.9458 112.416 43.868 111.897 43.868C111.5 43.868 111.158 43.9242 110.873 44.0366C110.587 44.149 110.367 44.3089 110.211 44.5164C110.064 44.7152 109.991 44.953 109.991 45.2296C109.991 45.5409 110.095 45.7916 110.302 45.9818C110.51 46.1633 110.864 46.3059 111.366 46.4097L112.779 46.7079C113.635 46.8895 114.27 47.1748 114.685 47.5638C115.109 47.9528 115.321 48.4715 115.321 49.1199C115.321 49.6646 115.174 50.1444 114.88 50.5593C114.586 50.9743 114.167 51.2985 113.622 51.5319C113.086 51.7567 112.451 51.8691 111.716 51.8691ZM116.59 51.7394V42.5972H118.211V46.669H118.029C118.219 46.2108 118.513 45.865 118.911 45.6316C119.317 45.3896 119.775 45.2685 120.285 45.2685C120.796 45.2685 121.215 45.3636 121.543 45.5538C121.872 45.744 122.118 46.0336 122.282 46.4227C122.447 46.803 122.529 47.2872 122.529 47.875V51.7394H120.908V47.9528C120.908 47.6243 120.865 47.3563 120.778 47.1488C120.7 46.9414 120.575 46.7901 120.402 46.695C120.238 46.5912 120.026 46.5394 119.767 46.5394C119.456 46.5394 119.183 46.6085 118.95 46.7468C118.716 46.8765 118.535 47.0667 118.405 47.3174C118.275 47.5595 118.211 47.8448 118.211 48.1733V51.7394H116.59ZM127.067 51.8691C126.41 51.8691 125.839 51.7351 125.355 51.4671C124.871 51.1991 124.495 50.8187 124.227 50.3259C123.959 49.8245 123.825 49.2366 123.825 48.5623C123.825 47.888 123.959 47.3045 124.227 46.8117C124.495 46.3189 124.871 45.9385 125.355 45.6705C125.839 45.4025 126.41 45.2685 127.067 45.2685C127.724 45.2685 128.295 45.4025 128.779 45.6705C129.263 45.9385 129.639 46.3189 129.907 46.8117C130.175 47.3045 130.309 47.888 130.309 48.5623C130.309 49.2366 130.175 49.8245 129.907 50.3259C129.639 50.8187 129.263 51.1991 128.779 51.4671C128.295 51.7351 127.724 51.8691 127.067 51.8691ZM127.067 50.6371C127.551 50.6371 127.94 50.4642 128.234 50.1184C128.528 49.764 128.675 49.2453 128.675 48.5623C128.675 47.8707 128.528 47.3563 128.234 47.0192C127.94 46.6734 127.551 46.5005 127.067 46.5005C126.583 46.5005 126.194 46.6734 125.9 47.0192C125.606 47.3563 125.459 47.8707 125.459 48.5623C125.459 49.2453 125.606 49.764 125.9 50.1184C126.194 50.4642 126.583 50.6371 127.067 50.6371ZM131.647 51.7394V45.3982H133.229V46.9284H133.099C133.22 46.4097 133.458 46.0163 133.812 45.7483C134.167 45.4717 134.638 45.3118 135.226 45.2685L135.719 45.2296L135.822 46.6042L134.889 46.695C134.361 46.7468 133.964 46.9111 133.696 47.1877C133.428 47.4557 133.294 47.8361 133.294 48.3289V51.7394H131.647ZM139.997 51.8691C139.15 51.8691 138.519 51.6573 138.104 51.2336C137.689 50.81 137.481 50.1919 137.481 49.3793V46.6172H136.262V45.3982H137.481V43.5049H139.102V45.3982H141.021V46.6172H139.102V49.2885C139.102 49.7035 139.193 50.0147 139.375 50.2222C139.556 50.4296 139.85 50.5334 140.256 50.5334C140.377 50.5334 140.503 50.5204 140.632 50.4945C140.762 50.4599 140.896 50.4253 141.034 50.3907L141.281 51.5838C141.125 51.6702 140.926 51.7394 140.684 51.7913C140.451 51.8431 140.222 51.8691 139.997 51.8691Z" fill="white"/>
<rect x="152.986" y="39.8293" width="32.2626" height="14.8201" rx="7.41007" fill="white" fill-opacity="0.1"/>
<path d="M158.386 49.7394V49.0725L160.628 46.7013C160.844 46.4728 161.013 46.2659 161.137 46.0807C161.26 45.8892 161.35 45.7071 161.406 45.5342C161.461 45.3551 161.489 45.176 161.489 44.9969C161.489 44.645 161.378 44.3763 161.155 44.1911C160.933 43.9997 160.621 43.9039 160.22 43.9039C159.911 43.9039 159.609 43.9626 159.312 44.0799C159.022 44.1973 158.744 44.3825 158.479 44.6357L158.145 43.941C158.411 43.6878 158.732 43.4902 159.108 43.3482C159.491 43.2 159.887 43.1259 160.294 43.1259C160.733 43.1259 161.106 43.1969 161.415 43.3389C161.724 43.481 161.961 43.6878 162.128 43.9595C162.295 44.2312 162.378 44.5554 162.378 44.9321C162.378 45.1235 162.353 45.3119 162.304 45.4971C162.261 45.6824 162.193 45.8676 162.1 46.0529C162.008 46.2319 161.887 46.4172 161.739 46.6086C161.597 46.8001 161.427 47.0007 161.23 47.2107L159.442 49.0817V48.9706H162.638V49.7394H158.386ZM165.894 49.8227C165.388 49.8227 164.962 49.6962 164.616 49.443C164.27 49.1836 164.008 48.8069 163.829 48.3129C163.656 47.8128 163.569 47.1983 163.569 46.4697C163.569 45.741 163.656 45.1297 163.829 44.6357C164.008 44.1355 164.27 43.7588 164.616 43.5057C164.962 43.2525 165.388 43.1259 165.894 43.1259C166.407 43.1259 166.833 43.2525 167.173 43.5057C167.518 43.7588 167.778 44.1324 167.951 44.6264C168.13 45.1204 168.219 45.7318 168.219 46.4604C168.219 47.1891 168.13 47.8035 167.951 48.3037C167.778 48.8039 167.518 49.1836 167.173 49.443C166.827 49.6962 166.401 49.8227 165.894 49.8227ZM165.894 49.0539C166.382 49.0539 166.743 48.844 166.978 48.4241C167.219 48.0042 167.339 47.3496 167.339 46.4604C167.339 45.5774 167.222 44.929 166.987 44.5153C166.753 44.1016 166.388 43.8947 165.894 43.8947C165.406 43.8947 165.042 44.1016 164.801 44.5153C164.567 44.929 164.449 45.5805 164.449 46.4697C164.449 47.3527 164.567 48.0042 164.801 48.4241C165.042 48.844 165.406 49.0539 165.894 49.0539ZM169.383 49.7394V49.0725L171.624 46.7013C171.84 46.4728 172.01 46.2659 172.134 46.0807C172.257 45.8892 172.347 45.7071 172.402 45.5342C172.458 45.3551 172.486 45.176 172.486 44.9969C172.486 44.645 172.375 44.3763 172.152 44.1911C171.93 43.9997 171.618 43.9039 171.217 43.9039C170.908 43.9039 170.605 43.9626 170.309 44.0799C170.019 44.1973 169.741 44.3825 169.475 44.6357L169.142 43.941C169.407 43.6878 169.729 43.4902 170.105 43.3482C170.488 43.2 170.883 43.1259 171.291 43.1259C171.729 43.1259 172.103 43.1969 172.412 43.3389C172.72 43.481 172.958 43.6878 173.125 43.9595C173.292 44.2312 173.375 44.5554 173.375 44.9321C173.375 45.1235 173.35 45.3119 173.301 45.4971C173.258 45.6824 173.19 45.8676 173.097 46.0529C173.004 46.2319 172.884 46.4172 172.736 46.6086C172.594 46.8001 172.424 47.0007 172.226 47.2107L170.439 49.0817V48.9706H173.634V49.7394H169.383ZM175.039 49.7394V48.9706H176.715V43.9503L177.187 43.9873L175.372 45.1359L174.983 44.4504L176.956 43.2093H177.614V48.9706H179.16V49.7394H175.039Z" fill="white"/>
<path d="M52.6417 79.5316V74.3075H53.3012L56.4061 78.4201H56.3912V74.3075H57.11V79.5316H56.4209L53.3457 75.4487H53.3605V79.5316H52.6417ZM58.7889 79.5316V74.3075H62.2494V74.9522H59.5299V76.5602H62.0938V77.2049H59.5299V78.8869H62.2494V79.5316H58.7889ZM64.9296 79.5316V74.9596H63.0697V74.3075H67.5305V74.9596H65.678V79.5316H64.9296ZM70.3575 79.5316L72.6694 74.3075H73.3363L75.6483 79.5316H74.8628L74.233 78.0496L74.5886 78.2941H71.4171L71.7654 78.0496L71.1281 79.5316H70.3575ZM72.9807 75.1374L71.8469 77.8199L71.6617 77.6643H74.3441L74.1514 77.8199L73.0177 75.1374H72.9807ZM78.5277 79.5983C78.2411 79.5983 77.967 79.5761 77.7052 79.5316C77.4433 79.4921 77.2037 79.4303 76.9864 79.3464C76.774 79.2574 76.5862 79.1488 76.4232 79.0203L76.69 78.4127C76.8579 78.5411 77.0382 78.6449 77.2309 78.7239C77.4236 78.803 77.6286 78.8598 77.8459 78.8944C78.0633 78.924 78.2905 78.9388 78.5277 78.9388C78.9229 78.9388 79.2267 78.8622 79.4391 78.7091C79.6515 78.556 79.7577 78.346 79.7577 78.0792C79.7577 77.931 79.7232 77.8125 79.654 77.7236C79.5848 77.6297 79.4762 77.5531 79.328 77.4938C79.1847 77.4346 78.997 77.3827 78.7648 77.3382L77.9126 77.1678C77.4236 77.0739 77.0704 76.9085 76.853 76.6713C76.6406 76.4293 76.5344 76.1255 76.5344 75.7599C76.5344 75.4536 76.6233 75.1868 76.8011 74.9596C76.979 74.7324 77.221 74.557 77.5273 74.4335C77.8385 74.305 78.1942 74.2408 78.5944 74.2408C78.8414 74.2408 79.0735 74.2631 79.2909 74.3075C79.5132 74.352 79.7158 74.4211 79.8985 74.515C80.0813 74.6039 80.2443 74.7126 80.3876 74.841L80.1134 75.4487C79.9059 75.2511 79.6762 75.1103 79.4243 75.0263C79.1723 74.9423 78.8932 74.9003 78.587 74.9003C78.3399 74.9003 78.1176 74.9349 77.92 75.0041C77.7224 75.0683 77.5668 75.1646 77.4532 75.2931C77.3396 75.4166 77.2828 75.5722 77.2828 75.7599C77.2828 75.9674 77.347 76.1304 77.4754 76.249C77.6088 76.3626 77.841 76.4515 78.172 76.5157L79.0167 76.6787C79.5256 76.7726 79.901 76.9332 80.1431 77.1604C80.3851 77.3876 80.5062 77.6816 80.5062 78.0422C80.5062 78.3435 80.4246 78.6128 80.2616 78.8499C80.0986 79.0821 79.8689 79.2649 79.5725 79.3982C79.2761 79.5316 78.9278 79.5983 78.5277 79.5983ZM83.6183 79.5983C83.3318 79.5983 83.0576 79.5761 82.7958 79.5316C82.534 79.4921 82.2944 79.4303 82.077 79.3464C81.8646 79.2574 81.6769 79.1488 81.5139 79.0203L81.7806 78.4127C81.9486 78.5411 82.1289 78.6449 82.3216 78.7239C82.5142 78.803 82.7192 78.8598 82.9366 78.8944C83.154 78.924 83.3812 78.9388 83.6183 78.9388C84.0135 78.9388 84.3173 78.8622 84.5298 78.7091C84.7422 78.556 84.8484 78.346 84.8484 78.0792C84.8484 77.931 84.8138 77.8125 84.7447 77.7236C84.6755 77.6297 84.5668 77.5531 84.4186 77.4938C84.2754 77.4346 84.0876 77.3827 83.8555 77.3382L83.0033 77.1678C82.5142 77.0739 82.161 76.9085 81.9437 76.6713C81.7312 76.4293 81.625 76.1255 81.625 75.7599C81.625 75.4536 81.7139 75.1868 81.8918 74.9596C82.0696 74.7324 82.3117 74.557 82.618 74.4335C82.9292 74.305 83.2849 74.2408 83.685 74.2408C83.932 74.2408 84.1642 74.2631 84.3816 74.3075C84.6039 74.352 84.8064 74.4211 84.9892 74.515C85.172 74.6039 85.335 74.7126 85.4783 74.841L85.2041 75.4487C84.9966 75.2511 84.7669 75.1103 84.515 75.0263C84.263 74.9423 83.9839 74.9003 83.6776 74.9003C83.4306 74.9003 83.2083 74.9349 83.0107 75.0041C82.8131 75.0683 82.6575 75.1646 82.5439 75.2931C82.4303 75.4166 82.3734 75.5722 82.3734 75.7599C82.3734 75.9674 82.4377 76.1304 82.5661 76.249C82.6995 76.3626 82.9317 76.4515 83.2626 76.5157L84.1074 76.6787C84.6162 76.7726 84.9917 76.9332 85.2337 77.1604C85.4758 77.3876 85.5968 77.6816 85.5968 78.0422C85.5968 78.3435 85.5153 78.6128 85.3523 78.8499C85.1893 79.0821 84.9596 79.2649 84.6632 79.3982C84.3667 79.5316 84.0185 79.5983 83.6183 79.5983ZM86.9232 79.5316V74.3075H90.3837V74.9522H87.6642V76.5602H90.2281V77.2049H87.6642V78.8869H90.3837V79.5316H86.9232ZM93.0639 79.5316V74.9596H91.2039V74.3075H95.6648V74.9596H93.8123V79.5316H93.0639ZM100.537 79.5316L98.2768 74.3075H99.0771L100.885 78.6276H100.856L102.656 74.3075H103.456L101.189 79.5316H100.537ZM103.423 79.5316L105.735 74.3075H106.402L108.714 79.5316H107.929L107.299 78.0496L107.654 78.2941H104.483L104.831 78.0496L104.194 79.5316H103.423ZM106.046 75.1374L104.913 77.8199L104.727 77.6643H107.41L107.217 77.8199L106.083 75.1374H106.046ZM109.858 79.5316V74.3075H110.607V78.8721H113.222V79.5316H109.858ZM116.242 79.5983C115.555 79.5983 115.029 79.4205 114.663 79.0648C114.303 78.7091 114.122 78.1855 114.122 77.4938V74.3075H114.871V77.479C114.871 77.973 114.987 78.3337 115.219 78.5609C115.456 78.7881 115.797 78.9018 116.242 78.9018C116.696 78.9018 117.039 78.7881 117.272 78.5609C117.504 78.3337 117.62 77.973 117.62 77.479V74.3075H118.368V77.4938C118.368 78.1855 118.186 78.7091 117.82 79.0648C117.459 79.4205 116.933 79.5983 116.242 79.5983ZM119.989 79.5316V74.3075H123.449V74.9522H120.73V76.5602H123.294V77.2049H120.73V78.8869H123.449V79.5316H119.989Z" fill="#636B7A"/>
<path d="M57.651 103.793V100.881L58.1622 101.37C57.0804 101.34 56.0578 101.177 55.0945 100.881C54.146 100.57 53.3235 100.14 52.6269 99.5916L53.4939 97.3463C53.9533 97.6872 54.4424 97.9836 54.9611 98.2356C55.4946 98.4727 56.0504 98.6579 56.6284 98.7913C57.2212 98.9099 57.851 98.9692 58.5179 98.9692C59.5998 98.9692 60.3927 98.7765 60.8966 98.3912C61.4004 98.0058 61.6524 97.5242 61.6524 96.9462C61.6524 96.4275 61.482 96.0125 61.1411 95.7013C60.8002 95.3901 60.1926 95.1381 59.3182 94.9455L56.9618 94.4342C55.628 94.1378 54.6202 93.6487 53.9385 92.967C53.2716 92.2704 52.9381 91.3516 52.9381 90.2104C52.9381 89.3361 53.153 88.558 53.5828 87.8763C54.0126 87.1797 54.6128 86.624 55.3835 86.209C56.1541 85.794 57.0581 85.5495 58.0956 85.4754L57.651 85.8089V83.0079H59.874V85.8089L59.4071 85.4532C60.2519 85.4976 61.0818 85.6681 61.8969 85.9645C62.7268 86.2609 63.416 86.6907 63.9643 87.2538L63.1196 89.3879C62.5564 88.8692 61.9117 88.4839 61.1856 88.232C60.4594 87.9652 59.6665 87.8318 58.8069 87.8318C57.8881 87.8318 57.1471 88.0467 56.5839 88.4765C56.0356 88.8915 55.7614 89.4398 55.7614 90.1215C55.7614 90.6254 55.9318 91.033 56.2727 91.3442C56.6135 91.6554 57.1619 91.8925 57.9177 92.0556L60.2741 92.5668C61.6968 92.8781 62.7491 93.3745 63.4308 94.0563C64.1274 94.7232 64.4756 95.6124 64.4756 96.7239C64.4756 97.5835 64.2607 98.3467 63.831 99.0136C63.4012 99.6657 62.8084 100.192 62.0525 100.592C61.3115 100.977 60.4445 101.222 59.4516 101.326L59.874 100.859V103.793H57.651ZM70.6692 101.459C70.1208 101.459 69.5651 101.385 69.0019 101.237C68.4536 101.103 67.9274 100.903 67.4236 100.636C66.9345 100.37 66.4899 100.051 66.0897 99.6805L67.0456 97.5464C67.5792 98.0503 68.1572 98.4282 68.7796 98.6802C69.4169 98.9321 70.0541 99.0581 70.6914 99.0581C71.3435 99.0581 71.9141 98.9469 72.4031 98.7246C72.907 98.4875 73.3294 98.1466 73.6703 97.702C74.0111 97.2426 74.2631 96.6794 74.4261 96.0125C74.6039 95.3308 74.6928 94.5453 74.6928 93.6561V91.9889H74.9374C74.8336 92.7299 74.5891 93.3745 74.2038 93.9229C73.8185 94.4712 73.3294 94.8936 72.7366 95.19C72.1586 95.4716 71.4991 95.6124 70.7581 95.6124C69.8689 95.6124 69.076 95.3975 68.3795 94.9677C67.6829 94.5379 67.1272 93.9451 66.7122 93.1893C66.3121 92.4186 66.112 91.5517 66.112 90.5884C66.112 89.5658 66.3343 88.6617 66.7789 87.8763C67.2235 87.0908 67.8311 86.4758 68.6018 86.0312C69.3872 85.5717 70.2838 85.342 71.2916 85.342C72.5958 85.342 73.6999 85.6458 74.6039 86.2535C75.5079 86.8611 76.1971 87.7503 76.6713 88.9211C77.1456 90.0771 77.3827 91.4776 77.3827 93.1226C77.3827 94.8862 77.1159 96.3904 76.5824 97.6353C76.0489 98.8802 75.2782 99.8287 74.2705 100.481C73.2775 101.133 72.0771 101.459 70.6692 101.459ZM71.4695 93.3449C72.003 93.3449 72.4698 93.2263 72.87 92.9892C73.2849 92.7521 73.6036 92.4186 73.8259 91.9889C74.0482 91.5443 74.1593 91.0404 74.1593 90.4772C74.1593 89.8992 74.0482 89.3953 73.8259 88.9656C73.6036 88.5358 73.2849 88.2023 72.87 87.9652C72.4698 87.7133 72.003 87.5873 71.4695 87.5873C70.9359 87.5873 70.4691 87.7133 70.069 87.9652C69.6688 88.2023 69.3502 88.5358 69.1131 88.9656C68.8908 89.3953 68.7796 89.8992 68.7796 90.4772C68.7796 91.0404 68.8908 91.5443 69.1131 91.9889C69.3502 92.4186 69.6688 92.7521 70.069 92.9892C70.4691 93.2263 70.9359 93.3449 71.4695 93.3449ZM85.3324 101.459C84.6507 101.459 83.9764 101.385 83.3095 101.237C82.6574 101.088 82.0424 100.881 81.4644 100.614C80.9012 100.347 80.4121 100.036 79.9972 99.6805L80.9308 97.502C81.6126 98.0207 82.3165 98.4134 83.0427 98.6802C83.7689 98.9321 84.5173 99.0581 85.288 99.0581C86.2216 99.0581 86.9478 98.8209 87.4665 98.3467C88.0001 97.8576 88.2668 97.2056 88.2668 96.3904C88.2668 95.5605 88.0149 94.8936 87.511 94.3897C87.0071 93.871 86.318 93.6117 85.4436 93.6117C84.8063 93.6117 84.2357 93.7376 83.7319 93.9896C83.228 94.2267 82.7685 94.5972 82.3536 95.1011H80.4418V85.5643H90.0675V87.9207H83.2206V92.9003H82.487C82.8723 92.3816 83.3762 91.9815 83.9986 91.6999C84.6359 91.4183 85.3398 91.2775 86.1105 91.2775C87.1034 91.2775 87.963 91.4924 88.6892 91.9222C89.4302 92.3371 90.0008 92.9225 90.4009 93.6784C90.8159 94.4194 91.0234 95.2863 91.0234 96.2793C91.0234 97.3019 90.7937 98.2059 90.3342 98.9914C89.8748 99.762 89.2153 100.37 88.3557 100.814C87.511 101.244 86.5032 101.459 85.3324 101.459ZM98.5285 101.459C96.7056 101.459 95.2755 101.066 94.2381 100.281C93.2155 99.4953 92.7042 98.406 92.7042 97.0129C92.7042 96.2719 92.8524 95.6198 93.1488 95.0566C93.46 94.4786 93.8824 94.0118 94.4159 93.6561C94.9494 93.3004 95.5571 93.0781 96.2388 92.9892V93.4561C95.6163 93.3227 95.068 93.0781 94.5937 92.7225C94.1195 92.352 93.749 91.8999 93.4822 91.3664C93.2303 90.8181 93.1043 90.2179 93.1043 89.5658C93.1043 88.2468 93.5934 87.2168 94.5715 86.4758C95.5496 85.7199 96.8761 85.342 98.5507 85.342C100.211 85.342 101.53 85.7199 102.508 86.4758C103.486 87.2168 103.975 88.2468 103.975 89.5658C103.975 90.2179 103.842 90.8181 103.575 91.3664C103.323 91.9148 102.96 92.3668 102.485 92.7225C102.026 93.0781 101.485 93.3153 100.863 93.4338V92.9892C101.559 93.0781 102.167 93.3079 102.686 93.6784C103.204 94.034 103.612 94.5009 103.908 95.0789C104.205 95.642 104.353 96.2867 104.353 97.0129C104.353 98.406 103.834 99.4953 102.797 100.281C101.774 101.066 100.351 101.459 98.5285 101.459ZM98.5285 99.2359C99.5807 99.2359 100.374 99.0358 100.907 98.6357C101.441 98.2207 101.707 97.6131 101.707 96.8128C101.707 96.0125 101.441 95.4123 100.907 95.0122C100.374 94.612 99.5807 94.412 98.5285 94.412C97.4911 94.412 96.6982 94.612 96.1499 95.0122C95.6163 95.4123 95.3496 96.0125 95.3496 96.8128C95.3496 97.6131 95.6163 98.2207 96.1499 98.6357C96.6982 99.0358 97.4911 99.2359 98.5285 99.2359ZM98.5285 92.1889C99.4029 92.1889 100.085 91.9815 100.574 91.5665C101.078 91.1515 101.33 90.5809 101.33 89.8548C101.33 89.1434 101.078 88.5876 100.574 88.1875C100.085 87.7725 99.4029 87.5651 98.5285 87.5651C97.6541 87.5651 96.9724 87.7725 96.4833 88.1875C95.9943 88.5876 95.7497 89.1508 95.7497 89.877C95.7497 90.5884 95.9943 91.1515 96.4833 91.5665C96.9724 91.9815 97.6541 92.1889 98.5285 92.1889ZM106.389 101.237V98.1466H109.502V101.237H106.389ZM117.372 101.459C116.142 101.459 115.097 101.148 114.238 100.525C113.393 99.888 112.748 98.9692 112.304 97.7687C111.874 96.5683 111.659 95.1011 111.659 93.3671C111.659 91.6184 111.874 90.1512 112.304 88.9656C112.748 87.7651 113.393 86.8611 114.238 86.2535C115.097 85.6458 116.142 85.342 117.372 85.342C118.617 85.342 119.662 85.6458 120.507 86.2535C121.366 86.8611 122.011 87.7577 122.441 88.9433C122.87 90.1289 123.085 91.5961 123.085 93.3449C123.085 95.0789 122.863 96.5535 122.418 97.7687C121.989 98.9692 121.351 99.888 120.507 100.525C119.662 101.148 118.617 101.459 117.372 101.459ZM117.372 99.1248C118.38 99.1248 119.121 98.6653 119.595 97.7465C120.084 96.8128 120.329 95.3456 120.329 93.3449C120.329 91.359 120.084 89.9215 119.595 89.0322C119.121 88.1282 118.38 87.6762 117.372 87.6762C116.379 87.6762 115.638 88.1282 115.149 89.0322C114.66 89.9215 114.415 91.3664 114.415 93.3671C114.415 95.353 114.66 96.8128 115.149 97.7465C115.638 98.6653 116.379 99.1248 117.372 99.1248ZM130.702 101.459C129.471 101.459 128.427 101.148 127.567 100.525C126.722 99.888 126.078 98.9692 125.633 97.7687C125.203 96.5683 124.988 95.1011 124.988 93.3671C124.988 91.6184 125.203 90.1512 125.633 88.9656C126.078 87.7651 126.722 86.8611 127.567 86.2535C128.427 85.6458 129.471 85.342 130.702 85.342C131.946 85.342 132.991 85.6458 133.836 86.2535C134.696 86.8611 135.34 87.7577 135.77 88.9433C136.2 90.1289 136.415 91.5961 136.415 93.3449C136.415 95.0789 136.192 96.5535 135.748 97.7687C135.318 98.9692 134.681 99.888 133.836 100.525C132.991 101.148 131.946 101.459 130.702 101.459ZM130.702 99.1248C131.709 99.1248 132.45 98.6653 132.925 97.7465C133.414 96.8128 133.658 95.3456 133.658 93.3449C133.658 91.359 133.414 89.9215 132.925 89.0322C132.45 88.1282 131.709 87.6762 130.702 87.6762C129.709 87.6762 128.968 88.1282 128.478 89.0322C127.989 89.9215 127.745 91.3664 127.745 93.3671C127.745 95.353 127.989 96.8128 128.478 97.7465C128.968 98.6653 129.709 99.1248 130.702 99.1248Z" fill="#FFBC99"/>
<path d="M152.98 88.8175L153.629 89.4666L150.198 92.9209L148.343 91.0662L145.932 93.4541L147.138 93.4541L147.138 94.3814L144.356 94.3814L144.356 91.5994L145.283 91.5994L145.283 92.805L148.343 89.7448L150.198 91.5994L152.98 88.8175Z" fill="#FFBC99"/>
<path d="M157.046 94.9677V94.3378H158.491V90.3364L158.877 90.3882L157.321 91.3812L156.995 90.818L158.684 89.7436H159.225V94.3378H160.551V94.9677H157.046ZM161.334 94.9677V94.0784H162.268V94.9677H161.334ZM165.014 95.0343C164.781 95.0343 164.559 95.0121 164.347 94.9677C164.139 94.9183 163.944 94.8466 163.761 94.7528C163.579 94.654 163.413 94.5354 163.265 94.3971L163.546 93.8191C163.774 94.0216 164.006 94.1674 164.243 94.2563C164.48 94.3452 164.737 94.3897 165.014 94.3897C165.364 94.3897 165.639 94.3007 165.836 94.1229C166.034 93.9451 166.133 93.6906 166.133 93.3597C166.133 93.0287 166.039 92.7693 165.851 92.5816C165.668 92.3889 165.411 92.2926 165.08 92.2926C164.863 92.2926 164.665 92.3371 164.488 92.426C164.315 92.51 164.149 92.6508 163.991 92.8484H163.42V89.7436H166.592V90.3808H164.087V92.2407H164.073C164.186 92.0728 164.344 91.9369 164.547 91.8332C164.749 91.7245 164.972 91.6702 165.214 91.6702C165.55 91.6702 165.839 91.7393 166.081 91.8777C166.328 92.016 166.515 92.2111 166.644 92.463C166.777 92.71 166.844 92.9966 166.844 93.3226C166.844 93.6783 166.767 93.9846 166.614 94.2415C166.466 94.4983 166.254 94.6959 165.977 94.8343C165.705 94.9677 165.384 95.0343 165.014 95.0343ZM169.42 95.1603L168.938 94.8787L171.998 89.5509L172.48 89.8325L169.42 95.1603ZM168.864 92.8706C168.597 92.8706 168.363 92.8064 168.16 92.6779C167.962 92.5495 167.809 92.3667 167.701 92.1296C167.592 91.8875 167.538 91.5985 167.538 91.2626C167.538 90.7637 167.659 90.3759 167.901 90.0992C168.148 89.8177 168.469 89.6769 168.864 89.6769C169.131 89.6769 169.363 89.7411 169.561 89.8695C169.763 89.993 169.919 90.1733 170.027 90.4105C170.141 90.6476 170.198 90.9316 170.198 91.2626C170.198 91.5985 170.141 91.8875 170.027 92.1296C169.919 92.3667 169.763 92.5495 169.561 92.6779C169.363 92.8064 169.131 92.8706 168.864 92.8706ZM168.864 92.3741C169.081 92.3741 169.257 92.2827 169.39 92.1C169.528 91.9172 169.598 91.6381 169.598 91.2626C169.598 90.8971 169.528 90.6253 169.39 90.4475C169.257 90.2647 169.081 90.1733 168.864 90.1733C168.652 90.1733 168.476 90.2623 168.338 90.4401C168.2 90.613 168.13 90.8872 168.13 91.2626C168.13 91.643 168.2 91.9246 168.338 92.1074C168.476 92.2852 168.652 92.3741 168.864 92.3741ZM172.562 95.0343C172.295 95.0343 172.06 94.9726 171.858 94.8491C171.66 94.7206 171.504 94.5379 171.391 94.3007C171.282 94.0587 171.228 93.7697 171.228 93.4338C171.228 92.9348 171.349 92.5446 171.591 92.263C171.838 91.9814 172.161 91.8406 172.562 91.8406C172.823 91.8406 173.053 91.9048 173.251 92.0333C173.453 92.1617 173.609 92.3445 173.718 92.5816C173.831 92.8187 173.888 93.1028 173.888 93.4338C173.888 93.7647 173.834 94.0513 173.725 94.2933C173.616 94.5305 173.461 94.7132 173.258 94.8417C173.061 94.9701 172.828 95.0343 172.562 95.0343ZM172.562 94.5379C172.774 94.5379 172.947 94.4489 173.08 94.2711C173.219 94.0883 173.288 93.8092 173.288 93.4338C173.288 93.0633 173.219 92.7891 173.08 92.6112C172.947 92.4285 172.774 92.3371 172.562 92.3371C172.344 92.3371 172.166 92.426 172.028 92.6038C171.895 92.7817 171.828 93.0583 171.828 93.4338C171.828 93.8092 171.895 94.0883 172.028 94.2711C172.166 94.4489 172.344 94.5379 172.562 94.5379Z" fill="#FFBC99"/>
<path d="M145.103 101.237L143.562 97.5612H144.362L145.489 100.481H145.481L146.622 97.5612H147.386L145.844 101.237H145.103ZM149.446 101.303C149.238 101.303 149.033 101.286 148.831 101.251C148.628 101.217 148.443 101.167 148.275 101.103C148.107 101.034 147.964 100.953 147.845 100.859L148.067 100.325C148.196 100.419 148.337 100.496 148.49 100.555C148.643 100.614 148.801 100.656 148.964 100.681C149.127 100.706 149.283 100.718 149.431 100.718C149.732 100.718 149.964 100.676 150.127 100.592C150.29 100.508 150.372 100.387 150.372 100.229C150.372 100.091 150.325 99.9868 150.231 99.9176C150.137 99.8435 149.984 99.7892 149.772 99.7546L148.979 99.6212C148.633 99.5669 148.371 99.4508 148.193 99.273C148.02 99.0951 147.934 98.8704 147.934 98.5986C147.934 98.3813 147.996 98.1911 148.119 98.0281C148.243 97.8601 148.421 97.7292 148.653 97.6353C148.89 97.5365 149.174 97.4871 149.505 97.4871C149.688 97.4871 149.87 97.5044 150.053 97.539C150.236 97.5736 150.406 97.623 150.565 97.6872C150.728 97.7514 150.858 97.8329 150.957 97.9317L150.72 98.4504C150.621 98.3615 150.503 98.2899 150.364 98.2356C150.226 98.1812 150.083 98.1417 149.935 98.117C149.786 98.0923 149.643 98.0799 149.505 98.0799C149.223 98.0799 149.003 98.1244 148.845 98.2133C148.692 98.2973 148.616 98.4208 148.616 98.5838C148.616 98.7172 148.658 98.8209 148.742 98.8951C148.831 98.9642 148.976 99.0161 149.179 99.0507L149.942 99.184C150.318 99.2483 150.594 99.3644 150.772 99.5323C150.955 99.6953 151.046 99.9201 151.046 100.207C151.046 100.434 150.98 100.629 150.846 100.792C150.718 100.955 150.532 101.081 150.29 101.17C150.053 101.259 149.772 101.303 149.446 101.303ZM155.292 101.303C154.926 101.303 154.642 101.2 154.44 100.992C154.242 100.78 154.144 100.483 154.144 100.103V96.0125H154.892V100.029C154.892 100.172 154.912 100.293 154.951 100.392C154.996 100.491 155.057 100.567 155.136 100.622C155.22 100.671 155.319 100.696 155.433 100.696C155.502 100.696 155.571 100.693 155.64 100.688C155.709 100.678 155.779 100.666 155.848 100.651L155.877 101.214C155.784 101.244 155.692 101.266 155.603 101.281C155.514 101.296 155.411 101.303 155.292 101.303ZM157.819 101.303C157.552 101.303 157.313 101.254 157.1 101.155C156.893 101.056 156.727 100.923 156.604 100.755C156.485 100.587 156.426 100.397 156.426 100.184C156.426 99.9078 156.507 99.6879 156.67 99.5249C156.833 99.3569 157.08 99.2384 157.411 99.1692C157.742 99.0951 158.162 99.0581 158.671 99.0581H159.219V99.5471H158.708C158.436 99.5471 158.202 99.557 158.004 99.5768C157.812 99.5916 157.653 99.6212 157.53 99.6657C157.406 99.7102 157.315 99.7719 157.256 99.8509C157.197 99.9251 157.167 100.021 157.167 100.14C157.167 100.338 157.241 100.486 157.389 100.585C157.542 100.683 157.735 100.733 157.967 100.733C158.175 100.733 158.362 100.686 158.53 100.592C158.703 100.498 158.842 100.372 158.945 100.214C159.049 100.056 159.101 99.8855 159.101 99.7027V98.8654C159.101 98.5888 159.019 98.3887 158.856 98.2652C158.693 98.1417 158.451 98.0799 158.13 98.0799C157.918 98.0799 157.703 98.1096 157.486 98.1689C157.268 98.2281 157.043 98.3269 156.811 98.4653L156.581 97.9243C156.74 97.8305 156.908 97.7514 157.085 97.6872C157.268 97.623 157.456 97.5736 157.649 97.539C157.841 97.5044 158.034 97.4871 158.227 97.4871C158.553 97.4871 158.834 97.539 159.071 97.6427C159.313 97.7465 159.499 97.9046 159.627 98.117C159.76 98.3245 159.827 98.5986 159.827 98.9395V101.237H159.19V100.444H159.175C159.101 100.602 159.002 100.745 158.879 100.874C158.755 101.002 158.604 101.106 158.427 101.185C158.254 101.264 158.051 101.303 157.819 101.303ZM162.474 101.303C162.267 101.303 162.062 101.286 161.859 101.251C161.657 101.217 161.471 101.167 161.303 101.103C161.135 101.034 160.992 100.953 160.874 100.859L161.096 100.325C161.224 100.419 161.365 100.496 161.518 100.555C161.671 100.614 161.83 100.656 161.993 100.681C162.156 100.706 162.311 100.718 162.459 100.718C162.761 100.718 162.993 100.676 163.156 100.592C163.319 100.508 163.4 100.387 163.4 100.229C163.4 100.091 163.354 99.9868 163.26 99.9176C163.166 99.8435 163.013 99.7892 162.8 99.7546L162.007 99.6212C161.662 99.5669 161.4 99.4508 161.222 99.273C161.049 99.0951 160.963 98.8704 160.963 98.5986C160.963 98.3813 161.024 98.1911 161.148 98.0281C161.271 97.8601 161.449 97.7292 161.681 97.6353C161.918 97.5365 162.203 97.4871 162.533 97.4871C162.716 97.4871 162.899 97.5044 163.082 97.539C163.265 97.5736 163.435 97.623 163.593 97.6872C163.756 97.7514 163.887 97.8329 163.986 97.9317L163.749 98.4504C163.65 98.3615 163.531 98.2899 163.393 98.2356C163.255 98.1812 163.111 98.1417 162.963 98.117C162.815 98.0923 162.672 98.0799 162.533 98.0799C162.252 98.0799 162.032 98.1244 161.874 98.2133C161.721 98.2973 161.644 98.4208 161.644 98.5838C161.644 98.7172 161.686 98.8209 161.77 98.8951C161.859 98.9642 162.005 99.0161 162.207 99.0507L162.971 99.184C163.346 99.2483 163.623 99.3644 163.801 99.5323C163.983 99.6953 164.075 99.9201 164.075 100.207C164.075 100.434 164.008 100.629 163.875 100.792C163.746 100.955 163.561 101.081 163.319 101.17C163.082 101.259 162.8 101.303 162.474 101.303ZM166.668 101.303C166.209 101.303 165.863 101.185 165.631 100.948C165.398 100.706 165.282 100.365 165.282 99.9251V98.1689H164.541V97.5612H165.312V96.4868H166.023V97.5612H167.357V98.1689H166.023V99.8732C166.023 100.14 166.085 100.34 166.209 100.473C166.337 100.602 166.527 100.666 166.779 100.666C166.883 100.666 166.984 100.656 167.083 100.636C167.182 100.617 167.278 100.587 167.372 100.547L167.483 101.133C167.379 101.192 167.253 101.234 167.105 101.259C166.962 101.289 166.816 101.303 166.668 101.303ZM170.734 102.57L171.453 100.962V101.518L169.778 97.5612H170.579L171.712 100.488H171.698L172.839 97.5612H173.609L171.512 102.57H170.734ZM176.113 101.303C175.689 101.303 175.323 101.229 175.017 101.081C174.715 100.928 174.483 100.708 174.32 100.422C174.157 100.135 174.076 99.7941 174.076 99.3989C174.076 99.0284 174.15 98.6999 174.298 98.4134C174.451 98.1269 174.666 97.9021 174.943 97.7391C175.219 97.5711 175.55 97.4871 175.936 97.4871C176.296 97.4871 176.605 97.5662 176.862 97.7243C177.119 97.8774 177.314 98.0948 177.447 98.3763C177.586 98.6579 177.655 98.9914 177.655 99.3767V99.6064H174.639V99.1099H177.151L177.018 99.2507C177.018 98.8605 176.924 98.5641 176.736 98.3615C176.548 98.154 176.281 98.0503 175.936 98.0503C175.713 98.0503 175.516 98.0997 175.343 98.1985C175.17 98.2973 175.034 98.4406 174.935 98.6283C174.836 98.8111 174.787 99.0358 174.787 99.3026V99.3841C174.787 99.6805 174.839 99.9251 174.943 100.118C175.051 100.31 175.205 100.456 175.402 100.555C175.605 100.654 175.847 100.703 176.128 100.703C176.331 100.703 176.536 100.676 176.743 100.622C176.956 100.567 177.151 100.471 177.329 100.333L177.566 100.859C177.378 101.012 177.151 101.125 176.884 101.2C176.622 101.269 176.365 101.303 176.113 101.303ZM179.934 101.303C179.668 101.303 179.428 101.254 179.216 101.155C179.008 101.056 178.843 100.923 178.719 100.755C178.601 100.587 178.541 100.397 178.541 100.184C178.541 99.9078 178.623 99.6879 178.786 99.5249C178.949 99.3569 179.196 99.2384 179.527 99.1692C179.858 99.0951 180.278 99.0581 180.787 99.0581H181.335V99.5471H180.824C180.552 99.5471 180.317 99.557 180.12 99.5768C179.927 99.5916 179.769 99.6212 179.645 99.6657C179.522 99.7102 179.43 99.7719 179.371 99.8509C179.312 99.9251 179.282 100.021 179.282 100.14C179.282 100.338 179.356 100.486 179.505 100.585C179.658 100.683 179.85 100.733 180.083 100.733C180.29 100.733 180.478 100.686 180.646 100.592C180.819 100.498 180.957 100.372 181.061 100.214C181.164 100.056 181.216 99.8855 181.216 99.7027V98.8654C181.216 98.5888 181.135 98.3887 180.972 98.2652C180.809 98.1417 180.567 98.0799 180.246 98.0799C180.033 98.0799 179.818 98.1096 179.601 98.1689C179.384 98.2281 179.159 98.3269 178.927 98.4653L178.697 97.9243C178.855 97.8305 179.023 97.7514 179.201 97.6872C179.384 97.623 179.571 97.5736 179.764 97.539C179.957 97.5044 180.149 97.4871 180.342 97.4871C180.668 97.4871 180.95 97.539 181.187 97.6427C181.429 97.7465 181.614 97.9046 181.742 98.117C181.876 98.3245 181.943 98.5986 181.943 98.9395V101.237H181.305V100.444H181.29C181.216 100.602 181.118 100.745 180.994 100.874C180.871 101.002 180.72 101.106 180.542 101.185C180.369 101.264 180.167 101.303 179.934 101.303ZM183.197 101.237V97.5612H183.863V98.4134H183.886C183.975 98.1466 184.128 97.9342 184.345 97.7761C184.567 97.618 184.837 97.5291 185.153 97.5094L185.523 97.4871L185.59 98.1689L185.005 98.2133C184.669 98.243 184.407 98.3541 184.219 98.5468C184.036 98.7394 183.945 98.9766 183.945 99.2581V101.237H183.197Z" fill="#636B7A"/>
<path d="M52.6195 127.824V122.6H53.4494V127.105H56.0356V127.824H52.6195ZM58.1823 127.891C57.9155 127.891 57.6759 127.841 57.4635 127.742C57.256 127.644 57.0905 127.51 56.967 127.342C56.8435 127.169 56.7818 126.974 56.7818 126.757C56.7818 126.48 56.8608 126.26 57.0189 126.097C57.1819 125.929 57.4289 125.808 57.7599 125.734C58.0909 125.66 58.5133 125.623 59.027 125.623H59.568V126.149H59.0715C58.8146 126.149 58.5923 126.159 58.4046 126.179C58.2169 126.194 58.0637 126.223 57.9452 126.268C57.8266 126.307 57.7377 126.364 57.6784 126.438C57.6191 126.507 57.5895 126.599 57.5895 126.712C57.5895 126.9 57.6611 127.041 57.8044 127.135C57.9526 127.229 58.1403 127.276 58.3675 127.276C58.5602 127.276 58.738 127.231 58.9011 127.142C59.069 127.048 59.2024 126.927 59.3012 126.779C59.4 126.626 59.4494 126.46 59.4494 126.283V125.46C59.4494 125.188 59.3679 124.996 59.2049 124.882C59.0468 124.768 58.8121 124.712 58.5009 124.712C58.2885 124.712 58.0736 124.741 57.8562 124.801C57.6438 124.855 57.4166 124.951 57.1745 125.09L56.9374 124.504C57.1004 124.405 57.2708 124.326 57.4487 124.267C57.6315 124.203 57.8217 124.153 58.0193 124.119C58.2169 124.084 58.4145 124.067 58.6121 124.067C58.943 124.067 59.232 124.119 59.479 124.223C59.726 124.326 59.9162 124.487 60.0496 124.704C60.183 124.917 60.2497 125.198 60.2497 125.549V127.824H59.5531V127.046H59.5309C59.4568 127.199 59.358 127.34 59.2345 127.468C59.1159 127.597 58.9677 127.7 58.7899 127.779C58.617 127.854 58.4145 127.891 58.1823 127.891ZM62.9184 127.891C62.7059 127.891 62.4984 127.873 62.2959 127.839C62.0934 127.804 61.9056 127.757 61.7327 127.698C61.5648 127.634 61.4215 127.552 61.303 127.453L61.5327 126.875C61.6661 126.964 61.8093 127.038 61.9625 127.098C62.1156 127.152 62.2712 127.194 62.4293 127.224C62.5923 127.248 62.7479 127.261 62.8961 127.261C63.1925 127.261 63.4198 127.221 63.5778 127.142C63.7359 127.063 63.815 126.95 63.815 126.801C63.815 126.668 63.7705 126.569 63.6816 126.505C63.5927 126.441 63.4445 126.391 63.237 126.357L62.4367 126.231C62.086 126.176 61.8241 126.058 61.6512 125.875C61.4783 125.692 61.3919 125.468 61.3919 125.201C61.3919 124.974 61.4536 124.776 61.5771 124.608C61.7006 124.44 61.8809 124.309 62.1181 124.215C62.3601 124.116 62.6516 124.067 62.9925 124.067C63.1752 124.067 63.358 124.084 63.5408 124.119C63.7285 124.149 63.9014 124.195 64.0595 124.26C64.2225 124.324 64.3534 124.405 64.4522 124.504L64.2077 125.067C64.104 124.983 63.9829 124.914 63.8446 124.86C63.7112 124.806 63.5704 124.766 63.4222 124.741C63.274 124.717 63.1308 124.704 62.9925 124.704C62.7158 124.704 62.5009 124.746 62.3478 124.83C62.1996 124.909 62.1255 125.025 62.1255 125.179C62.1255 125.302 62.1675 125.398 62.2514 125.468C62.3354 125.532 62.4737 125.579 62.6664 125.608L63.4371 125.742C63.8174 125.806 64.0966 125.924 64.2744 126.097C64.4572 126.265 64.5486 126.493 64.5486 126.779C64.5486 127.006 64.4819 127.204 64.3485 127.372C64.2151 127.54 64.0249 127.668 63.7779 127.757C63.5359 127.846 63.2493 127.891 62.9184 127.891ZM67.1936 127.891C66.7193 127.891 66.3612 127.77 66.1191 127.528C65.882 127.281 65.7634 126.93 65.7634 126.475V124.808H65.0298V124.141H65.8005V123.074H66.5859V124.141H67.9049V124.808H66.5859V126.431C66.5859 126.688 66.6452 126.88 66.7638 127.009C66.8873 127.132 67.0725 127.194 67.3195 127.194C67.4233 127.194 67.5221 127.184 67.6159 127.164C67.7147 127.145 67.8111 127.117 67.9049 127.083L68.0309 127.72C67.9173 127.779 67.7864 127.821 67.6382 127.846C67.4949 127.876 67.3467 127.891 67.1936 127.891ZM71.0579 127.824V122.6H73.3031C73.886 122.6 74.3331 122.731 74.6443 122.993C74.9556 123.254 75.1112 123.632 75.1112 124.126C75.1112 124.403 75.0568 124.64 74.9481 124.838C74.8395 125.035 74.6888 125.196 74.4961 125.319C74.3035 125.438 74.0812 125.519 73.8292 125.564L73.844 125.571L73.9181 125.586C74.0318 125.611 74.133 125.665 74.222 125.749C74.3158 125.828 74.4097 125.952 74.5035 126.12L75.4076 127.824H74.5035L73.644 126.209C73.5797 126.08 73.5056 125.981 73.4217 125.912C73.3426 125.843 73.2512 125.796 73.1475 125.771C73.0438 125.742 72.9178 125.727 72.7696 125.727H71.8878V127.824H71.0579ZM71.8878 125.06H73.2364C73.602 125.06 73.8687 124.986 74.0367 124.838C74.2047 124.689 74.2886 124.465 74.2886 124.163C74.2886 123.862 74.1997 123.642 74.0219 123.504C73.849 123.361 73.5773 123.289 73.2068 123.289H71.8878V125.06ZM78.1399 127.891C77.7051 127.891 77.3322 127.817 77.0209 127.668C76.7097 127.515 76.4726 127.295 76.3096 127.009C76.1465 126.717 76.065 126.374 76.065 125.979C76.065 125.613 76.1391 125.287 76.2873 125.001C76.4405 124.709 76.6578 124.482 76.9394 124.319C77.221 124.151 77.5569 124.067 77.9472 124.067C78.3128 124.067 78.624 124.146 78.8809 124.304C79.1427 124.457 79.3428 124.675 79.4811 124.956C79.6194 125.238 79.6886 125.574 79.6886 125.964V126.216H76.6949V125.682H79.1254L78.992 125.823C78.992 125.448 78.9006 125.164 78.7178 124.971C78.54 124.773 78.2856 124.675 77.9546 124.675C77.7372 124.675 77.5446 124.722 77.3766 124.815C77.2136 124.909 77.0827 125.045 76.9839 125.223C76.89 125.401 76.8431 125.618 76.8431 125.875V125.964C76.8431 126.251 76.895 126.488 76.9987 126.675C77.1024 126.863 77.2531 127.004 77.4507 127.098C77.6483 127.192 77.8854 127.239 78.1621 127.239C78.3597 127.239 78.5622 127.214 78.7697 127.164C78.9821 127.11 79.1748 127.016 79.3477 126.883L79.5996 127.453C79.407 127.607 79.1773 127.718 78.9105 127.787C78.6487 127.856 78.3918 127.891 78.1399 127.891ZM80.7376 129.158V124.134H81.4786V124.912H81.4934C81.607 124.64 81.7799 124.433 82.0121 124.289C82.2443 124.141 82.516 124.067 82.8272 124.067C83.173 124.067 83.4719 124.149 83.7238 124.312C83.9758 124.47 84.1709 124.692 84.3092 124.978C84.4475 125.265 84.5167 125.598 84.5167 125.979C84.5167 126.349 84.45 126.68 84.3166 126.972C84.1832 127.258 83.9906 127.483 83.7386 127.646C83.4867 127.809 83.1853 127.891 82.8346 127.891C82.5333 127.891 82.2739 127.821 82.0565 127.683C81.8392 127.54 81.6762 127.35 81.5675 127.113H81.5601V129.158H80.7376ZM82.6271 127.239C82.963 127.239 83.2249 127.125 83.4126 126.898C83.6052 126.67 83.7016 126.362 83.7016 125.971C83.7016 125.581 83.6052 125.275 83.4126 125.053C83.2249 124.83 82.963 124.719 82.6271 124.719C82.2912 124.719 82.0269 124.83 81.8342 125.053C81.6416 125.275 81.5452 125.581 81.5452 125.971C81.5452 126.362 81.6416 126.67 81.8342 126.898C82.0269 127.125 82.2912 127.239 82.6271 127.239ZM87.2606 127.891C86.8753 127.891 86.5394 127.812 86.2528 127.653C85.9713 127.495 85.7539 127.273 85.6008 126.987C85.4476 126.695 85.371 126.359 85.371 125.979C85.371 125.593 85.4476 125.258 85.6008 124.971C85.7539 124.685 85.9713 124.462 86.2528 124.304C86.5394 124.146 86.8753 124.067 87.2606 124.067C87.6459 124.067 87.9769 124.146 88.2536 124.304C88.5351 124.462 88.7525 124.685 88.9056 124.971C89.0637 125.258 89.1428 125.593 89.1428 125.979C89.1428 126.359 89.0662 126.695 88.9131 126.987C88.7599 127.273 88.5426 127.495 88.261 127.653C87.9794 127.812 87.6459 127.891 87.2606 127.891ZM87.2532 127.209C87.5891 127.209 87.8534 127.098 88.0461 126.875C88.2387 126.653 88.3351 126.352 88.3351 125.971C88.3351 125.591 88.2387 125.295 88.0461 125.082C87.8584 124.865 87.5965 124.756 87.2606 124.756C86.9197 124.756 86.653 124.865 86.4603 125.082C86.2726 125.295 86.1787 125.591 86.1787 125.971C86.1787 126.352 86.2751 126.653 86.4677 126.875C86.6604 127.098 86.9222 127.209 87.2532 127.209ZM90.2028 127.824V124.141H90.9289V125.008H90.9512C91.0401 124.741 91.1908 124.526 91.4032 124.363C91.6206 124.2 91.8873 124.109 92.2035 124.089L92.5888 124.06L92.6629 124.815L92.0479 124.867C91.7218 124.892 91.4699 124.998 91.292 125.186C91.1142 125.374 91.0253 125.603 91.0253 125.875V127.824H90.2028ZM95.3287 127.891C94.8544 127.891 94.4963 127.77 94.2542 127.528C94.0171 127.281 93.8985 126.93 93.8985 126.475V124.808H93.1649V124.141H93.9356V123.074H94.721V124.141H96.04V124.808H94.721V126.431C94.721 126.688 94.7803 126.88 94.8989 127.009C95.0224 127.132 95.2076 127.194 95.4546 127.194C95.5584 127.194 95.6572 127.184 95.751 127.164C95.8499 127.145 95.9462 127.117 96.04 127.083L96.166 127.72C96.0524 127.779 95.9215 127.821 95.7733 127.846C95.63 127.876 95.4818 127.891 95.3287 127.891ZM98.7636 127.891C98.3289 127.891 97.9559 127.817 97.6447 127.668C97.3334 127.515 97.0963 127.295 96.9333 127.009C96.7703 126.717 96.6888 126.374 96.6888 125.979C96.6888 125.613 96.7629 125.287 96.9111 125.001C97.0642 124.709 97.2816 124.482 97.5632 124.319C97.8447 124.151 98.1807 124.067 98.5709 124.067C98.9365 124.067 99.2477 124.146 99.5046 124.304C99.7664 124.457 99.9665 124.675 100.105 124.956C100.243 125.238 100.312 125.574 100.312 125.964V126.216H97.3186V125.682H99.7491L99.6158 125.823C99.6158 125.448 99.5244 125.164 99.3416 124.971C99.1637 124.773 98.9093 124.675 98.5783 124.675C98.361 124.675 98.1683 124.722 98.0004 124.815C97.8373 124.909 97.7064 125.045 97.6076 125.223C97.5138 125.401 97.4668 125.618 97.4668 125.875V125.964C97.4668 126.251 97.5187 126.488 97.6224 126.675C97.7262 126.863 97.8769 127.004 98.0745 127.098C98.2721 127.192 98.5092 127.239 98.7858 127.239C98.9834 127.239 99.186 127.214 99.3934 127.164C99.6059 127.11 99.7985 127.016 99.9714 126.883L100.223 127.453C100.031 127.607 99.801 127.718 99.5342 127.787C99.2724 127.856 99.0155 127.891 98.7636 127.891ZM102.843 127.891C102.497 127.891 102.196 127.812 101.939 127.653C101.687 127.49 101.492 127.266 101.354 126.979C101.216 126.688 101.146 126.354 101.146 125.979C101.146 125.603 101.216 125.272 101.354 124.986C101.492 124.699 101.687 124.475 101.939 124.312C102.191 124.149 102.488 124.067 102.828 124.067C103.14 124.067 103.404 124.139 103.621 124.282C103.839 124.42 103.997 124.608 104.096 124.845H104.11V122.6H104.933V127.824H104.192V127.046H104.17C104.056 127.318 103.886 127.528 103.658 127.676C103.431 127.819 103.159 127.891 102.843 127.891ZM103.043 127.239C103.384 127.239 103.649 127.127 103.836 126.905C104.029 126.678 104.125 126.369 104.125 125.979C104.125 125.589 104.029 125.282 103.836 125.06C103.649 124.833 103.387 124.719 103.051 124.719C102.715 124.719 102.451 124.833 102.258 125.06C102.065 125.282 101.969 125.589 101.969 125.979C101.969 126.369 102.065 126.678 102.258 126.905C102.451 127.127 102.712 127.239 103.043 127.239ZM109.834 127.891C109.488 127.891 109.187 127.812 108.93 127.653C108.678 127.49 108.483 127.266 108.344 126.979C108.206 126.688 108.137 126.354 108.137 125.979C108.137 125.603 108.206 125.272 108.344 124.986C108.483 124.699 108.678 124.475 108.93 124.312C109.182 124.149 109.478 124.067 109.819 124.067C110.13 124.067 110.394 124.139 110.612 124.282C110.829 124.42 110.987 124.608 111.086 124.845H111.101V122.6H111.923V127.824H111.182V127.046H111.16C111.046 127.318 110.876 127.528 110.649 127.676C110.422 127.819 110.15 127.891 109.834 127.891ZM110.034 127.239C110.375 127.239 110.639 127.127 110.827 126.905C111.019 126.678 111.116 126.369 111.116 125.979C111.116 125.589 111.019 125.282 110.827 125.06C110.639 124.833 110.377 124.719 110.041 124.719C109.705 124.719 109.441 124.833 109.248 125.06C109.056 125.282 108.959 125.589 108.959 125.979C108.959 126.369 109.056 126.678 109.248 126.905C109.441 127.127 109.703 127.239 110.034 127.239ZM114.46 127.891C114.193 127.891 113.953 127.841 113.741 127.742C113.533 127.644 113.368 127.51 113.244 127.342C113.121 127.169 113.059 126.974 113.059 126.757C113.059 126.48 113.138 126.26 113.296 126.097C113.459 125.929 113.706 125.808 114.037 125.734C114.368 125.66 114.791 125.623 115.304 125.623H115.845V126.149H115.349C115.092 126.149 114.87 126.159 114.682 126.179C114.494 126.194 114.341 126.223 114.223 126.268C114.104 126.307 114.015 126.364 113.956 126.438C113.897 126.507 113.867 126.599 113.867 126.712C113.867 126.9 113.939 127.041 114.082 127.135C114.23 127.229 114.418 127.276 114.645 127.276C114.838 127.276 115.016 127.231 115.179 127.142C115.346 127.048 115.48 126.927 115.579 126.779C115.677 126.626 115.727 126.46 115.727 126.283V125.46C115.727 125.188 115.645 124.996 115.482 124.882C115.324 124.768 115.09 124.712 114.778 124.712C114.566 124.712 114.351 124.741 114.134 124.801C113.921 124.855 113.694 124.951 113.452 125.09L113.215 124.504C113.378 124.405 113.548 124.326 113.726 124.267C113.909 124.203 114.099 124.153 114.297 124.119C114.494 124.084 114.692 124.067 114.89 124.067C115.221 124.067 115.51 124.119 115.757 124.223C116.004 124.326 116.194 124.487 116.327 124.704C116.46 124.917 116.527 125.198 116.527 125.549V127.824H115.831V127.046H115.808C115.734 127.199 115.635 127.34 115.512 127.468C115.393 127.597 115.245 127.7 115.067 127.779C114.894 127.854 114.692 127.891 114.46 127.891ZM119.44 127.891C118.966 127.891 118.608 127.77 118.366 127.528C118.129 127.281 118.01 126.93 118.01 126.475V124.808H117.277V124.141H118.047V123.074H118.833V124.141H120.152V124.808H118.833V126.431C118.833 126.688 118.892 126.88 119.011 127.009C119.134 127.132 119.319 127.194 119.566 127.194C119.67 127.194 119.769 127.184 119.863 127.164C119.962 127.145 120.058 127.117 120.152 127.083L120.278 127.72C120.164 127.779 120.033 127.821 119.885 127.846C119.742 127.876 119.593 127.891 119.44 127.891ZM122.875 127.891C122.441 127.891 122.068 127.817 121.756 127.668C121.445 127.515 121.208 127.295 121.045 127.009C120.882 126.717 120.8 126.374 120.8 125.979C120.8 125.613 120.875 125.287 121.023 125.001C121.176 124.709 121.393 124.482 121.675 124.319C121.956 124.151 122.292 124.067 122.683 124.067C123.048 124.067 123.359 124.146 123.616 124.304C123.878 124.457 124.078 124.675 124.216 124.956C124.355 125.238 124.424 125.574 124.424 125.964V126.216H121.43V125.682H123.861L123.727 125.823C123.727 125.448 123.636 125.164 123.453 124.971C123.275 124.773 123.021 124.675 122.69 124.675C122.473 124.675 122.28 124.722 122.112 124.815C121.949 124.909 121.818 125.045 121.719 125.223C121.625 125.401 121.579 125.618 121.579 125.875V125.964C121.579 126.251 121.63 126.488 121.734 126.675C121.838 126.863 121.989 127.004 122.186 127.098C122.384 127.192 122.621 127.239 122.897 127.239C123.095 127.239 123.298 127.214 123.505 127.164C123.718 127.11 123.91 127.016 124.083 126.883L124.335 127.453C124.142 127.607 123.913 127.718 123.646 127.787C123.384 127.856 123.127 127.891 122.875 127.891ZM125.34 125.06V124.141H126.355V125.06H125.34ZM125.34 127.824V126.905H126.355V127.824H125.34Z" fill="white"/>
<path d="M131.553 127.891C131.261 127.891 130.985 127.868 130.723 127.824C130.466 127.784 130.231 127.72 130.019 127.631C129.807 127.542 129.619 127.431 129.456 127.298L129.708 126.749C129.881 126.883 130.061 126.992 130.249 127.075C130.441 127.155 130.646 127.211 130.864 127.246C131.081 127.276 131.311 127.29 131.553 127.29C131.958 127.29 132.269 127.211 132.487 127.053C132.709 126.89 132.82 126.665 132.82 126.379C132.82 126.226 132.783 126.102 132.709 126.008C132.64 125.91 132.529 125.828 132.375 125.764C132.227 125.7 132.032 125.645 131.79 125.601L130.938 125.43C130.454 125.337 130.105 125.171 129.893 124.934C129.681 124.697 129.574 124.398 129.574 124.037C129.574 123.736 129.661 123.472 129.834 123.244C130.012 123.017 130.254 122.842 130.56 122.718C130.866 122.595 131.215 122.533 131.605 122.533C131.852 122.533 132.082 122.558 132.294 122.607C132.511 122.652 132.711 122.721 132.894 122.815C133.077 122.904 133.24 123.017 133.383 123.156L133.131 123.704C132.919 123.496 132.687 123.351 132.435 123.267C132.183 123.178 131.904 123.133 131.597 123.133C131.341 123.133 131.108 123.17 130.901 123.244C130.698 123.314 130.538 123.415 130.419 123.548C130.306 123.682 130.249 123.847 130.249 124.045C130.249 124.262 130.315 124.433 130.449 124.556C130.587 124.68 130.824 124.773 131.16 124.838L132.005 125.001C132.514 125.099 132.889 125.26 133.131 125.482C133.373 125.705 133.494 125.994 133.494 126.349C133.494 126.646 133.413 126.91 133.25 127.142C133.092 127.374 132.867 127.557 132.576 127.691C132.284 127.824 131.943 127.891 131.553 127.891ZM136.363 127.891C135.948 127.891 135.59 127.817 135.288 127.668C134.992 127.515 134.762 127.298 134.599 127.016C134.441 126.73 134.362 126.386 134.362 125.986C134.362 125.621 134.436 125.295 134.584 125.008C134.733 124.722 134.943 124.497 135.214 124.334C135.491 124.171 135.817 124.089 136.192 124.089C136.558 124.089 136.867 124.166 137.119 124.319C137.371 124.472 137.561 124.689 137.689 124.971C137.823 125.248 137.889 125.579 137.889 125.964V126.171H134.859V125.705H137.46L137.311 125.86C137.311 125.455 137.215 125.144 137.022 124.927C136.83 124.709 136.556 124.601 136.2 124.601C135.963 124.601 135.755 124.652 135.577 124.756C135.4 124.86 135.259 125.008 135.155 125.201C135.056 125.393 135.007 125.626 135.007 125.897V125.979C135.007 126.28 135.061 126.532 135.17 126.735C135.279 126.932 135.434 127.083 135.637 127.187C135.844 127.29 136.091 127.342 136.378 127.342C136.575 127.342 136.78 127.315 136.993 127.261C137.205 127.206 137.403 127.105 137.586 126.957L137.815 127.431C137.623 127.589 137.395 127.705 137.134 127.779C136.872 127.854 136.615 127.891 136.363 127.891ZM139.006 129.158V124.149H139.614V124.949H139.628C139.742 124.672 139.915 124.46 140.147 124.312C140.384 124.163 140.661 124.089 140.977 124.089C141.318 124.089 141.614 124.168 141.866 124.326C142.123 124.484 142.321 124.707 142.459 124.993C142.597 125.275 142.666 125.606 142.666 125.986C142.666 126.362 142.597 126.693 142.459 126.979C142.321 127.266 142.126 127.49 141.874 127.653C141.622 127.812 141.323 127.891 140.977 127.891C140.671 127.891 140.404 127.817 140.177 127.668C139.954 127.52 139.791 127.322 139.688 127.075H139.673V129.158H139.006ZM140.829 127.342C141.189 127.342 141.473 127.221 141.681 126.979C141.893 126.732 142 126.399 142 125.979C142 125.564 141.896 125.238 141.688 125.001C141.481 124.759 141.197 124.638 140.836 124.638C140.471 124.638 140.184 124.759 139.977 125.001C139.769 125.238 139.665 125.564 139.665 125.979C139.665 126.399 139.769 126.732 139.977 126.979C140.184 127.221 140.468 127.342 140.829 127.342ZM145.814 127.824V127.327L147.651 125.408C147.834 125.216 147.975 125.043 148.074 124.89C148.172 124.736 148.242 124.591 148.281 124.452C148.326 124.309 148.348 124.166 148.348 124.023C148.348 123.731 148.254 123.509 148.066 123.356C147.883 123.198 147.632 123.119 147.31 123.119C147.063 123.119 146.819 123.165 146.577 123.259C146.335 123.353 146.108 123.506 145.895 123.719L145.636 123.193C145.858 122.98 146.117 122.817 146.414 122.704C146.715 122.59 147.029 122.533 147.355 122.533C147.696 122.533 147.99 122.592 148.237 122.711C148.484 122.83 148.671 122.997 148.8 123.215C148.933 123.427 149 123.682 149 123.978C149 124.131 148.983 124.282 148.948 124.43C148.918 124.573 148.867 124.717 148.792 124.86C148.718 125.003 148.624 125.151 148.511 125.304C148.397 125.453 148.261 125.611 148.103 125.779L146.681 127.261V127.246H149.215V127.824H145.814ZM151.88 127.891C151.479 127.891 151.141 127.789 150.864 127.587C150.588 127.379 150.378 127.078 150.235 126.683C150.096 126.283 150.027 125.791 150.027 125.208C150.027 124.625 150.096 124.136 150.235 123.741C150.378 123.346 150.588 123.047 150.864 122.844C151.141 122.637 151.479 122.533 151.88 122.533C152.29 122.533 152.63 122.634 152.902 122.837C153.179 123.039 153.386 123.338 153.525 123.734C153.663 124.129 153.732 124.618 153.732 125.201C153.732 125.784 153.66 126.275 153.517 126.675C153.379 127.075 153.171 127.379 152.895 127.587C152.623 127.789 152.285 127.891 151.88 127.891ZM151.88 127.305C152.285 127.305 152.586 127.135 152.784 126.794C152.981 126.453 153.08 125.922 153.08 125.201C153.08 124.484 152.981 123.958 152.784 123.622C152.591 123.286 152.292 123.119 151.887 123.119C151.477 123.119 151.173 123.289 150.976 123.63C150.778 123.966 150.679 124.492 150.679 125.208C150.679 125.92 150.778 126.448 150.976 126.794C151.173 127.135 151.474 127.305 151.88 127.305ZM154.7 127.824V127.327L156.538 125.408C156.72 125.216 156.861 125.043 156.96 124.89C157.059 124.736 157.128 124.591 157.167 124.452C157.212 124.309 157.234 124.166 157.234 124.023C157.234 123.731 157.14 123.509 156.953 123.356C156.77 123.198 156.518 123.119 156.197 123.119C155.95 123.119 155.705 123.165 155.463 123.259C155.221 123.353 154.994 123.506 154.781 123.719L154.522 123.193C154.744 122.98 155.004 122.817 155.3 122.704C155.601 122.59 155.915 122.533 156.241 122.533C156.582 122.533 156.876 122.592 157.123 122.711C157.37 122.83 157.558 122.997 157.686 123.215C157.82 123.427 157.886 123.682 157.886 123.978C157.886 124.131 157.869 124.282 157.834 124.43C157.805 124.573 157.753 124.717 157.679 124.86C157.605 125.003 157.511 125.151 157.397 125.304C157.284 125.453 157.148 125.611 156.99 125.779L155.567 127.261V127.246H158.101V127.824H154.7ZM161.373 127.824V126.742H158.928V126.246L161.314 122.6H162.003V126.194H162.722V126.742H162.003V127.824H161.373ZM161.396 126.194V123.422H161.411L159.521 126.305L159.454 126.194H161.396Z" fill="#636B7A"/>
<line x1="522.409" y1="40.304" x2="217.67" y2="40.304" stroke="#B3B3B3" stroke-width="0.272706"/>
<line x1="522.409" y1="61.3764" x2="217.67" y2="61.3764" stroke="#B3B3B3" stroke-width="0.272706"/>
<line x1="522.409" y1="82.4488" x2="217.67" y2="82.4488" stroke="#B3B3B3" stroke-width="0.272706"/>
<line x1="522.409" y1="103.521" x2="217.67" y2="103.521" stroke="#B3B3B3" stroke-width="0.272706"/>
<path d="M239.472 51.7216L217.71 58.8905L216.642 66.9563L520.98 78.9332L521.911 71.8971L474.204 59.6311C472.232 59.1242 470.131 59.0646 468.05 59.4565L427.008 67.188C424.218 67.7135 421.408 67.4245 418.932 66.3577L407.424 61.4002C405.044 60.3749 402.353 60.0673 399.667 60.5134L365.168 66.2434C362.419 66.6998 359.668 66.3671 357.25 65.286L338.111 56.7294C335.366 55.5022 332.202 55.2433 329.11 55.9931L287.866 65.9955C284.764 66.7477 281.589 66.4845 278.838 65.2469L249.685 52.1318C246.57 50.7305 242.926 50.5841 239.472 51.7216Z" fill="url(#paint0_linear_4508_745)"/>
<path d="M217.549 58.866L239.32 51.7105C242.767 50.5775 246.404 50.7236 249.514 52.12L278.686 65.2177C281.433 66.4508 284.601 66.7133 287.698 65.9642L328.957 55.9815C332.043 55.2349 335.201 55.493 337.941 56.7158L357.096 65.2625C359.511 66.3399 362.257 66.6715 364.999 66.217L399.513 60.4991C402.194 60.0549 404.879 60.3615 407.256 61.3832L418.778 66.3371C421.251 67.4001 424.055 67.6881 426.839 67.165L467.893 59.4501C469.97 59.0599 472.067 59.1194 474.035 59.6245L521.751 71.8704" stroke="#FFBC99" stroke-width="1.63623" stroke-linecap="round"/>
<path opacity="0.68" d="M217.914 125.627L217.848 124.84L218.532 124.803C218.738 124.79 218.916 124.74 219.066 124.653C219.216 124.565 219.332 124.44 219.413 124.278C219.494 124.115 219.535 123.925 219.535 123.706V118.945H220.444V123.744C220.444 124.106 220.372 124.421 220.228 124.69C220.091 124.959 219.888 125.171 219.619 125.327C219.357 125.477 219.038 125.565 218.663 125.59L217.914 125.627ZM223.64 125.637C223.309 125.637 223.012 125.574 222.75 125.449C222.494 125.324 222.291 125.156 222.141 124.943C221.997 124.731 221.925 124.49 221.925 124.222C221.925 123.878 222.019 123.606 222.207 123.406C222.4 123.2 222.7 123.053 223.106 122.966C223.519 122.878 224.053 122.835 224.709 122.835H225.29V123.425H224.746C224.396 123.425 224.097 123.437 223.847 123.462C223.603 123.481 223.406 123.519 223.256 123.575C223.106 123.631 222.997 123.709 222.928 123.809C222.859 123.903 222.825 124.025 222.825 124.175C222.825 124.418 222.916 124.612 223.097 124.756C223.278 124.893 223.515 124.962 223.809 124.962C224.065 124.962 224.293 124.903 224.493 124.784C224.693 124.665 224.852 124.506 224.971 124.306C225.096 124.106 225.159 123.887 225.159 123.65V122.581C225.159 122.225 225.065 121.969 224.877 121.813C224.696 121.651 224.415 121.569 224.034 121.569C223.765 121.569 223.497 121.607 223.228 121.682C222.959 121.757 222.681 121.882 222.394 122.057L222.113 121.401C222.3 121.288 222.503 121.191 222.722 121.11C222.941 121.029 223.169 120.966 223.406 120.923C223.644 120.873 223.878 120.848 224.109 120.848C224.515 120.848 224.862 120.913 225.149 121.045C225.437 121.176 225.655 121.376 225.805 121.644C225.955 121.907 226.03 122.25 226.03 122.675V125.552H225.224V124.54H225.252C225.177 124.746 225.065 124.934 224.915 125.103C224.771 125.271 224.59 125.402 224.371 125.496C224.159 125.59 223.915 125.637 223.64 125.637ZM227.549 125.552V120.941H228.402V121.925H228.365C228.508 121.582 228.73 121.316 229.03 121.129C229.33 120.941 229.667 120.848 230.042 120.848C230.423 120.848 230.739 120.916 230.989 121.054C231.239 121.191 231.426 121.398 231.551 121.672C231.676 121.947 231.738 122.297 231.738 122.722V125.552H230.829V122.769C230.829 122.513 230.795 122.3 230.726 122.132C230.658 121.957 230.548 121.825 230.398 121.738C230.255 121.651 230.061 121.607 229.817 121.607C229.549 121.607 229.311 121.666 229.105 121.785C228.899 121.897 228.736 122.057 228.618 122.263C228.505 122.469 228.449 122.703 228.449 122.966V125.552H227.549Z" fill="#636B7A"/>
<path opacity="0.68" d="M265.436 125.552V118.945H269.701V119.714H266.345V121.86H269.504V122.628H266.345V125.552H265.436ZM272.862 125.637C272.343 125.637 271.897 125.543 271.522 125.356C271.153 125.162 270.869 124.887 270.669 124.531C270.469 124.168 270.369 123.74 270.369 123.247C270.369 122.778 270.463 122.366 270.65 122.01C270.838 121.647 271.103 121.363 271.447 121.157C271.79 120.951 272.193 120.848 272.656 120.848C273.099 120.848 273.477 120.945 273.79 121.138C274.102 121.326 274.34 121.594 274.502 121.944C274.671 122.288 274.755 122.7 274.755 123.181V123.481H271.063V122.881H274.155L273.987 123.041C273.987 122.553 273.874 122.178 273.649 121.916C273.424 121.654 273.099 121.522 272.675 121.522C272.381 121.522 272.125 121.588 271.906 121.719C271.694 121.85 271.528 122.038 271.409 122.282C271.291 122.525 271.231 122.813 271.231 123.144V123.228C271.231 123.603 271.294 123.915 271.419 124.165C271.55 124.409 271.737 124.596 271.981 124.728C272.231 124.853 272.528 124.915 272.871 124.915C273.128 124.915 273.387 124.878 273.649 124.803C273.912 124.728 274.155 124.6 274.38 124.418L274.671 125.056C274.44 125.249 274.158 125.396 273.827 125.496C273.502 125.59 273.181 125.637 272.862 125.637ZM278.488 125.637C278.088 125.637 277.741 125.54 277.447 125.346C277.154 125.146 276.944 124.874 276.819 124.531H276.848V125.552H276.004V118.945H276.904V121.907H276.866C276.991 121.582 277.194 121.326 277.475 121.138C277.763 120.945 278.103 120.848 278.497 120.848C278.922 120.848 279.29 120.948 279.603 121.148C279.915 121.348 280.156 121.626 280.324 121.982C280.493 122.338 280.578 122.76 280.578 123.247C280.578 123.722 280.49 124.14 280.315 124.503C280.146 124.865 279.906 125.146 279.593 125.346C279.281 125.54 278.912 125.637 278.488 125.637ZM278.281 124.915C278.713 124.915 279.053 124.768 279.303 124.475C279.553 124.181 279.678 123.772 279.678 123.247C279.678 122.716 279.553 122.307 279.303 122.019C279.053 121.726 278.713 121.579 278.281 121.579C277.857 121.579 277.519 121.726 277.269 122.019C277.019 122.307 276.894 122.716 276.894 123.247C276.894 123.772 277.019 124.181 277.269 124.475C277.519 124.768 277.857 124.915 278.281 124.915Z" fill="#636B7A"/>
<path opacity="0.68" d="M314.05 125.552V118.945H314.978L317.405 123.659H317.264L319.692 118.945H320.601V125.552H319.748V120.239H319.851L317.639 124.512H317.021L314.8 120.239H314.903V125.552H314.05ZM323.811 125.637C323.48 125.637 323.183 125.574 322.921 125.449C322.664 125.324 322.461 125.156 322.311 124.943C322.168 124.731 322.096 124.49 322.096 124.222C322.096 123.878 322.19 123.606 322.377 123.406C322.571 123.2 322.871 123.053 323.277 122.966C323.689 122.878 324.223 122.835 324.879 122.835H325.46V123.425H324.917C324.567 123.425 324.267 123.437 324.017 123.462C323.773 123.481 323.577 123.519 323.427 123.575C323.277 123.631 323.167 123.709 323.099 123.809C323.03 123.903 322.996 124.025 322.996 124.175C322.996 124.418 323.086 124.612 323.267 124.756C323.449 124.893 323.686 124.962 323.98 124.962C324.236 124.962 324.464 124.903 324.664 124.784C324.864 124.665 325.023 124.506 325.142 124.306C325.267 124.106 325.329 123.887 325.329 123.65V122.581C325.329 122.225 325.235 121.969 325.048 121.813C324.867 121.651 324.586 121.569 324.205 121.569C323.936 121.569 323.667 121.607 323.399 121.682C323.13 121.757 322.852 121.882 322.565 122.057L322.283 121.401C322.471 121.288 322.674 121.191 322.893 121.11C323.111 121.029 323.339 120.966 323.577 120.923C323.814 120.873 324.048 120.848 324.28 120.848C324.686 120.848 325.032 120.913 325.32 121.045C325.607 121.176 325.826 121.376 325.976 121.644C326.126 121.907 326.201 122.25 326.201 122.675V125.552H325.395V124.54H325.423C325.348 124.746 325.235 124.934 325.086 125.103C324.942 125.271 324.761 125.402 324.542 125.496C324.33 125.59 324.086 125.637 323.811 125.637ZM327.72 125.552V120.941H328.554V122.029H328.526C328.638 121.672 328.829 121.398 329.097 121.204C329.372 121.004 329.716 120.888 330.128 120.857L330.513 120.838L330.597 121.644L329.941 121.701C329.522 121.738 329.197 121.875 328.966 122.113C328.741 122.344 328.629 122.647 328.629 123.022V125.552H327.72Z" fill="#636B7A"/>
<path opacity="0.68" d="M362.941 125.552L365.865 118.945H366.661L369.585 125.552H368.639L367.833 123.678L368.264 123.95H364.253L364.674 123.678L363.878 125.552H362.941ZM366.239 119.967L364.787 123.387L364.562 123.191H367.955L367.72 123.387L366.277 119.967H366.239ZM370.568 127.239V120.932H371.411V121.954H371.383C371.508 121.61 371.718 121.341 372.011 121.148C372.311 120.948 372.661 120.848 373.061 120.848C373.479 120.848 373.845 120.948 374.157 121.148C374.47 121.348 374.71 121.626 374.879 121.982C375.054 122.338 375.141 122.76 375.141 123.247C375.141 123.722 375.057 124.14 374.888 124.503C374.72 124.859 374.479 125.137 374.167 125.337C373.854 125.537 373.486 125.637 373.061 125.637C372.667 125.637 372.327 125.54 372.039 125.346C371.758 125.153 371.555 124.896 371.43 124.578H371.468V127.239H370.568ZM372.845 124.915C373.276 124.915 373.617 124.768 373.867 124.475C374.117 124.175 374.242 123.762 374.242 123.238C374.242 122.713 374.117 122.307 373.867 122.019C373.617 121.726 373.276 121.579 372.845 121.579C372.42 121.579 372.083 121.726 371.833 122.019C371.583 122.307 371.458 122.713 371.458 123.238C371.458 123.762 371.583 124.175 371.833 124.475C372.083 124.768 372.42 124.915 372.845 124.915ZM376.407 125.552V120.941H377.241V122.029H377.213C377.325 121.672 377.516 121.398 377.785 121.204C378.06 121.004 378.403 120.888 378.816 120.857L379.2 120.838L379.284 121.644L378.628 121.701C378.21 121.738 377.885 121.875 377.653 122.113C377.429 122.344 377.316 122.647 377.316 123.022V125.552H376.407Z" fill="#636B7A"/>
<path opacity="0.68" d="M412.222 125.552V118.945H413.15L415.577 123.659H415.436L417.864 118.945H418.773V125.552H417.92V120.239H418.023L415.811 124.512H415.193L412.972 120.239H413.075V125.552H412.222ZM421.983 125.637C421.652 125.637 421.355 125.574 421.093 125.449C420.836 125.324 420.633 125.156 420.483 124.943C420.34 124.731 420.268 124.49 420.268 124.222C420.268 123.878 420.362 123.606 420.549 123.406C420.743 123.2 421.043 123.053 421.449 122.966C421.861 122.878 422.395 122.835 423.051 122.835H423.632V123.425H423.089C422.739 123.425 422.439 123.437 422.189 123.462C421.945 123.481 421.749 123.519 421.599 123.575C421.449 123.631 421.339 123.709 421.271 123.809C421.202 123.903 421.168 124.025 421.168 124.175C421.168 124.418 421.258 124.612 421.439 124.756C421.621 124.893 421.858 124.962 422.152 124.962C422.408 124.962 422.636 124.903 422.836 124.784C423.036 124.665 423.195 124.506 423.314 124.306C423.439 124.106 423.501 123.887 423.501 123.65V122.581C423.501 122.225 423.407 121.969 423.22 121.813C423.039 121.651 422.758 121.569 422.377 121.569C422.108 121.569 421.839 121.607 421.571 121.682C421.302 121.757 421.024 121.882 420.737 122.057L420.455 121.401C420.643 121.288 420.846 121.191 421.065 121.11C421.283 121.029 421.511 120.966 421.749 120.923C421.986 120.873 422.22 120.848 422.452 120.848C422.858 120.848 423.204 120.913 423.492 121.045C423.779 121.176 423.998 121.376 424.148 121.644C424.298 121.907 424.373 122.25 424.373 122.675V125.552H423.567V124.54H423.595C423.52 124.746 423.407 124.934 423.258 125.103C423.114 125.271 422.933 125.402 422.714 125.496C422.502 125.59 422.258 125.637 421.983 125.637ZM426.38 127.239L427.261 125.234V125.796L425.199 120.941H426.174L427.674 124.728H427.552L429.061 120.941H429.998L427.317 127.239H426.38Z" fill="#636B7A"/>
<path opacity="0.68" d="M461.986 125.627L461.92 124.84L462.605 124.803C462.811 124.79 462.989 124.74 463.139 124.653C463.289 124.565 463.404 124.44 463.486 124.278C463.567 124.115 463.607 123.925 463.607 123.706V118.945H464.516V123.744C464.516 124.106 464.445 124.421 464.301 124.69C464.163 124.959 463.96 125.171 463.692 125.327C463.429 125.477 463.111 125.565 462.736 125.59L461.986 125.627ZM467.882 125.637C467.507 125.637 467.191 125.568 466.935 125.431C466.679 125.293 466.485 125.087 466.354 124.812C466.229 124.537 466.167 124.193 466.167 123.781V120.941H467.066V123.753C467.066 123.99 467.101 124.197 467.169 124.372C467.238 124.54 467.347 124.668 467.497 124.756C467.654 124.843 467.85 124.887 468.088 124.887C468.344 124.887 468.569 124.828 468.763 124.709C468.962 124.59 469.119 124.428 469.231 124.222C469.344 124.015 469.4 123.787 469.4 123.537V120.941H470.3V125.552H469.447V124.54H469.494C469.35 124.89 469.141 125.162 468.866 125.356C468.591 125.543 468.263 125.637 467.882 125.637ZM471.832 125.552V120.941H472.685V121.925H472.648C472.791 121.582 473.013 121.316 473.313 121.129C473.613 120.941 473.95 120.848 474.325 120.848C474.706 120.848 475.022 120.916 475.272 121.054C475.522 121.191 475.709 121.398 475.834 121.672C475.959 121.947 476.021 122.297 476.021 122.722V125.552H475.112V122.769C475.112 122.513 475.078 122.3 475.009 122.132C474.941 121.957 474.831 121.825 474.681 121.738C474.538 121.651 474.344 121.607 474.1 121.607C473.832 121.607 473.594 121.666 473.388 121.785C473.182 121.897 473.019 122.057 472.901 122.263C472.788 122.469 472.732 122.703 472.732 122.966V125.552H471.832Z" fill="#636B7A"/>
<path opacity="0.68" d="M508.975 125.627L508.91 124.84L509.594 124.803C509.8 124.79 509.978 124.74 510.128 124.653C510.278 124.565 510.394 124.44 510.475 124.278C510.556 124.115 510.597 123.925 510.597 123.706V118.945H511.506V123.744C511.506 124.106 511.434 124.421 511.29 124.69C511.153 124.959 510.95 125.171 510.681 125.327C510.419 125.477 510.1 125.565 509.725 125.59L508.975 125.627ZM514.871 125.637C514.496 125.637 514.18 125.568 513.924 125.431C513.668 125.293 513.474 125.087 513.343 124.812C513.218 124.537 513.156 124.193 513.156 123.781V120.941H514.056V123.753C514.056 123.99 514.09 124.197 514.159 124.372C514.227 124.54 514.337 124.668 514.487 124.756C514.643 124.843 514.84 124.887 515.077 124.887C515.333 124.887 515.558 124.828 515.752 124.709C515.952 124.59 516.108 124.428 516.22 124.222C516.333 124.015 516.389 123.787 516.389 123.537V120.941H517.289V125.552H516.436V124.54H516.483C516.339 124.89 516.13 125.162 515.855 125.356C515.58 125.543 515.252 125.637 514.871 125.637ZM520.274 125.637C519.799 125.637 519.437 125.502 519.187 125.234C518.943 124.959 518.821 124.571 518.821 124.072V118.945H519.721V123.997C519.721 124.19 519.749 124.356 519.806 124.493C519.862 124.625 519.943 124.725 520.049 124.793C520.162 124.862 520.296 124.896 520.452 124.896C520.533 124.896 520.612 124.893 520.686 124.887C520.768 124.874 520.849 124.856 520.93 124.831L520.94 125.543C520.833 125.574 520.727 125.596 520.621 125.609C520.515 125.627 520.399 125.637 520.274 125.637Z" fill="#636B7A"/>
<rect x="401.069" y="77.8241" width="48.0402" height="14.8201" rx="3.15435" fill="#FFBC99"/>
<path d="M425.089 74.9092L429.03 78.8541L421.148 78.8541L425.089 74.9092Z" fill="#FFBC99"/>
<path d="M409.12 88.9319V87.6479L409.308 87.8166C408.858 87.8104 408.433 87.7479 408.033 87.6292C407.633 87.5042 407.283 87.3137 406.983 87.0575L407.293 86.3453C407.493 86.5015 407.699 86.6327 407.911 86.7389C408.124 86.8388 408.352 86.9169 408.595 86.9732C408.845 87.0232 409.114 87.0481 409.401 87.0481C409.914 87.0481 410.292 86.9513 410.535 86.7576C410.785 86.5639 410.91 86.3203 410.91 86.0266C410.91 85.7517 410.817 85.5393 410.629 85.3893C410.448 85.2394 410.157 85.13 409.758 85.0613L408.802 84.8832C408.246 84.777 407.827 84.5865 407.546 84.3116C407.265 84.0367 407.124 83.6587 407.124 83.1776C407.124 82.8277 407.212 82.5153 407.386 82.2404C407.568 81.9592 407.818 81.7374 408.136 81.575C408.461 81.4063 408.836 81.3126 409.261 81.2938L409.12 81.425V80.1692H409.861V81.425L409.711 81.2938C410.054 81.3063 410.398 81.3782 410.742 81.5094C411.085 81.6343 411.376 81.8218 411.613 82.0717L411.313 82.7558C411.07 82.5184 410.795 82.3435 410.489 82.231C410.189 82.1123 409.851 82.0529 409.476 82.0529C409.027 82.0529 408.667 82.1592 408.399 82.3716C408.136 82.5778 408.005 82.8464 408.005 83.1776C408.005 83.4462 408.086 83.6587 408.249 83.8149C408.417 83.9648 408.689 84.0741 409.064 84.1429L410.02 84.3116C410.626 84.424 411.073 84.6208 411.36 84.902C411.654 85.1769 411.801 85.5424 411.801 85.9985C411.801 86.3484 411.71 86.6545 411.529 86.9169C411.348 87.1731 411.101 87.3793 410.788 87.5355C410.476 87.6854 410.114 87.776 409.701 87.8073L409.861 87.6386V88.9319H409.12ZM414.58 87.9385C414.343 87.9385 414.109 87.9104 413.877 87.8541C413.646 87.7979 413.428 87.7135 413.221 87.6011C413.022 87.4824 412.837 87.3387 412.669 87.17L413.006 86.4765C413.25 86.7264 413.503 86.9013 413.765 87.0013C414.034 87.1013 414.309 87.1512 414.59 87.1512C414.89 87.1512 415.152 87.095 415.377 86.9825C415.608 86.8701 415.802 86.7045 415.958 86.4858C416.12 86.2672 416.242 85.9954 416.324 85.6705C416.405 85.3456 416.445 84.9707 416.445 84.5459V83.9179H416.473C416.424 84.2241 416.314 84.4896 416.145 84.7146C415.977 84.9395 415.764 85.1113 415.508 85.23C415.258 85.3487 414.98 85.4081 414.674 85.4081C414.287 85.4081 413.94 85.3206 413.634 85.1457C413.334 84.9645 413.097 84.7177 412.922 84.4053C412.753 84.0929 412.669 83.7336 412.669 83.3275C412.669 82.9027 412.759 82.5278 412.94 82.2029C413.121 81.878 413.371 81.625 413.69 81.4438C414.015 81.2563 414.384 81.1626 414.796 81.1626C415.339 81.1626 415.796 81.2907 416.164 81.5469C416.533 81.7968 416.811 82.1654 416.998 82.6527C417.192 83.1338 417.289 83.7211 417.289 84.4147C417.289 85.1644 417.18 85.8017 416.961 86.3265C416.748 86.8513 416.442 87.2512 416.042 87.5261C415.643 87.801 415.155 87.9385 414.58 87.9385ZM414.852 84.6583C415.115 84.6583 415.346 84.6021 415.546 84.4896C415.752 84.3709 415.911 84.2085 416.024 84.0023C416.142 83.7961 416.202 83.5587 416.202 83.29C416.202 83.0151 416.145 82.7746 416.033 82.5684C415.921 82.3622 415.761 82.2029 415.555 82.0904C415.355 81.9717 415.118 81.9124 414.843 81.9124C414.58 81.9124 414.349 81.9717 414.149 82.0904C413.949 82.2091 413.793 82.3716 413.681 82.5778C413.574 82.7777 413.521 83.0151 413.521 83.29C413.521 83.5649 413.578 83.8055 413.69 84.0117C413.803 84.2178 413.959 84.3772 414.159 84.4896C414.359 84.6021 414.59 84.6583 414.852 84.6583ZM420.725 87.9385C420.437 87.9385 420.159 87.9072 419.891 87.8448C419.622 87.7823 419.369 87.6917 419.131 87.573C418.9 87.4543 418.694 87.3106 418.513 87.1419L418.85 86.439C419.138 86.6826 419.434 86.8638 419.741 86.9825C420.047 87.095 420.372 87.1512 420.715 87.1512C421.159 87.1512 421.506 87.0357 421.756 86.8045C422.012 86.5671 422.14 86.2422 422.14 85.8298C422.14 85.4174 422.021 85.0863 421.784 84.8364C421.546 84.5865 421.218 84.4615 420.8 84.4615C420.506 84.4615 420.244 84.5209 420.012 84.6396C419.787 84.752 419.581 84.9332 419.394 85.1831H418.71V81.247H422.674V82.0248H419.553V84.4428H419.45C419.6 84.2116 419.809 84.0304 420.078 83.8992C420.347 83.7617 420.643 83.693 420.968 83.693C421.387 83.693 421.749 83.7836 422.055 83.9648C422.362 84.1397 422.599 84.3834 422.768 84.6958C422.936 85.0082 423.021 85.3737 423.021 85.7923C423.021 86.2297 422.927 86.6108 422.74 86.9357C422.552 87.2543 422.287 87.5011 421.943 87.6761C421.599 87.851 421.193 87.9385 420.725 87.9385ZM426.26 87.9385C425.51 87.9385 424.923 87.776 424.498 87.4511C424.079 87.1262 423.87 86.6764 423.87 86.1016C423.87 85.8017 423.929 85.5362 424.048 85.305C424.167 85.0738 424.332 84.8864 424.545 84.7427C424.763 84.5927 425.01 84.4928 425.285 84.4428V84.5084C425.041 84.4459 424.823 84.3428 424.629 84.1991C424.442 84.0492 424.295 83.8648 424.189 83.6462C424.082 83.4275 424.029 83.1869 424.029 82.9245C424.029 82.3747 424.229 81.9436 424.629 81.6312C425.035 81.3188 425.579 81.1626 426.26 81.1626C426.941 81.1626 427.484 81.3188 427.89 81.6312C428.297 81.9436 428.5 82.3747 428.5 82.9245C428.5 83.1869 428.443 83.4275 428.331 83.6462C428.225 83.8648 428.078 84.0492 427.89 84.1991C427.703 84.3428 427.484 84.4459 427.234 84.5084V84.4428C427.509 84.4865 427.753 84.5833 427.965 84.7333C428.178 84.8832 428.343 85.0738 428.462 85.305C428.587 85.5362 428.65 85.8017 428.65 86.1016C428.65 86.6764 428.437 87.1262 428.012 87.4511C427.594 87.776 427.01 87.9385 426.26 87.9385ZM426.26 87.1981C426.766 87.1981 427.15 87.1013 427.413 86.9076C427.675 86.7076 427.806 86.4171 427.806 86.036C427.806 85.6611 427.675 85.3768 427.413 85.1831C427.15 84.9832 426.766 84.8832 426.26 84.8832C425.76 84.8832 425.376 84.9832 425.107 85.1831C424.845 85.3768 424.713 85.6611 424.713 86.036C424.713 86.4171 424.845 86.7076 425.107 86.9076C425.376 87.1013 425.76 87.1981 426.26 87.1981ZM426.26 84.1335C426.697 84.1335 427.038 84.0367 427.281 83.843C427.525 83.643 427.647 83.365 427.647 83.0089C427.647 82.6652 427.525 82.3966 427.281 82.2029C427.038 82.003 426.697 81.903 426.26 81.903C425.829 81.903 425.491 82.003 425.248 82.2029C425.004 82.3966 424.882 82.6652 424.882 83.0089C424.882 83.3588 425.004 83.6337 425.248 83.8336C425.491 84.0335 425.829 84.1335 426.26 84.1335ZM429.696 87.8541V86.767H430.811V87.8541H429.696ZM434.25 87.9385C433.737 87.9385 433.306 87.8104 432.956 87.5542C432.606 87.2918 432.341 86.9107 432.16 86.4109C431.985 85.9048 431.897 85.2831 431.897 84.5459C431.897 83.8086 431.985 83.1901 432.16 82.6902C432.341 82.1842 432.606 81.803 432.956 81.5469C433.306 81.2907 433.737 81.1626 434.25 81.1626C434.768 81.1626 435.199 81.2907 435.543 81.5469C435.893 81.803 436.155 82.181 436.33 82.6809C436.511 83.1807 436.602 83.7992 436.602 84.5365C436.602 85.2737 436.511 85.8954 436.33 86.4015C436.155 86.9076 435.893 87.2918 435.543 87.5542C435.193 87.8104 434.762 87.9385 434.25 87.9385ZM434.25 87.1606C434.743 87.1606 435.109 86.9482 435.346 86.5233C435.59 86.0985 435.712 85.4362 435.712 84.5365C435.712 83.6368 435.593 82.9808 435.356 82.5684C435.118 82.1498 434.749 81.9405 434.25 81.9405C433.756 81.9405 433.387 82.1498 433.144 82.5684C432.906 82.987 432.788 83.6462 432.788 84.5459C432.788 85.4393 432.906 86.0985 433.144 86.5233C433.387 86.9482 433.756 87.1606 434.25 87.1606ZM439.869 87.9385C439.357 87.9385 438.926 87.8104 438.576 87.5542C438.226 87.2918 437.96 86.9107 437.779 86.4109C437.604 85.9048 437.517 85.2831 437.517 84.5459C437.517 83.8086 437.604 83.1901 437.779 82.6902C437.96 82.1842 438.226 81.803 438.576 81.5469C438.926 81.2907 439.357 81.1626 439.869 81.1626C440.388 81.1626 440.819 81.2907 441.162 81.5469C441.512 81.803 441.775 82.181 441.95 82.6809C442.131 83.1807 442.221 83.7992 442.221 84.5365C442.221 85.2737 442.131 85.8954 441.95 86.4015C441.775 86.9076 441.512 87.2918 441.162 87.5542C440.813 87.8104 440.381 87.9385 439.869 87.9385ZM439.869 87.1606C440.363 87.1606 440.728 86.9482 440.966 86.5233C441.209 86.0985 441.331 85.4362 441.331 84.5365C441.331 83.6368 441.212 82.9808 440.975 82.5684C440.738 82.1498 440.369 81.9405 439.869 81.9405C439.376 81.9405 439.007 82.1498 438.763 82.5684C438.526 82.987 438.407 83.6462 438.407 84.5459C438.407 85.4393 438.526 86.0985 438.763 86.5233C439.007 86.9482 439.376 87.1606 439.869 87.1606Z" fill="white"/>
</g>
<defs>
<filter id="filter0_d_4508_745" x="0.000337601" y="1.71661e-05" width="574.281" height="191.736" filterUnits="userSpaceOnUse" color-interpolation-filters="sRGB">
<feFlood flood-opacity="0" result="BackgroundImageFix"/>
<feColorMatrix in="SourceAlpha" type="matrix" values="0 0 0 0 0 0 0 0 0 0 0 0 0 0 0 0 0 0 127 0" result="hardAlpha"/>
<feOffset dy="12.0414"/>
<feGaussianBlur stdDeviation="14.8201"/>
<feComposite in2="hardAlpha" operator="out"/>
<feColorMatrix type="matrix" values="0 0 0 0 0 0 0 0 0 0 0 0 0 0 0 0 0 0 0.16 0"/>
<feBlend mode="normal" in2="BackgroundImageFix" result="effect1_dropShadow_4508_745"/>
<feBlend mode="normal" in="SourceGraphic" in2="effect1_dropShadow_4508_745" result="shape"/>
</filter>
<linearGradient id="paint0_linear_4508_745" x1="359.44" y1="52.2914" x2="358.567" y2="72.5564" gradientUnits="userSpaceOnUse">
<stop stop-color="#DF5858" stop-opacity="0.4"/>
<stop offset="1" stop-color="white" stop-opacity="0"/>
</linearGradient>
</defs>
</svg>
