<svg width="306" height="99" viewBox="0 0 306 99" fill="none" xmlns="http://www.w3.org/2000/svg">
<line x1="305.768" y1="10.6725" x2="1.02838" y2="10.6725" stroke="#B3B3B3" stroke-width="0.272706"/>
<line x1="305.768" y1="31.7449" x2="1.02838" y2="31.7449" stroke="#B3B3B3" stroke-width="0.272706"/>
<line x1="305.768" y1="52.8173" x2="1.02838" y2="52.8173" stroke="#B3B3B3" stroke-width="0.272706"/>
<line x1="305.768" y1="73.8897" x2="1.02838" y2="73.8897" stroke="#B3B3B3" stroke-width="0.272706"/>
<path d="M22.8298 22.0901L1.06723 29.259L-0.000425283 37.3248L304.337 49.3017L305.269 42.2656L257.561 29.9997C255.59 29.4927 253.488 29.4331 251.408 29.825L210.365 37.5566C207.576 38.082 204.766 37.7931 202.289 36.7263L190.781 31.7688C188.401 30.7434 185.71 30.4358 183.024 30.882L148.525 36.6119C145.777 37.0683 143.025 36.7357 140.607 35.6545L121.469 27.0979C118.724 25.8707 115.559 25.6119 112.468 26.3616L71.2234 36.364C68.1214 37.1163 64.9462 36.853 62.1953 35.6154L33.0426 22.5003C29.9276 21.099 26.283 20.9526 22.8298 22.0901Z" fill="url(#paint0_linear_4502_486)"/>
<path d="M0.906885 29.2346L22.677 22.079C26.124 20.946 29.7612 21.0921 32.8713 22.4885L62.0437 35.5862C64.7903 36.8194 67.9589 37.0819 71.0552 36.3327L112.314 26.35C115.4 25.6034 118.558 25.8615 121.299 27.0843L140.454 35.6311C142.868 36.7084 145.614 37.04 148.357 36.5856L182.87 30.8676C185.551 30.4234 188.237 30.73 190.613 31.7517L202.136 36.7057C204.608 37.7686 207.412 38.0567 210.196 37.5335L251.251 29.8186C253.327 29.4284 255.424 29.4879 257.392 29.993L305.109 42.239" stroke="#FFBC99" stroke-width="1.63623" stroke-linecap="round"/>
<path opacity="0.68" d="M1.27194 95.9959L1.20634 95.2086L1.89048 95.1711C2.09666 95.1587 2.27473 95.1087 2.42468 95.0212C2.57463 94.9337 2.69021 94.8088 2.77144 94.6463C2.85266 94.4839 2.89327 94.2933 2.89327 94.0746V89.3137H3.80234V94.1121C3.80234 94.4745 3.73049 94.79 3.58679 95.0587C3.44933 95.3273 3.24628 95.5398 2.97762 95.696C2.71521 95.8459 2.39656 95.9334 2.02169 95.9584L1.27194 95.9959ZM6.9988 96.0052C6.66766 96.0052 6.37089 95.9428 6.10848 95.8178C5.85231 95.6928 5.64926 95.5242 5.49931 95.3117C5.3556 95.0993 5.28375 94.8588 5.28375 94.5901C5.28375 94.2465 5.37747 93.9747 5.56491 93.7747C5.75859 93.5686 6.05849 93.4217 6.46461 93.3343C6.87697 93.2468 7.41117 93.2031 8.0672 93.2031H8.64825V93.7935H8.10468C7.7548 93.7935 7.4549 93.806 7.20498 93.831C6.96132 93.8497 6.76451 93.8872 6.61456 93.9434C6.46461 93.9997 6.35527 94.0778 6.28654 94.1777C6.21782 94.2715 6.18345 94.3933 6.18345 94.5432C6.18345 94.7869 6.27405 94.9806 6.45524 95.1243C6.63643 95.2617 6.87385 95.3305 7.1675 95.3305C7.42366 95.3305 7.65171 95.2711 7.85164 95.1524C8.05158 95.0337 8.2109 94.8744 8.32961 94.6744C8.45457 94.4745 8.51704 94.2558 8.51704 94.0184V92.95C8.51704 92.5939 8.42333 92.3377 8.23589 92.1815C8.0547 92.0191 7.77354 91.9379 7.39242 91.9379C7.12376 91.9379 6.8551 91.9753 6.58644 92.0503C6.31778 92.1253 6.03975 92.2503 5.75235 92.4252L5.47119 91.7692C5.65863 91.6567 5.86169 91.5599 6.08036 91.4786C6.29904 91.3974 6.52709 91.3349 6.76451 91.2912C7.00193 91.2412 7.23622 91.2162 7.4674 91.2162C7.87351 91.2162 8.22027 91.2818 8.50767 91.413C8.79508 91.5442 9.01375 91.7442 9.1637 92.0128C9.31365 92.2752 9.38863 92.6189 9.38863 93.0437V95.9209H8.58265V94.9087H8.61076C8.53579 95.1149 8.42333 95.3024 8.27338 95.471C8.12967 95.6397 7.94849 95.7709 7.72981 95.8647C7.51738 95.9584 7.27371 96.0052 6.9988 96.0052ZM10.9076 95.9209V91.3099H11.7604V92.294H11.723C11.8667 91.9504 12.0885 91.6848 12.3884 91.4974C12.6883 91.3099 13.0256 91.2162 13.4005 91.2162C13.7816 91.2162 14.0972 91.285 14.3471 91.4224C14.597 91.5599 14.7844 91.766 14.9094 92.0409C15.0343 92.3159 15.0968 92.6657 15.0968 93.0906V95.9209H14.1878V93.1375C14.1878 92.8813 14.1534 92.6689 14.0847 92.5002C14.0159 92.3252 13.9066 92.194 13.7566 92.1066C13.6129 92.0191 13.4193 91.9753 13.1756 91.9753C12.9069 91.9753 12.6695 92.0347 12.4633 92.1534C12.2571 92.2659 12.0947 92.4252 11.976 92.6314C11.8635 92.8376 11.8073 93.0719 11.8073 93.3343V95.9209H10.9076Z" fill="#636B7A"/>
<path opacity="0.68" d="M48.7947 95.9209V89.3137H53.0589V90.0822H49.7038V92.2284H52.8621V92.9969H49.7038V95.9209H48.7947ZM56.2204 96.0052C55.7018 96.0052 55.2551 95.9115 54.8802 95.7241C54.5116 95.5304 54.2273 95.2555 54.0274 94.8994C53.8275 94.537 53.7275 94.109 53.7275 93.6154C53.7275 93.1468 53.8212 92.7345 54.0086 92.3783C54.1961 92.016 54.4616 91.7317 54.8053 91.5255C55.1489 91.3193 55.5519 91.2162 56.0142 91.2162C56.4578 91.2162 56.8358 91.3131 57.1482 91.5068C57.4606 91.6942 57.698 91.9629 57.8605 92.3127C58.0292 92.6564 58.1135 93.0687 58.1135 93.5498V93.8497H54.421V93.2499H57.5137L57.345 93.4092C57.345 92.9219 57.2326 92.547 57.0076 92.2846C56.7827 92.0222 56.4578 91.891 56.033 91.891C55.7393 91.891 55.4832 91.9566 55.2645 92.0878C55.052 92.219 54.8865 92.4065 54.7678 92.6501C54.6491 92.8938 54.5897 93.1812 54.5897 93.5123V93.5967C54.5897 93.9716 54.6522 94.2839 54.7771 94.5339C54.9083 94.7775 55.0958 94.965 55.3394 95.0962C55.5894 95.2211 55.8861 95.2836 56.2298 95.2836C56.4859 95.2836 56.7452 95.2461 57.0076 95.1711C57.2701 95.0962 57.5137 94.9681 57.7386 94.7869L58.0292 95.4242C57.798 95.6179 57.5168 95.7647 57.1857 95.8647C56.8608 95.9584 56.539 96.0052 56.2204 96.0052ZM61.846 96.0052C61.4461 96.0052 61.0994 95.9084 60.8057 95.7147C60.5121 95.5148 60.3028 95.243 60.1778 94.8994H60.2059V95.9209H59.3625V89.3137H60.2622V92.2752H60.2247C60.3496 91.9504 60.5527 91.6942 60.8338 91.5068C61.1213 91.3131 61.4618 91.2162 61.8554 91.2162C62.2802 91.2162 62.6489 91.3162 62.9613 91.5161C63.2737 91.7161 63.5142 91.9941 63.6829 92.3502C63.8516 92.7064 63.9359 93.1281 63.9359 93.6154C63.9359 94.0903 63.8485 94.5089 63.6735 94.8713C63.5048 95.2336 63.2643 95.5148 62.9519 95.7147C62.6395 95.9084 62.2709 96.0052 61.846 96.0052ZM61.6398 95.2836C62.0709 95.2836 62.4114 95.1368 62.6614 94.8431C62.9113 94.5495 63.0362 94.1402 63.0362 93.6154C63.0362 93.0843 62.9113 92.6751 62.6614 92.3877C62.4114 92.0941 62.0709 91.9472 61.6398 91.9472C61.215 91.9472 60.8776 92.0941 60.6277 92.3877C60.3777 92.6751 60.2528 93.0843 60.2528 93.6154C60.2528 94.1402 60.3777 94.5495 60.6277 94.8431C60.8776 95.1368 61.215 95.2836 61.6398 95.2836Z" fill="#636B7A"/>
<path opacity="0.68" d="M97.4083 95.9209V89.3137H98.3361L100.763 94.0278H100.623L103.05 89.3137H103.959V95.9209H103.106V90.6071H103.209L100.998 94.8806H100.379L98.158 90.6071H98.2611V95.9209H97.4083ZM107.169 96.0052C106.838 96.0052 106.541 95.9428 106.279 95.8178C106.023 95.6928 105.82 95.5242 105.67 95.3117C105.526 95.0993 105.454 94.8588 105.454 94.5901C105.454 94.2465 105.548 93.9747 105.735 93.7747C105.929 93.5686 106.229 93.4217 106.635 93.3343C107.048 93.2468 107.582 93.2031 108.238 93.2031H108.819V93.7935H108.275C107.925 93.7935 107.625 93.806 107.376 93.831C107.132 93.8497 106.935 93.8872 106.785 93.9434C106.635 93.9997 106.526 94.0778 106.457 94.1777C106.388 94.2715 106.354 94.3933 106.354 94.5432C106.354 94.7869 106.445 94.9806 106.626 95.1243C106.807 95.2617 107.044 95.3305 107.338 95.3305C107.594 95.3305 107.822 95.2711 108.022 95.1524C108.222 95.0337 108.381 94.8744 108.5 94.6744C108.625 94.4745 108.688 94.2558 108.688 94.0184V92.95C108.688 92.5939 108.594 92.3377 108.406 92.1815C108.225 92.0191 107.944 91.9379 107.563 91.9379C107.294 91.9379 107.026 91.9753 106.757 92.0503C106.488 92.1253 106.21 92.2503 105.923 92.4252L105.642 91.7692C105.829 91.6567 106.032 91.5599 106.251 91.4786C106.47 91.3974 106.698 91.3349 106.935 91.2912C107.172 91.2412 107.407 91.2162 107.638 91.2162C108.044 91.2162 108.391 91.2818 108.678 91.413C108.966 91.5442 109.184 91.7442 109.334 92.0128C109.484 92.2752 109.559 92.6189 109.559 93.0437V95.9209H108.753V94.9087H108.781C108.706 95.1149 108.594 95.3024 108.444 95.471C108.3 95.6397 108.119 95.7709 107.9 95.8647C107.688 95.9584 107.444 96.0052 107.169 96.0052ZM111.078 95.9209V91.3099H111.912V92.3971H111.884C111.997 92.0409 112.187 91.766 112.456 91.5724C112.731 91.3724 113.074 91.2568 113.487 91.2256L113.871 91.2069L113.955 92.0128L113.299 92.0691C112.881 92.1066 112.556 92.244 112.325 92.4814C112.1 92.7126 111.987 93.0156 111.987 93.3905V95.9209H111.078Z" fill="#636B7A"/>
<path opacity="0.68" d="M146.299 95.9209L149.223 89.3137H150.02L152.944 95.9209H151.997L151.191 94.0465L151.622 94.3183H147.611L148.033 94.0465L147.236 95.9209H146.299ZM149.598 90.3353L148.145 93.756L147.92 93.5592H151.313L151.079 93.756L149.635 90.3353H149.598ZM153.926 97.6078V91.3006H154.77V92.3221H154.742C154.867 91.9785 155.076 91.7098 155.37 91.5161C155.669 91.3162 156.019 91.2162 156.419 91.2162C156.838 91.2162 157.203 91.3162 157.516 91.5161C157.828 91.7161 158.069 91.9941 158.237 92.3502C158.412 92.7064 158.5 93.1281 158.5 93.6154C158.5 94.0903 158.415 94.5089 158.247 94.8713C158.078 95.2274 157.838 95.5054 157.525 95.7053C157.213 95.9053 156.844 96.0052 156.419 96.0052C156.026 96.0052 155.685 95.9084 155.398 95.7147C155.117 95.521 154.913 95.2649 154.789 94.9462H154.826V97.6078H153.926ZM156.204 95.2836C156.635 95.2836 156.975 95.1368 157.225 94.8431C157.475 94.5432 157.6 94.1309 157.6 93.606C157.6 93.0812 157.475 92.6751 157.225 92.3877C156.975 92.0941 156.635 91.9472 156.204 91.9472C155.779 91.9472 155.441 92.0941 155.192 92.3877C154.942 92.6751 154.817 93.0812 154.817 93.606C154.817 94.1309 154.942 94.5432 155.192 94.8431C155.441 95.1368 155.779 95.2836 156.204 95.2836ZM159.765 95.9209V91.3099H160.6V92.3971H160.571C160.684 92.0409 160.874 91.766 161.143 91.5724C161.418 91.3724 161.762 91.2568 162.174 91.2256L162.558 91.2069L162.643 92.0128L161.987 92.0691C161.568 92.1066 161.243 92.244 161.012 92.4814C160.787 92.7126 160.675 93.0156 160.675 93.3905V95.9209H159.765Z" fill="#636B7A"/>
<path opacity="0.68" d="M195.58 95.9209V89.3137H196.508L198.935 94.0278H198.795L201.222 89.3137H202.131V95.9209H201.278V90.6071H201.381L199.17 94.8806H198.551L196.33 90.6071H196.433V95.9209H195.58ZM205.341 96.0052C205.01 96.0052 204.713 95.9428 204.451 95.8178C204.195 95.6928 203.992 95.5242 203.842 95.3117C203.698 95.0993 203.626 94.8588 203.626 94.5901C203.626 94.2465 203.72 93.9747 203.907 93.7747C204.101 93.5686 204.401 93.4217 204.807 93.3343C205.22 93.2468 205.754 93.2031 206.41 93.2031H206.991V93.7935H206.447C206.097 93.7935 205.797 93.806 205.548 93.831C205.304 93.8497 205.107 93.8872 204.957 93.9434C204.807 93.9997 204.698 94.0778 204.629 94.1777C204.56 94.2715 204.526 94.3933 204.526 94.5432C204.526 94.7869 204.617 94.9806 204.798 95.1243C204.979 95.2617 205.216 95.3305 205.51 95.3305C205.766 95.3305 205.994 95.2711 206.194 95.1524C206.394 95.0337 206.553 94.8744 206.672 94.6744C206.797 94.4745 206.86 94.2558 206.86 94.0184V92.95C206.86 92.5939 206.766 92.3377 206.578 92.1815C206.397 92.0191 206.116 91.9379 205.735 91.9379C205.466 91.9379 205.198 91.9753 204.929 92.0503C204.66 92.1253 204.382 92.2503 204.095 92.4252L203.814 91.7692C204.001 91.6567 204.204 91.5599 204.423 91.4786C204.642 91.3974 204.87 91.3349 205.107 91.2912C205.344 91.2412 205.579 91.2162 205.81 91.2162C206.216 91.2162 206.563 91.2818 206.85 91.413C207.138 91.5442 207.356 91.7442 207.506 92.0128C207.656 92.2752 207.731 92.6189 207.731 93.0437V95.9209H206.925V94.9087H206.953C206.878 95.1149 206.766 95.3024 206.616 95.471C206.472 95.6397 206.291 95.7709 206.072 95.8647C205.86 95.9584 205.616 96.0052 205.341 96.0052ZM209.739 97.6078L210.62 95.6023V96.1646L208.558 91.3099H209.532L211.032 95.0962H210.91L212.419 91.3099H213.356L210.676 97.6078H209.739Z" fill="#636B7A"/>
<path opacity="0.68" d="M245.344 95.9959L245.279 95.2086L245.963 95.1711C246.169 95.1587 246.347 95.1087 246.497 95.0212C246.647 94.9337 246.763 94.8088 246.844 94.6463C246.925 94.4839 246.966 94.2933 246.966 94.0746V89.3137H247.875V94.1121C247.875 94.4745 247.803 94.79 247.659 95.0587C247.522 95.3273 247.319 95.5398 247.05 95.696C246.788 95.8459 246.469 95.9334 246.094 95.9584L245.344 95.9959ZM251.24 96.0052C250.865 96.0052 250.55 95.9365 250.293 95.7991C250.037 95.6616 249.844 95.4554 249.712 95.1805C249.587 94.9056 249.525 94.562 249.525 94.1496V91.3099H250.425V94.1215C250.425 94.3589 250.459 94.5651 250.528 94.74C250.596 94.9087 250.706 95.0368 250.856 95.1243C251.012 95.2118 251.209 95.2555 251.446 95.2555C251.702 95.2555 251.927 95.1961 252.121 95.0774C252.321 94.9587 252.477 94.7963 252.59 94.5901C252.702 94.3839 252.758 94.1559 252.758 93.9059V91.3099H253.658V95.9209H252.805V94.9087H252.852C252.708 95.2586 252.499 95.5304 252.224 95.7241C251.949 95.9115 251.621 96.0052 251.24 96.0052ZM255.191 95.9209V91.3099H256.043V92.294H256.006C256.15 91.9504 256.371 91.6848 256.671 91.4974C256.971 91.3099 257.309 91.2162 257.683 91.2162C258.065 91.2162 258.38 91.285 258.63 91.4224C258.88 91.5599 259.067 91.766 259.192 92.0409C259.317 92.3159 259.38 92.6657 259.38 93.0906V95.9209H258.471V93.1375C258.471 92.8813 258.436 92.6689 258.368 92.5002C258.299 92.3252 258.19 92.194 258.04 92.1066C257.896 92.0191 257.702 91.9753 257.459 91.9753C257.19 91.9753 256.952 92.0347 256.746 92.1534C256.54 92.2659 256.378 92.4252 256.259 92.6314C256.147 92.8376 256.09 93.0719 256.09 93.3343V95.9209H255.191Z" fill="#636B7A"/>
<path opacity="0.68" d="M292.334 95.9959L292.268 95.2086L292.952 95.1711C293.158 95.1587 293.337 95.1087 293.486 95.0212C293.636 94.9337 293.752 94.8088 293.833 94.6463C293.914 94.4839 293.955 94.2933 293.955 94.0746V89.3137H294.864V94.1121C294.864 94.4745 294.792 94.79 294.649 95.0587C294.511 95.3273 294.308 95.5398 294.039 95.696C293.777 95.8459 293.458 95.9334 293.083 95.9584L292.334 95.9959ZM298.229 96.0052C297.854 96.0052 297.539 95.9365 297.283 95.7991C297.027 95.6616 296.833 95.4554 296.702 95.1805C296.577 94.9056 296.514 94.562 296.514 94.1496V91.3099H297.414V94.1215C297.414 94.3589 297.448 94.5651 297.517 94.74C297.586 94.9087 297.695 95.0368 297.845 95.1243C298.001 95.2118 298.198 95.2555 298.435 95.2555C298.692 95.2555 298.917 95.1961 299.11 95.0774C299.31 94.9587 299.466 94.7963 299.579 94.5901C299.691 94.3839 299.748 94.1559 299.748 93.9059V91.3099H300.647V95.9209H299.794V94.9087H299.841C299.698 95.2586 299.488 95.5304 299.213 95.7241C298.938 95.9115 298.61 96.0052 298.229 96.0052ZM303.633 96.0052C303.158 96.0052 302.795 95.8709 302.545 95.6023C302.302 95.3273 302.18 94.94 302.18 94.4401V89.3137H303.08V94.3652C303.08 94.5589 303.108 94.7244 303.164 94.8619C303.22 94.9931 303.301 95.0931 303.408 95.1618C303.52 95.2305 303.654 95.2649 303.811 95.2649C303.892 95.2649 303.97 95.2617 304.045 95.2555C304.126 95.243 304.207 95.2243 304.289 95.1993L304.298 95.9115C304.192 95.9428 304.085 95.9646 303.979 95.9771C303.873 95.9959 303.757 96.0052 303.633 96.0052Z" fill="#636B7A"/>
<rect x="184.428" y="48.1926" width="48.0402" height="14.8201" rx="3.15435" fill="#FFBC99"/>
<path d="M208.448 45.2777L212.389 49.2227L204.507 49.2227L208.448 45.2777Z" fill="#FFBC99"/>
<path d="M192.479 59.3004V58.0165L192.666 58.1852C192.216 58.1789 191.791 58.1164 191.392 57.9977C190.992 57.8728 190.642 57.6822 190.342 57.426L190.651 56.7138C190.851 56.87 191.057 57.0012 191.27 57.1074C191.482 57.2074 191.71 57.2855 191.954 57.3417C192.204 57.3917 192.472 57.4167 192.76 57.4167C193.272 57.4167 193.65 57.3198 193.894 57.1261C194.144 56.9325 194.269 56.6888 194.269 56.3951C194.269 56.1202 194.175 55.9078 193.988 55.7579C193.806 55.6079 193.516 55.4986 193.116 55.4298L192.16 55.2518C191.604 55.1456 191.185 54.955 190.904 54.6801C190.623 54.4052 190.482 54.0272 190.482 53.5461C190.482 53.1962 190.57 52.8838 190.745 52.6089C190.926 52.3278 191.176 52.106 191.495 51.9435C191.819 51.7748 192.194 51.6811 192.619 51.6624L192.479 51.7936V50.5377H193.219V51.7936L193.069 51.6624C193.413 51.6749 193.756 51.7467 194.1 51.8779C194.444 52.0029 194.734 52.1903 194.972 52.4402L194.672 53.1244C194.428 52.8869 194.153 52.712 193.847 52.5995C193.547 52.4808 193.21 52.4215 192.835 52.4215C192.385 52.4215 192.026 52.5277 191.757 52.7401C191.495 52.9463 191.363 53.215 191.363 53.5461C191.363 53.8148 191.445 54.0272 191.607 54.1834C191.776 54.3333 192.048 54.4427 192.422 54.5114L193.378 54.6801C193.984 54.7926 194.431 54.9894 194.719 55.2705C195.012 55.5454 195.159 55.9109 195.159 56.367C195.159 56.7169 195.068 57.0231 194.887 57.2855C194.706 57.5416 194.459 57.7478 194.147 57.904C193.834 58.054 193.472 58.1446 193.06 58.1758L193.219 58.0071V59.3004H192.479ZM197.939 58.307C197.701 58.307 197.467 58.2789 197.236 58.2227C197.005 58.1664 196.786 58.0821 196.58 57.9696C196.38 57.8509 196.196 57.7072 196.027 57.5385L196.364 56.845C196.608 57.0949 196.861 57.2699 197.123 57.3698C197.392 57.4698 197.667 57.5198 197.948 57.5198C198.248 57.5198 198.51 57.4635 198.735 57.3511C198.967 57.2386 199.16 57.073 199.316 56.8544C199.479 56.6357 199.601 56.3639 199.682 56.039C199.763 55.7141 199.804 55.3392 199.804 54.9144V54.2865H199.832C199.782 54.5926 199.673 54.8582 199.504 55.0831C199.335 55.308 199.123 55.4798 198.867 55.5985C198.617 55.7172 198.339 55.7766 198.032 55.7766C197.645 55.7766 197.298 55.6891 196.992 55.5142C196.692 55.333 196.455 55.0862 196.28 54.7738C196.111 54.4614 196.027 54.1022 196.027 53.696C196.027 53.2712 196.118 52.8963 196.299 52.5714C196.48 52.2465 196.73 51.9935 197.048 51.8123C197.373 51.6249 197.742 51.5311 198.154 51.5311C198.698 51.5311 199.154 51.6592 199.523 51.9154C199.891 52.1653 200.169 52.5339 200.357 53.0213C200.55 53.5024 200.647 54.0897 200.647 54.7832C200.647 55.5329 200.538 56.1702 200.319 56.695C200.107 57.2199 199.801 57.6197 199.401 57.8946C199.001 58.1695 198.514 58.307 197.939 58.307ZM198.211 55.0269C198.473 55.0269 198.704 54.9706 198.904 54.8582C199.11 54.7394 199.27 54.577 199.382 54.3708C199.501 54.1646 199.56 53.9272 199.56 53.6586C199.56 53.3837 199.504 53.1431 199.391 52.9369C199.279 52.7307 199.12 52.5714 198.913 52.459C198.714 52.3403 198.476 52.2809 198.201 52.2809C197.939 52.2809 197.708 52.3403 197.508 52.459C197.308 52.5777 197.152 52.7401 197.039 52.9463C196.933 53.1462 196.88 53.3837 196.88 53.6586C196.88 53.9335 196.936 54.174 197.048 54.3802C197.161 54.5864 197.317 54.7457 197.517 54.8582C197.717 54.9706 197.948 55.0269 198.211 55.0269ZM204.083 58.307C203.796 58.307 203.518 58.2758 203.249 58.2133C202.98 58.1508 202.727 58.0602 202.49 57.9415C202.259 57.8228 202.052 57.6791 201.871 57.5104L202.209 56.8075C202.496 57.0512 202.793 57.2324 203.099 57.3511C203.405 57.4635 203.73 57.5198 204.074 57.5198C204.517 57.5198 204.864 57.4042 205.114 57.173C205.37 56.9356 205.498 56.6107 205.498 56.1983C205.498 55.786 205.379 55.4548 205.142 55.2049C204.905 54.955 204.577 54.83 204.158 54.83C203.864 54.83 203.602 54.8894 203.371 55.0081C203.146 55.1206 202.94 55.3018 202.752 55.5517H202.068V51.6155H206.032V52.3934H202.912V54.8113H202.808C202.958 54.5801 203.168 54.3989 203.436 54.2677C203.705 54.1303 204.002 54.0616 204.327 54.0616C204.745 54.0616 205.108 54.1521 205.414 54.3333C205.72 54.5083 205.957 54.7519 206.126 55.0643C206.295 55.3767 206.379 55.7422 206.379 56.1608C206.379 56.5982 206.285 56.9793 206.098 57.3042C205.911 57.6229 205.645 57.8696 205.301 58.0446C204.958 58.2195 204.552 58.307 204.083 58.307ZM209.618 58.307C208.868 58.307 208.281 58.1446 207.856 57.8197C207.438 57.4948 207.228 57.0449 207.228 56.4701C207.228 56.1702 207.288 55.9047 207.406 55.6735C207.525 55.4423 207.691 55.2549 207.903 55.1112C208.122 54.9612 208.369 54.8613 208.643 54.8113V54.8769C208.4 54.8144 208.181 54.7113 207.987 54.5676C207.8 54.4177 207.653 54.2334 207.547 54.0147C207.441 53.796 207.388 53.5555 207.388 53.2931C207.388 52.7432 207.588 52.3121 207.987 51.9997C208.394 51.6873 208.937 51.5311 209.618 51.5311C210.299 51.5311 210.843 51.6873 211.249 51.9997C211.655 52.3121 211.858 52.7432 211.858 53.2931C211.858 53.5555 211.802 53.796 211.689 54.0147C211.583 54.2334 211.436 54.4177 211.249 54.5676C211.061 54.7113 210.843 54.8144 210.593 54.8769V54.8113C210.868 54.855 211.111 54.9519 211.324 55.1018C211.536 55.2518 211.702 55.4423 211.821 55.6735C211.946 55.9047 212.008 56.1702 212.008 56.4701C212.008 57.0449 211.796 57.4948 211.371 57.8197C210.952 58.1446 210.368 58.307 209.618 58.307ZM209.618 57.5666C210.124 57.5666 210.508 57.4698 210.771 57.2761C211.033 57.0762 211.165 56.7856 211.165 56.4045C211.165 56.0296 211.033 55.7454 210.771 55.5517C210.508 55.3517 210.124 55.2518 209.618 55.2518C209.118 55.2518 208.734 55.3517 208.465 55.5517C208.203 55.7454 208.072 56.0296 208.072 56.4045C208.072 56.7856 208.203 57.0762 208.465 57.2761C208.734 57.4698 209.118 57.5666 209.618 57.5666ZM209.618 54.502C210.056 54.502 210.396 54.4052 210.64 54.2115C210.883 54.0116 211.005 53.7335 211.005 53.3774C211.005 53.0338 210.883 52.7651 210.64 52.5714C210.396 52.3715 210.056 52.2715 209.618 52.2715C209.187 52.2715 208.85 52.3715 208.606 52.5714C208.362 52.7651 208.24 53.0338 208.24 53.3774C208.24 53.7273 208.362 54.0022 208.606 54.2021C208.85 54.4021 209.187 54.502 209.618 54.502ZM213.054 58.2227V57.1355H214.169V58.2227H213.054ZM217.608 58.307C217.096 58.307 216.665 58.1789 216.315 57.9228C215.965 57.6603 215.699 57.2792 215.518 56.7794C215.343 56.2733 215.256 55.6516 215.256 54.9144C215.256 54.1771 215.343 53.5586 215.518 53.0588C215.699 52.5527 215.965 52.1716 216.315 51.9154C216.665 51.6592 217.096 51.5311 217.608 51.5311C218.127 51.5311 218.558 51.6592 218.901 51.9154C219.251 52.1716 219.514 52.5496 219.689 53.0494C219.87 53.5492 219.96 54.1678 219.96 54.905C219.96 55.6423 219.87 56.2639 219.689 56.77C219.514 57.2761 219.251 57.6603 218.901 57.9228C218.551 58.1789 218.12 58.307 217.608 58.307ZM217.608 57.5291C218.102 57.5291 218.467 57.3167 218.705 56.8919C218.948 56.467 219.07 55.8047 219.07 54.905C219.07 54.0053 218.951 53.3493 218.714 52.9369C218.476 52.5183 218.108 52.309 217.608 52.309C217.114 52.309 216.746 52.5183 216.502 52.9369C216.265 53.3555 216.146 54.0147 216.146 54.9144C216.146 55.8078 216.265 56.467 216.502 56.8919C216.746 57.3167 217.114 57.5291 217.608 57.5291ZM223.227 58.307C222.715 58.307 222.284 58.1789 221.934 57.9228C221.584 57.6603 221.319 57.2792 221.138 56.7794C220.963 56.2733 220.875 55.6516 220.875 54.9144C220.875 54.1771 220.963 53.5586 221.138 53.0588C221.319 52.5527 221.584 52.1716 221.934 51.9154C222.284 51.6592 222.715 51.5311 223.227 51.5311C223.746 51.5311 224.177 51.6592 224.521 51.9154C224.871 52.1716 225.133 52.5496 225.308 53.0494C225.489 53.5492 225.58 54.1678 225.58 54.905C225.58 55.6423 225.489 56.2639 225.308 56.77C225.133 57.2761 224.871 57.6603 224.521 57.9228C224.171 58.1789 223.74 58.307 223.227 58.307ZM223.227 57.5291C223.721 57.5291 224.087 57.3167 224.324 56.8919C224.568 56.467 224.689 55.8047 224.689 54.905C224.689 54.0053 224.571 53.3493 224.333 52.9369C224.096 52.5183 223.727 52.309 223.227 52.309C222.734 52.309 222.365 52.5183 222.122 52.9369C221.884 53.3555 221.765 54.0147 221.765 54.9144C221.765 55.8078 221.884 56.467 222.122 56.8919C222.365 57.3167 222.734 57.5291 223.227 57.5291Z" fill="white"/>
<defs>
<linearGradient id="paint0_linear_4502_486" x1="142.797" y1="22.66" x2="141.925" y2="42.9249" gradientUnits="userSpaceOnUse">
<stop stop-color="#DF5858" stop-opacity="0.4"/>
<stop offset="1" stop-color="white" stop-opacity="0"/>
</linearGradient>
</defs>
</svg>
