<svg width="326" height="79" viewBox="0 0 326 79" fill="none" xmlns="http://www.w3.org/2000/svg">
<rect x="13.2285" y="0.00012207" width="54.2152" height="18.6446" rx="3.30581" fill="white"/>
<path d="M18.4492 13.3224V12.5444L21.1057 9.69892C21.3576 9.42475 21.5577 9.17281 21.7059 8.9431C21.8615 8.71338 21.9727 8.49108 22.0393 8.27619C22.1134 8.05389 22.1505 7.83159 22.1505 7.60928C22.1505 7.1795 22.0171 6.85346 21.7504 6.63115C21.491 6.40885 21.1131 6.2977 20.6166 6.2977C20.2387 6.2977 19.8756 6.3681 19.5273 6.50889C19.1791 6.64968 18.8493 6.86828 18.5381 7.16468L18.1602 6.36439C18.464 6.06799 18.8419 5.83087 19.2939 5.65302C19.7459 5.47518 20.2202 5.38626 20.7167 5.38626C21.2502 5.38626 21.6985 5.47148 22.0616 5.64191C22.4321 5.80493 22.7137 6.04576 22.9063 6.36439C23.099 6.68302 23.1953 7.06835 23.1953 7.52036C23.1953 7.75748 23.1657 7.9909 23.1064 8.22061C23.0545 8.44292 22.9693 8.66522 22.8508 8.88752C22.7396 9.10982 22.5951 9.33954 22.4173 9.57666C22.2468 9.80637 22.0431 10.0472 21.8059 10.2991L19.5496 12.6778V12.4332H23.5065V13.3224H18.4492ZM24.736 13.3224V12.0776H26.0031V13.3224H24.736ZM29.9182 13.4225C29.029 13.4225 28.3362 13.2298 27.8397 12.8445C27.3432 12.4592 27.095 11.9257 27.095 11.2439C27.095 10.8734 27.1691 10.5511 27.3173 10.2769C27.4655 9.99533 27.6693 9.76561 27.9286 9.58777C28.188 9.40993 28.4881 9.29878 28.8289 9.25432V9.39882C28.5251 9.32471 28.2547 9.19874 28.0175 9.0209C27.7804 8.84306 27.5989 8.62076 27.4729 8.354C27.3469 8.08723 27.2839 7.79454 27.2839 7.4759C27.2839 6.82382 27.5211 6.31252 27.9953 5.94202C28.477 5.57151 29.1179 5.38626 29.9182 5.38626C30.7259 5.38626 31.3669 5.57151 31.8411 5.94202C32.3228 6.31252 32.5636 6.82382 32.5636 7.4759C32.5636 7.79454 32.4969 8.08723 32.3635 8.354C32.2376 8.62076 32.056 8.84306 31.8189 9.0209C31.5892 9.19874 31.3187 9.32101 31.0075 9.3877V9.25432C31.3558 9.29878 31.6596 9.40993 31.9189 9.58777C32.1783 9.76561 32.3784 9.99533 32.5192 10.2769C32.6674 10.5585 32.7415 10.8808 32.7415 11.2439C32.7415 11.9257 32.4932 12.4592 31.9967 12.8445C31.5003 13.2298 30.8074 13.4225 29.9182 13.4225ZM29.9182 12.5666C30.5258 12.5666 30.9816 12.4518 31.2854 12.2221C31.5966 11.9849 31.7522 11.6367 31.7522 11.1772C31.7522 10.7104 31.5966 10.3621 31.2854 10.1324C30.9742 9.89529 30.5184 9.77673 29.9182 9.77673C29.318 9.77673 28.8623 9.89529 28.5511 10.1324C28.2398 10.3621 28.0842 10.7104 28.0842 11.1772C28.0842 11.6367 28.2398 11.9849 28.5511 12.2221C28.8623 12.4518 29.318 12.5666 29.9182 12.5666ZM29.9182 8.92087C30.4369 8.92087 30.8408 8.8023 31.1298 8.56518C31.4262 8.32806 31.5744 7.99831 31.5744 7.57594C31.5744 7.15356 31.4262 6.82752 31.1298 6.59781C30.8408 6.36069 30.4369 6.24212 29.9182 6.24212C29.4069 6.24212 29.0031 6.36069 28.7067 6.59781C28.4177 6.82752 28.2732 7.15356 28.2732 7.57594C28.2732 7.99831 28.4177 8.32806 28.7067 8.56518C29.0031 8.8023 29.4069 8.92087 29.9182 8.92087ZM33.2373 13.3224L36.3162 9.10982V9.52108L33.3707 5.4863H34.5933L36.9386 8.76525H36.6719L39.006 5.4863H40.2398L37.2832 9.52108V9.10982L40.3621 13.3224H39.1283L36.6385 9.85454H36.9609L34.4711 13.3224H33.2373Z" fill="#5172E7"/>
<path d="M47.7202 11.3224V6.75043H45.8603V6.09835H50.3212V6.75043H48.4686V11.3224H47.7202ZM53.0189 11.3224L50.7588 6.09835H51.5591L53.3672 10.4184H53.3375L55.1382 6.09835H55.9385L53.671 11.3224H53.0189ZM56.866 11.3224V6.09835H59.0742C59.4496 6.09835 59.7707 6.16257 60.0375 6.29101C60.3043 6.41451 60.5068 6.59482 60.6451 6.83195C60.7884 7.06907 60.86 7.35559 60.86 7.69151C60.86 8.01756 60.7884 8.30161 60.6451 8.54367C60.5019 8.78573 60.2968 8.97346 60.0301 9.10684C59.7683 9.23528 59.4496 9.2995 59.0742 9.2995H57.6144V11.3224H56.866ZM57.6144 8.66964H58.963C59.3385 8.66964 59.6225 8.5906 59.8152 8.43252C60.0128 8.2695 60.1116 8.02497 60.1116 7.69892C60.1116 7.36794 60.0153 7.12341 59.8226 6.96533C59.6299 6.80724 59.3434 6.7282 58.963 6.7282H57.6144V8.66964ZM62.1954 11.3224V6.09835H62.9439V11.3224H62.1954Z" fill="#A6A6A6"/>
<mask id="path-4-inside-1_4502_432" fill="white">
<path d="M21.3491 43.8036C21.3491 46.2363 21.8282 48.6453 22.7592 50.8928C23.6902 53.1404 25.0547 55.1826 26.775 56.9028C28.4952 58.6231 30.5374 59.9876 32.785 60.9186C35.0325 61.8496 37.4415 62.3287 39.8742 62.3287V53.0661C38.6579 53.0661 37.4534 52.8266 36.3296 52.3611C35.2058 51.8956 34.1847 51.2133 33.3246 50.3532C32.4645 49.4931 31.7822 48.472 31.3167 47.3482C30.8512 46.2244 30.6117 45.0199 30.6117 43.8036H21.3491Z"/>
</mask>
<path d="M21.3491 43.8036C21.3491 46.2363 21.8282 48.6453 22.7592 50.8928C23.6902 53.1404 25.0547 55.1826 26.775 56.9028C28.4952 58.6231 30.5374 59.9876 32.785 60.9186C35.0325 61.8496 37.4415 62.3287 39.8742 62.3287V53.0661C38.6579 53.0661 37.4534 52.8266 36.3296 52.3611C35.2058 51.8956 34.1847 51.2133 33.3246 50.3532C32.4645 49.4931 31.7822 48.472 31.3167 47.3482C30.8512 46.2244 30.6117 45.0199 30.6117 43.8036H21.3491Z" stroke="white" stroke-width="1.57661" mask="url(#path-4-inside-1_4502_432)"/>
<mask id="path-5-inside-2_4502_432" fill="white">
<path d="M39.8738 25.2784C37.441 25.2784 35.0321 25.7576 32.7845 26.6885C30.537 27.6195 28.4948 28.9841 26.7745 30.7043C25.0543 32.4245 23.6898 34.4667 22.7588 36.7143C21.8278 38.9619 21.3486 41.3708 21.3486 43.8036L30.6112 43.8036C30.6112 42.5872 30.8508 41.3827 31.3163 40.2589C31.7818 39.1351 32.4641 38.114 33.3242 37.2539C34.1843 36.3938 35.2054 35.7115 36.3292 35.246C37.453 34.7806 38.6574 34.541 39.8738 34.541L39.8738 25.2784Z"/>
</mask>
<path d="M39.8738 25.2784C37.441 25.2784 35.0321 25.7576 32.7845 26.6885C30.537 27.6195 28.4948 28.9841 26.7745 30.7043C25.0543 32.4245 23.6898 34.4667 22.7588 36.7143C21.8278 38.9619 21.3486 41.3708 21.3486 43.8036L30.6112 43.8036C30.6112 42.5872 30.8508 41.3827 31.3163 40.2589C31.7818 39.1351 32.4641 38.114 33.3242 37.2539C34.1843 36.3938 35.2054 35.7115 36.3292 35.246C37.453 34.7806 38.6574 34.541 39.8738 34.541L39.8738 25.2784Z" fill="#5172E7" stroke="white" stroke-width="1.57661" mask="url(#path-5-inside-2_4502_432)"/>
<mask id="path-6-inside-3_4502_432" fill="white">
<path d="M58.399 43.8036C58.399 41.3708 57.9198 38.9619 56.9888 36.7143C56.0579 34.4667 54.6933 32.4245 52.9731 30.7043C51.2529 28.9841 49.2107 27.6195 46.9631 26.6885C44.7155 25.7576 42.3066 25.2784 39.8738 25.2784L39.8738 34.541C41.0902 34.541 42.2947 34.7806 43.4184 35.246C44.5422 35.7115 45.5633 36.3938 46.4234 37.2539C47.2836 38.114 47.9658 39.1351 48.4313 40.2589C48.8968 41.3827 49.1364 42.5872 49.1364 43.8036L58.399 43.8036Z"/>
</mask>
<path d="M58.399 43.8036C58.399 41.3708 57.9198 38.9619 56.9888 36.7143C56.0579 34.4667 54.6933 32.4245 52.9731 30.7043C51.2529 28.9841 49.2107 27.6195 46.9631 26.6885C44.7155 25.7576 42.3066 25.2784 39.8738 25.2784L39.8738 34.541C41.0902 34.541 42.2947 34.7806 43.4184 35.246C44.5422 35.7115 45.5633 36.3938 46.4234 37.2539C47.2836 38.114 47.9658 39.1351 48.4313 40.2589C48.8968 41.3827 49.1364 42.5872 49.1364 43.8036L58.399 43.8036Z" stroke="white" stroke-width="1.57661" mask="url(#path-6-inside-3_4502_432)"/>
<mask id="path-7-inside-4_4502_432" fill="white">
<path d="M39.8742 62.3287C42.307 62.3287 44.7159 61.8496 46.9635 60.9186C49.2111 59.9876 51.2533 58.6231 52.9735 56.9028C54.6937 55.1826 56.0583 53.1404 56.9893 50.8928C57.9202 48.6453 58.3994 46.2363 58.3994 43.8036L49.1368 43.8036C49.1368 45.0199 48.8972 46.2244 48.4318 47.3482C47.9663 48.472 47.284 49.4931 46.4239 50.3532C45.5638 51.2133 44.5427 51.8956 43.4189 52.3611C42.2951 52.8266 41.0906 53.0661 39.8742 53.0661L39.8742 62.3287Z"/>
</mask>
<path d="M39.8742 62.3287C42.307 62.3287 44.7159 61.8496 46.9635 60.9186C49.2111 59.9876 51.2533 58.6231 52.9735 56.9028C54.6937 55.1826 56.0583 53.1404 56.9893 50.8928C57.9202 48.6453 58.3994 46.2363 58.3994 43.8036L49.1368 43.8036C49.1368 45.0199 48.8972 46.2244 48.4318 47.3482C47.9663 48.472 47.284 49.4931 46.4239 50.3532C45.5638 51.2133 44.5427 51.8956 43.4189 52.3611C42.2951 52.8266 41.0906 53.0661 39.8742 53.0661L39.8742 62.3287Z" stroke="white" stroke-width="1.57661" mask="url(#path-7-inside-4_4502_432)"/>
<rect width="3.94153" height="35.4737" transform="translate(37.9053 26.0671)" fill="white"/>
<rect x="57.1143" y="43.1204" width="2.94153" height="34.4737" transform="rotate(90 57.1143 43.1204)" fill="white"/>
<rect x="57.1143" y="43.1204" width="2.94153" height="34.4737" transform="rotate(90 57.1143 43.1204)" stroke="white"/>
<rect x="33.2236" y="40.3246" width="13.5571" height="7.99951" rx="2.29434" fill="#5172E7"/>
<path d="M35.4269 47.0087V46.1529H36.5811V43.287L37.0738 43.3259L35.6798 44.1623L35.2713 43.3843L36.8663 42.4376H37.612V46.1529H38.6753V47.0087H35.4269ZM39.4573 47.5015L38.6793 47.294L40.3586 42.0486L41.1366 42.2626L39.4573 47.5015ZM43.2813 47.0087V46.1983H41.2519V45.4721L43.1905 42.4376H44.2344V45.4072H44.7726V46.1983H44.2344V47.0087H43.2813ZM43.3397 45.4072V43.6177H43.3137L42.1013 45.5239L42.0235 45.4072H43.3397Z" fill="white"/>
<path d="M14.756 78.031L13.8695 76.6045C13.7608 76.4279 13.6148 76.2921 13.4314 76.197C13.2548 76.1019 13.0374 76.0543 12.7793 76.0543L13.5435 75.7385C13.7608 75.7385 13.9476 75.7623 14.1039 75.8098C14.2669 75.8506 14.4095 75.9253 14.5318 76.034C14.6609 76.1426 14.7831 76.2955 14.8986 76.4925L15.5914 77.6132L14.756 78.031ZM12.7589 76.0543C12.2495 76.0543 11.7876 75.9694 11.3733 75.7996C10.9657 75.6298 10.6159 75.3853 10.3238 75.066C10.0317 74.74 9.80757 74.3494 9.65134 73.8943C9.49512 73.4392 9.417 72.9298 9.417 72.366C9.417 71.7954 9.49172 71.286 9.64116 70.8377C9.79739 70.3826 10.0215 69.9954 10.3136 69.6761C10.6057 69.3569 10.9589 69.1123 11.3733 68.9425C11.7876 68.7727 12.2495 68.6878 12.7589 68.6878C13.2752 68.6878 13.7371 68.7727 14.1446 68.9425C14.559 69.1123 14.9122 69.3569 15.2043 69.6761C15.5031 69.9954 15.7273 70.3826 15.8767 70.8377C16.033 71.286 16.1111 71.792 16.1111 72.3558C16.1111 72.9264 16.033 73.4392 15.8767 73.8943C15.7205 74.3494 15.4963 74.74 15.2043 75.066C14.9122 75.3853 14.559 75.6298 14.1446 75.7996C13.7371 75.9694 13.2752 76.0543 12.7589 76.0543ZM12.7589 75.1883C13.2548 75.1883 13.6759 75.0796 14.0224 74.8623C14.3688 74.6449 14.6337 74.3256 14.8171 73.9045C15.0005 73.4766 15.0922 72.9637 15.0922 72.366C15.0922 71.7614 15.0005 71.252 14.8171 70.8377C14.6405 70.4165 14.3756 70.0973 14.0224 69.8799C13.6759 69.6625 13.2548 69.5539 12.7589 69.5539C12.2767 69.5539 11.8589 69.6625 11.5057 69.8799C11.1593 70.0973 10.8944 70.4165 10.711 70.8377C10.5276 71.252 10.4359 71.7614 10.4359 72.366C10.4359 72.9637 10.5276 73.4732 10.711 73.8943C10.8944 74.3154 11.1593 74.6381 11.5057 74.8623C11.8589 75.0796 12.2767 75.1883 12.7589 75.1883ZM19.4129 76.0543C19.0053 76.0543 18.6623 75.9796 18.3838 75.8302C18.1121 75.6808 17.9083 75.4566 17.7725 75.1577C17.6366 74.8589 17.5687 74.4887 17.5687 74.0471V70.9599H18.5367V74.0268C18.5367 74.2917 18.574 74.5158 18.6487 74.6992C18.7235 74.8826 18.8423 75.0219 19.0053 75.117C19.1684 75.2121 19.3755 75.2596 19.6269 75.2596C19.9054 75.2596 20.1499 75.1951 20.3605 75.066C20.571 74.937 20.7341 74.7638 20.8495 74.5464C20.9718 74.3222 21.0329 74.0675 21.0329 73.7822V70.9599H22.0009V75.9626H21.0839V74.8521H21.1552C21.0058 75.2392 20.7816 75.5381 20.4827 75.7487C20.1839 75.9525 19.8272 76.0543 19.4129 76.0543ZM25.2391 76.0543C24.8927 76.0543 24.5802 75.9864 24.3017 75.8506C24.0232 75.7147 23.8025 75.5313 23.6394 75.3004C23.4832 75.0694 23.4051 74.8113 23.4051 74.526C23.4051 74.1524 23.5036 73.857 23.7006 73.6396C23.8976 73.4222 24.2168 73.266 24.6583 73.1709C25.0998 73.0758 25.684 73.0283 26.4108 73.0283H26.9916V73.6498H26.4414C26.0542 73.6498 25.7282 73.6634 25.4632 73.6905C25.1983 73.7177 24.9844 73.7619 24.8213 73.823C24.6583 73.8841 24.5395 73.969 24.4647 74.0777C24.3968 74.1796 24.3628 74.3087 24.3628 74.4649C24.3628 74.7298 24.4579 74.9438 24.6481 75.1068C24.8451 75.263 25.1066 75.3411 25.4327 75.3411C25.6976 75.3411 25.9353 75.2766 26.1459 75.1475C26.3633 75.0185 26.5331 74.8487 26.6553 74.6381C26.7844 74.4207 26.8489 74.1762 26.8489 73.9045V72.7532C26.8489 72.3592 26.7538 72.0739 26.5636 71.8973C26.3734 71.7207 26.078 71.6324 25.6772 71.6324C25.3851 71.6324 25.093 71.6765 24.801 71.7648C24.5157 71.8464 24.2202 71.9788 23.9145 72.1622L23.6089 71.4694C23.7991 71.3471 24.0096 71.2418 24.2406 71.1535C24.4783 71.0584 24.7263 70.9871 24.9844 70.9395C25.2425 70.892 25.4938 70.8682 25.7383 70.8682C26.1799 70.8682 26.5535 70.9395 26.8591 71.0822C27.1648 71.218 27.3957 71.432 27.552 71.7241C27.7082 72.0162 27.7863 72.3898 27.7863 72.8449V75.9626H26.9101V74.8521H26.9508C26.8829 75.083 26.7674 75.2902 26.6044 75.4736C26.4482 75.657 26.2546 75.7996 26.0236 75.9015C25.7995 76.0034 25.538 76.0543 25.2391 76.0543ZM29.3799 75.9626V70.9599H30.2867V72.1418H30.2358C30.3512 71.7547 30.555 71.4558 30.8471 71.2452C31.1392 71.0278 31.5128 70.9056 31.9679 70.8784L32.3652 70.8478L32.4366 71.6935L31.7743 71.7648C31.3192 71.8056 30.9694 71.9516 30.7248 72.203C30.4803 72.4543 30.358 72.7871 30.358 73.2015V75.9626H29.3799ZM35.7678 76.0543C35.1496 76.0543 34.6877 75.8947 34.3821 75.5755C34.0764 75.2562 33.9236 74.7943 33.9236 74.1898V71.7241H32.9353V70.9599H33.9439V69.4723H34.8915V70.9599H36.5523V71.7241H34.8915V74.1185C34.8915 74.4853 34.973 74.7638 35.136 74.954C35.2991 75.1441 35.5572 75.2392 35.9104 75.2392C36.0327 75.2392 36.1515 75.2257 36.267 75.1985C36.3825 75.1713 36.4946 75.1373 36.6032 75.0966L36.7561 75.8404C36.6406 75.9083 36.4912 75.9593 36.3078 75.9932C36.1244 76.034 35.9444 76.0543 35.7678 76.0543ZM37.4968 69.778V68.7388H38.6583V69.778H37.4968ZM37.5986 75.9626V70.9599H38.5666V75.9626H37.5986ZM41.755 76.0543C41.2387 76.0543 40.8448 75.9083 40.5731 75.6162C40.3082 75.3174 40.1757 74.8894 40.1757 74.3324V68.7795H41.1436V74.2611C41.1436 74.4717 41.1742 74.6517 41.2353 74.8011C41.2965 74.9506 41.3848 75.0626 41.5003 75.1373C41.6225 75.2121 41.772 75.2494 41.9486 75.2494C42.0369 75.2494 42.1218 75.246 42.2033 75.2392C42.2848 75.2324 42.3697 75.2155 42.458 75.1883V75.9626C42.3425 75.9898 42.2271 76.0102 42.1116 76.0238C42.0029 76.0442 41.884 76.0543 41.755 76.0543ZM45.7039 76.0543C45.1537 76.0543 44.6782 75.9525 44.2774 75.7487C43.8767 75.5381 43.5676 75.2392 43.3502 74.8521C43.1397 74.4649 43.0344 74.003 43.0344 73.4664C43.0344 72.9569 43.1363 72.5086 43.3401 72.1215C43.5506 71.7275 43.8393 71.4218 44.2061 71.2045C44.5797 70.9803 45.011 70.8682 45.5001 70.8682C45.9756 70.8682 46.3797 70.9701 46.7126 71.1739C47.0454 71.3777 47.3001 71.6663 47.4767 72.0399C47.6601 72.4135 47.7518 72.8584 47.7518 73.3747V73.7007H43.7782V73.069H47.1099L46.9265 73.2422C46.9265 72.7056 46.8043 72.2947 46.5597 72.0094C46.322 71.7241 45.9756 71.5814 45.5205 71.5814C45.1944 71.5814 44.9159 71.6562 44.685 71.8056C44.454 71.9482 44.274 72.152 44.145 72.4169C44.0227 72.6818 43.9616 72.9977 43.9616 73.3645V73.446C43.9616 73.8536 44.0295 74.1932 44.1654 74.4649C44.3012 74.7366 44.4982 74.9404 44.7563 75.0762C45.0212 75.2121 45.3405 75.28 45.7141 75.28C45.9993 75.28 46.2812 75.2392 46.5597 75.1577C46.8382 75.0762 47.1031 74.937 47.3545 74.74L47.6601 75.4124C47.4156 75.6162 47.1167 75.7759 46.7635 75.8913C46.4103 76 46.0571 76.0543 45.7039 76.0543ZM57.4737 75.9626V74.8521H59.1956V69.8799L59.8477 69.9105L57.8608 71.1229L57.3208 70.1346L59.5726 68.7795H60.5201V74.8521H62.1198V75.9626H57.4737ZM63.369 76.6861L62.3807 76.4008L65.0196 68.2191L65.9977 68.5044L63.369 76.6861ZM69.4147 75.9626V74.6075H66.2459V73.6396L69.5166 68.7795H70.7087V73.5275H71.6766V74.6075H70.7087V75.9626H69.4147ZM69.435 73.5275V70.3588H69.6286L67.3158 73.8128L67.2648 73.5275H69.435Z" fill="white"/>
<line x1="105.118" y1="2.0244e-08" x2="105.118" y2="75.9625" stroke="#D0D5DD" stroke-width="0.926259"/>
<rect x="140.366" width="54.2152" height="18.6446" rx="3.30581" fill="white"/>
<path d="M148.125 13.3223V12.4331H149.982V6.36427L150.526 6.3865L148.514 7.65362L148.07 6.86445L150.271 5.48618H151.026V12.4331H152.76V13.3223H148.125ZM156.191 13.4224C155.924 13.4224 155.653 13.389 155.379 13.3223C155.105 13.2482 154.846 13.1408 154.601 13C154.357 12.8592 154.142 12.6925 153.956 12.4998L154.334 11.6995C154.608 11.9811 154.905 12.1886 155.224 12.322C155.542 12.4479 155.868 12.5109 156.202 12.5109C156.557 12.5109 156.872 12.4479 157.146 12.322C157.421 12.1886 157.65 11.9922 157.836 11.7329C158.028 11.4735 158.173 11.1512 158.269 10.7659C158.365 10.3731 158.414 9.92481 158.414 9.42092V8.50948H158.48C158.436 8.90222 158.314 9.24308 158.113 9.53207C157.913 9.82107 157.658 10.0434 157.346 10.199C157.043 10.3472 156.698 10.4213 156.313 10.4213C155.853 10.4213 155.446 10.3175 155.09 10.1101C154.734 9.89517 154.453 9.60247 154.245 9.23197C154.045 8.85405 153.945 8.42427 153.945 7.94261C153.945 7.44614 154.053 7.00524 154.268 6.61992C154.482 6.23459 154.779 5.93448 155.157 5.71959C155.535 5.49729 155.968 5.38614 156.457 5.38614C157.095 5.38614 157.632 5.53805 158.069 5.84186C158.506 6.13826 158.836 6.57546 159.058 7.15344C159.288 7.72402 159.403 8.41686 159.403 9.23197C159.403 10.1212 159.273 10.8807 159.014 11.5106C158.762 12.133 158.399 12.6073 157.924 12.9333C157.45 13.2593 156.872 13.4224 156.191 13.4224ZM156.535 9.56542C156.846 9.56542 157.12 9.49502 157.358 9.35423C157.602 9.21344 157.791 9.02078 157.924 8.77625C158.058 8.52431 158.125 8.23531 158.125 7.90927C158.125 7.57582 158.058 7.28682 157.924 7.04229C157.791 6.79035 157.606 6.59769 157.369 6.4643C157.132 6.32351 156.854 6.25312 156.535 6.25312C156.216 6.25312 155.939 6.32351 155.701 6.4643C155.464 6.6051 155.279 6.79776 155.146 7.04229C155.012 7.28682 154.946 7.57582 154.946 7.90927C154.946 8.23531 155.012 8.52431 155.146 8.77625C155.279 9.02078 155.464 9.21344 155.701 9.35423C155.939 9.49502 156.216 9.56542 156.535 9.56542ZM163.211 13.6113L162.511 13.2001L167.112 5.19718L167.813 5.60844L163.211 13.6113ZM162.455 10.1768C162.062 10.1768 161.718 10.0841 161.421 9.89887C161.132 9.70621 160.91 9.43204 160.754 9.07636C160.606 8.71326 160.532 8.27977 160.532 7.77589C160.532 7.02747 160.703 6.44207 161.043 6.0197C161.392 5.59733 161.862 5.38614 162.455 5.38614C162.855 5.38614 163.2 5.48247 163.489 5.67513C163.778 5.86038 164 6.13085 164.156 6.48654C164.311 6.84222 164.389 7.272 164.389 7.77589C164.389 8.27977 164.311 8.70956 164.156 9.06524C164 9.42092 163.778 9.6951 163.489 9.88776C163.2 10.0804 162.855 10.1768 162.455 10.1768ZM162.455 9.45427C162.781 9.45427 163.04 9.31718 163.233 9.04301C163.426 8.76143 163.522 8.33905 163.522 7.77589C163.522 7.22013 163.426 6.80517 163.233 6.531C163.04 6.24941 162.781 6.10862 162.455 6.10862C162.129 6.10862 161.87 6.24571 161.677 6.51988C161.492 6.79405 161.399 7.21272 161.399 7.77589C161.399 8.33905 161.492 8.76143 161.677 9.04301C161.87 9.31718 162.129 9.45427 162.455 9.45427ZM167.868 13.4224C167.468 13.4224 167.123 13.3297 166.834 13.1445C166.545 12.9518 166.323 12.6777 166.168 12.322C166.019 11.9589 165.945 11.5254 165.945 11.0215C165.945 10.2731 166.116 9.68769 166.457 9.26531C166.805 8.84294 167.275 8.63175 167.868 8.63175C168.268 8.63175 168.609 8.72808 168.891 8.92074C169.18 9.106 169.402 9.38017 169.558 9.74326C169.713 10.0989 169.791 10.525 169.791 11.0215C169.791 11.5254 169.713 11.9589 169.558 12.322C169.409 12.6777 169.191 12.9518 168.902 13.1445C168.613 13.3297 168.268 13.4224 167.868 13.4224ZM167.868 12.6999C168.194 12.6999 168.45 12.5628 168.635 12.2886C168.828 12.007 168.924 11.5847 168.924 11.0215C168.924 10.4657 168.828 10.0508 168.635 9.77661C168.45 9.49502 168.194 9.35423 167.868 9.35423C167.542 9.35423 167.283 9.49132 167.09 9.76549C166.905 10.0397 166.812 10.4583 166.812 11.0215C166.812 11.5847 166.905 12.007 167.09 12.2886C167.283 12.5628 167.542 12.6999 167.868 12.6999Z" fill="#5172E7"/>
<path d="M175.923 11.3223V6.09823H176.671V11.3223H175.923ZM178.35 11.3223V6.09823H180.551C181.124 6.09823 181.564 6.22914 181.87 6.49096C182.181 6.74784 182.337 7.12082 182.337 7.60988C182.337 7.88652 182.283 8.12612 182.174 8.32866C182.065 8.52626 181.915 8.68681 181.722 8.81031C181.534 8.92887 181.309 9.00791 181.048 9.04743L181.07 9.05484L181.137 9.06966C181.25 9.09436 181.351 9.14871 181.44 9.23269C181.534 9.31173 181.626 9.43523 181.714 9.60319L182.633 11.3223H181.811L180.951 9.69952C180.882 9.56614 180.806 9.4624 180.722 9.3883C180.638 9.3142 180.539 9.2648 180.425 9.2401C180.316 9.21046 180.186 9.19564 180.032 9.19564H179.099V11.3223H178.35ZM179.099 8.5806H180.499C180.88 8.5806 181.156 8.50403 181.329 8.35089C181.502 8.19281 181.589 7.95568 181.589 7.63952C181.589 7.32336 181.497 7.09365 181.314 6.95038C181.137 6.80218 180.855 6.72808 180.47 6.72808H179.099V8.5806ZM183.89 11.3223V6.09823H186.09C186.663 6.09823 187.103 6.22914 187.409 6.49096C187.721 6.74784 187.876 7.12082 187.876 7.60988C187.876 7.88652 187.822 8.12612 187.713 8.32866C187.605 8.52626 187.454 8.68681 187.261 8.81031C187.073 8.92887 186.849 9.00791 186.587 9.04743L186.609 9.05484L186.676 9.06966C186.789 9.09436 186.891 9.14871 186.98 9.23269C187.073 9.31173 187.165 9.43523 187.254 9.60319L188.173 11.3223H187.35L186.491 9.69952C186.421 9.56614 186.345 9.4624 186.261 9.3883C186.177 9.3142 186.078 9.2648 185.964 9.2401C185.856 9.21046 185.725 9.19564 185.572 9.19564H184.638V11.3223H183.89ZM184.638 8.5806H186.039C186.419 8.5806 186.696 8.50403 186.868 8.35089C187.041 8.19281 187.128 7.95568 187.128 7.63952C187.128 7.32336 187.036 7.09365 186.854 6.95038C186.676 6.80218 186.394 6.72808 186.009 6.72808H184.638V8.5806Z" fill="#A6A6A6"/>
<mask id="path-16-inside-5_4502_432" fill="white">
<path d="M180.342 46.9019C180.342 48.6828 179.992 50.4462 179.31 52.0915C178.628 53.7369 177.63 55.2319 176.37 56.4911C175.111 57.7504 173.616 58.7493 171.971 59.4309C170.325 60.1124 168.562 60.4632 166.781 60.4632L166.781 46.9019H180.342Z"/>
</mask>
<path d="M180.342 46.9019C180.342 48.6828 179.992 50.4462 179.31 52.0915C178.628 53.7369 177.63 55.2319 176.37 56.4911C175.111 57.7504 173.616 58.7493 171.971 59.4309C170.325 60.1124 168.562 60.4632 166.781 60.4632L166.781 46.9019H180.342Z" stroke="#F8F8F8" stroke-width="1.13011" mask="url(#path-16-inside-5_4502_432)"/>
<mask id="path-17-inside-6_4502_432" fill="white">
<path d="M167.643 24.9142C170.564 24.9142 173.457 25.4641 176.157 26.5325C178.856 27.6009 181.309 29.1669 183.375 31.1411C185.441 33.1153 187.08 35.459 188.198 38.0384C189.316 40.6178 189.892 43.3824 189.892 46.1743L167.643 46.1743L167.643 24.9142Z"/>
</mask>
<path d="M167.643 24.9142C170.564 24.9142 173.457 25.4641 176.157 26.5325C178.856 27.6009 181.309 29.1669 183.375 31.1411C185.441 33.1153 187.08 35.459 188.198 38.0384C189.316 40.6178 189.892 43.3824 189.892 46.1743L167.643 46.1743L167.643 24.9142Z" fill="#5172E7" stroke="#F8F8F8" stroke-width="1.13011" mask="url(#path-17-inside-6_4502_432)"/>
<mask id="path-18-inside-7_4502_432" fill="white">
<path d="M152.655 46.3389C152.655 44.558 153.006 42.7946 153.687 41.1492C154.369 39.5039 155.367 38.0089 156.627 36.7496C157.886 35.4904 159.381 34.4914 161.026 33.8099C162.672 33.1284 164.435 32.7776 166.216 32.7776L166.216 46.3389L152.655 46.3389Z"/>
</mask>
<path d="M152.655 46.3389C152.655 44.558 153.006 42.7946 153.687 41.1492C154.369 39.5039 155.367 38.0089 156.627 36.7496C157.886 35.4904 159.381 34.4914 161.026 33.8099C162.672 33.1284 164.435 32.7776 166.216 32.7776L166.216 46.3389L152.655 46.3389Z" stroke="#F8F8F8" stroke-width="1.13011" mask="url(#path-18-inside-7_4502_432)"/>
<mask id="path-19-inside-8_4502_432" fill="white">
<path d="M166.216 60.4632C164.435 60.4632 162.672 60.1124 161.026 59.4309C159.381 58.7493 157.886 57.7504 156.627 56.4911C155.367 55.2319 154.369 53.7369 153.687 52.0915C153.006 50.4462 152.655 48.6828 152.655 46.9019L166.216 46.9019L166.216 60.4632Z"/>
</mask>
<path d="M166.216 60.4632C164.435 60.4632 162.672 60.1124 161.026 59.4309C159.381 58.7493 157.886 57.7504 156.627 56.4911C155.367 55.2319 154.369 53.7369 153.687 52.0915C153.006 50.4462 152.655 48.6828 152.655 46.9019L166.216 46.9019L166.216 60.4632Z" stroke="#F8F8F8" stroke-width="1.13011" mask="url(#path-19-inside-8_4502_432)"/>
<path d="M174.868 40.8137V39.8644L177.162 37.4615C177.367 37.2373 177.528 37.0363 177.647 36.8583C177.772 36.6737 177.861 36.499 177.914 36.3342C177.973 36.1694 178.003 36.0013 178.003 35.8299C178.003 35.5069 177.897 35.2597 177.686 35.0883C177.475 34.9169 177.175 34.8312 176.786 34.8312C176.483 34.8312 176.18 34.8905 175.877 35.0091C175.58 35.1212 175.297 35.2992 175.026 35.5431L174.581 34.5741C174.871 34.317 175.224 34.1159 175.639 33.9709C176.061 33.8192 176.496 33.7434 176.945 33.7434C177.439 33.7434 177.858 33.8225 178.201 33.9807C178.55 34.1324 178.814 34.3565 178.992 34.6532C179.176 34.9498 179.268 35.3058 179.268 35.7211C179.268 35.9255 179.242 36.1298 179.189 36.3342C179.143 36.532 179.067 36.7297 178.962 36.9275C178.863 37.1187 178.738 37.3164 178.586 37.5208C178.435 37.7186 178.25 37.9295 178.032 38.1537L176.322 39.9336V39.7358H179.535V40.8137H174.868Z" fill="white"/>
<path d="M142.985 78.0309L142.099 76.6044C141.99 76.4278 141.844 76.292 141.661 76.1969C141.484 76.1018 141.267 76.0542 141.008 76.0542L141.773 75.7384C141.99 75.7384 142.177 75.7621 142.333 75.8097C142.496 75.8504 142.639 75.9252 142.761 76.0338C142.89 76.1425 143.012 76.2954 143.128 76.4923L143.821 77.6131L142.985 78.0309ZM140.988 76.0542C140.479 76.0542 140.017 75.9693 139.602 75.7995C139.195 75.6297 138.845 75.3852 138.553 75.0659C138.261 74.7399 138.037 74.3493 137.88 73.8942C137.724 73.4391 137.646 72.9296 137.646 72.3659C137.646 71.7953 137.721 71.2858 137.87 70.8375C138.026 70.3824 138.251 69.9953 138.543 69.676C138.835 69.3568 139.188 69.1122 139.602 68.9424C140.017 68.7726 140.479 68.6877 140.988 68.6877C141.504 68.6877 141.966 68.7726 142.374 68.9424C142.788 69.1122 143.141 69.3568 143.433 69.676C143.732 69.9953 143.956 70.3824 144.106 70.8375C144.262 71.2858 144.34 71.7919 144.34 72.3557C144.34 72.9262 144.262 73.4391 144.106 73.8942C143.95 74.3493 143.725 74.7399 143.433 75.0659C143.141 75.3852 142.788 75.6297 142.374 75.7995C141.966 75.9693 141.504 76.0542 140.988 76.0542ZM140.988 75.1882C141.484 75.1882 141.905 75.0795 142.251 74.8621C142.598 74.6448 142.863 74.3255 143.046 73.9044C143.23 73.4764 143.321 72.9636 143.321 72.3659C143.321 71.7613 143.23 71.2519 143.046 70.8375C142.87 70.4164 142.605 70.0971 142.251 69.8798C141.905 69.6624 141.484 69.5537 140.988 69.5537C140.506 69.5537 140.088 69.6624 139.735 69.8798C139.388 70.0971 139.123 70.4164 138.94 70.8375C138.757 71.2519 138.665 71.7613 138.665 72.3659C138.665 72.9636 138.757 73.473 138.94 73.8942C139.123 74.3153 139.388 74.638 139.735 74.8621C140.088 75.0795 140.506 75.1882 140.988 75.1882ZM147.642 76.0542C147.234 76.0542 146.891 75.9795 146.613 75.8301C146.341 75.6806 146.137 75.4565 146.002 75.1576C145.866 74.8587 145.798 74.4885 145.798 74.047V70.9598H146.766V74.0266C146.766 74.2916 146.803 74.5157 146.878 74.6991C146.953 74.8825 147.071 75.0218 147.234 75.1168C147.397 75.2119 147.605 75.2595 147.856 75.2595C148.134 75.2595 148.379 75.195 148.59 75.0659C148.8 74.9368 148.963 74.7636 149.079 74.5463C149.201 74.3221 149.262 74.0674 149.262 73.7821V70.9598H150.23V75.9625H149.313V74.8519H149.384C149.235 75.2391 149.011 75.538 148.712 75.7486C148.413 75.9523 148.056 76.0542 147.642 76.0542ZM153.468 76.0542C153.122 76.0542 152.809 75.9863 152.531 75.8504C152.252 75.7146 152.032 75.5312 151.869 75.3002C151.712 75.0693 151.634 74.8112 151.634 74.5259C151.634 74.1523 151.733 73.8568 151.93 73.6395C152.127 73.4221 152.446 73.2659 152.887 73.1708C153.329 73.0757 153.913 73.0281 154.64 73.0281H155.221V73.6497H154.67C154.283 73.6497 153.957 73.6632 153.692 73.6904C153.427 73.7176 153.213 73.7617 153.05 73.8229C152.887 73.884 152.769 73.9689 152.694 74.0776C152.626 74.1795 152.592 74.3085 152.592 74.4648C152.592 74.7297 152.687 74.9436 152.877 75.1067C153.074 75.2629 153.336 75.341 153.662 75.341C153.927 75.341 154.164 75.2765 154.375 75.1474C154.592 75.0184 154.762 74.8485 154.884 74.638C155.013 74.4206 155.078 74.1761 155.078 73.9044V72.753C155.078 72.3591 154.983 72.0738 154.793 71.8972C154.603 71.7206 154.307 71.6323 153.906 71.6323C153.614 71.6323 153.322 71.6764 153.03 71.7647C152.745 71.8462 152.449 71.9787 152.144 72.1621L151.838 71.4692C152.028 71.347 152.239 71.2417 152.47 71.1534C152.707 71.0583 152.955 70.987 153.213 70.9394C153.472 70.8919 153.723 70.8681 153.967 70.8681C154.409 70.8681 154.783 70.9394 155.088 71.0821C155.394 71.2179 155.625 71.4319 155.781 71.724C155.937 72.016 156.015 72.3896 156.015 72.8447V75.9625H155.139V74.8519H155.18C155.112 75.0829 154.997 75.2901 154.833 75.4735C154.677 75.6569 154.484 75.7995 154.253 75.9014C154.029 76.0033 153.767 76.0542 153.468 76.0542ZM157.609 75.9625V70.9598H158.516V72.1417H158.465C158.58 71.7545 158.784 71.4557 159.076 71.2451C159.368 71.0277 159.742 70.9055 160.197 70.8783L160.594 70.8477L160.666 71.6934L160.003 71.7647C159.548 71.8055 159.198 71.9515 158.954 72.2028C158.709 72.4542 158.587 72.787 158.587 73.2013V75.9625H157.609ZM163.997 76.0542C163.379 76.0542 162.917 75.8946 162.611 75.5753C162.305 75.2561 162.153 74.7942 162.153 74.1897V71.724H161.164V70.9598H162.173V69.4722H163.121V70.9598H164.781V71.724H163.121V74.1183C163.121 74.4851 163.202 74.7636 163.365 74.9538C163.528 75.144 163.786 75.2391 164.139 75.2391C164.262 75.2391 164.381 75.2255 164.496 75.1984C164.612 75.1712 164.724 75.1372 164.832 75.0965L164.985 75.8403C164.87 75.9082 164.72 75.9591 164.537 75.9931C164.353 76.0338 164.173 76.0542 163.997 76.0542ZM165.726 69.7779V68.7386H166.887V69.7779H165.726ZM165.828 75.9625V70.9598H166.796V75.9625H165.828ZM169.984 76.0542C169.468 76.0542 169.074 75.9082 168.802 75.6161C168.537 75.3172 168.405 74.8893 168.405 74.3323V68.7794H169.373V74.261C169.373 74.4716 169.403 74.6516 169.464 74.801C169.526 74.9504 169.614 75.0625 169.729 75.1372C169.852 75.2119 170.001 75.2493 170.178 75.2493C170.266 75.2493 170.351 75.2459 170.432 75.2391C170.514 75.2323 170.599 75.2153 170.687 75.1882V75.9625C170.572 75.9897 170.456 76.0101 170.341 76.0237C170.232 76.044 170.113 76.0542 169.984 76.0542ZM173.933 76.0542C173.383 76.0542 172.907 75.9523 172.507 75.7486C172.106 75.538 171.797 75.2391 171.579 74.8519C171.369 74.4648 171.263 74.0029 171.263 73.4663C171.263 72.9568 171.365 72.5085 171.569 72.1213C171.78 71.7274 172.068 71.4217 172.435 71.2043C172.809 70.9802 173.24 70.8681 173.729 70.8681C174.205 70.8681 174.609 70.97 174.942 71.1738C175.274 71.3775 175.529 71.6662 175.706 72.0398C175.889 72.4134 175.981 72.8583 175.981 73.3746V73.7006H172.007V73.0689H175.339L175.156 73.2421C175.156 72.7055 175.033 72.2945 174.789 72.0093C174.551 71.724 174.205 71.5813 173.75 71.5813C173.424 71.5813 173.145 71.656 172.914 71.8055C172.683 71.9481 172.503 72.1519 172.374 72.4168C172.252 72.6817 172.191 72.9976 172.191 73.3644V73.4459C172.191 73.8534 172.259 74.1931 172.394 74.4648C172.53 74.7365 172.727 74.9402 172.985 75.0761C173.25 75.2119 173.57 75.2799 173.943 75.2799C174.228 75.2799 174.51 75.2391 174.789 75.1576C175.067 75.0761 175.332 74.9368 175.584 74.7399L175.889 75.4123C175.645 75.6161 175.346 75.7757 174.993 75.8912C174.639 75.9999 174.286 76.0542 173.933 76.0542ZM182.732 75.9625V74.9844L185.096 72.5085C185.307 72.2776 185.473 72.0704 185.595 71.887C185.725 71.6968 185.816 71.5168 185.871 71.347C185.932 71.1772 185.962 71.004 185.962 70.8273C185.962 70.4945 185.854 70.2398 185.636 70.0632C185.419 69.8866 185.11 69.7983 184.709 69.7983C184.397 69.7983 184.084 69.8594 183.772 69.9817C183.466 70.0971 183.174 70.2805 182.895 70.5319L182.447 69.5334C182.739 69.2685 183.099 69.0613 183.527 68.9118C183.962 68.7556 184.41 68.6775 184.872 68.6775C185.381 68.6775 185.813 68.759 186.166 68.922C186.526 69.0783 186.798 69.3092 186.981 69.6149C187.171 69.9137 187.266 70.2771 187.266 70.7051C187.266 70.9224 187.239 71.1364 187.185 71.347C187.137 71.5508 187.059 71.7545 186.951 71.9583C186.849 72.1553 186.72 72.3591 186.563 72.5696C186.407 72.7734 186.217 72.9908 185.993 73.2217L184.2 75.0761V74.8519H187.542V75.9625H182.732ZM188.852 76.6859L187.864 76.4006L190.502 68.219L191.481 68.5043L188.852 76.6859ZM194.898 75.9625V74.6074H191.729V73.6395L194.999 68.7794H196.192V73.5274H197.159V74.6074H196.192V75.9625H194.898ZM194.918 73.5274V70.3587H195.112L192.799 73.8127L192.748 73.5274H194.918Z" fill="white"/>
<line x1="230.755" y1="2.0244e-08" x2="230.755" y2="75.9625" stroke="#D0D5DD" stroke-width="0.926259"/>
<rect x="262.61" width="54.2152" height="18.6446" rx="3.30581" fill="white"/>
<path d="M276.322 13.4224C275.722 13.4224 275.214 13.2705 274.799 12.9666C274.384 12.6554 274.07 12.1997 273.855 11.5995C273.647 10.9993 273.543 10.2657 273.543 9.39869C273.543 8.51689 273.647 7.77959 273.855 7.18679C274.07 6.59398 274.384 6.14567 274.799 5.84186C275.214 5.53805 275.722 5.38614 276.322 5.38614C276.93 5.38614 277.437 5.53805 277.845 5.84186C278.26 6.14567 278.571 6.59398 278.779 7.18679C278.994 7.77959 279.101 8.51319 279.101 9.38758C279.101 10.2546 278.994 10.9882 278.779 11.5884C278.571 12.1886 278.26 12.6443 277.845 12.9555C277.437 13.2668 276.93 13.4224 276.322 13.4224ZM276.322 12.5332C276.915 12.5332 277.352 12.2812 277.634 11.7773C277.923 11.266 278.067 10.4694 278.067 9.38758C278.067 8.31312 277.926 7.52765 277.645 7.03118C277.363 6.52729 276.922 6.27535 276.322 6.27535C275.737 6.27535 275.3 6.52729 275.011 7.03118C274.722 7.52765 274.577 8.31312 274.577 9.38758C274.577 10.462 274.718 11.2549 274.999 11.7662C275.288 12.2775 275.729 12.5332 276.322 12.5332ZM280.23 13.3223V12.0774H281.497V13.3223H280.23ZM284.868 13.4224C284.601 13.4224 284.331 13.389 284.057 13.3223C283.782 13.2482 283.523 13.1408 283.279 13C283.034 12.8592 282.819 12.6925 282.634 12.4998L283.012 11.6995C283.286 11.9811 283.582 12.1886 283.901 12.322C284.22 12.4479 284.546 12.5109 284.879 12.5109C285.235 12.5109 285.55 12.4479 285.824 12.322C286.098 12.1886 286.328 11.9922 286.513 11.7329C286.706 11.4735 286.85 11.1512 286.947 10.7659C287.043 10.3731 287.091 9.92481 287.091 9.42092V8.50948H287.158C287.113 8.90222 286.991 9.24308 286.791 9.53207C286.591 9.82107 286.335 10.0434 286.024 10.199C285.72 10.3472 285.376 10.4213 284.99 10.4213C284.531 10.4213 284.123 10.3175 283.768 10.1101C283.412 9.89517 283.13 9.60247 282.923 9.23197C282.723 8.85405 282.623 8.42427 282.623 7.94261C282.623 7.44614 282.73 7.00524 282.945 6.61992C283.16 6.23459 283.456 5.93448 283.834 5.71959C284.212 5.49729 284.646 5.38614 285.135 5.38614C285.772 5.38614 286.309 5.53805 286.746 5.84186C287.184 6.13826 287.513 6.57546 287.736 7.15344C287.965 7.72402 288.08 8.41686 288.08 9.23197C288.08 10.1212 287.951 10.8807 287.691 11.5106C287.439 12.133 287.076 12.6073 286.602 12.9333C286.128 13.2593 285.55 13.4224 284.868 13.4224ZM285.213 9.56542C285.524 9.56542 285.798 9.49502 286.035 9.35423C286.28 9.21344 286.469 9.02078 286.602 8.77625C286.735 8.52431 286.802 8.23531 286.802 7.90927C286.802 7.57582 286.735 7.28682 286.602 7.04229C286.469 6.79035 286.283 6.59769 286.046 6.4643C285.809 6.32351 285.531 6.25312 285.213 6.25312C284.894 6.25312 284.616 6.32351 284.379 6.4643C284.142 6.6051 283.957 6.79776 283.823 7.04229C283.69 7.28682 283.623 7.57582 283.623 7.90927C283.623 8.23531 283.69 8.52431 283.823 8.77625C283.957 9.02078 284.142 9.21344 284.379 9.35423C284.616 9.49502 284.894 9.56542 285.213 9.56542Z" fill="#5172E7"/>
<path d="M293.828 11.3223V6.09823H296.037C296.412 6.09823 296.733 6.16245 297 6.29089C297.267 6.41439 297.469 6.5947 297.607 6.83182C297.751 7.06895 297.822 7.35547 297.822 7.69139C297.822 8.01743 297.751 8.30149 297.607 8.54355C297.464 8.78561 297.259 8.97333 296.992 9.10671C296.731 9.23516 296.412 9.29938 296.037 9.29938H294.577V11.3223H293.828ZM294.577 8.66952H295.925C296.301 8.66952 296.585 8.59048 296.778 8.4324C296.975 8.26938 297.074 8.02484 297.074 7.6988C297.074 7.36782 296.978 7.12329 296.785 6.9652C296.592 6.80712 296.306 6.72808 295.925 6.72808H294.577V8.66952ZM299.158 11.3223V6.09823H299.906V11.3223H299.158ZM303.853 11.3964C303.349 11.3964 302.909 11.2877 302.534 11.0704C302.163 10.853 301.877 10.5443 301.674 10.1441C301.472 9.74398 301.371 9.2648 301.371 8.70657C301.371 8.14835 301.472 7.67163 301.674 7.27643C301.877 6.87628 302.163 6.57 302.534 6.35758C302.904 6.14022 303.344 6.03154 303.853 6.03154C304.214 6.03154 304.545 6.08588 304.846 6.19456C305.152 6.2983 305.412 6.45638 305.624 6.6688L305.35 7.2542C305.123 7.0566 304.89 6.9158 304.653 6.83182C304.416 6.7429 304.154 6.69844 303.868 6.69844C303.334 6.69844 302.914 6.86887 302.608 7.20974C302.302 7.5506 302.149 8.04954 302.149 8.70657C302.149 9.3636 302.299 9.86501 302.601 10.2108C302.907 10.5517 303.329 10.7221 303.868 10.7221C304.154 10.7221 304.416 10.6801 304.653 10.5961C304.89 10.5072 305.123 10.364 305.35 10.1664L305.624 10.7518C305.412 10.9642 305.152 11.1247 304.846 11.2334C304.545 11.3421 304.214 11.3964 303.853 11.3964Z" fill="#A6A6A6"/>
<path d="M314.789 49.9442C314.789 63.5831 303.733 74.6396 290.094 74.6396C276.455 74.6396 265.398 63.5831 265.398 49.9442C265.398 36.3053 276.455 25.2488 290.094 25.2488C303.733 25.2488 314.789 36.3053 314.789 49.9442ZM277.553 49.9442C277.553 56.8704 283.168 62.4852 290.094 62.4852C297.02 62.4852 302.635 56.8704 302.635 49.9442C302.635 43.018 297.02 37.4032 290.094 37.4032C283.168 37.4032 277.553 43.018 277.553 49.9442Z" fill="#E5E5E5"/>
<path d="M269.879 49.9442C267.405 49.9442 265.357 47.9218 265.804 45.4878C266.537 41.4903 268.251 37.7114 270.821 34.5036C274.331 30.1226 279.228 27.0681 284.707 25.8435C290.185 24.619 295.917 25.2974 300.958 27.767C305.999 30.2367 310.049 34.3501 312.439 39.4294C314.829 44.5087 315.417 50.2508 314.107 55.7092C312.796 61.1677 309.665 66.0168 305.23 69.4574C300.794 72.898 295.319 74.7248 289.706 74.6366C285.596 74.572 281.592 73.4836 278.045 71.5006C275.884 70.2932 275.631 67.4266 277.209 65.5198L279.244 63.0598C280.821 61.153 283.646 60.9819 285.984 61.7928C287.235 62.2265 288.555 62.4626 289.897 62.4837C292.747 62.5285 295.528 61.6008 297.78 59.8536C300.033 58.1063 301.623 55.6438 302.288 52.8718C302.954 50.0999 302.655 47.1839 301.441 44.6045C300.228 42.0251 298.171 39.9362 295.611 38.682C293.051 37.4279 290.14 37.0833 287.358 37.7052C284.576 38.3271 282.089 39.8782 280.306 42.103C279.467 43.1506 278.808 44.3182 278.345 45.558C277.479 47.8764 275.547 49.9442 273.072 49.9442H269.879Z" fill="#5172E7"/>
</svg>
