<svg width="200" height="220" viewBox="0 0 200 220" fill="none" xmlns="http://www.w3.org/2000/svg">
<rect x="33.7241" y="0.180634" width="168" height="193.171" rx="20" transform="rotate(10 33.7241 0.180634)" fill="white"/>
<rect x="32.1018" y="-2.13628" width="172" height="197.171" rx="22" transform="rotate(10 32.1018 -2.13628)" stroke="#1877F2" stroke-opacity="0.1" stroke-width="4"/>
<path d="M54.5796 45.2225C53.1484 44.1253 52.5842 42.7179 52.8871 41.0004C53.0371 40.1495 53.386 39.4149 53.9336 38.7967C54.4999 38.1654 55.2524 37.7213 56.1913 37.4645C57.1487 37.1946 58.2577 37.1708 59.5182 37.3931C60.7788 37.6154 61.8049 38.0156 62.5965 38.5939C63.4066 39.1591 63.9619 39.8338 64.2623 40.6179C64.5813 41.389 64.6657 42.2 64.5157 43.0508C64.3629 43.9175 64.0154 44.6442 63.4733 45.2309C62.9339 45.802 62.2778 46.2062 61.5048 46.4436C62.3048 46.9745 62.8851 47.6455 63.2457 48.4564C63.6064 49.2674 63.6992 50.1692 63.5242 51.1619C63.3352 52.2334 62.8942 53.1223 62.201 53.8286C61.5263 54.522 60.6788 54.9981 59.6583 55.2568C58.6379 55.5155 57.5368 55.5407 56.355 55.3323C55.1733 55.124 54.1472 54.7237 53.2768 54.1316C52.4221 53.5422 51.7885 52.805 51.376 51.9199C50.9819 51.0218 50.8794 50.0371 51.0683 48.9656C51.2433 47.9729 51.639 47.1572 52.2553 46.5185C52.8743 45.8641 53.6491 45.4321 54.5796 45.2225ZM61.2179 42.9568C61.3541 42.1847 61.2233 41.5442 60.8256 41.0354C60.4437 40.5294 59.8509 40.2056 59.0473 40.0639C58.2594 39.925 57.5917 40.0266 57.0439 40.3686C56.512 40.7135 56.1765 41.2799 56.0376 42.0677C55.9126 42.7768 56.0489 43.3857 56.4466 43.8945C56.86 44.406 57.4449 44.7285 58.2013 44.8619C58.9576 44.9952 59.6175 44.8923 60.181 44.553C60.7472 44.1979 61.0929 43.6658 61.2179 42.9568ZM57.7762 47.2727C56.878 47.1143 56.1051 47.2136 55.4572 47.5705C54.8252 47.9302 54.4341 48.5355 54.2841 49.3864C54.1452 50.1742 54.2991 50.8675 54.7459 51.4662C55.2113 52.0519 55.9088 52.4267 56.8385 52.5906C57.7681 52.7546 58.5453 52.6316 59.1699 52.2219C59.7946 51.8121 60.175 51.2212 60.3111 50.4491C60.4584 49.614 60.2965 48.9193 59.8256 48.3652C59.3575 47.7952 58.6743 47.431 57.7762 47.2727ZM79.3902 44.187L71.7324 42.8368L71.0197 46.8784C71.4229 46.5271 71.9539 46.2795 72.6129 46.1358C73.2746 45.9763 73.9522 45.9576 74.6455 46.0799C75.906 46.3021 76.8895 46.7599 77.5958 47.4531C78.3022 48.1463 78.7602 48.9581 78.9698 49.8886C79.1822 50.8034 79.2022 51.7493 79.03 52.7262C78.7104 54.5383 77.9335 55.9041 76.699 56.8237C75.4803 57.7461 73.9177 58.0392 72.0111 57.703C70.2148 57.3863 68.8601 56.6844 67.947 55.5973C67.0339 54.5102 66.6343 53.2294 66.7481 51.7547L69.9625 52.3215C69.9931 52.9768 70.2194 53.5366 70.6412 54.0009C71.0787 54.4679 71.6835 54.7696 72.4556 54.9057C73.3853 55.0696 74.1378 54.9018 74.7134 54.4021C75.2889 53.9024 75.6614 53.172 75.8308 52.2109C76.0031 51.2339 75.8894 50.4503 75.4899 49.8599C75.1089 49.2566 74.4535 48.873 73.5239 48.7091C72.8621 48.5924 72.2814 48.6606 71.7819 48.9137C71.2823 49.1668 70.8894 49.5524 70.6031 50.0706L67.4359 49.5121L69.2197 39.3962L79.9028 41.2799L79.3902 44.187ZM85.0927 56.4272L81.1563 62.5812L79.0291 62.2061L81.7365 55.8354L85.0927 56.4272ZM88.0455 51.4158C88.5262 48.6899 89.3911 46.641 90.6403 45.269C91.9053 43.8999 93.6802 43.4168 95.9649 43.8196C98.2497 44.2225 99.7444 45.2821 100.449 46.9986C101.169 48.7178 101.289 50.9404 100.809 53.6663C100.325 56.408 99.4496 58.4713 98.1819 59.8562C96.9299 61.2439 95.1615 61.7363 92.8767 61.3334C90.592 60.9306 89.0908 59.8617 88.3732 58.1267C87.6713 56.3945 87.5621 54.1575 88.0455 51.4158ZM97.5469 53.0912C97.7525 51.9252 97.846 50.9344 97.8274 50.1187C97.8273 49.2901 97.6432 48.5834 97.2751 47.9986C96.9228 47.4166 96.3055 47.0478 95.4231 46.8922C94.5407 46.7366 93.8266 46.8707 93.2808 47.2943C92.7507 47.7207 92.336 48.3219 92.0367 49.0977C91.756 49.8605 91.5128 50.8249 91.3072 51.991C91.0961 53.1885 90.9891 54.2094 90.9865 55.0538C90.9866 55.8824 91.1707 56.5891 91.5387 57.1739C91.9095 57.7429 92.5361 58.1053 93.4185 58.2608C94.3009 58.4164 95.0137 58.2903 95.5567 57.8824C96.1026 57.4587 96.5173 56.8576 96.8008 56.079C97.0871 55.2847 97.3358 54.2887 97.5469 53.0912ZM103.325 54.1101C103.806 51.3842 104.671 49.3352 105.92 47.9633C107.185 46.5942 108.96 46.111 111.245 46.5139C113.53 46.9167 115.024 47.9764 115.729 49.6928C116.449 51.412 116.569 53.6346 116.089 56.3606C115.605 59.1023 114.73 61.1656 113.462 62.5505C112.21 63.9382 110.441 64.4306 108.157 64.0277C105.872 63.6248 104.371 62.5559 103.653 60.8209C102.951 59.0888 102.842 56.8518 103.325 54.1101ZM112.827 55.7855C113.032 54.6194 113.126 53.6286 113.107 52.813C113.107 51.9844 112.923 51.2777 112.555 50.6929C112.203 50.1109 111.585 49.7421 110.703 49.5865C109.821 49.4309 109.107 49.5649 108.561 49.9886C108.031 50.415 107.616 51.0161 107.317 51.7919C107.036 52.5548 106.793 53.5192 106.587 54.6852C106.376 55.8827 106.269 56.9037 106.266 57.7481C106.267 58.5767 106.451 59.2834 106.819 59.8682C107.189 60.4372 107.816 60.7995 108.698 60.9551C109.581 61.1107 110.294 60.9845 110.837 60.5766C111.382 60.153 111.797 59.5519 112.081 58.7733C112.367 57.9789 112.616 56.983 112.827 55.7855ZM118.605 56.8044C119.086 54.0784 119.951 52.0295 121.2 50.6576C122.465 49.2884 124.24 48.8053 126.525 49.2081C128.809 49.611 130.304 50.6707 131.009 52.3871C131.729 54.1063 131.849 56.3289 131.368 59.0548C130.885 61.7965 130.009 63.8598 128.742 65.2447C127.49 66.6324 125.721 67.1248 123.437 66.722C121.152 66.3191 119.651 65.2502 118.933 63.5152C118.231 61.783 118.122 59.5461 118.605 56.8044ZM128.107 58.4797C128.312 57.3137 128.406 56.3229 128.387 55.5073C128.387 54.6786 128.203 53.9719 127.835 53.3871C127.483 52.8051 126.865 52.4363 125.983 52.2807C125.101 52.1252 124.386 52.2592 123.841 52.6828C123.31 53.1093 122.896 53.7104 122.597 54.4862C122.316 55.249 122.073 56.2135 121.867 57.3795C121.656 58.577 121.549 59.598 121.546 60.4423C121.546 61.2709 121.73 61.9776 122.099 62.5624C122.469 63.1315 123.096 63.4938 123.978 63.6494C124.861 63.805 125.573 63.6788 126.117 63.2709C126.662 62.8473 127.077 62.2461 127.361 61.4675C127.647 60.6732 127.896 59.6772 128.107 58.4797ZM146.295 63.6121L141.828 62.8245L141.02 67.4097L137.9 66.8596L138.709 62.2743L134.241 61.4867L134.75 58.6032L139.217 59.3908L140.025 54.8056L143.145 55.3557L142.337 59.9409L146.804 60.7286L146.295 63.6121Z" fill="#1C1C1C"/>
<path d="M54.1287 79.0013C53.937 78.3068 53.5829 77.7353 53.0663 77.2868C52.5515 76.8277 51.9107 76.5306 51.1438 76.3954C50.377 76.2602 49.6522 76.3165 48.9695 76.5644C48.2991 76.8036 47.727 77.2226 47.2531 77.8214C46.7916 78.4116 46.4849 79.1374 46.333 79.9988C46.1812 80.8601 46.2211 81.647 46.4529 82.3594C46.6953 83.0737 47.0896 83.6631 47.6358 84.1277C48.1945 84.5836 48.8572 84.8792 49.6241 85.0144C50.6955 85.2034 51.6344 85.0386 52.4407 84.52C53.247 84.0015 53.8042 83.2062 54.1124 82.1341L49.732 81.3617L49.9376 80.1957L55.8465 81.2376L55.652 82.3405C55.4086 83.2291 54.9787 84.009 54.3621 84.6801C53.7474 85.3407 53.0072 85.8222 52.1416 86.1245C51.2778 86.4162 50.3627 86.4769 49.3962 86.3065C48.3773 86.1268 47.4893 85.7266 46.7323 85.1057C45.9771 84.4743 45.4277 83.6896 45.084 82.7517C44.7508 81.8156 44.6787 80.8118 44.8676 79.7404C45.0566 78.6689 45.4677 77.7503 46.1009 76.9847C46.7465 76.2103 47.5312 75.6609 48.4549 75.3364C49.3805 75.0013 50.3527 74.9237 51.3717 75.1033C52.5377 75.3089 53.5162 75.7793 54.3072 76.5145C55.1087 77.2516 55.6217 78.1814 55.8462 79.3041L54.1287 79.0013ZM60.1875 76.0892L58.1315 87.7493L56.6977 87.4965L58.7537 75.8363L60.1875 76.0892ZM64.3162 88.986C63.5074 88.8434 62.8045 88.5299 62.2075 88.0456C61.6211 87.5631 61.198 86.9523 60.9384 86.2134C60.6911 85.4657 60.6462 84.6455 60.8037 83.7526C60.9592 82.8702 61.2854 82.1262 61.7821 81.5206C62.2912 80.9063 62.9081 80.4789 63.6329 80.2385C64.3595 79.9875 65.1325 79.9343 65.9518 80.0787C66.7712 80.2232 67.4794 80.5376 68.0763 81.022C68.6751 81.4958 69.1043 82.1022 69.364 82.8412C69.6341 83.582 69.6904 84.3989 69.533 85.2918C69.3756 86.1847 69.037 86.9373 68.5175 87.5498C68.0103 88.1535 67.3881 88.58 66.651 88.8291C65.9138 89.0782 65.1356 89.1305 64.3162 88.986ZM64.5385 87.7255C65.0532 87.8162 65.5578 87.7806 66.0521 87.6187C66.5464 87.4567 66.9727 87.1582 67.331 86.7232C67.6998 86.29 67.9454 85.7267 68.0676 85.0334C68.1899 84.3401 68.157 83.7278 67.9691 83.1964C67.7812 82.665 67.487 82.2449 67.0866 81.936C66.688 81.6166 66.2313 81.4115 65.7166 81.3208C65.1913 81.2281 64.6868 81.2637 64.203 81.4276C63.7316 81.5827 63.322 81.8787 62.9742 82.3157C62.6263 82.7526 62.3913 83.3177 62.2691 84.011C62.145 84.7148 62.1664 85.3305 62.3333 85.8582C62.5107 86.3877 62.7934 86.8112 63.1815 87.1288C63.5715 87.4358 64.0238 87.6347 64.5385 87.7255ZM73.3273 83.1826C73.7122 82.7198 74.2169 82.3755 74.8416 82.1499C75.4663 81.9243 76.141 81.8754 76.8658 82.0032C77.6432 82.1402 78.3093 82.4472 78.8643 82.9242C79.4192 83.4011 79.816 84.0072 80.0546 84.7425C80.2951 85.4673 80.3375 86.2709 80.1819 87.1532C80.0282 88.0251 79.7125 88.771 79.235 89.3908C78.7574 90.0106 78.1702 90.4541 77.4732 90.7211C76.7868 90.99 76.0601 91.0568 75.2933 90.9216C74.5475 90.7901 73.9196 90.5115 73.4098 90.0858C72.9105 89.662 72.5634 89.173 72.3687 88.6188L72.0881 90.2102L70.6542 89.9574L72.7102 78.2973L74.1441 78.5501L73.3273 83.1826ZM78.7165 86.8949C78.8314 86.2436 78.8001 85.6532 78.6227 85.1236C78.4453 84.5941 78.1529 84.1635 77.7457 83.8317C77.3489 83.5018 76.8827 83.2896 76.347 83.1952C75.8217 83.1026 75.3101 83.1477 74.8121 83.3307C74.3265 83.505 73.9036 83.815 73.5434 84.2605C73.1956 84.6974 72.9652 85.2363 72.8522 85.8771C72.7373 86.5283 72.7677 87.124 72.9432 87.664C73.1312 88.1954 73.4226 88.6313 73.8175 88.9717C74.2247 89.3034 74.6909 89.5156 75.2162 89.6082C75.7519 89.7027 76.2626 89.6628 76.7482 89.4885C77.2462 89.3055 77.6692 88.9956 78.017 88.5587C78.3666 88.1112 78.5998 87.5566 78.7165 86.8949ZM81.5336 87.3916C81.6892 86.5092 82.0039 85.7686 82.4777 85.1698C82.9534 84.5605 83.5336 84.1266 84.2182 83.8682C84.9133 83.6117 85.6442 83.551 86.4111 83.6863C87.1674 83.8196 87.7952 84.0982 88.2946 84.522C88.7939 84.9458 89.1366 85.4287 89.3227 85.9705L89.6005 84.3949L91.0501 84.6505L89.5276 93.2853L88.0779 93.0296L88.3613 91.4224C87.9888 91.8767 87.4893 92.2218 86.8628 92.4579C86.2486 92.6854 85.5686 92.7334 84.8228 92.6019C84.0559 92.4667 83.396 92.1553 82.8429 91.6679C82.2898 91.1805 81.8949 90.5638 81.6581 89.8181C81.4213 89.0723 81.3798 88.2635 81.5336 87.3916ZM88.842 88.6965C88.9568 88.0452 88.9256 87.4548 88.7481 86.9253C88.5707 86.3958 88.2784 85.9651 87.8712 85.6334C87.4763 85.293 87.011 85.0755 86.4752 84.9811C85.9395 84.8866 85.4288 84.9265 84.9431 85.1008C84.4575 85.2752 84.0408 85.5808 83.6929 86.0177C83.3451 86.4546 83.1138 86.9987 82.999 87.65C82.8823 88.3118 82.9117 88.9127 83.0873 89.4527C83.2647 89.9822 83.5508 90.4172 83.9457 90.7576C84.3424 91.0875 84.8087 91.2997 85.3444 91.3941C85.8802 91.4886 86.3908 91.4487 86.8765 91.2744C87.3745 91.0914 87.7974 90.7814 88.1452 90.3445C88.4949 89.8971 88.7272 89.3478 88.842 88.6965ZM95.4406 82.3052L93.3846 93.9654L91.9507 93.7125L94.0067 82.0524L95.4406 82.3052ZM105.385 84.7573C106.583 84.9685 107.577 85.3768 108.37 85.9822C109.174 86.579 109.734 87.333 110.05 88.2444C110.377 89.1576 110.441 90.1762 110.243 91.3002C110.044 92.4242 109.636 93.3595 109.017 94.106C108.41 94.8439 107.627 95.3556 106.666 95.6412C105.719 95.9181 104.646 95.951 103.448 95.7399L100.029 95.137L101.966 84.1544L105.385 84.7573ZM103.657 94.5581C105.075 94.8082 106.223 94.626 107.1 94.0117C107.979 93.3869 108.538 92.3969 108.777 91.0418C109.018 89.6762 108.828 88.5433 108.207 87.6431C107.596 86.7448 106.587 86.1715 105.179 85.9233L103.194 85.5732L101.671 94.208L103.657 94.5581ZM119.868 93.8423C119.82 94.1154 119.753 94.4015 119.668 94.7006L112.766 93.4836C112.669 94.3438 112.84 95.0617 113.28 95.6376C113.732 96.2047 114.337 96.555 115.093 96.6884C115.713 96.7977 116.253 96.7466 116.712 96.5352C117.184 96.3152 117.547 95.9784 117.8 95.5248L119.345 95.7971C118.967 96.5862 118.385 97.1822 117.6 97.5852C116.815 97.9777 115.909 98.0832 114.879 97.9017C114.06 97.7572 113.357 97.4437 112.77 96.9612C112.195 96.4805 111.782 95.8717 111.533 95.1345C111.286 94.3869 111.241 93.5666 111.398 92.6738C111.556 91.7809 111.872 91.0298 112.348 90.4204C112.824 89.8111 113.413 89.3844 114.117 89.1402C114.833 88.8874 115.611 88.8351 116.452 88.9832C117.271 89.1277 117.964 89.4341 118.532 89.9024C119.099 90.3707 119.495 90.9496 119.72 91.6392C119.958 92.32 120.007 93.0544 119.868 93.8423ZM118.44 93.2817C118.536 92.7355 118.497 92.2467 118.324 91.8154C118.153 91.3737 117.875 91.0159 117.49 90.7423C117.117 90.4599 116.679 90.2743 116.175 90.1854C115.45 90.0576 114.789 90.1794 114.193 90.5509C113.608 90.9242 113.206 91.514 112.988 92.3204L118.44 93.2817ZM121.172 94.3809C121.328 93.4985 121.642 92.7579 122.116 92.1591C122.592 91.5498 123.172 91.1159 123.857 90.8576C124.552 90.601 125.283 90.5404 126.05 90.6756C126.806 90.809 127.434 91.0875 127.933 91.5114C128.432 91.9352 128.775 92.418 128.961 92.9599L129.239 91.3842L130.689 91.6398L129.166 100.275L127.716 100.019L128 98.4118C127.627 98.866 127.128 99.2112 126.501 99.4473C125.887 99.6748 125.207 99.7227 124.461 99.5912C123.694 99.456 123.034 99.1447 122.481 98.6572C121.928 98.1698 121.533 97.5532 121.297 96.8074C121.06 96.0616 121.018 95.2528 121.172 94.3809ZM128.481 95.6858C128.595 95.0345 128.564 94.4441 128.387 93.9146C128.209 93.3851 127.917 92.9545 127.51 92.6227C127.115 92.2823 126.649 92.0649 126.114 91.9704C125.578 91.8759 125.067 91.9159 124.582 92.0902C124.096 92.2645 123.679 92.5701 123.331 93.007C122.984 93.4439 122.752 93.988 122.637 94.6393C122.521 95.3011 122.55 95.902 122.726 96.442C122.903 96.9715 123.189 97.4065 123.584 97.7469C123.981 98.0768 124.447 98.289 124.983 98.3835C125.519 98.4779 126.029 98.438 126.515 98.2637C127.013 98.0807 127.436 97.7708 127.784 97.3339C128.133 96.8865 128.366 96.3371 128.481 95.6858ZM135.079 89.2946L133.023 100.955L131.589 100.702L133.645 89.0417L135.079 89.2946ZM138.499 102.066C137.837 101.95 137.263 101.735 136.777 101.422C136.292 101.098 135.933 100.71 135.698 100.257C135.466 99.7933 135.38 99.2962 135.442 98.7654L136.923 99.0265C136.889 99.4646 137.026 99.8517 137.335 100.188C137.655 100.526 138.109 100.747 138.697 100.85C139.243 100.947 139.695 100.902 140.053 100.716C140.411 100.53 140.622 100.253 140.687 99.8852C140.753 99.5071 140.634 99.199 140.33 98.9612C140.027 98.7128 139.539 98.4373 138.867 98.1346C138.256 97.8536 137.76 97.5929 137.38 97.3526C137.013 97.1036 136.711 96.7851 136.476 96.3971C136.254 96.0005 136.192 95.5238 136.29 94.967C136.368 94.5258 136.57 94.1445 136.898 93.8232C137.225 93.5018 137.649 93.2787 138.169 93.1538C138.691 93.0184 139.262 93.0054 139.882 93.1147C140.838 93.2832 141.568 93.661 142.071 94.2479C142.574 94.8348 142.772 95.5522 142.666 96.4L141.232 96.1471C141.28 95.6899 141.16 95.2951 140.872 94.9627C140.595 94.6321 140.178 94.4178 139.621 94.3196C139.106 94.2288 138.677 94.2669 138.334 94.4338C137.99 94.6007 137.787 94.8627 137.724 95.2198C137.674 95.5035 137.721 95.7556 137.867 95.9761C138.024 96.1881 138.229 96.3759 138.482 96.5396C138.747 96.6946 139.115 96.884 139.584 97.1076C140.174 97.3849 140.649 97.6419 141.008 97.8785C141.369 98.1046 141.657 98.4046 141.873 98.7784C142.099 99.154 142.171 99.6054 142.089 100.132C142.006 100.605 141.799 101.007 141.47 101.339C141.141 101.671 140.715 101.905 140.193 102.04C139.683 102.167 139.119 102.176 138.499 102.066Z" fill="#7C7575"/>
<path d="M28.0627 170.499C34.1128 171.875 47.1211 171.911 50.7531 161.046C55.2931 147.465 65.2021 139.933 69.8183 145.386C74.4344 150.84 72.3911 164.861 81.9618 166.549C91.5324 168.236 106.318 147.647 111.431 142.982C116.545 138.316 130.733 135.715 135.782 163.049C139.82 184.916 145.97 182.32 148.54 178.288" stroke="#FACC15" stroke-width="2.74126"/>
<circle cx="119.29" cy="141.583" r="6.39627" transform="rotate(10 119.29 141.583)" fill="#FACC15"/>
<circle cx="119.29" cy="141.583" r="8.68066" transform="rotate(10 119.29 141.583)" stroke="#FACC15" stroke-opacity="0.16" stroke-width="4.56877"/>
<line x1="119.739" y1="141.663" x2="111.965" y2="185.757" stroke="#FACC15" stroke-width="0.913753" stroke-dasharray="3.66 3.66"/>
</svg>
