<svg width="201" height="227" viewBox="0 0 201 227" fill="none" xmlns="http://www.w3.org/2000/svg">
<rect x="0.180664" y="29.3535" width="168" height="200" rx="20" transform="rotate(-10 0.180664 29.3535)" fill="white"/>
<rect x="-2.13625" y="27.7312" width="172" height="204" rx="22" transform="rotate(-10 -2.13625 27.7312)" stroke="#1877F2" stroke-opacity="0.1" stroke-width="4"/>
<path d="M31.2335 60.0272L30.6959 56.9783L36.392 55.9739L39.4302 73.2041L36.0267 73.8042L33.5262 59.623L31.2335 60.0272ZM43.0806 68.7099C44.371 67.1826 45.3916 65.9223 46.1425 64.9288C46.8906 63.9195 47.4835 62.9052 47.9211 61.8857C48.3587 60.8662 48.4997 59.9153 48.3441 59.0329C48.2024 58.2293 47.9022 57.6324 47.4435 57.2421C46.9847 56.8518 46.3614 56.7261 45.5736 56.8651C44.7857 57.004 44.2263 57.3788 43.8954 57.9896C43.5616 58.5846 43.4674 59.3404 43.6128 60.2571L40.3984 60.8239C40.128 58.9219 40.4346 57.3894 41.318 56.2263C42.2172 55.0605 43.4862 54.3331 45.1249 54.0441C46.9212 53.7274 48.3847 53.9649 49.5153 54.7565C50.6432 55.5325 51.3447 56.7004 51.6197 58.2604C51.8364 59.4894 51.7125 60.7216 51.248 61.9571C50.7835 63.1925 50.1994 64.3028 49.4958 65.2879C48.7894 66.2573 47.8536 67.4459 46.6883 68.8536L53.6608 67.6242L54.1442 70.3659L42.4683 72.4247L42.0349 69.9666L43.0806 68.7099ZM59.6527 66.0559L58.0584 73.185L55.9313 73.5601L56.2965 66.6477L59.6527 66.0559ZM71.3196 52.764L63.6617 54.1143L64.3744 58.1559C64.633 57.6879 65.0474 57.2737 65.6175 56.9132C66.1848 56.537 66.815 56.2877 67.5084 56.1655C68.7689 55.9432 69.8496 56.037 70.7505 56.4468C71.6513 56.8566 72.3593 57.4628 72.8746 58.2656C73.387 59.0525 73.7293 59.9345 73.9016 60.9114C74.2211 62.7235 73.9581 64.2727 73.1127 65.559C72.283 66.8426 70.9148 67.6525 69.0082 67.9887C67.2119 68.3054 65.6989 68.1092 64.469 67.4C63.2392 66.6907 62.4256 65.6238 62.0281 64.1992L65.2425 63.6324C65.4955 64.2377 65.8995 64.6863 66.4547 64.9784C67.0256 65.2676 67.6971 65.3442 68.4692 65.208C69.3988 65.0441 70.0486 64.629 70.4185 63.9626C70.7884 63.2963 70.8886 62.4825 70.7192 61.5213C70.5469 60.5444 70.1721 59.8469 69.5947 59.4288C69.0303 58.9922 68.2833 58.8558 67.3536 59.0197C66.6918 59.1364 66.1695 59.3991 65.7867 59.8078C65.4038 60.2165 65.1665 60.7133 65.0746 61.2981L61.9075 61.8565L60.1238 51.7406L70.807 49.8569L71.3196 52.764ZM75.9241 57.6547C75.4435 54.9288 75.5555 52.7076 76.2601 50.9912C76.9805 49.2719 78.4831 48.2109 80.7678 47.808C83.0526 47.4052 84.8196 47.8897 86.0688 49.2616C87.3338 50.6308 88.2066 52.6783 88.6872 55.4043C89.1707 58.146 89.0536 60.3843 88.3359 62.1193C87.6341 63.8515 86.1408 64.919 83.856 65.3219C81.5713 65.7247 79.795 65.2337 78.5273 63.8488C77.2753 62.4611 76.4076 60.3964 75.9241 57.6547ZM85.4255 55.9794C85.2199 54.8134 84.9689 53.8503 84.6724 53.0903C84.3889 52.3117 83.9742 51.7105 83.4284 51.2869C82.8983 50.8605 82.192 50.7251 81.3096 50.8806C80.4272 51.0362 79.802 51.4064 79.434 51.9912C79.0817 52.5732 78.8976 53.2799 78.8817 54.1113C78.8789 54.9242 78.9802 55.9136 79.1858 57.0796C79.397 58.2771 79.6457 59.2731 79.932 60.0674C80.2155 60.846 80.6302 61.4472 81.176 61.8708C81.7191 62.2787 82.4318 62.4049 83.3142 62.2493C84.1966 62.0937 84.8232 61.7314 85.194 61.1623C85.5621 60.5775 85.7462 59.8708 85.7463 59.0422C85.7436 58.1979 85.6367 57.1769 85.4255 55.9794ZM91.204 54.9605C90.7234 52.2345 90.8354 50.0133 91.54 48.2969C92.2604 46.5777 93.763 45.5166 96.0478 45.1138C98.3325 44.7109 100.099 45.1954 101.349 46.5674C102.614 47.9365 103.486 49.9841 103.967 52.71C104.451 55.4517 104.333 57.69 103.616 59.425C102.914 61.1572 101.421 62.2247 99.1359 62.6276C96.8512 63.0305 95.0749 62.5395 93.8072 61.1546C92.5552 59.7669 91.6875 57.7022 91.204 54.9605ZM100.705 53.2851C100.5 52.1191 100.249 51.1561 99.9523 50.396C99.6688 49.6174 99.2541 49.0163 98.7083 48.5926C98.1782 48.1662 97.4719 48.0308 96.5895 48.1864C95.7072 48.342 95.0819 48.7122 94.7139 49.297C94.3616 49.879 94.1775 50.5857 94.1617 51.4171C94.1588 52.2299 94.2601 53.2193 94.4657 54.3854C94.6769 55.5829 94.9256 56.5788 95.2119 57.3732C95.4954 58.1518 95.9101 58.7529 96.4559 59.1765C96.999 59.5844 97.7117 59.7106 98.5941 59.555C99.4765 59.3994 100.103 59.0371 100.474 58.4681C100.842 57.8833 101.026 57.1766 101.026 56.348C101.024 55.5036 100.917 54.4826 100.705 53.2851ZM119.553 51.8871L115.086 52.6748L115.894 57.26L112.774 57.8102L111.966 53.2249L107.499 54.0126L106.99 51.129L111.457 50.3414L110.649 45.7561L113.769 45.206L114.577 49.7913L119.044 49.0036L119.553 51.8871Z" fill="#1C1C1C"/>
<path d="M46.6312 93.104L44.4237 104.817L42.7692 105.109L36.6886 94.8571L38.217 94.5876L43.3376 103.449L45.1186 93.3707L46.6312 93.104ZM57.1988 97.7718C57.247 98.045 57.2822 98.3366 57.3044 98.6468L50.4028 99.8637C50.6054 100.705 51.0119 101.321 51.6223 101.712C52.2414 102.09 52.9291 102.213 53.6855 102.079C54.3052 101.97 54.7949 101.738 55.1546 101.382C55.5229 101.013 55.7485 100.573 55.8314 100.06L57.3756 99.7878C57.2908 100.658 56.9481 101.417 56.3474 102.065C55.7448 102.702 54.9288 103.111 53.8994 103.293C53.08 103.437 52.3123 103.383 51.5962 103.13C50.8906 102.875 50.2947 102.444 49.8085 101.837C49.3204 101.219 48.9976 100.464 48.8402 99.5706C48.6828 98.6777 48.7233 97.8637 48.962 97.1284C49.2006 96.3931 49.6088 95.7904 50.1866 95.3203C50.773 94.8378 51.4865 94.5224 52.3268 94.3742C53.1462 94.2298 53.9025 94.2805 54.5958 94.5266C55.289 94.7726 55.8593 95.1811 56.3066 95.7521C56.7625 96.3107 57.0599 96.984 57.1988 97.7718ZM55.6649 97.7336C55.5686 97.1874 55.3653 96.7412 55.0552 96.3952C54.7432 96.0386 54.3595 95.7975 53.9042 95.6721C53.4574 95.5342 52.982 95.5097 52.4777 95.5986C51.7529 95.7264 51.1739 96.0668 50.7407 96.6198C50.3179 97.1709 50.1421 97.8626 50.213 98.6949L55.6649 97.7336ZM60.0697 94.6011C60.2348 94.063 60.5243 93.6166 60.9384 93.262C61.3629 92.9055 61.9114 92.668 62.5837 92.5494L62.8448 94.0306L62.4667 94.0973C60.8595 94.3807 60.2096 95.3942 60.5171 97.138L61.345 101.834L59.9111 102.086L58.3886 93.4516L59.8225 93.1988L60.0697 94.6011ZM64.76 90.8822C64.4868 90.9304 64.2391 90.8766 64.0166 90.7208C63.7942 90.5651 63.6589 90.3506 63.6108 90.0775C63.5626 89.8044 63.6164 89.5566 63.7721 89.3342C63.9279 89.1118 64.1423 88.9765 64.4154 88.9283C64.6781 88.882 64.9153 88.9377 65.1272 89.0953C65.3497 89.251 65.485 89.4654 65.5331 89.7386C65.5813 90.0117 65.5275 90.2595 65.3717 90.4819C65.2265 90.7024 65.0226 90.8359 64.76 90.8822ZM65.7005 92.1623L67.2231 100.797L65.7892 101.05L64.2667 92.4151L65.7005 92.1623ZM71.8665 92.2936L70.0545 92.6131L71.3686 100.066L69.9348 100.319L68.6206 92.8659L67.5018 93.0632L67.2935 91.8814L68.4122 91.6842L68.3038 91.0697C68.1334 90.1032 68.2562 89.3559 68.6721 88.8276C69.0967 88.287 69.8605 87.9195 70.9635 87.725L71.1746 88.9225C70.5443 89.0337 70.1201 89.2384 69.902 89.5369C69.6924 89.8229 69.6377 90.2496 69.7377 90.8168L69.8461 91.4313L71.6581 91.1118L71.8665 92.2936ZM73.8233 89.2841C73.5501 89.3322 73.3024 89.2785 73.0799 89.1227C72.8575 88.967 72.7222 88.7525 72.6741 88.4794C72.6259 88.2063 72.6797 87.9585 72.8355 87.7361C72.9912 87.5137 73.2056 87.3784 73.4787 87.3302C73.7414 87.2839 73.9786 87.3396 74.1905 87.4972C74.413 87.6529 74.5483 87.8673 74.5964 88.1405C74.6446 88.4136 74.5908 88.6613 74.435 88.8838C74.2898 89.1043 74.0859 89.2378 73.8233 89.2841ZM74.7638 90.5642L76.2864 99.199L74.8525 99.4518L73.33 90.817L74.7638 90.5642ZM85.789 92.7306C85.8372 93.0037 85.8724 93.2954 85.8946 93.6056L78.993 94.8225C79.1956 95.6641 79.6021 96.2802 80.2125 96.6708C80.8316 97.0491 81.5193 97.1715 82.2757 97.0381C82.8954 96.9289 83.3851 96.6963 83.7448 96.3404C84.1131 95.9722 84.3387 95.5317 84.4216 95.0188L85.9658 94.7465C85.881 95.6172 85.5383 96.3762 84.9376 97.0237C84.335 97.6607 83.519 98.0699 82.4896 98.2514C81.6702 98.3959 80.9025 98.3417 80.1864 98.0889C79.4808 97.8342 78.8849 97.4032 78.3987 96.7957C77.9106 96.1777 77.5878 95.4223 77.4304 94.5294C77.273 93.6365 77.3135 92.8224 77.5522 92.0872C77.7908 91.3519 78.199 90.7492 78.7768 90.279C79.3632 89.7965 80.0767 89.4812 80.917 89.333C81.7364 89.1885 82.4927 89.2393 83.186 89.4853C83.8792 89.7314 84.4495 90.1399 84.8968 90.7109C85.3527 91.2695 85.6501 91.9428 85.789 92.7306ZM84.2551 92.6924C84.1588 92.1462 83.9555 91.7 83.6454 91.3539C83.3334 90.9974 82.9497 90.7563 82.4944 90.6308C82.0476 90.493 81.5722 90.4685 81.0679 90.5574C80.3431 90.6852 79.7641 91.0256 79.3309 91.5786C78.9081 92.1297 78.7323 92.8214 78.8032 93.6537L84.2551 92.6924ZM87.1988 92.7907C87.0432 91.9083 87.0856 91.1048 87.3261 90.38C87.5647 89.6447 87.9615 89.0386 88.5164 88.5617C89.0819 88.0829 89.7533 87.7749 90.5306 87.6379C91.2029 87.5193 91.8557 87.5667 92.489 87.78C93.1205 87.9827 93.633 88.3094 94.0265 88.7599L93.2208 84.1904L94.6705 83.9347L96.7264 95.5949L95.2768 95.8505L94.9906 94.2275C94.7978 94.7922 94.4526 95.2918 93.9551 95.7261C93.4558 96.1499 92.8332 96.4276 92.0874 96.5591C91.3206 96.6943 90.5887 96.6284 89.8917 96.3613C89.2053 96.0925 88.6233 95.6481 88.1457 95.0283C87.6681 94.4085 87.3525 93.6626 87.1988 92.7907ZM94.5128 91.5173C94.3979 90.866 94.1666 90.3219 93.8188 89.885C93.471 89.4481 93.049 89.1434 92.5528 88.971C92.0653 88.7862 91.5537 88.741 91.018 88.8354C90.4822 88.9299 90.016 89.1421 89.6192 89.472C89.2225 89.8019 88.9354 90.2316 88.758 90.7611C88.5806 91.2907 88.5493 91.8811 88.6642 92.5323C88.7809 93.1941 89.014 93.7487 89.3637 94.1961C89.7115 94.633 90.1292 94.9439 90.6167 95.1287C91.1023 95.303 91.613 95.343 92.1488 95.2485C92.6845 95.154 93.1507 94.9419 93.5475 94.612C93.9529 94.2697 94.2443 93.8338 94.4217 93.3043C94.5972 92.7643 94.6276 92.1686 94.5128 91.5173ZM107.622 82.3496L107.828 83.5156L103.053 84.3575L103.706 88.0604L107.582 87.3769L107.788 88.5429L103.912 89.2264L104.784 94.1741L103.35 94.4269L101.414 83.4443L107.622 82.3496ZM117.426 83.0418L118.948 91.6766L117.514 91.9294L117.289 90.6531C117.094 91.1424 116.772 91.5567 116.322 91.8959C115.882 92.2227 115.367 92.4379 114.779 92.5417C114.107 92.6602 113.479 92.6301 112.895 92.4515C112.309 92.2623 111.81 91.9172 111.396 91.416C110.993 90.913 110.722 90.2623 110.581 89.4639L109.689 84.4059L111.107 84.1559L111.966 89.0248C112.116 89.8757 112.447 90.4942 112.959 90.8805C113.469 91.2562 114.097 91.3784 114.843 91.2469C115.61 91.1116 116.172 90.7688 116.53 90.2183C116.888 89.6678 116.987 88.9408 116.828 88.0374L115.992 83.2946L117.426 83.0418ZM124.026 81.7155C125.077 81.5303 125.984 81.7006 126.748 82.2266C127.511 82.742 127.997 83.5985 128.209 84.796L129.106 89.8855L127.688 90.1355L126.827 85.2509C126.675 84.3895 126.344 83.7709 125.833 83.3952C125.321 83.0089 124.692 82.8816 123.946 83.0131C123.19 83.1464 122.627 83.4893 122.259 84.0416C121.901 84.5921 121.802 85.3191 121.961 86.2225L122.803 90.9968L121.369 91.2497L119.847 82.6149L121.281 82.362L121.497 83.5911C121.703 83.0999 122.026 82.6909 122.467 82.3641C122.918 82.0354 123.438 81.8192 124.026 81.7155ZM130.146 85.218C129.99 84.3357 130.032 83.5321 130.273 82.8073C130.512 82.072 130.908 81.4659 131.463 80.989C132.029 80.5102 132.7 80.2023 133.477 80.0652C134.15 79.9466 134.803 79.994 135.436 80.2073C136.067 80.41 136.58 80.7367 136.973 81.1872L136.168 76.6177L137.617 76.3621L139.673 88.0222L138.224 88.2778L137.937 86.6548C137.745 87.2196 137.399 87.7191 136.902 88.1534C136.403 88.5772 135.78 88.8549 135.034 88.9864C134.267 89.1216 133.536 89.0557 132.839 88.7887C132.152 88.5198 131.57 88.0754 131.093 87.4556C130.615 86.8358 130.299 86.0899 130.146 85.218ZM137.46 83.9446C137.345 83.2933 137.113 82.7493 136.766 82.3123C136.418 81.8754 135.996 81.5708 135.5 81.3983C135.012 81.2135 134.501 81.1683 133.965 81.2628C133.429 81.3572 132.963 81.5694 132.566 81.8993C132.169 82.2292 131.882 82.6589 131.705 83.1884C131.527 83.718 131.496 84.3084 131.611 84.9597C131.728 85.6214 131.961 86.176 132.311 86.6235C132.658 87.0604 133.076 87.3712 133.564 87.556C134.049 87.7304 134.56 87.7703 135.096 87.6758C135.631 87.5814 136.098 87.3692 136.494 87.0393C136.9 86.697 137.191 86.2611 137.369 85.7316C137.544 85.1916 137.574 84.5959 137.46 83.9446ZM145.178 87.1977C144.516 87.3144 143.904 87.3088 143.339 87.1808C142.773 87.0423 142.303 86.8003 141.928 86.4549C141.551 86.0989 141.301 85.6611 141.176 85.1414L142.658 84.8802C142.775 85.3035 143.037 85.6202 143.442 85.8304C143.858 86.0387 144.36 86.0909 144.949 85.9872C145.495 85.8909 145.904 85.6942 146.177 85.397C146.449 85.0998 146.553 84.7674 146.488 84.3997C146.422 84.0216 146.204 83.7728 145.837 83.6535C145.467 83.5237 144.915 83.4316 144.18 83.3771C143.509 83.322 142.954 83.2465 142.515 83.1507C142.084 83.0425 141.692 82.8463 141.339 82.562C140.994 82.2653 140.773 81.8387 140.675 81.2819C140.597 80.8407 140.657 80.4131 140.855 79.9992C141.052 79.5852 141.374 79.2306 141.82 78.9353C142.265 78.6295 142.797 78.4219 143.417 78.3126C144.373 78.1441 145.187 78.2496 145.861 78.629C146.534 79.0085 146.966 79.6148 147.156 80.4477L145.722 80.7005C145.611 80.2544 145.363 79.9244 144.979 79.7106C144.605 79.4949 144.14 79.4361 143.583 79.5343C143.069 79.625 142.678 79.8076 142.413 80.0819C142.147 80.3562 142.045 80.6719 142.108 81.0291C142.158 81.3127 142.289 81.5333 142.501 81.6909C142.722 81.8361 142.979 81.9425 143.272 82.0099C143.575 82.0649 143.985 82.1172 144.502 82.1667C145.152 82.2255 145.686 82.3046 146.104 82.4042C146.52 82.4932 146.894 82.6765 147.224 82.9539C147.565 83.2296 147.788 83.6291 147.891 84.1525C147.974 84.6252 147.918 85.0738 147.722 85.4982C147.526 85.9227 147.206 86.2878 146.761 86.5936C146.326 86.8871 145.798 87.0884 145.178 87.1977Z" fill="#7C7575"/>
<rect x="49.3772" y="170.15" width="12.5373" height="28.8" rx="4" transform="rotate(-10 49.3772 170.15)" fill="#00E5A0" fill-opacity="0.2"/>
<rect x="83.126" y="155.263" width="12.5373" height="37.6" rx="4" transform="rotate(-10 83.126 155.263)" fill="#00E5A0" fill-opacity="0.2"/>
<rect x="140" y="168.386" width="12.5373" height="14.8" rx="4" transform="rotate(-10 140 168.386)" fill="#00E5A0" fill-opacity="0.2"/>
<rect x="68.8909" y="177.676" width="12.5373" height="18" rx="4" transform="rotate(-10 68.8909 177.676)" fill="#00E5A0" fill-opacity="0.2"/>
<rect x="118.958" y="152.194" width="12.5373" height="34.4" rx="4" transform="rotate(-10 118.958 152.194)" fill="#00E5A0" fill-opacity="0.2"/>
<rect x="97.2217" y="132.063" width="12.5373" height="58" rx="4" transform="rotate(-10 97.2217 132.063)" fill="#00E5A0"/>
<rect x="158.611" y="170.791" width="12.5373" height="9.2" rx="4" transform="rotate(-10 158.611 170.791)" fill="#00E5A0" fill-opacity="0.2"/>
</svg>
