<svg width="24" height="24" viewBox="0 0 24 24" fill="none" xmlns="http://www.w3.org/2000/svg">
<path d="M21.75 15H15.75C15.3355 15 15 15.3358 15 15.75V18H14.25V12.23C14.4955 12.1117 14.731 11.9759 14.9542 11.8209L15.386 12.0722C15.5585 12.1733 15.7651 12.2007 15.9573 12.1483C16.1503 12.0967 16.3147 11.97 16.414 11.7964L17.9011 9.19852C18.1055 8.84107 17.9839 8.38552 17.6279 8.17822L17.1925 7.92443C17.2046 7.782 17.2105 7.641 17.2105 7.5C17.2105 7.359 17.2046 7.218 17.1926 7.07557L17.628 6.82178C17.9839 6.61448 18.1055 6.15893 17.9012 5.80148L16.4141 3.20355C16.3148 3.03 16.1504 2.90325 15.9574 2.85165C15.7658 2.80035 15.5589 2.82675 15.3861 2.92785L14.9543 3.1791C14.7269 3.0213 14.4874 2.8821 14.2369 2.76233V2.25C14.2369 1.83585 13.9011 1.5 13.4869 1.5H10.5134C10.0992 1.5 9.76335 1.83585 9.76335 2.25V2.76233C9.51285 2.8821 9.27338 3.02122 9.04598 3.1791L8.6142 2.92785C8.4417 2.82675 8.23478 2.80005 8.04292 2.85165C7.84995 2.90325 7.68547 3.03 7.58625 3.20355L6.09923 5.80155C5.89455 6.15893 6.0165 6.61448 6.37245 6.82178L6.80753 7.07557C6.79538 7.218 6.78953 7.359 6.78953 7.5C6.78953 7.641 6.79537 7.782 6.80745 7.92443L6.37238 8.17822C6.01643 8.38552 5.89447 8.84107 6.09915 9.19852L7.58595 11.7964C7.68517 11.97 7.84965 12.0967 8.04263 12.1483C8.23523 12.2011 8.44215 12.1733 8.6139 12.0722L9.04567 11.8209C9.27307 11.9787 9.51262 12.1179 9.76305 12.2377V12.6847C9.7611 12.7073 9.75 12.7268 9.75 12.75V18H9V15.75C9 15.3358 8.66453 15 8.25 15H2.25C1.83548 15 1.5 15.3358 1.5 15.75V21.75C1.5 22.1642 1.83548 22.5 2.25 22.5H8.25C8.66453 22.5 9 22.1642 9 21.75V19.5H10.5C10.9145 19.5 11.25 19.1642 11.25 18.75V13.5H12.75V18.75C12.75 19.1642 13.0855 19.5 13.5 19.5H15V21.75C15 22.1642 15.3355 22.5 15.75 22.5H21.75C22.1645 22.5 22.5 22.1642 22.5 21.75V15.75C22.5 15.3358 22.1645 15 21.75 15ZM7.44653 17.068L5.19653 20.818C5.1372 20.9168 5.03542 20.9831 4.92112 20.9971C4.90575 20.9989 4.89037 21 4.875 21C4.77615 21 4.6809 20.9608 4.60988 20.8901L3.10988 19.3901C2.9634 19.2437 2.9634 19.0063 3.10988 18.8599C3.25635 18.7134 3.49365 18.7134 3.64012 18.8599L4.8003 20.0204L6.80347 16.682C6.91042 16.5044 7.14255 16.4484 7.3176 16.5535C7.49557 16.6601 7.55348 16.8904 7.44653 17.068ZM12.0465 9C11.2194 9 10.5465 8.3271 10.5465 7.5C10.5465 6.6729 11.2194 6 12.0465 6C12.8736 6 13.5465 6.6729 13.5465 7.5C13.5465 8.3271 12.8737 9 12.0465 9ZM21.2651 20.7349C21.4116 20.8813 21.4116 21.1187 21.2651 21.2651C21.1919 21.3384 21.0959 21.375 21 21.375C20.9041 21.375 20.8081 21.3384 20.7349 21.2651L18.75 19.2803L16.7651 21.2651C16.6919 21.3384 16.5959 21.375 16.5 21.375C16.4041 21.375 16.3081 21.3384 16.2349 21.2651C16.0884 21.1187 16.0884 20.8813 16.2349 20.7349L18.2197 18.75L16.2349 16.7651C16.0884 16.6187 16.0884 16.3813 16.2349 16.2349C16.3813 16.0884 16.6187 16.0884 16.7651 16.2349L18.75 18.2197L20.7349 16.2349C20.8813 16.0884 21.1187 16.0884 21.2651 16.2349C21.4116 16.3813 21.4116 16.6187 21.2651 16.7651L19.2803 18.75L21.2651 20.7349Z" fill="#5172E7"/>
</svg>
