<svg width="24" height="24" viewBox="0 0 24 24" fill="none" xmlns="http://www.w3.org/2000/svg">
<g clip-path="url(#clip0_4447_2240)">
<path fill-rule="evenodd" clip-rule="evenodd" d="M3.52753 18.9324C3.59358 19.0264 3.58275 19.1516 3.50152 19.2329L2.49342 20.241C2.39198 20.3424 2.22633 20.3307 2.14022 20.216C1.12125 18.8579 0.515625 17.1742 0.515625 15.3556C0.515625 10.8848 4.17356 7.2268 8.64445 7.2268H14.2397V9.10414H8.64445C5.21053 9.10414 2.39297 11.9217 2.39297 15.3556C2.39297 16.6822 2.81348 17.9167 3.52753 18.9324ZM23.3993 8.00038L20.3273 5.816C20.1929 5.72042 20.0074 5.81614 20.0074 5.98105V7.2268H17.4295V9.10414H20.0074V10.3499C20.0074 10.5149 20.1928 10.6105 20.3273 10.5149L23.3993 8.33052C23.5127 8.2498 23.5127 8.08109 23.3993 8.00042V8.00038ZM18.184 3.67278L15.9996 0.600782C15.9189 0.487297 15.7502 0.487344 15.6695 0.600782L13.485 3.67278C13.3895 3.80717 13.4852 3.99266 13.6501 3.99266H14.8958V15.3556C14.8958 18.7895 12.0783 21.6071 8.64436 21.6071C7.3178 21.6071 6.08325 21.1865 5.06756 20.4725C4.97358 20.4064 4.84833 20.4172 4.76705 20.4985L3.75891 21.5066C3.65747 21.608 3.66919 21.7738 3.78394 21.8598C5.14191 22.8789 6.8258 23.4844 8.64431 23.4844C13.1152 23.4844 16.7731 19.8264 16.7731 15.3556V3.99266H18.0189C18.1839 3.99266 18.2796 3.80722 18.1839 3.67278H18.184ZM12.5848 16.3175L12.1108 17.4616L12.4845 18.0189C12.5453 18.1097 12.5338 18.2279 12.4565 18.3052L11.5941 19.1677C11.5168 19.245 11.3985 19.2565 11.3077 19.1957L10.7505 18.8219L9.60633 19.2959L9.47653 19.9542C9.45539 20.0614 9.36361 20.1368 9.2543 20.1368H8.03456C7.9253 20.1368 7.83347 20.0614 7.81233 19.9542L7.68253 19.2959L6.53841 18.8219L5.98111 19.1956C5.89036 19.2565 5.77209 19.2449 5.6948 19.1676L4.83234 18.3052C4.75505 18.2279 4.74352 18.1097 4.80441 18.0189L5.17809 17.4616L4.70409 16.3174L4.04587 16.1877C3.93867 16.1665 3.8632 16.0747 3.8632 15.9654V14.7457C3.8632 14.6364 3.93867 14.5446 4.04587 14.5235L4.70409 14.3937L5.17809 13.2495L4.80441 12.6922C4.74352 12.6014 4.75509 12.4832 4.83234 12.4059L5.69484 11.5434C5.77209 11.4661 5.89036 11.4546 5.98111 11.5154L6.53841 11.8891L7.68258 11.4151L7.81238 10.7569C7.83352 10.6497 7.9253 10.5742 8.03456 10.5742H9.2543C9.36356 10.5742 9.45539 10.6497 9.47653 10.7569L9.60633 11.4151L10.7505 11.8891L11.3078 11.5154C11.3986 11.4545 11.5168 11.4661 11.5941 11.5434L12.4566 12.4059C12.5339 12.4832 12.5454 12.6014 12.4845 12.6922L12.1108 13.2495L12.5848 14.3937L13.243 14.5235C13.3503 14.5446 13.4257 14.6364 13.4257 14.7457V15.9654C13.4257 16.0747 13.3502 16.1665 13.243 16.1877L12.5848 16.3174L12.5848 16.3175ZM11.0964 15.3556C11.0964 14.0014 9.99862 12.9036 8.64441 12.9036C7.29019 12.9036 6.19242 14.0014 6.19242 15.3556C6.19242 16.7098 7.29023 17.8076 8.64441 17.8076C9.99858 17.8076 11.0964 16.7098 11.0964 15.3556Z" fill="#5172E7"/>
</g>
<defs>
<clipPath id="clip0_4447_2240">
<rect width="24" height="24" fill="white"/>
</clipPath>
</defs>
</svg>
