<svg width="24" height="24" viewBox="0 0 24 24" fill="none" xmlns="http://www.w3.org/2000/svg">
<g clip-path="url(#clip0_4447_2224)">
<path d="M6.49527 23.2942H1.41291C1.05997 23.2942 0.707031 22.9413 0.707031 22.5883V17.4354C0.707031 17.0118 1.05997 16.7295 1.41291 16.7295H6.35409V22.5883C6.35409 22.8001 6.42468 23.0824 6.49527 23.2942Z" fill="#5172E7"/>
<path d="M16.2362 14.1177V22.5883C16.2362 22.9413 15.8833 23.2942 15.5303 23.2942H8.47151C8.11857 23.2942 7.76562 22.9413 7.76562 22.5883V14.1177C7.76562 13.6942 8.11857 13.4119 8.47151 13.4119H15.5303C15.8833 13.4119 16.2362 13.6942 16.2362 14.1177Z" fill="#5172E7"/>
<path d="M23.2921 18.3529V22.5881C23.2921 22.9411 22.9392 23.294 22.5863 23.294H17.5039C17.5745 23.0823 17.6451 22.7999 17.6451 22.5881V17.647H22.5863C22.9392 17.647 23.2921 17.9293 23.2921 18.3529Z" fill="#5172E7"/>
<path d="M17.7174 5.64706L15.388 7.90588L15.9527 11.1529C16.0233 11.4353 15.8822 11.7176 15.6704 11.8588C15.4586 12 15.1057 12 14.8939 11.9294L11.9998 10.3765L9.10568 11.8588C8.89391 12 8.61156 12 8.3998 11.7882C8.18803 11.6471 8.04686 11.3647 8.11744 11.0823L8.68215 7.83529L6.28215 5.64706C6.14097 5.50588 6.07039 5.22353 6.14097 4.94117C6.21156 4.65882 6.42333 4.51764 6.70568 4.44706L9.95274 3.95294L11.3645 1.05882C11.5763 0.564703 12.4233 0.564703 12.6351 1.05882L14.0469 3.95294L17.2939 4.44706C17.5763 4.51764 17.788 4.65882 17.8586 4.94117C17.9292 5.22353 17.8586 5.50588 17.7174 5.64706Z" fill="#5172E7"/>
</g>
<defs>
<clipPath id="clip0_4447_2224">
<rect width="24" height="24" fill="white"/>
</clipPath>
</defs>
</svg>
