<svg width="26" height="26" viewBox="0 0 26 26" fill="none" xmlns="http://www.w3.org/2000/svg">
<path d="M22.4545 0H3.54545C1.58735 0 0 1.58735 0 3.54545V22.4545C0 24.4126 1.58735 26 3.54545 26H22.4545C24.4126 26 26 24.4126 26 22.4545V3.54545C26 1.58735 24.4126 0 22.4545 0Z" fill="#0077B5"/>
<path d="M9.36541 7.09091C9.36541 7.52917 9.23545 7.9576 8.99197 8.322C8.74848 8.68641 8.4024 8.97043 7.9975 9.13814C7.59259 9.30586 7.14705 9.34974 6.7172 9.26424C6.28736 9.17874 5.89252 8.96769 5.58262 8.65779C5.27272 8.34789 5.06167 7.95306 4.97617 7.52321C4.89067 7.09337 4.93455 6.64782 5.10227 6.24292C5.26999 5.83801 5.55401 5.49194 5.91841 5.24845C6.28282 5.00496 6.71124 4.875 7.1495 4.875C7.7372 4.875 8.30083 5.10846 8.71639 5.52402C9.13195 5.93959 9.36541 6.50321 9.36541 7.09091ZM8.86314 10.7841V20.574C8.86353 20.6462 8.84964 20.7178 8.82227 20.7846C8.7949 20.8515 8.7546 20.9122 8.70366 20.9634C8.65273 21.0146 8.59218 21.0553 8.52549 21.083C8.45881 21.1107 8.3873 21.125 8.31507 21.125H5.9795C5.90728 21.1252 5.83573 21.1111 5.76897 21.0836C5.70221 21.056 5.64155 21.0155 5.59048 20.9645C5.53941 20.9134 5.49894 20.8527 5.47139 20.786C5.44385 20.7192 5.42976 20.6477 5.42996 20.5755V10.7841C5.42996 10.6383 5.48786 10.4986 5.59092 10.3955C5.69398 10.2924 5.83376 10.2345 5.9795 10.2345H8.31507C8.46056 10.2349 8.59996 10.293 8.70271 10.396C8.80545 10.499 8.86314 10.6386 8.86314 10.7841ZM21.0713 15.8807V20.6198C21.0715 20.6862 21.0586 20.752 21.0333 20.8133C21.0079 20.8747 20.9707 20.9305 20.9238 20.9775C20.8768 21.0244 20.8211 21.0616 20.7597 21.0869C20.6983 21.1123 20.6325 21.1252 20.5661 21.125H18.0547C17.9883 21.1252 17.9225 21.1123 17.8612 21.0869C17.7998 21.0616 17.744 21.0244 17.697 20.9775C17.6501 20.9305 17.6129 20.8747 17.5876 20.8133C17.5622 20.752 17.5493 20.6862 17.5495 20.6198V16.0269C17.5495 15.3415 17.7504 13.0251 15.7576 13.0251C14.2138 13.0251 13.8992 14.6102 13.8371 15.3223V20.6198C13.8371 20.7525 13.7849 20.8799 13.6918 20.9744C13.5986 21.069 13.472 21.1231 13.3393 21.125H10.9136C10.8473 21.125 10.7817 21.1119 10.7205 21.0865C10.6593 21.0611 10.6037 21.0239 10.5569 20.9769C10.5101 20.93 10.473 20.8743 10.4478 20.813C10.4225 20.7517 10.4097 20.6861 10.4098 20.6198V10.7413C10.4097 10.675 10.4225 10.6093 10.4478 10.548C10.473 10.4867 10.5101 10.431 10.5569 10.3841C10.6037 10.3372 10.6593 10.2999 10.7205 10.2745C10.7817 10.2491 10.8473 10.236 10.9136 10.236H13.3393C13.4733 10.236 13.6018 10.2893 13.6965 10.384C13.7913 10.4787 13.8445 10.6073 13.8445 10.7413V11.5951C14.4177 10.7353 15.2671 10.072 17.0797 10.072C21.095 10.072 21.0713 13.8214 21.0713 15.8807Z" fill="white"/>
</svg>
