<svg width="30" height="30" viewBox="0 0 30 30" fill="none" xmlns="http://www.w3.org/2000/svg">
<path d="M19.6749 14.6071C19.5375 16.83 18.2997 18.572 16.8 20.3694L16.4309 17.0472L17.2448 15.4193C17.3163 15.2764 17.35 15.1175 17.3428 14.9579C17.3356 14.7983 17.2878 14.6431 17.2037 14.5072C17.1197 14.3712 17.0024 14.259 16.8628 14.1812C16.7232 14.1034 16.5661 14.0625 16.4062 14.0625H13.5938C13.4339 14.0625 13.2768 14.1034 13.1372 14.1812C12.9976 14.259 12.8802 14.3712 12.7962 14.5071C12.7122 14.6431 12.6643 14.7982 12.6571 14.9579C12.6499 15.1175 12.6837 15.2764 12.7551 15.4193L13.5691 17.0472L13.2 20.3694C11.7003 18.572 10.4625 16.83 10.3251 14.6071C6.82274 15.578 4.6875 17.9471 4.6875 22.5V26.25C4.6875 26.4986 4.78627 26.7371 4.96209 26.9129C5.1379 27.0887 5.37636 27.1875 5.625 27.1875H24.375C24.6236 27.1875 24.8621 27.0887 25.0379 26.9129C25.2137 26.7371 25.3125 26.4986 25.3125 26.25V22.5C25.3125 17.9471 23.1773 15.578 19.6749 14.6071Z" fill="#1877F2"/>
<path d="M15 12.1875C17.5888 12.1875 19.6875 8.98219 19.6875 6.13449C19.6875 3.2868 17.5888 1.875 15 1.875C12.4112 1.875 10.3125 3.2868 10.3125 6.13449C10.3125 8.98219 12.4112 12.1875 15 12.1875Z" fill="#1877F2"/>
</svg>
