<svg width="30" height="30" viewBox="0 0 30 30" fill="none" xmlns="http://www.w3.org/2000/svg">
<path d="M26.3374 12.0025C26.2649 12.0199 26.2024 12.0652 26.1633 12.1286C26.1242 12.192 26.1117 12.2683 26.1287 12.3408C26.3342 13.2132 26.4383 14.1064 26.4389 15.0026C26.4352 18.0352 25.2289 20.9425 23.0846 23.0869C20.9402 25.2312 18.0329 26.4375 15.0003 26.4412C12.5096 26.4499 10.0857 25.6358 8.10525 24.1253C8.37117 23.7288 8.47741 23.2464 8.4027 22.7749C8.32799 22.3034 8.07784 21.8775 7.70238 21.5827C7.32693 21.2878 6.85391 21.1457 6.37812 21.1849C5.90233 21.2241 5.45892 21.4416 5.13676 21.794C4.8146 22.1463 4.63749 22.6073 4.64092 23.0847C4.64435 23.5621 4.82807 24.0205 5.15526 24.3682C5.48245 24.7158 5.92894 24.927 6.40524 24.9593C6.88155 24.9917 7.35248 24.8428 7.72366 24.5426C9.80889 26.1479 12.3688 27.0142 15.0003 27.0051C16.8133 27.0032 18.6022 26.591 20.2332 25.7995C21.8642 25.008 23.295 23.8577 24.4183 22.4347C25.5416 21.0117 26.3284 19.353 26.7197 17.5828C27.1109 15.8126 27.0966 13.9769 26.6776 12.213C26.6692 12.1768 26.6537 12.1426 26.632 12.1124C26.6104 12.0821 26.5829 12.0565 26.5513 12.0369C26.5197 12.0174 26.4845 12.0043 26.4478 11.9983C26.4111 11.9924 26.3735 11.9938 26.3374 12.0025Z" fill="#1877F2"/>
<path d="M3.562 15.0025C3.56212 12.9679 4.10492 10.9701 5.13443 9.21508C6.16394 7.4601 7.6429 6.01147 9.41883 5.01855C11.1948 4.02562 13.2034 3.52433 15.2376 3.56636C17.2718 3.6084 19.258 4.19223 20.9914 5.25768C20.8125 5.64045 20.7839 6.07646 20.9112 6.47935C21.0385 6.88223 21.3125 7.22261 21.6789 7.43307C22.0453 7.64352 22.4773 7.7087 22.8895 7.6157C23.3017 7.5227 23.6639 7.27829 23.9044 6.9309C24.1449 6.5835 24.2461 6.15845 24.1881 5.73993C24.1301 5.3214 23.917 4.93994 23.591 4.67109C23.2651 4.40223 22.85 4.2656 22.4281 4.28824C22.0062 4.31089 21.6082 4.49117 21.3129 4.79337C19.4947 3.66938 17.4093 3.05132 15.2723 3.00306C13.1353 2.9548 11.0241 3.47809 9.15702 4.51885C7.28994 5.55962 5.73465 7.08009 4.65189 8.92314C3.56913 10.7662 2.99818 12.865 2.99806 15.0025C2.99705 15.7352 3.06375 16.4664 3.19732 17.1868C3.20878 17.2517 3.24278 17.3105 3.29333 17.3528C3.34388 17.3951 3.40774 17.4182 3.47365 17.4181C3.49072 17.418 3.50774 17.4161 3.5244 17.4124C3.5979 17.3991 3.66314 17.3572 3.70578 17.2959C3.74842 17.2346 3.765 17.1589 3.75185 17.0853C3.62514 16.3983 3.56159 15.7011 3.562 15.0025Z" fill="#1877F2"/>
<path d="M13.3086 13.1397V13.3088H16.6922V13.1397C16.6659 10.8538 13.3349 10.8538 13.3086 13.1397Z" fill="#1877F2"/>
<path d="M22.8844 9.14334C19.7113 9.1753 16.6585 7.21467 15.4911 6.36876C15.3478 6.26521 15.1755 6.20947 14.9986 6.20947C14.8218 6.20947 14.6495 6.26521 14.5061 6.36876C13.3388 7.21467 10.2785 9.16778 7.1129 9.14334C7.00048 9.14222 6.88894 9.16336 6.78472 9.20552C6.6805 9.24769 6.58565 9.31005 6.50562 9.38902C6.4256 9.468 6.36199 9.56202 6.31846 9.66568C6.27492 9.76933 6.25232 9.88058 6.25195 9.99301C6.25383 14.3334 7.1223 20.5424 14.617 24.3358C14.7352 24.3961 14.866 24.4275 14.9986 24.4275C15.1313 24.4275 15.262 24.3961 15.3802 24.3358C22.875 20.5424 23.7434 14.3334 23.7453 9.99301C23.7436 9.76623 23.652 9.54938 23.4906 9.39008C23.3292 9.23078 23.1111 9.14204 22.8844 9.14334ZM18.1003 17.7265C18.1003 18.1004 17.9517 18.459 17.6874 18.7234C17.423 18.9878 17.0644 19.1363 16.6904 19.1363H13.3068C12.9329 19.1363 12.5743 18.9878 12.3099 18.7234C12.0455 18.459 11.897 18.1004 11.897 17.7265V14.7188C11.8971 14.4446 11.9772 14.1764 12.1275 13.947C12.2777 13.7176 12.4916 13.5371 12.7429 13.4274V13.136C12.7767 10.119 17.2205 10.119 17.2544 13.136V13.4274C17.5057 13.5371 17.7196 13.7176 17.8698 13.947C18.02 14.1764 18.1001 14.4446 18.1003 14.7188V17.7265Z" fill="#1877F2"/>
<path d="M15.4628 15.8988C15.4586 15.8735 15.4598 15.8477 15.4663 15.823C15.4727 15.7982 15.4844 15.7751 15.5004 15.7552C15.5633 15.6641 15.6002 15.5576 15.607 15.4471C15.6137 15.3366 15.5901 15.2263 15.5387 15.1283C15.4873 15.0302 15.4101 14.9481 15.3153 14.8908C15.2206 14.8335 15.112 14.8032 15.0013 14.8032C14.8906 14.8032 14.782 14.8335 14.6873 14.8908C14.5925 14.9481 14.5153 15.0302 14.4639 15.1283C14.4125 15.2263 14.3889 15.3366 14.3956 15.4471C14.4024 15.5576 14.4392 15.6641 14.5022 15.7552C14.5181 15.7749 14.5297 15.7978 14.5362 15.8223C14.5427 15.8468 14.5439 15.8724 14.5398 15.8975C14.4956 16.1176 14.3706 16.7469 14.2825 17.1838C14.2717 17.2383 14.2732 17.2945 14.2868 17.3483C14.3004 17.4022 14.3257 17.4523 14.361 17.4952C14.3963 17.5381 14.4406 17.5726 14.4909 17.5963C14.5411 17.62 14.5959 17.6323 14.6515 17.6323H15.3507C15.4064 17.6323 15.4613 17.62 15.5116 17.5962C15.5619 17.5724 15.6063 17.5378 15.6416 17.4948C15.6769 17.4518 15.7022 17.4015 15.7156 17.3475C15.7291 17.2935 15.7305 17.2372 15.7196 17.1827L15.4628 15.8988Z" fill="#1877F2"/>
</svg>
