<svg width="30" height="30" viewBox="0 0 30 30" fill="none" xmlns="http://www.w3.org/2000/svg">
<path d="M19.2112 8.05254H17.948V12.6841C17.948 13.1492 17.571 13.5262 17.1059 13.5262H12.8954C12.4303 13.5262 12.0533 13.1492 12.0533 12.6841V8.05254H10.7901C10.6198 8.0525 10.4664 7.94992 10.4012 7.79261C10.336 7.63529 10.372 7.45422 10.4924 7.3338L14.703 3.12328C14.8674 2.95891 15.1339 2.95891 15.2983 3.12328L19.5089 7.3338C19.6292 7.45422 19.6652 7.63529 19.6001 7.79261C19.5349 7.94992 19.3814 8.0525 19.2112 8.05254Z" fill="#1877F2"/>
<path d="M9.10465 15.2106C8.87211 15.2106 8.68359 15.0221 8.68359 14.7895V9.31583C8.68359 9.08329 8.87211 8.89478 9.10465 8.89478C9.33719 8.89478 9.5257 9.08329 9.5257 9.31583V14.7895C9.5257 15.0221 9.33719 15.2106 9.10465 15.2106Z" fill="#1877F2"/>
<path d="M6.57926 17.7367C6.34671 17.7367 6.1582 17.5482 6.1582 17.3156V11.842C6.1582 11.6094 6.34671 11.4209 6.57926 11.4209C6.8118 11.4209 7.00031 11.6094 7.00031 11.842V17.3156C7.00031 17.5482 6.8118 17.7367 6.57926 17.7367Z" fill="#1877F2"/>
<path d="M20.8937 15.2106C20.6612 15.2106 20.4727 15.0221 20.4727 14.7895V9.31583C20.4727 9.08329 20.6612 8.89478 20.8937 8.89478C21.1262 8.89478 21.3148 9.08329 21.3148 9.31583V14.7895C21.3148 15.0221 21.1262 15.2106 20.8937 15.2106Z" fill="#1877F2"/>
<path d="M23.4211 17.7367C23.1885 17.7367 23 17.5482 23 17.3156V11.842C23 11.6094 23.1885 11.4209 23.4211 11.4209C23.6536 11.4209 23.8421 11.6094 23.8421 11.842V17.3156C23.8421 17.5482 23.6536 17.7367 23.4211 17.7367Z" fill="#1877F2"/>
<path d="M26.3687 22.1578C26.3687 22.5182 25.9653 22.9157 25.2617 23.2525C23.8779 23.8209 22.3905 24.0934 20.895 24.0525C19.605 24.0717 18.3207 23.8781 17.0938 23.4795C19.3817 23.146 21.3161 22.2647 21.3161 20.8946V20.2715C24.2344 20.3561 26.3687 21.3043 26.3687 22.1578Z" fill="#1877F2"/>
<path d="M9.52734 19.3599C9.76076 19.5308 10.0105 19.6782 10.273 19.7999C11.7698 20.4223 13.3805 20.7235 15.001 20.6841C16.6215 20.7235 18.2323 20.4223 19.729 19.7999C19.9915 19.6782 20.2413 19.5308 20.4747 19.3599V20.8946C20.4747 21.7889 18.1337 22.7893 15.001 22.7893C11.8684 22.7893 9.52734 21.7889 9.52734 20.8946V19.3599Z" fill="#1877F2"/>
<path d="M15.001 16.0525C18.1337 16.0525 20.4747 17.0529 20.4747 17.9472C20.4747 18.3076 20.0713 18.7051 19.3678 19.042C17.9839 19.6103 16.4965 19.8828 15.001 19.842C13.5056 19.8828 12.0181 19.6103 10.6343 19.042C9.93071 18.7051 9.52734 18.3076 9.52734 17.9472C9.52734 16.6205 13.2044 16.0525 15.001 16.0525Z" fill="#1877F2"/>
<path d="M8.68349 20.2715V20.8946C8.68349 22.2643 10.6174 23.146 12.9054 23.4795C11.6785 23.8781 10.3944 24.0717 9.10454 24.0525C7.6091 24.0934 6.12165 23.8209 4.73781 23.2525C4.03423 22.9157 3.63086 22.5182 3.63086 22.1578C3.63086 21.3043 5.76517 20.3561 8.68349 20.2715Z" fill="#1877F2"/>
<path d="M9.10454 27C5.97191 27 3.63086 25.9996 3.63086 25.1053V23.5706C3.86428 23.7415 4.11406 23.8889 4.37654 24.0106C5.87328 24.633 7.48402 24.9342 9.10454 24.8948C10.7261 24.9348 12.3379 24.6336 13.8355 24.0106C14.0692 23.9002 14.2931 23.7703 14.505 23.6223H14.5782V25.1053C14.5782 25.9996 12.2372 27 9.10454 27Z" fill="#1877F2"/>
<path d="M20.8936 27C17.761 27 15.4199 25.9996 15.4199 25.1053V23.6236H15.4932C15.7064 23.7722 15.9318 23.9026 16.1669 24.0135C17.6634 24.6348 19.2737 24.935 20.8936 24.8948C22.5141 24.9342 24.1249 24.633 25.6216 24.0106C25.8841 23.8889 26.1339 23.7415 26.3673 23.5706V25.1053C26.3673 25.9996 24.0262 27 20.8936 27Z" fill="#1877F2"/>
</svg>
