<svg width="20" height="20" viewBox="0 0 20 20" fill="none" xmlns="http://www.w3.org/2000/svg">
<g clip-path="url(#clip0_4447_708)">
<path d="M10 -0.00012207C8.02219 -0.00012207 6.08879 0.586368 4.4443 1.68518C2.79981 2.784 1.51809 4.34578 0.761209 6.17304C0.00433284 8.0003 -0.1937 10.011 0.192152 11.9508C0.578004 13.8906 1.53041 15.6724 2.92894 17.0709C4.32746 18.4695 6.10929 19.4219 8.0491 19.8077C9.98891 20.1936 11.9996 19.9955 13.8268 19.2387C15.6541 18.4818 17.2159 17.2001 18.3147 15.5556C19.4135 13.9111 20 11.9777 20 9.99988C20 8.68666 19.7413 7.3863 19.2388 6.17304C18.7362 4.95979 17.9997 3.85739 17.0711 2.92881C16.1425 2.00022 15.0401 1.26363 13.8268 0.761082C12.6136 0.258536 11.3132 -0.00012207 10 -0.00012207ZM14.71 7.70988L8.71 13.7099C8.61704 13.8036 8.50644 13.878 8.38458 13.9288C8.26272 13.9795 8.13201 14.0057 8 14.0057C7.86799 14.0057 7.73728 13.9795 7.61542 13.9288C7.49357 13.878 7.38296 13.8036 7.29 13.7099L5.29 11.7099C5.19676 11.6166 5.1228 11.5059 5.07234 11.3841C5.02188 11.2623 4.99591 11.1317 4.99591 10.9999C4.99591 10.868 5.02188 10.7374 5.07234 10.6156C5.1228 10.4938 5.19676 10.3831 5.29 10.2899C5.38324 10.1966 5.49393 10.1227 5.61575 10.0722C5.73758 10.0218 5.86814 9.99578 6 9.99578C6.13186 9.99578 6.26243 10.0218 6.38425 10.0722C6.50607 10.1227 6.61676 10.1966 6.71 10.2899L8 11.5899L13.29 6.28988C13.4783 6.10157 13.7337 5.99578 14 5.99578C14.2663 5.99578 14.5217 6.10157 14.71 6.28988C14.8983 6.47818 15.0041 6.73357 15.0041 6.99988C15.0041 7.26618 14.8983 7.52157 14.71 7.70988Z" fill="#1877F2"/>
</g>
<defs>
<clipPath id="clip0_4447_708">
<rect width="20" height="20" fill="white"/>
</clipPath>
</defs>
</svg>
