<svg width="30" height="30" viewBox="0 0 30 30" fill="none" xmlns="http://www.w3.org/2000/svg">
<path d="M25.0183 7.81059L19.6612 2.45351C19.4576 2.24994 19.1897 2.14282 18.9005 2.14282H7.88616C6.11834 2.14282 4.67188 3.5785 4.67188 5.35711V24.6428C4.67188 26.4214 6.11834 27.8571 7.88616 27.8571H22.1148C23.8933 27.8571 25.3291 26.4214 25.3291 24.6428V8.57139C25.3291 8.28209 25.2219 8.01423 25.0183 7.81059ZM10.0294 7.49591H12.957C13.5487 7.49591 14.0284 7.97565 14.0284 8.56734C14.0284 9.15903 13.5487 9.63877 12.957 9.63877H10.0294C9.43772 9.63877 8.95798 9.15903 8.95798 8.56734C8.95798 7.97565 9.43772 7.49591 10.0294 7.49591ZM10.0294 11.7816H16.8022C17.3939 11.7816 17.8736 12.2614 17.8736 12.8531C17.8736 13.4447 17.3939 13.9245 16.8022 13.9245H10.0294C9.43772 13.9245 8.95798 13.4447 8.95798 12.8531C8.95798 12.2614 9.43772 11.7816 10.0294 11.7816ZM20.8086 18.2102L17.633 22.1067C17.4274 22.3583 17.1135 22.4922 16.7938 22.5011C16.469 22.4985 16.1624 22.3484 15.961 22.0936L13.589 19.0875L10.8246 22.148C10.6127 22.3819 10.3213 22.5011 10.0289 22.5011C9.77306 22.5011 9.51619 22.4101 9.31111 22.2249C8.87218 21.8278 8.83766 21.1503 9.23421 20.7114L12.8492 16.7098C13.0611 16.4764 13.3651 16.3472 13.68 16.3572C13.9955 16.3676 14.29 16.5167 14.4857 16.7642L16.8158 19.7174L19.147 16.8563C19.5216 16.398 20.1965 16.331 20.6548 16.7025C21.1136 17.0765 21.1821 17.7514 20.8086 18.2102Z" fill="#1877F2"/>
</svg>
