<svg width="30" height="30" viewBox="0 0 30 30" fill="none" xmlns="http://www.w3.org/2000/svg">
<path fill-rule="evenodd" clip-rule="evenodd" d="M13.0712 10.6492C13.5663 10.5127 13.9155 10.0459 13.9155 9.51377C13.9155 8.86684 13.4051 8.339 12.7796 8.339H12.6099C12.4 8.339 12.2269 8.15993 12.2269 7.94291C12.2269 7.72588 12.4 7.54682 12.6099 7.54682H12.8489C12.9766 7.54682 13.0856 7.60581 13.1602 7.71265C13.2821 7.8865 13.5171 7.92534 13.6852 7.79933C13.8534 7.67332 13.8909 7.43021 13.769 7.25635C13.6025 7.01811 13.3494 6.85029 13.0712 6.7914V6.48642C13.0712 6.27139 12.9026 6.09705 12.6947 6.09705C12.4868 6.09705 12.3183 6.27139 12.3183 6.48642V6.80751C11.8232 6.94403 11.4739 7.41079 11.4739 7.94291C11.4739 8.58985 11.9843 9.11774 12.6098 9.11774H12.7796C12.9895 9.11774 13.1625 9.29675 13.1625 9.51382C13.1625 9.7309 12.9895 9.90991 12.7796 9.90991H12.5405C12.4128 9.90991 12.3039 9.85092 12.2292 9.74409C12.1074 9.57023 11.8723 9.53139 11.7042 9.6574C11.5361 9.78341 11.4986 10.0265 11.6204 10.2004C11.787 10.4386 12.04 10.6065 12.3183 10.6653V10.9703C12.3183 11.1853 12.4868 11.3597 12.6947 11.3597C12.9026 11.3597 13.0712 11.1853 13.0712 10.9703V10.6492ZM9.73807 18.9779C7.59619 18.9779 5.85991 20.7737 5.85991 22.989C5.85991 25.2042 7.59624 27 9.73807 27C11.88 27 13.6162 25.2042 13.6163 22.989C13.6163 20.7737 11.88 18.9779 9.73807 18.9779ZM12.0092 22.0788L9.29821 24.8828C9.04918 25.1403 8.63779 25.0998 8.43793 24.8038L7.26941 23.2829C7.07628 23.0316 7.11661 22.6659 7.35962 22.4661C7.60259 22.2664 7.95614 22.3081 8.14932 22.5594L8.94753 23.5984L11.2129 21.2553C11.4328 21.0279 11.7894 21.0279 12.0092 21.2553C12.2291 21.4827 12.2291 21.8515 12.0092 22.0788ZM4.82847 3C3.82278 3 3 3.85092 3 4.89107V6.89336H6.65685V4.89107C6.65685 3.85097 5.83407 3 4.82847 3ZM25.1716 26.316H13.0691C13.8739 25.4543 14.3692 24.2815 14.3692 22.989C14.3692 22.7973 14.358 22.6084 14.3368 22.4227H27V24.425C27 25.4651 26.1772 26.316 25.1716 26.316ZM22.4956 3H6.64715C7.11769 3.48408 7.40979 4.15356 7.40979 4.89107V7.6721V18.848C8.09388 18.4356 8.88927 18.1992 9.73807 18.1992C11.1315 18.1992 12.3812 18.836 13.2302 19.8434V18.4933C13.2302 18.3325 13.357 18.2013 13.5126 18.2013H14.868C15.0236 18.2013 15.1504 18.3325 15.1504 18.4933V21.6439H16.5834V16.6752C16.5834 16.5144 16.7102 16.3832 16.8657 16.3832H18.2212C18.3768 16.3832 18.5036 16.5144 18.5036 16.6752V21.6439H19.9366V14.8573C19.9366 14.6964 20.0634 14.5653 20.2189 14.5653H21.5744C21.7299 14.5653 21.8568 14.6964 21.8568 14.8573V21.6439H24.324V4.89107C24.324 3.85097 23.5013 3 22.4956 3ZM9.04767 8.72837C9.04767 6.64514 10.6805 4.95634 12.6947 4.95634C14.7089 4.95634 16.3418 6.64514 16.3418 8.72837C16.3418 10.8116 14.7089 12.5004 12.6947 12.5004C10.6805 12.5004 9.04767 10.8116 9.04767 8.72837ZM20.3181 11.9238L19.7742 13.5765C19.7076 13.7798 19.4943 13.8887 19.2977 13.8198C19.1011 13.7509 18.9958 13.5303 19.0624 13.327L19.2901 12.6353L11.0568 17.5516C10.8774 17.6591 10.6476 17.5958 10.5436 17.4102C10.4397 17.2245 10.5009 16.9869 10.6804 16.8793L18.914 11.9628L18.2228 11.8212C18.019 11.7801 17.886 11.5758 17.9258 11.3649C17.9656 11.1541 18.1631 11.0165 18.367 11.0577L20.0399 11.4003C20.2713 11.4469 20.403 11.6987 20.3181 11.9238ZM22.604 9.77455H17.9443C17.7364 9.77455 17.5678 9.60021 17.5678 9.38518C17.5678 9.17016 17.7364 8.99581 17.9443 8.99581H22.604C22.8119 8.99581 22.9805 9.17016 22.9805 9.38518C22.9805 9.60021 22.8119 9.77455 22.604 9.77455ZM22.604 8.07466H17.9443C17.7364 8.07466 17.5678 7.90032 17.5678 7.68529C17.5678 7.47026 17.7364 7.29592 17.9443 7.29592H22.604C22.8119 7.29592 22.9805 7.47026 22.9805 7.68529C22.9804 7.90032 22.8119 8.07466 22.604 8.07466ZM22.604 6.37472H19.5029C19.295 6.37472 19.1264 6.20038 19.1264 5.98535C19.1264 5.77032 19.295 5.59598 19.5029 5.59598H22.604C22.8119 5.59598 22.9805 5.77032 22.9805 5.98535C22.9804 6.20043 22.8119 6.37472 22.604 6.37472Z" fill="#1877F2"/>
</svg>
