<svg width="30" height="30" viewBox="0 0 30 30" fill="none" xmlns="http://www.w3.org/2000/svg">
<path d="M4 6.35714V23.6429C4.00187 24.2674 4.25081 24.8659 4.69245 25.3075C5.1341 25.7492 5.73256 25.9981 6.35714 26H18.1429C18.7674 25.9981 19.3659 25.7492 19.8075 25.3075C20.2492 24.8659 20.4981 24.2674 20.5 23.6429V4H6.35714C5.73256 4.00187 5.1341 4.25081 4.69245 4.69245C4.25081 5.1341 4.00187 5.73256 4 6.35714ZM7.92857 13.8214H7.14286C6.93447 13.8214 6.73462 13.7386 6.58727 13.5913C6.43992 13.4439 6.35714 13.2441 6.35714 13.0357C6.35714 12.8273 6.43992 12.6275 6.58727 12.4801C6.73462 12.3328 6.93447 12.25 7.14286 12.25H7.92857C8.13696 12.25 8.3368 12.3328 8.48416 12.4801C8.63151 12.6275 8.71429 12.8273 8.71429 13.0357C8.71429 13.2441 8.63151 13.4439 8.48416 13.5913C8.3368 13.7386 8.13696 13.8214 7.92857 13.8214ZM8.71429 16.9643C8.71429 17.1727 8.63151 17.3725 8.48416 17.5199C8.3368 17.6672 8.13696 17.75 7.92857 17.75H7.14286C6.93447 17.75 6.73462 17.6672 6.58727 17.5199C6.43992 17.3725 6.35714 17.1727 6.35714 16.9643C6.35714 16.7559 6.43992 16.5561 6.58727 16.4087C6.73462 16.2614 6.93447 16.1786 7.14286 16.1786H7.92857C8.13696 16.1786 8.3368 16.2614 8.48416 16.4087C8.63151 16.5561 8.71429 16.7559 8.71429 16.9643ZM7.92857 9.89286H7.14286C6.93447 9.89286 6.73462 9.81008 6.58727 9.66273C6.43992 9.51538 6.35714 9.31553 6.35714 9.10714C6.35714 8.89876 6.43992 8.69891 6.58727 8.55156C6.73462 8.40421 6.93447 8.32143 7.14286 8.32143H7.92857C8.13696 8.32143 8.3368 8.40421 8.48416 8.55156C8.63151 8.69891 8.71429 8.89876 8.71429 9.10714C8.71429 9.31553 8.63151 9.51538 8.48416 9.66273C8.3368 9.81008 8.13696 9.89286 7.92857 9.89286ZM7.14286 20.1071H7.92857C8.13696 20.1071 8.3368 20.1899 8.48416 20.3373C8.63151 20.4846 8.71429 20.6845 8.71429 20.8929C8.71429 21.1012 8.63151 21.3011 8.48416 21.4484C8.3368 21.5958 8.13696 21.6786 7.92857 21.6786H7.14286C6.93447 21.6786 6.73462 21.5958 6.58727 21.4484C6.43992 21.3011 6.35714 21.1012 6.35714 20.8929C6.35714 20.6845 6.43992 20.4846 6.58727 20.3373C6.73462 20.1899 6.93447 20.1071 7.14286 20.1071ZM17.3571 21.6786H11.0714C10.863 21.6786 10.6632 21.5958 10.5158 21.4484C10.3685 21.3011 10.2857 21.1012 10.2857 20.8929C10.2857 20.6845 10.3685 20.4846 10.5158 20.3373C10.6632 20.1899 10.863 20.1071 11.0714 20.1071H17.3571C17.5655 20.1071 17.7654 20.1899 17.9127 20.3373C18.0601 20.4846 18.1429 20.6845 18.1429 20.8929C18.1429 21.1012 18.0601 21.3011 17.9127 21.4484C17.7654 21.5958 17.5655 21.6786 17.3571 21.6786ZM11.0714 16.1786H17.3571C17.5655 16.1786 17.7654 16.2614 17.9127 16.4087C18.0601 16.5561 18.1429 16.7559 18.1429 16.9643C18.1429 17.1727 18.0601 17.3725 17.9127 17.5199C17.7654 17.6672 17.5655 17.75 17.3571 17.75H11.0714C10.863 17.75 10.6632 17.6672 10.5158 17.5199C10.3685 17.3725 10.2857 17.1727 10.2857 16.9643C10.2857 16.7559 10.3685 16.5561 10.5158 16.4087C10.6632 16.2614 10.863 16.1786 11.0714 16.1786ZM10.2857 13.0357C10.2857 12.8273 10.3685 12.6275 10.5158 12.4801C10.6632 12.3328 10.863 12.25 11.0714 12.25H17.3571C17.5655 12.25 17.7654 12.3328 17.9127 12.4801C18.0601 12.6275 18.1429 12.8273 18.1429 13.0357C18.1429 13.2441 18.0601 13.4439 17.9127 13.5913C17.7654 13.7386 17.5655 13.8214 17.3571 13.8214H11.0714C10.863 13.8214 10.6632 13.7386 10.5158 13.5913C10.3685 13.4439 10.2857 13.2441 10.2857 13.0357ZM17.3571 9.89286H11.0714C10.863 9.89286 10.6632 9.81008 10.5158 9.66273C10.3685 9.51538 10.2857 9.31553 10.2857 9.10714C10.2857 8.89876 10.3685 8.69891 10.5158 8.55156C10.6632 8.40421 10.863 8.32143 11.0714 8.32143H17.3571C17.5655 8.32143 17.7654 8.40421 17.9127 8.55156C18.0601 8.69891 18.1429 8.89876 18.1429 9.10714C18.1429 9.31553 18.0601 9.51538 17.9127 9.66273C17.7654 9.81008 17.5655 9.89286 17.3571 9.89286ZM26 6.35714V14.2143C25.9981 14.8389 25.7492 15.4373 25.3075 15.879C24.8659 16.3206 24.2674 16.5696 23.6429 16.5714H22.0714V4H23.6429C24.2674 4.00187 24.8659 4.25081 25.3075 4.69245C25.7492 5.1341 25.9981 5.73256 26 6.35714Z" fill="#1877F2"/>
</svg>
