<svg width="20" height="20" viewBox="0 0 20 20" fill="none" xmlns="http://www.w3.org/2000/svg">
<g clip-path="url(#clip0_4234_13985)">
<path d="M17.1849 7.04134C16.3099 3.19134 12.9515 1.45801 10.0015 1.45801C10.0015 1.45801 10.0015 1.45801 9.99321 1.45801C7.05154 1.45801 3.68488 3.18301 2.80988 7.03301C1.83488 11.333 4.46821 14.9747 6.85154 17.2663C7.73488 18.1163 8.86821 18.5413 10.0015 18.5413C11.1349 18.5413 12.2682 18.1163 13.1432 17.2663C15.5265 14.9747 18.1599 11.3413 17.1849 7.04134ZM10.0015 11.2163C8.55154 11.2163 7.37654 10.0413 7.37654 8.59134C7.37654 7.14134 8.55154 5.96634 10.0015 5.96634C11.4515 5.96634 12.6265 7.14134 12.6265 8.59134C12.6265 10.0413 11.4515 11.2163 10.0015 11.2163Z" fill="white"/>
</g>
<defs>
<clipPath id="clip0_4234_13985">
<rect width="20" height="20" fill="white"/>
</clipPath>
</defs>
</svg>
