<svg width="125" height="25" viewBox="0 0 125 25" fill="none" xmlns="http://www.w3.org/2000/svg">
<g clip-path="url(#clip0_4447_2256)">
<mask id="mask0_4447_2256" style="mask-type:luminance" maskUnits="userSpaceOnUse" x="0" y="0" width="133" height="25">
<path d="M132.82 0H0V24.375H132.82V0Z" fill="white"/>
</mask>
<g mask="url(#mask0_4447_2256)">
<path d="M60.3281 21.0156V19.5312C59.3906 20.625 58.0625 21.3281 56.5781 21.25C54.3125 21.25 52.5156 19.8437 52.5156 17.4218C52.5156 14.4531 55.25 13.3593 57.9844 13.125L59 12.9687C60.0156 12.8906 60.4063 12.3437 60.4063 11.6406C60.4063 10.7812 59.625 10.1562 58.375 10.1562C57.0469 10.2343 55.875 10.8593 55.0938 11.9531L53.5313 10.0781C54.7813 8.59372 56.5781 7.81246 58.5313 7.8906C61.5 7.8906 63.1406 9.37497 63.1406 11.9531V21.0156H60.3281ZM60.3281 14.9218L58.375 15.1562C56.7344 15.3906 55.25 15.9375 55.25 17.3437C55.3281 18.3593 56.1094 19.0625 57.125 19.0625H57.2031C58.4531 18.9843 59.625 18.3593 60.3281 17.3437V14.9218Z" fill="white" fill-opacity="0.8"/>
<path d="M68.453 21.0156H65.6406V8.28125H68.453V9.6875C69.5468 8.59375 71.0312 7.96875 72.5937 7.96875C74.078 7.96875 76.1874 8.82813 76.1874 11.9531V21.0156H73.3749V12.6563C73.3749 11.4063 72.828 10.3125 71.578 10.3125C70.4062 10.4688 69.3124 11.0156 68.453 11.7969V21.0156Z" fill="white" fill-opacity="0.8"/>
<path d="M86.1094 8.28125H88.9219V21.0156H86.0312V19.6094C85.0937 20.625 83.7656 21.25 82.3594 21.25C80.7188 21.25 78.4531 20.3906 78.4531 17.1875V8.28125H81.2656V16.3281C81.2656 17.8125 81.8906 18.8281 83.2187 18.8281C84.3906 18.75 85.4063 18.2031 86.1875 17.2656L86.1094 8.28125Z" fill="white" fill-opacity="0.8"/>
<path d="M94.8594 21.0156H92.0469V4.21875L94.8594 1.40625V21.0156Z" fill="white" fill-opacity="0.8"/>
<path d="M99.3906 2.5C100.406 2.5 101.188 3.28125 101.188 4.29688C101.188 5.3125 100.406 6.09375 99.3906 6.09375C98.375 6.09375 97.5938 5.3125 97.5938 4.29688C97.5938 3.35938 98.4531 2.57813 99.3906 2.5ZM100.875 21.0157H97.9062V8.28129H100.875V21.0157Z" fill="white" fill-opacity="0.8"/>
<path d="M109.781 10.625H107.125V21.0156H104.313V10.625H102.594V8.28127H104.313V5.625C104.234 3.51562 105.797 1.71875 107.906 1.64062C108.063 1.64062 108.219 1.64062 108.297 1.64062C109.313 1.64062 110.25 1.875 111.188 2.34375L110.328 4.53125C109.859 4.21875 109.313 4.0625 108.766 4.0625C107.906 4.0625 107.125 4.76562 107.125 5.70312C107.125 5.78125 107.125 5.78125 107.125 5.85937V8.35939H110.484L109.781 10.625Z" fill="white" fill-opacity="0.8"/>
<path d="M113.141 15.3906C113.062 17.2656 114.469 18.8281 116.344 18.9062C116.344 18.9062 116.344 18.9062 116.422 18.9062C117.75 18.8281 119 18.125 119.703 16.9531L121.422 18.5937C120.172 20.3125 118.219 21.3281 116.109 21.3281C112.437 21.3281 110.172 18.5937 110.172 14.6875C110.172 10.8594 112.594 8.04688 116.187 8.04688C119.547 8.04688 121.969 10.2344 121.812 15.4687H113.141V15.3906ZM118.922 13.2812C119.078 11.7187 117.906 10.3906 116.344 10.2344C116.266 10.2344 116.266 10.2344 116.187 10.2344C114.547 10.3125 113.297 11.6406 113.219 13.2812H118.922Z" fill="white" fill-opacity="0.8"/>
<path d="M36.4219 21.0156H33.2969V3.35938H36.5781L41.8906 12.1093L47.125 3.35938H50.4062V21.0937H47.2812V8.51559H47.2031L41.8906 17.4218L36.5 8.51559V21.0156H36.4219Z" fill="white" fill-opacity="0.8"/>
<path d="M17.7344 4.45312V24.375L22.1094 19.9219V0L17.7344 4.45312Z" fill="white" fill-opacity="0.3"/>
<path d="M8.82812 24.375L13.2812 19.9219V0L8.82812 4.45312V24.375Z" fill="white" fill-opacity="0.3"/>
<path d="M0 24.375L4.45312 19.9219V0L0 4.45312V24.375Z" fill="white" fill-opacity="0.3"/>
</g>
</g>
<defs>
<clipPath id="clip0_4447_2256">
<rect width="125" height="25" fill="white"/>
</clipPath>
</defs>
</svg>
