<svg width="20" height="20" viewBox="0 0 20 20" fill="none" xmlns="http://www.w3.org/2000/svg">
<path d="M14.1719 2.91699H5.83854C3.33854 2.91699 1.67188 4.16699 1.67188 7.08366V12.917C1.67188 15.8337 3.33854 17.0837 5.83854 17.0837H14.1719C16.6719 17.0837 18.3385 15.8337 18.3385 12.917V7.08366C18.3385 4.16699 16.6719 2.91699 14.1719 2.91699ZM14.5635 7.99199L11.9552 10.0753C11.4052 10.517 10.7052 10.7337 10.0052 10.7337C9.30521 10.7337 8.59687 10.517 8.05521 10.0753L5.44688 7.99199C5.18021 7.77533 5.13854 7.37533 5.34687 7.10866C5.56354 6.84199 5.95521 6.79199 6.22187 7.00866L8.83021 9.09199C9.46354 9.60033 10.5385 9.60033 11.1719 9.09199L13.7802 7.00866C14.0469 6.79199 14.4469 6.83366 14.6552 7.10866C14.8719 7.37533 14.8302 7.77533 14.5635 7.99199Z" fill="white"/>
</svg>
